<?xml version="1.0" encoding="UTF-8"?>
<svg xmlns="http://www.w3.org/2000/svg" xmlns:xlink="http://www.w3.org/1999/xlink" viewBox="0 0 159.26 161.69">
  <defs>
    <style>
      .cls-1 {
        fill: #e6e6e6;
      }

      .cls-2 {
        fill: url(#linear-gradient);
      }

      .cls-3 {
        isolation: isolate;
      }

      .cls-4 {
        mix-blend-mode: multiply;
      }

      .cls-4, .cls-5 {
        fill: #22b501;
      }

      .cls-6 {
        fill: #fff;
      }

      .cls-7 {
        fill: #0100be;
      }

      .cls-8 {
        fill: #666;
      }

      .cls-9 {
        fill: #040404;
      }

      .cls-10 {
        fill: #f2f2f2;
      }

      .cls-11 {
        fill: #585858;
      }

      .cls-12 {
        fill: #4c4c4c;
      }

      .cls-13 {
        fill: #999;
      }
    </style>
    <linearGradient id="linear-gradient" x1="40.62" y1="19.38" x2="121.38" y2="100.14" gradientUnits="userSpaceOnUse">
      <stop offset="0" stop-color="#30bebf"/>
      <stop offset=".5" stop-color="#53a8a9"/>
      <stop offset=".6" stop-color="#4aa3a4"/>
      <stop offset=".75" stop-color="#319899"/>
      <stop offset=".95" stop-color="#0a8586"/>
      <stop offset="1" stop-color="#008182"/>
    </linearGradient>
  </defs>
  <g class="cls-3">
    <g id="Layer_2">
      <g id="_x31_">
        <g>
          <polygon class="cls-9" points="0 161.69 0 150.84 23.08 127.76 23.08 109.21 48.61 83.69 159.26 83.58 159.26 114.91 112.48 161.69 0 161.69"/>
          <g>
            <g>
              <g>
                <polygon class="cls-12" points="46.22 85.51 23.09 108.65 134.19 108.65 157.33 85.51 46.22 85.51"/>
                <rect class="cls-1" x="23.09" y="108.65" width="111.11" height="28.03"/>
                <rect class="cls-13" x="23.09" y="124.18" width="111.11" height="3.01"/>
                <polygon class="cls-8" points="134.19 136.67 134.19 108.65 157.33 85.51 157.33 113.54 134.19 136.67"/>
              </g>
              <g>
                <rect class="cls-5" x="30.72" y="115.1" width="10.23" height="5.44"/>
                <polygon class="cls-4" points="38.53 115.1 38.53 118.72 30.72 118.72 30.72 120.54 40.95 120.54 40.95 115.1 38.53 115.1"/>
              </g>
              <g>
                <rect class="cls-11" x="101.1" y="115.1" width="30.18" height="5.44"/>
                <rect class="cls-9" x="101.1" y="117.82" width="30.18" height="2.72"/>
              </g>
            </g>
            <g>
              <g>
                <polygon class="cls-1" points="23.09 127.19 0 150.28 111.11 150.28 134.19 127.19 23.09 127.19"/>
                <rect class="cls-13" y="150.28" width="111.11" height="9.48"/>
                <polygon class="cls-8" points="111.11 159.76 111.11 150.28 134.19 127.19 134.19 136.67 111.11 159.76"/>
              </g>
              <g>
                <path class="cls-8" d="M13.01,147.96c-.25,0-.5-.09-.69-.28-.38-.38-.38-.99,0-1.37l2.06-2.06c.38-.38.99-.38,1.37,0,.38.38.38.99,0,1.37l-2.06,2.06c-.19.19-.44.28-.69.28ZM17.8,143.16c-.25,0-.5-.09-.69-.28-.38-.38-.38-.99,0-1.37l2.06-2.06c.38-.38.99-.38,1.37,0s.38.99,0,1.37l-2.06,2.06c-.19.19-.44.28-.69.28ZM22.6,138.36c-.25,0-.5-.09-.69-.28-.38-.38-.38-.99,0-1.37l2.06-2.06c.38-.38.99-.38,1.37,0s.38.99,0,1.37l-2.06,2.06c-.19.19-.44.28-.69.28ZM27.4,133.57c-.25,0-.5-.09-.69-.28-.38-.38-.38-.99,0-1.37l1.87-1.87c.38-.38.99-.38,1.37,0,.38.38.38.99,0,1.37l-1.87,1.87c-.19.19-.44.28-.69.28Z"/>
                <path class="cls-8" d="M22.19,147.96c-.25,0-.5-.09-.69-.28-.38-.38-.38-.99,0-1.37l2.06-2.06c.38-.38.99-.38,1.37,0,.38.38.38.99,0,1.37l-2.06,2.06c-.19.19-.44.28-.69.28ZM26.99,143.16c-.25,0-.5-.09-.69-.28-.38-.38-.38-.99,0-1.37l2.06-2.06c.38-.38.99-.38,1.37,0,.38.38.38.99,0,1.37l-2.06,2.06c-.19.19-.44.28-.69.28ZM31.78,138.36c-.25,0-.5-.09-.69-.28-.38-.38-.38-.99,0-1.37l2.06-2.06c.38-.38.99-.38,1.37,0,.38.38.38.99,0,1.37l-2.06,2.06c-.19.19-.44.28-.69.28ZM36.58,133.57c-.25,0-.5-.09-.69-.28-.38-.38-.38-.99,0-1.37l1.87-1.87c.38-.38.99-.38,1.37,0s.38.99,0,1.37l-1.87,1.87c-.19.19-.44.28-.69.28Z"/>
                <path class="cls-8" d="M31.37,147.96c-.25,0-.5-.09-.69-.28-.38-.38-.38-.99,0-1.37l2.06-2.06c.38-.38.99-.38,1.37,0,.38.38.38.99,0,1.37l-2.06,2.06c-.19.19-.44.28-.69.28ZM36.17,143.16c-.25,0-.5-.09-.69-.28-.38-.38-.38-.99,0-1.37l2.06-2.06c.38-.38.99-.38,1.37,0s.38.99,0,1.37l-2.06,2.06c-.19.19-.44.28-.69.28ZM40.97,138.36c-.25,0-.5-.09-.69-.28-.38-.38-.38-.99,0-1.37l2.06-2.06c.38-.38.99-.38,1.37,0,.38.38.38.99,0,1.37l-2.06,2.06c-.19.19-.44.28-.69.28ZM45.76,133.57c-.25,0-.5-.09-.69-.28-.38-.38-.38-.99,0-1.37l1.87-1.87c.38-.38.99-.38,1.37,0,.38.38.38.99,0,1.37l-1.87,1.87c-.19.19-.44.28-.69.28Z"/>
                <path class="cls-8" d="M40.55,147.96c-.25,0-.5-.09-.69-.28-.38-.38-.38-.99,0-1.37l2.06-2.06c.38-.38.99-.38,1.37,0,.38.38.38.99,0,1.37l-2.06,2.06c-.19.19-.44.28-.69.28ZM45.35,143.16c-.25,0-.5-.09-.69-.28-.38-.38-.38-.99,0-1.37l2.06-2.06c.38-.38.99-.38,1.37,0,.38.38.38.99,0,1.37l-2.06,2.06c-.19.19-.44.28-.69.28ZM50.15,138.36c-.25,0-.5-.09-.69-.28-.38-.38-.38-.99,0-1.37l2.06-2.06c.38-.38.99-.38,1.37,0,.38.38.38.99,0,1.37l-2.06,2.06c-.19.19-.44.28-.69.28ZM54.95,133.57c-.25,0-.5-.09-.69-.28-.38-.38-.38-.99,0-1.37l1.87-1.87c.38-.38.99-.38,1.37,0s.38.99,0,1.37l-1.87,1.87c-.19.19-.44.28-.69.28Z"/>
                <path class="cls-8" d="M49.73,147.96c-.25,0-.5-.09-.69-.28-.38-.38-.38-.99,0-1.37l2.06-2.06c.38-.38.99-.38,1.37,0,.38.38.38.99,0,1.37l-2.06,2.06c-.19.19-.44.28-.69.28ZM54.53,143.16c-.25,0-.5-.09-.69-.28-.38-.38-.38-.99,0-1.37l2.06-2.06c.38-.38.99-.38,1.37,0,.38.38.38.99,0,1.37l-2.06,2.06c-.19.19-.44.28-.69.28ZM59.33,138.36c-.25,0-.5-.09-.69-.28-.38-.38-.38-.99,0-1.37l2.06-2.06c.38-.38.99-.38,1.37,0,.38.38.38.99,0,1.37l-2.06,2.06c-.19.19-.44.28-.69.28ZM64.13,133.57c-.25,0-.5-.09-.69-.28-.38-.38-.38-.99,0-1.37l1.87-1.87c.38-.38.99-.38,1.37,0,.38.38.38.99,0,1.37l-1.87,1.87c-.19.19-.44.28-.69.28Z"/>
                <path class="cls-8" d="M58.91,147.96c-.25,0-.5-.09-.69-.28-.38-.38-.38-.99,0-1.37l2.06-2.06c.38-.38.99-.38,1.37,0,.38.38.38.99,0,1.37l-2.06,2.06c-.19.19-.44.28-.69.28ZM63.71,143.16c-.25,0-.5-.09-.69-.28-.38-.38-.38-.99,0-1.37l2.06-2.06c.38-.38.99-.38,1.37,0s.38.99,0,1.37l-2.06,2.06c-.19.19-.44.28-.69.28ZM68.51,138.36c-.25,0-.5-.09-.69-.28-.38-.38-.38-.99,0-1.37l2.06-2.06c.38-.38.99-.38,1.37,0,.38.38.38.99,0,1.37l-2.06,2.06c-.19.19-.44.28-.69.28ZM73.31,133.57c-.25,0-.5-.09-.69-.28-.38-.38-.38-.99,0-1.37l1.87-1.87c.38-.38.99-.38,1.37,0,.38.38.38.99,0,1.37l-1.87,1.87c-.19.19-.44.28-.69.28Z"/>
                <path class="cls-8" d="M68.1,147.96c-.25,0-.5-.09-.69-.28-.38-.38-.38-.99,0-1.37l2.06-2.06c.38-.38.99-.38,1.37,0,.38.38.38.99,0,1.37l-2.06,2.06c-.19.19-.44.28-.69.28ZM72.89,143.16c-.25,0-.5-.09-.69-.28-.38-.38-.38-.99,0-1.37l2.06-2.06c.38-.38.99-.38,1.37,0,.38.38.38.99,0,1.37l-2.06,2.06c-.19.19-.44.28-.69.28ZM77.69,138.36c-.25,0-.5-.09-.69-.28-.38-.38-.38-.99,0-1.37l2.06-2.06c.38-.38.99-.38,1.37,0,.38.38.38.99,0,1.37l-2.06,2.06c-.19.19-.44.28-.69.28ZM82.49,133.57c-.25,0-.5-.09-.69-.28-.38-.38-.38-.99,0-1.37l1.87-1.87c.38-.38.99-.38,1.37,0,.38.38.38.99,0,1.37l-1.87,1.87c-.19.19-.44.28-.69.28Z"/>
                <path class="cls-8" d="M77.28,147.96c-.25,0-.5-.09-.69-.28-.38-.38-.38-.99,0-1.37l2.06-2.06c.38-.38.99-.38,1.37,0,.38.38.38.99,0,1.37l-2.06,2.06c-.19.19-.44.28-.69.28ZM82.08,143.16c-.25,0-.5-.09-.69-.28-.38-.38-.38-.99,0-1.37l2.06-2.06c.38-.38.99-.38,1.37,0s.38.99,0,1.37l-2.06,2.06c-.19.19-.44.28-.69.28ZM86.87,138.36c-.25,0-.5-.09-.69-.28-.38-.38-.38-.99,0-1.37l2.06-2.06c.38-.38.99-.38,1.37,0,.38.38.38.99,0,1.37l-2.06,2.06c-.19.19-.44.28-.69.28ZM91.67,133.57c-.25,0-.5-.09-.69-.28-.38-.38-.38-.99,0-1.37l1.87-1.87c.38-.38.99-.38,1.37,0s.38.99,0,1.37l-1.87,1.87c-.19.19-.44.28-.69.28Z"/>
                <path class="cls-8" d="M86.46,147.96c-.25,0-.5-.09-.69-.28-.38-.38-.38-.99,0-1.37l2.06-2.06c.38-.38.99-.38,1.37,0,.38.38.38.99,0,1.37l-2.06,2.06c-.19.19-.44.28-.69.28ZM91.26,143.16c-.25,0-.5-.09-.69-.28-.38-.38-.38-.99,0-1.37l2.06-2.06c.38-.38.99-.38,1.37,0,.38.38.38.99,0,1.37l-2.06,2.06c-.19.19-.44.28-.69.28ZM96.06,138.36c-.25,0-.5-.09-.69-.28-.38-.38-.38-.99,0-1.37l2.06-2.06c.38-.38.99-.38,1.37,0,.38.38.38.99,0,1.37l-2.06,2.06c-.19.19-.44.28-.69.28ZM100.85,133.57c-.25,0-.5-.09-.69-.28-.38-.38-.38-.99,0-1.37l1.87-1.87c.38-.38.99-.38,1.37,0,.38.38.38.99,0,1.37l-1.87,1.87c-.19.19-.44.28-.69.28Z"/>
                <path class="cls-8" d="M95.64,147.96c-.25,0-.5-.09-.69-.28-.38-.38-.38-.99,0-1.37l2.06-2.06c.38-.38.99-.38,1.37,0,.38.38.38.99,0,1.37l-2.06,2.06c-.19.19-.44.28-.69.28ZM100.44,143.16c-.25,0-.5-.09-.69-.28-.38-.38-.38-.99,0-1.37l2.06-2.06c.38-.38.99-.38,1.37,0s.38.99,0,1.37l-2.06,2.06c-.19.19-.44.28-.69.28ZM105.24,138.36c-.25,0-.5-.09-.69-.28-.38-.38-.38-.99,0-1.37l2.06-2.06c.38-.38.99-.38,1.37,0,.38.38.38.99,0,1.37l-2.06,2.06c-.19.19-.44.28-.69.28ZM110.04,133.57c-.25,0-.5-.09-.69-.28-.38-.38-.38-.99,0-1.37l1.87-1.87c.38-.38.99-.38,1.37,0s.38.99,0,1.37l-1.87,1.87c-.19.19-.44.28-.69.28Z"/>
                <path class="cls-8" d="M104.82,147.96c-.25,0-.5-.09-.69-.28-.38-.38-.38-.99,0-1.37l2.06-2.06c.38-.38.99-.38,1.37,0,.38.38.38.99,0,1.37l-2.06,2.06c-.19.19-.44.28-.69.28ZM109.62,143.16c-.25,0-.5-.09-.69-.28-.38-.38-.38-.99,0-1.37l2.06-2.06c.38-.38.99-.38,1.37,0,.38.38.38.99,0,1.37l-2.06,2.06c-.19.19-.44.28-.69.28ZM114.42,138.36c-.25,0-.5-.09-.69-.28-.38-.38-.38-.99,0-1.37l2.06-2.06c.38-.38.99-.38,1.37,0,.38.38.38.99,0,1.37l-2.06,2.06c-.19.19-.44.28-.69.28ZM119.22,133.57c-.25,0-.5-.09-.69-.28-.38-.38-.38-.99,0-1.37l1.87-1.87c.38-.38.99-.38,1.37,0,.38.38.38.99,0,1.37l-1.87,1.87c-.19.19-.44.28-.69.28Z"/>
              </g>
            </g>
          </g>
          <polygon class="cls-9" points="30.72 105.86 30.72 16.16 41.99 4.89 50.45 0 152.26 0 152.26 86.26 132.66 105.86 30.72 105.86"/>
          <g>
            <g>
              <polygon class="cls-10" points="30.72 15.59 30.72 103.92 37.56 97.08 124.44 22.44 131.29 15.59 30.72 15.59"/>
              <polygon class="cls-1" points="131.29 15.59 131.29 103.92 30.72 103.92 35.47 99.17 37.56 97.08 124.44 22.44 126.54 20.34 131.29 15.59"/>
              <g>
                <g>
                  <g>
                    <polygon class="cls-12" points="37.56 97.08 37.56 22.44 35.47 20.34 35.47 99.17 37.56 97.08"/>
                    <polygon class="cls-12" points="37.56 22.44 35.47 20.34 126.54 20.34 124.44 22.44 37.56 22.44"/>
                  </g>
                  <polygon class="cls-10" points="37.56 97.08 35.47 99.17 126.54 99.17 124.44 97.08 37.56 97.08"/>
                </g>
                <polygon class="cls-10" points="124.44 22.44 124.44 97.08 126.54 99.17 126.54 20.34 124.44 22.44"/>
              </g>
              <rect class="cls-2" x="37.56" y="22.44" width="86.89" height="74.64"/>
            </g>
            <g>
              <rect class="cls-1" x="69.83" y="42.43" width="39.95" height="23.89"/>
              <polygon class="cls-7" points="69.83 42.43 69.83 54.84 72.2 54.84 72.2 44.81 107.39 44.81 107.39 63.95 91.72 63.95 91.72 66.32 109.77 66.32 109.77 42.43 69.83 42.43"/>
              <rect class="cls-7" x="71.01" y="43.62" width="37.57" height="3.04"/>
            </g>
            <g>
              <g>
                <path class="cls-7" d="M92.18,77.08h-39.95v-23.89h39.95v23.89ZM54.61,74.7h35.19v-19.13h-35.19v19.13Z"/>
                <rect class="cls-7" x="53.42" y="54.38" width="37.57" height="3.04"/>
              </g>
              <path class="cls-6" d="M54.61,74.7h35.19v-19.13h-35.19v19.13Z"/>
            </g>
            <g>
              <polygon class="cls-1" points="142.18 4.7 41.62 4.7 30.72 15.59 131.29 15.59 142.18 4.7"/>
              <polygon class="cls-13" points="150.32 0 49.74 0 41.62 4.7 142.18 4.7 150.32 0"/>
              <polygon class="cls-8" points="142.18 93.02 150.32 84.89 150.32 0 142.18 4.7 142.18 93.02"/>
              <polygon class="cls-13" points="131.29 103.92 142.18 93.02 142.18 4.7 131.29 15.59 131.29 103.92"/>
            </g>
          </g>
          <polygon class="cls-10" points="111.11 151.45 0 151.45 0 150.28 110.91 150.28 133.71 126.99 133.71 109.13 23.08 109.13 23.08 108.16 134.68 108.16 134.68 127.39 111.11 151.45"/>
        </g>
      </g>
    </g>
  </g>
</svg>