<?xml version="1.0" encoding="UTF-8"?>
<svg id="Layer_2" xmlns="http://www.w3.org/2000/svg" xmlns:xlink="http://www.w3.org/1999/xlink" viewBox="0 0 205.48 116.5">
  <defs>
    <style>
      .cls-1 {
        fill: #2a2927;
      }

      .cls-2 {
        fill: #b8a83e;
      }

      .cls-3 {
        fill: url(#linear-gradient);
      }

      .cls-4 {
        fill: #c4c4c4;
      }

      .cls-5 {
        fill: #fff;
      }

      .cls-6 {
        fill: #ffffa6;
      }

      .cls-7 {
        fill: #f2f2f2;
      }

      .cls-8 {
        fill: #f4f353;
      }

      .cls-9 {
        fill: #4c4c4c;
      }
    </style>
    <linearGradient id="linear-gradient" x1="18.72" y1="57.96" x2="187.51" y2="57.96" gradientUnits="userSpaceOnUse">
      <stop offset="0" stop-color="#f2f2f2"/>
      <stop offset="1" stop-color="#fff"/>
    </linearGradient>
  </defs>
  <g id="_x31_">
    <g>
      <g>
        <polygon class="cls-4" points="24.77 116.5 24.77 20.74 110.47 20.74 205.48 20.74 205.48 116.5 24.77 116.5"/>
        <g>
          <g>
            <polygon class="cls-2" points="200.56 25.67 200.56 111.58 203.9 114.92 203.9 22.33 200.56 25.67"/>
            <g>
              <g>
                <polygon class="cls-7" points="26.35 22.33 26.35 114.92 28.02 113.25 28.02 24 26.35 22.33"/>
                <polygon class="cls-6" points="29.69 25.67 28.02 24 28.02 113.25 29.69 111.58 29.69 25.67"/>
              </g>
              <polygon class="cls-9" points="29.69 111.58 26.35 114.92 203.9 114.92 200.56 111.58 29.69 111.58"/>
              <polygon class="cls-2" points="29.69 111.58 28.02 113.25 202.23 113.25 200.56 111.58 29.69 111.58"/>
              <polygon class="cls-9" points="200.56 25.67 200.56 111.58 203.9 114.92 203.9 22.33 200.56 25.67"/>
              <polygon class="cls-2" points="202.23 24 200.56 25.67 200.56 111.58 202.23 113.25 202.23 24"/>
            </g>
          </g>
          <rect class="cls-8" x="29.69" y="25.67" width="170.86" height="85.91"/>
          <g>
            <polygon class="cls-6" points="28.02 24 29.69 25.67 200.56 25.67 202.23 24 28.02 24"/>
            <polygon class="cls-7" points="203.9 22.33 26.35 22.33 28.02 24 202.23 24 203.9 22.33"/>
          </g>
        </g>
        <polygon class="cls-1" points="205.48 20.74 203.9 22.33 203.9 114.92 205.48 116.5 205.48 20.74"/>
        <polygon class="cls-1" points="205.48 116.5 203.9 114.92 26.35 114.92 24.77 116.5 205.48 116.5"/>
      </g>
      <g>
        <polygon class="cls-8" points="90.73 0 42.19 0 24.77 20.74 108.15 20.74 90.73 0"/>
        <polygon class="cls-6" points="89.38 2.89 104.38 20.74 108.15 20.74 90.73 0 42.19 0 24.77 20.74 28.54 20.74 43.54 2.89 89.38 2.89"/>
        <g>
          <polygon class="cls-4" points="42.19 0 24.77 20.74 26.35 20.74 42.56 1.44 42.19 0"/>
          <g>
            <path class="cls-4" d="M42.19,0l.37,1.44h47.79l.37-1.44h-48.53Z"/>
            <polygon class="cls-4" points="90.73 0 90.36 1.44 106.57 20.74 108.15 20.74 90.73 0"/>
          </g>
        </g>
      </g>
      <g>
        <g>
          <polygon class="cls-2" points="187.51 18.59 187.51 97.33 190.85 100.67 190.85 15.25 187.51 18.59"/>
          <g>
            <g>
              <polygon class="cls-4" points="15.38 15.25 15.38 57.96 17.05 56.29 17.05 16.92 15.38 15.25"/>
              <polygon class="cls-5" points="18.72 18.59 17.05 16.92 17.05 56.29 18.72 54.62 18.72 18.59"/>
            </g>
            <polygon class="cls-9" points="18.72 54.62 15.38 57.96 190.85 100.67 187.51 97.33 18.72 54.62"/>
            <polygon class="cls-7" points="18.72 54.62 17.05 56.29 189.18 99 187.51 97.33 18.72 54.62"/>
            <polygon class="cls-9" points="187.51 18.59 187.51 97.33 190.85 100.67 190.85 15.25 187.51 18.59"/>
            <polygon class="cls-7" points="189.18 16.92 187.51 18.59 187.51 97.33 189.18 99 189.18 16.92"/>
          </g>
        </g>
        <polygon class="cls-3" points="18.72 54.62 18.72 18.59 187.51 18.59 187.51 97.33 18.72 54.62"/>
        <g>
          <polygon class="cls-5" points="17.05 16.92 18.72 18.59 187.51 18.59 189.18 16.92 17.05 16.92"/>
          <polygon class="cls-4" points="190.85 15.25 15.38 15.25 17.05 16.92 189.18 16.92 190.85 15.25"/>
        </g>
      </g>
      <g>
        <polygon class="cls-4" points="24.77 116.5 0 37.38 85.7 37.38 180.71 37.38 205.48 116.5 24.77 116.5"/>
        <g>
          <g>
            <polygon class="cls-2" points="177.06 41.44 199.28 112.43 203.49 115.19 179.54 38.68 177.06 41.44"/>
            <g>
              <g>
                <polygon class="cls-7" points="1.99 38.68 25.94 115.19 27.18 113.81 4.09 40.06 1.99 38.68"/>
                <polygon class="cls-6" points="6.2 41.44 4.09 40.06 27.18 113.81 28.42 112.43 6.2 41.44"/>
              </g>
              <polygon class="cls-9" points="28.42 112.43 25.94 115.19 203.49 115.19 199.28 112.43 28.42 112.43"/>
              <polygon class="cls-2" points="28.42 112.43 27.18 113.81 201.39 113.81 199.28 112.43 28.42 112.43"/>
              <polygon class="cls-9" points="177.06 41.44 199.28 112.43 203.49 115.19 179.54 38.68 177.06 41.44"/>
              <polygon class="cls-2" points="178.3 40.06 177.06 41.44 199.28 112.43 201.39 113.81 178.3 40.06"/>
            </g>
          </g>
          <polygon class="cls-8" points="28.42 112.43 6.2 41.44 177.06 41.44 199.28 112.43 28.42 112.43"/>
          <g>
            <polygon class="cls-6" points="4.09 40.06 6.2 41.44 177.06 41.44 178.3 40.06 4.09 40.06"/>
            <polygon class="cls-7" points="179.54 38.68 1.99 38.68 4.09 40.06 178.3 40.06 179.54 38.68"/>
          </g>
        </g>
        <polygon class="cls-1" points="180.71 37.38 179.54 38.68 203.49 115.19 205.48 116.5 180.71 37.38"/>
        <polygon class="cls-1" points="205.48 116.5 203.49 115.19 25.94 115.19 24.77 116.5 205.48 116.5"/>
      </g>
    </g>
  </g>
</svg>