<?xml version="1.0" encoding="UTF-8"?>
<svg id="Layer_2" xmlns="http://www.w3.org/2000/svg" viewBox="0 0 4765.92 2760.9">
  <defs>
    <style>
      .cls-1 {
        stroke-dasharray: 4.91 9.82;
      }

      .cls-1, .cls-2, .cls-3 {
        fill: none;
        stroke: #666;
        stroke-miterlimit: 10;
      }

      .cls-4 {
        fill: #353534;
      }

      .cls-5 {
        fill: #ddd;
      }

      .cls-6 {
        fill: #fff;
      }

      .cls-2 {
        stroke-dasharray: 4.99 9.98;
      }

      .cls-7 {
        fill: #fafafa;
      }

      .cls-8 {
        fill: #cc061a;
      }

      .cls-9 {
        fill: silver;
      }

      .cls-10 {
        fill: #0850b7;
      }

      .cls-11 {
        fill: #2d2d2d;
      }

      .cls-12 {
        fill: #9e9e9e;
      }
    </style>
  </defs>
  <g id="Critical_error_icon">
    <g>
      <g>
        <polygon class="cls-4" points="14.52 0 0 2760.9 4765.92 2760.44 4765.92 0 14.52 0"/>
        <g>
          <rect class="cls-6" x="7.47" y="26.32" width="4734.92" height="2704.41"/>
          <path class="cls-12" d="M4747.39,2735.73H2.47V21.32h4744.92v2714.41ZM12.47,2725.73h4724.92V31.32H12.47v2694.41Z"/>
        </g>
        <rect class="cls-9" x="30.89" y="47.53" width="4700.01" height="2672.16"/>
        <g>
          <polygon points="1609.13 1458.81 1635.79 1458.81 1635.79 1373.55 1712.84 1373.55 1712.84 1351.73 1635.79 1351.73 1635.79 1289.62 1717.09 1289.62 1717.09 1267.35 1609.13 1267.35 1609.13 1458.81"/>
          <path d="M1869.51,1320.97c-4.93-4-10.96-6.98-18.09-8.94-7.13-1.95-15.14-2.93-24.02-2.93-4.88,0-9.72.27-14.5.81-4.79.54-9.38,1.25-13.77,2.12s-8.57,1.88-12.52,3c-3.96,1.12-7.54,2.27-10.77,3.44v23c8.59-3.42,16.92-6.05,24.98-7.91,8.06-1.85,16.23-2.78,24.54-2.78,11.43,0,19.92,2.61,25.49,7.84,5.57,5.23,8.35,12.18,8.35,20.87v12.89h-30.47c-21.49,0-37.72,4.17-48.71,12.52-10.99,8.35-16.48,19.9-16.48,34.64,0,5.96.9,11.48,2.71,16.55,1.81,5.08,4.64,9.5,8.5,13.26,3.86,3.76,8.76,6.72,14.72,8.86,5.96,2.15,13.13,3.22,21.53,3.22,9.08,0,17.75-1.76,26-5.27,8.25-3.52,16.38-9.23,24.39-17.14l.59,19.78h22.85v-101.37c0-8.2-1.32-15.33-3.96-21.39-2.64-6.05-6.42-11.08-11.35-15.09ZM1859.18,1417.94c-8.4,7.72-16.38,13.36-23.95,16.92-7.57,3.57-14.28,5.35-20.14,5.35-4.49,0-8.3-.59-11.43-1.76-3.13-1.17-5.66-2.76-7.62-4.76-1.96-2-3.37-4.3-4.25-6.88-.88-2.59-1.32-5.3-1.32-8.13,0-4.1.71-7.79,2.12-11.06,1.41-3.27,3.59-6.08,6.52-8.42,2.93-2.34,6.69-4.15,11.28-5.42,4.59-1.27,10.06-1.9,16.41-1.9h32.37v26.07Z"/>
          <path d="M1977.17,1284.35c1.81,1.86,3.93,3.3,6.37,4.32,2.44,1.03,5.08,1.54,7.91,1.54s5.47-.51,7.91-1.54c2.44-1.03,4.56-2.46,6.37-4.32,1.81-1.85,3.22-4,4.25-6.45,1.03-2.44,1.54-5.03,1.54-7.76s-.51-5.44-1.54-7.84c-1.03-2.39-2.44-4.52-4.25-6.37-1.81-1.85-3.93-3.3-6.37-4.32-2.44-1.03-5.08-1.54-7.91-1.54s-5.47.51-7.91,1.54c-2.44,1.03-4.57,2.47-6.37,4.32-1.81,1.86-3.22,3.98-4.25,6.37-1.03,2.39-1.54,5.01-1.54,7.84s.51,5.32,1.54,7.76c1.03,2.44,2.44,4.59,4.25,6.45Z"/>
          <polygon points="2008.3 1311.74 1939.02 1311.74 1939.02 1332.83 1982.52 1332.83 1982.52 1437.57 1934.18 1437.57 1934.18 1458.81 2052.1 1458.81 2052.1 1437.57 2008.3 1437.57 2008.3 1311.74"/>
          <polygon points="2173.24 1437.57 2173.24 1251.83 2103.96 1251.83 2103.96 1272.77 2147.46 1272.77 2147.46 1437.57 2099.12 1437.57 2099.12 1458.81 2217.04 1458.81 2217.04 1437.57 2173.24 1437.57"/>
        </g>
      </g>
      <g>
        <rect class="cls-11" x="1379.82" y="1910.29" width="1850.83" height="563.37"/>
        <polygon class="cls-7" points="1379.82 1910.29 1379.82 2473.66 1404.88 2444.79 3205.4 1940.63 3230.65 1910.29 1379.82 1910.29"/>
        <rect class="cls-9" x="1404.88" y="1940.63" width="1800.52" height="504.16"/>
      </g>
      <g>
        <rect class="cls-10" x="51.71" y="103.15" width="4679.2" height="468.86"/>
        <g>
          <polygon class="cls-6" points="186.37 428.15 295.21 428.15 295.21 405.88 212.45 405.88 212.45 339.97 291.99 339.97 291.99 317.99 212.45 317.99 212.45 258.67 295.21 258.67 295.21 236.69 186.37 236.69 186.37 428.15"/>
          <path class="cls-6" d="M426.61,278.44c-8.59,0-17.12,2.34-25.56,7.03-8.45,4.69-17.02,12.26-25.71,22.71l-.73-27.1h-23.29v147.07h25.78v-94.48c4.69-5.96,9.08-11.03,13.18-15.23,4.1-4.2,7.98-7.64,11.65-10.33,3.66-2.68,7.23-4.64,10.69-5.86,3.46-1.22,6.91-1.83,10.33-1.83,7.81,0,13.74,2.91,17.8,8.72,4.05,5.81,5.93,15.16,5.64,28.05h25.78c.59-19.43-3.05-34.08-10.91-43.95-7.86-9.86-19.41-14.8-34.64-14.8Z"/>
          <path class="cls-6" d="M591.55,278.44c-8.59,0-17.12,2.34-25.56,7.03-8.45,4.69-17.02,12.26-25.71,22.71l-.73-27.1h-23.29v147.07h25.78v-94.48c4.69-5.96,9.08-11.03,13.18-15.23,4.1-4.2,7.98-7.64,11.65-10.33,3.66-2.68,7.23-4.64,10.69-5.86,3.46-1.22,6.91-1.83,10.33-1.83,7.81,0,13.74,2.91,17.8,8.72,4.05,5.81,5.93,15.16,5.64,28.05h25.78c.59-19.43-3.05-34.08-10.91-43.95-7.86-9.86-19.41-14.8-34.64-14.8Z"/>
          <path class="cls-6" d="M785.27,297.7c-5.81-6.3-12.89-11.08-21.24-14.36-8.35-3.27-17.8-4.91-28.34-4.91s-20.9,1.88-29.59,5.64c-8.69,3.76-16.07,9.03-22.12,15.82-6.06,6.79-10.69,14.89-13.92,24.32-3.22,9.43-4.83,19.85-4.83,31.27,0,12.21,1.54,23,4.61,32.37,3.08,9.38,7.52,17.24,13.33,23.58,5.81,6.35,12.89,11.16,21.24,14.43s17.8,4.91,28.34,4.91,20.9-1.88,29.59-5.64c8.69-3.76,16.06-9.03,22.12-15.82,6.05-6.79,10.69-14.94,13.92-24.46,3.22-9.52,4.83-20,4.83-31.42,0-12.11-1.54-22.85-4.61-32.23s-7.52-17.21-13.33-23.51ZM774.73,375.49c-1.61,6.59-4.15,12.38-7.62,17.36-3.47,4.98-7.91,8.96-13.33,11.94-5.42,2.98-11.94,4.47-19.56,4.47-6.64,0-12.6-1.15-17.87-3.44-5.27-2.29-9.77-5.71-13.48-10.25-3.71-4.54-6.57-10.23-8.57-17.07-2-6.83-3-14.8-3-23.88,0-7.23.81-14.14,2.42-20.73s4.15-12.38,7.62-17.36c3.46-4.98,7.91-8.96,13.33-11.94,5.42-2.98,11.94-4.47,19.56-4.47,6.54,0,12.47,1.15,17.8,3.44,5.32,2.3,9.84,5.71,13.55,10.25,3.71,4.54,6.57,10.21,8.57,16.99,2,6.79,3,14.72,3,23.8,0,7.32-.81,14.28-2.42,20.87Z"/>
          <path class="cls-6" d="M956.08,293.24c-7.86-9.86-19.41-14.8-34.64-14.8-8.59,0-17.12,2.34-25.56,7.03-8.45,4.69-17.02,12.26-25.71,22.71l-.73-27.1h-23.29v147.07h25.78v-94.48c4.69-5.96,9.08-11.03,13.18-15.23,4.1-4.2,7.98-7.64,11.65-10.33,3.66-2.68,7.23-4.64,10.69-5.86,3.46-1.22,6.91-1.83,10.33-1.83,7.81,0,13.74,2.91,17.8,8.72,4.05,5.81,5.93,15.16,5.64,28.05h25.78c.59-19.43-3.05-34.08-10.91-43.95Z"/>
        </g>
      </g>
      <g>
        <circle class="cls-8" cx="911.75" cy="1330.85" r="223.9" transform="translate(-674 1034.5) rotate(-45)"/>
        <polygon class="cls-6" points="1019.26 1248.49 999.08 1227.34 912.24 1310.18 829.4 1223.34 808.24 1243.52 891.09 1330.36 804.25 1413.21 824.43 1434.36 911.27 1351.52 994.11 1438.35 1015.27 1418.17 932.42 1331.33 1019.26 1248.49"/>
      </g>
      <g>
        <polygon class="cls-11" points="4322.31 161.5 4321.44 523.98 4689.77 525.75 4689.8 161.51 4322.31 161.5"/>
        <polygon class="cls-7" points="4680.09 161.5 4321.42 161.5 4321.42 524.28 4326.39 519.06 4684 519.06 4684 165.43 4689.8 161.51 4680.09 161.5"/>
        <rect class="cls-9" x="4326.39" y="165.43" width="357.61" height="353.63"/>
        <polygon class="cls-5" points="4654.77 239.02 4627.43 210.35 4509.76 322.62 4397.49 204.94 4368.83 232.29 4481.09 349.96 4363.42 462.22 4390.77 490.89 4508.44 378.63 4620.7 496.3 4649.36 468.95 4537.1 351.28 4654.77 239.02"/>
        <polygon points="4650.81 235.43 4623.46 206.76 4505.79 319.02 4393.53 201.35 4364.86 228.7 4477.13 346.37 4359.45 458.63 4386.8 487.3 4504.47 375.04 4616.73 492.71 4645.4 465.36 4533.14 347.69 4650.81 235.43"/>
      </g>
      <g>
        <path d="M2325.29,2110.67c-6.06-8.35-13.65-14.77-22.78-19.26-9.13-4.49-19.85-6.74-32.15-6.74-10.25,0-19.97,1.98-29.15,5.93-9.18,3.96-17.21,10.01-24.1,18.16-6.88,8.16-12.33,18.48-16.33,30.98-4.01,12.5-6.01,27.25-6.01,44.24,0,15.14,1.46,28.74,4.39,40.79,2.93,12.06,7.4,22.29,13.4,30.69,6.01,8.4,13.57,14.82,22.7,19.26,9.13,4.44,19.85,6.67,32.15,6.67,10.25,0,19.99-1.98,29.22-5.93,9.23-3.96,17.29-10.01,24.17-18.16,6.88-8.15,12.35-18.48,16.41-30.98,4.05-12.5,6.08-27.34,6.08-44.53,0-15.04-1.49-28.56-4.47-40.58-2.98-12.01-7.5-22.19-13.55-30.54ZM2313.42,2212.85c-1.86,9.08-4.71,17.02-8.57,23.8-3.86,6.79-8.77,12.16-14.72,16.11-5.96,3.96-13.04,5.93-21.24,5.93s-15.58-1.85-21.53-5.57c-5.96-3.71-10.82-8.91-14.58-15.6-3.76-6.69-6.52-14.7-8.28-24.02-1.76-9.32-2.64-19.65-2.64-30.98,0-10.25.93-19.95,2.78-29.08,1.85-9.13,4.69-17.09,8.5-23.88,3.81-6.79,8.66-12.16,14.57-16.11,5.91-3.96,12.96-5.93,21.17-5.93s15.75,1.86,21.75,5.57c6.01,3.71,10.91,8.94,14.72,15.67s6.57,14.77,8.28,24.1c1.71,9.33,2.56,19.61,2.56,30.84,0,10.35-.93,20.07-2.78,29.15Z"/>
        <polygon points="2425.77 2178.28 2501.36 2087.31 2470.45 2087.31 2400.29 2176.23 2400.29 2087.31 2374.21 2087.31 2374.21 2278.77 2400.29 2278.77 2400.29 2184.87 2471.92 2278.77 2504.73 2278.77 2425.77 2178.28"/>
      </g>
      <g>
        <polyline class="cls-3" points="3170.69 2390.74 3170.69 2393.24 3168.19 2393.24"/>
        <line class="cls-2" x1="3158.21" y1="2393.24" x2="1442" y2="2393.24"/>
        <polyline class="cls-3" points="1437.02 2393.24 1434.52 2393.24 1434.52 2390.74"/>
        <line class="cls-1" x1="1434.52" y1="2380.92" x2="1434.52" y2="1988.05"/>
        <polyline class="cls-3" points="1434.52 1983.14 1434.52 1980.64 1437.02 1980.64"/>
        <line class="cls-2" x1="1446.99" y1="1980.64" x2="3163.2" y2="1980.64"/>
        <polyline class="cls-3" points="3168.19 1980.64 3170.69 1980.64 3170.69 1983.14"/>
        <line class="cls-1" x1="3170.69" y1="1992.96" x2="3170.69" y2="2385.83"/>
      </g>
    </g>
  </g>
</svg>