<?xml version="1.0" encoding="UTF-8"?>
<svg id="Layer_2" xmlns="http://www.w3.org/2000/svg" viewBox="0 0 180.71 116.5">
  <defs>
    <style>
      .cls-1 {
        fill: #2a2927;
      }

      .cls-2 {
        fill: #b8a83e;
      }

      .cls-3 {
        fill: #c4c4c4;
      }

      .cls-4 {
        fill: #ffffa6;
      }

      .cls-5 {
        fill: #f2f2f2;
      }

      .cls-6 {
        fill: #f4f353;
      }

      .cls-7 {
        fill: #4c4c4c;
      }
    </style>
  </defs>
  <g id="_x31_">
    <g>
      <g>
        <polygon class="cls-3" points="0 116.5 0 20.74 85.7 20.74 180.71 20.74 180.71 116.5 0 116.5"/>
        <g>
          <g>
            <polygon class="cls-2" points="175.79 25.67 175.79 111.58 179.13 114.92 179.13 22.33 175.79 25.67"/>
            <g>
              <g>
                <polygon class="cls-5" points="1.58 22.33 1.58 114.92 3.25 113.25 3.25 24 1.58 22.33"/>
                <polygon class="cls-4" points="4.92 25.67 3.25 24 3.25 113.25 4.92 111.58 4.92 25.67"/>
              </g>
              <polygon class="cls-7" points="4.92 111.58 1.58 114.92 179.13 114.92 175.79 111.58 4.92 111.58"/>
              <polygon class="cls-2" points="4.92 111.58 3.25 113.25 177.46 113.25 175.79 111.58 4.92 111.58"/>
              <polygon class="cls-7" points="175.79 25.67 175.79 111.58 179.13 114.92 179.13 22.33 175.79 25.67"/>
              <polygon class="cls-2" points="177.46 24 175.79 25.67 175.79 111.58 177.46 113.25 177.46 24"/>
            </g>
          </g>
          <rect class="cls-6" x="4.92" y="25.67" width="170.86" height="85.91"/>
          <g>
            <polygon class="cls-4" points="3.25 24 4.92 25.67 175.79 25.67 177.46 24 3.25 24"/>
            <polygon class="cls-5" points="179.13 22.33 1.58 22.33 3.25 24 177.46 24 179.13 22.33"/>
          </g>
        </g>
        <polygon class="cls-1" points="180.71 20.74 179.13 22.33 179.13 114.92 180.71 116.5 180.71 20.74"/>
        <polygon class="cls-1" points="180.71 116.5 179.13 114.92 1.58 114.92 0 116.5 180.71 116.5"/>
      </g>
      <g>
        <polygon class="cls-6" points="65.96 0 17.42 0 0 20.74 83.38 20.74 65.96 0"/>
        <polygon class="cls-4" points="64.61 2.89 79.61 20.74 83.38 20.74 65.96 0 17.42 0 0 20.74 3.77 20.74 18.77 2.89 64.61 2.89"/>
        <g>
          <polygon class="cls-3" points="17.42 0 0 20.74 1.58 20.74 17.79 1.44 17.42 0"/>
          <g>
            <path class="cls-3" d="M17.42,0l.37,1.44h47.79l.37-1.44H17.42Z"/>
            <polygon class="cls-3" points="65.96 0 65.59 1.44 81.8 20.74 83.38 20.74 65.96 0"/>
          </g>
        </g>
      </g>
    </g>
  </g>
</svg>