<?xml version="1.0" encoding="UTF-8"?>
<svg id="Layer_2" xmlns="http://www.w3.org/2000/svg" viewBox="0 0 180.71 163.3">
  <defs>
    <style>
      .cls-1 {
        fill: #2a2927;
      }

      .cls-2 {
        fill: #b8a83e;
      }

      .cls-3 {
        fill: #c4c4c4;
      }

      .cls-4 {
        fill: #ffffa6;
      }

      .cls-5 {
        fill: #f2f2f2;
      }

      .cls-6 {
        fill: #f4f353;
      }

      .cls-7 {
        fill: #4c4c4c;
      }
    </style>
  </defs>
  <g id="_x31_">
    <g>
      <g>
        <g>
          <polygon class="cls-3" points="0 116.5 0 20.74 85.7 20.74 180.71 20.74 180.71 116.5 0 116.5"/>
          <g>
            <g>
              <polygon class="cls-2" points="175.79 25.67 175.79 111.58 179.13 114.92 179.13 22.33 175.79 25.67"/>
              <g>
                <g>
                  <polygon class="cls-5" points="1.58 22.33 1.58 114.92 3.25 113.25 3.25 24 1.58 22.33"/>
                  <polygon class="cls-4" points="4.92 25.67 3.25 24 3.25 113.25 4.92 111.58 4.92 25.67"/>
                </g>
                <polygon class="cls-7" points="4.92 111.58 1.58 114.92 179.13 114.92 175.79 111.58 4.92 111.58"/>
                <polygon class="cls-2" points="4.92 111.58 3.25 113.25 177.46 113.25 175.79 111.58 4.92 111.58"/>
                <polygon class="cls-7" points="175.79 25.67 175.79 111.58 179.13 114.92 179.13 22.33 175.79 25.67"/>
                <polygon class="cls-2" points="177.46 24 175.79 25.67 175.79 111.58 177.46 113.25 177.46 24"/>
              </g>
            </g>
            <rect class="cls-6" x="4.92" y="25.67" width="170.86" height="85.91"/>
            <g>
              <polygon class="cls-4" points="3.25 24 4.92 25.67 175.79 25.67 177.46 24 3.25 24"/>
              <polygon class="cls-5" points="179.13 22.33 1.58 22.33 3.25 24 177.46 24 179.13 22.33"/>
            </g>
          </g>
          <polygon class="cls-1" points="180.71 20.74 179.13 22.33 179.13 114.92 180.71 116.5 180.71 20.74"/>
          <polygon class="cls-1" points="180.71 116.5 179.13 114.92 1.58 114.92 0 116.5 180.71 116.5"/>
        </g>
        <g>
          <polygon class="cls-6" points="65.96 0 17.42 0 0 20.74 83.38 20.74 65.96 0"/>
          <polygon class="cls-4" points="64.61 2.89 79.61 20.74 83.38 20.74 65.96 0 17.42 0 0 20.74 3.77 20.74 18.77 2.89 64.61 2.89"/>
          <g>
            <polygon class="cls-3" points="17.42 0 0 20.74 1.58 20.74 17.79 1.44 17.42 0"/>
            <g>
              <path class="cls-3" d="M17.42,0l.37,1.44h47.79l.37-1.44H17.42Z"/>
              <polygon class="cls-3" points="65.96 0 65.59 1.44 81.8 20.74 83.38 20.74 65.96 0"/>
            </g>
          </g>
        </g>
      </g>
      <g>
        <path d="M67.52,163.01c-.56,0-.84-.31-.84-.92v-22.24c0-.62.28-.92.84-.92h13.69c.62,0,.92.25.92.76v1.24c0,.5-.31.76-.92.76h-11.3v7.96h9.86c.62,0,.92.25.92.76v1.24c0,.5-.31.76-.92.76h-9.86v9.69c0,.62-.28.92-.84.92h-1.55Z"/>
        <path d="M86.54,142.19c-.5,0-.76-.25-.76-.76v-1.44c0-.5.25-.76.76-.76h1.44c.5,0,.76.25.76.76v1.44c0,.5-.25.76-.76.76h-1.44ZM86.54,163.01c-.5,0-.76-.25-.76-.76v-16.12c0-.5.25-.76.76-.76h1.44c.5,0,.76.25.76.76v16.12c0,.5-.25.76-.76.76h-1.44Z"/>
        <path d="M94.27,163.01c-.5,0-.76-.25-.76-.76v-20.96c0-.22.06-.44.17-.64l1.18-2.13c.21-.39.39-.59.52-.59h.59c.34,0,.5.2.5.59v23.73c0,.5-.25.76-.76.76h-1.44Z"/>
        <path d="M100.28,154.2c0-2.78.69-4.99,2.08-6.63,1.39-1.65,3.38-2.47,5.96-2.47,2.15,0,3.93.75,5.35,2.26,1.42,1.51,2.12,3.91,2.12,7.21,0,.5-.23.76-.69.76h-11.77c.19,2.17.78,3.67,1.76,4.52.98.85,2.09,1.27,3.33,1.27,1.31,0,2.31-.22,3.01-.66.7-.44,1.21-.87,1.54-1.29.36-.47.71-.56,1.04-.27l.99.86c.26.22.26.53,0,.92-.21.32-.82.84-1.82,1.55-1,.71-2.58,1.07-4.73,1.07-2.8,0-4.86-.82-6.19-2.47-1.33-1.65-1.99-3.86-1.99-6.63ZM103.34,153.14h9.49c-.04-1.57-.45-2.94-1.21-4.12-.76-1.18-1.88-1.77-3.36-1.77-1.3,0-2.4.43-3.31,1.3-.91.87-1.44,2.4-1.61,4.59Z"/>
      </g>
    </g>
  </g>
</svg>