<?xml version="1.0" encoding="UTF-8"?>
<svg id="Layer_2" xmlns="http://www.w3.org/2000/svg" viewBox="0 0 78.46 119.1">
  <defs>
    <style>
      .cls-1 {
        fill: #fff;
      }
    </style>
  </defs>
  <g id="_x31_">
    <g>
      <path class="cls-1" d="M76.07,44.13c-1.57-2.56-3.81-4.64-6.49-6l-2.83-1.44-1.46-1.43c-2.82-2.76-6.49-4.43-10.41-4.75l-1.77-1.69c-2.61-2.48-5.96-4.06-9.53-4.5V8.03c0-4.43-3.6-8.03-8.03-8.03s-8.03,3.6-8.03,8.03v45.94l-9.51-9.51c-2.04-2.04-4.27-3.5-6.64-4.36-1.67-.6-3.36-.9-5.16-.9-2.44,0-4.68,1.72-5.7,4.38-1.04,2.71-.5,5.58,1.42,7.49,0,0,2.83,2.63,3.68,3.52,2.36,2.48,3.93,4.68,4.43,6.2l15.93,48.02v10.29h41.35l.86-10.17,5.96-15.23c1.42-3.62,2.5-7.39,3.22-11.21s1.09-7.72,1.09-11.61v-18.25c0-3-.83-5.94-2.4-8.51Z"/>
      <path d="M76.07,44.13c-1.57-2.56-3.81-4.64-6.49-6l-2.83-1.44-1.46-1.43c-2.82-2.76-6.49-4.43-10.41-4.75l-1.77-1.69c-2.61-2.48-5.96-4.06-9.53-4.5V8.03C43.59,3.6,39.99,0,35.56,0s-8.03,3.6-8.03,8.03v45.94l-9.51-9.51c-2.04-2.04-4.27-3.5-6.64-4.36-1.67-.6-3.36-.9-5.16-.9-2.44,0-4.68,1.72-5.7,4.38-1.04,2.71-.5,5.58,1.42,7.49,0,0,2.83,2.63,3.68,3.52,2.36,2.48,3.93,4.68,4.43,6.2l15.93,48.02v10.29h41.35l.86-10.17,5.96-15.23c1.42-3.62,2.5-7.39,3.22-11.21.72-3.82,1.09-7.72,1.09-11.61v-18.25c0-3-.83-5.94-2.4-8.51ZM74.89,70.88c0,3.66-.34,7.35-1.02,10.95-.68,3.6-1.7,7.16-3.04,10.57l-6.15,15.72-.63,7.41H29.56v-7.29L13.45,59.66c-.68-2.06-2.45-4.6-5.23-7.53-1.88-1.98-3.01-3.04-3.75-3.59-1.35-1.36-.81-3.16-.61-3.68.47-1.23,1.44-2.09,2.36-2.09,1.38,0,2.67.22,3.95.69,1.87.68,3.66,1.86,5.33,3.52l12.04,12.05v6.17h3.58V8.03c0-2.45,2-4.45,4.45-4.45s4.45,2,4.45,4.45v47.34h3.58v-27.43c2.64.41,5.11,1.63,7.06,3.48l1.69,1.61v27.16h3.58v-25.93c2.58.47,4.97,1.7,6.87,3.56l1.12,1.1v26.29h3.58v-24.12l.47.24c2.09,1.06,3.84,2.68,5.06,4.68,1.22,2,1.87,4.29,1.87,6.64v18.25Z"/>
    </g>
  </g>
</svg>