<?xml version="1.0" encoding="UTF-8"?>
<svg id="Layer_2" xmlns="http://www.w3.org/2000/svg" xmlns:xlink="http://www.w3.org/1999/xlink" viewBox="0 0 1088.42 499.12">
  <defs>
    <style>
      .cls-1 {
        fill: #99928d;
      }

      .cls-2 {
        fill: #939393;
      }

      .cls-3 {
        fill: #e6e6e6;
      }

      .cls-4 {
        fill: url(#linear-gradient-2);
      }

      .cls-5 {
        fill: #2a2927;
      }

      .cls-6 {
        fill: #d9d9d9;
      }

      .cls-7 {
        fill: #b8a83e;
      }

      .cls-8 {
        fill: url(#linear-gradient);
      }

      .cls-9 {
        fill: #1d1d1b;
      }

      .cls-10 {
        fill: #c4c4c4;
      }

      .cls-11 {
        fill: #fff;
      }

      .cls-12 {
        fill: #ffffa6;
      }

      .cls-13 {
        fill: silver;
      }

      .cls-14 {
        fill: #4a4a4a;
      }

      .cls-15 {
        fill: #f2f2f2;
      }

      .cls-16 {
        fill: #737373;
      }

      .cls-17 {
        fill: #f4f353;
      }

      .cls-18 {
        clip-path: url(#clippath);
      }

      .cls-19 {
        fill: #4c4c4c;
      }

      .cls-20 {
        fill: #999;
      }
    </style>
    <linearGradient id="linear-gradient" x1="7.56" y1="28.55" x2="1080.86" y2="28.55" gradientTransform="translate(515.66 572.76) rotate(-90)" gradientUnits="userSpaceOnUse">
      <stop offset="0" stop-color="#010089"/>
      <stop offset="1" stop-color="#0100be"/>
    </linearGradient>
    <clipPath id="clippath">
      <rect class="cls-13" x="1038.74" y="449.44" width="31.91" height="31.91"/>
    </clipPath>
    <linearGradient id="linear-gradient-2" x1="322.06" y1="230.08" x2="468.24" y2="230.08" gradientUnits="userSpaceOnUse">
      <stop offset="0" stop-color="#f2f2f2"/>
      <stop offset="1" stop-color="#fff"/>
    </linearGradient>
  </defs>
  <g id="_x31_">
    <g>
      <g>
        <g>
          <g>
            <rect class="cls-13" x="294.65" y="-294.65" width="499.12" height="1088.42" transform="translate(793.77 -294.65) rotate(90)"/>
            <g>
              <g>
                <g>
                  <polygon class="cls-5" points="1084.22 4.2 1084.22 494.92 1088.42 499.12 1088.42 0 1084.22 4.2"/>
                  <polygon class="cls-19" points="1084.22 4.2 1084.22 494.92 1086.74 497.44 1086.74 1.68 1084.22 4.2"/>
                </g>
                <g>
                  <polygon class="cls-3" points="1084.22 4.2 1088.42 0 0 0 4.2 4.2 1084.22 4.2"/>
                  <polygon class="cls-15" points="1084.22 4.2 1086.74 1.68 1.68 1.68 4.2 4.2 1084.22 4.2"/>
                </g>
              </g>
              <g>
                <g>
                  <polygon class="cls-3" points="4.2 494.92 4.2 4.2 0 0 0 499.12 4.2 494.92"/>
                  <polygon class="cls-15" points="4.2 494.92 4.2 4.2 1.68 1.68 1.68 497.44 4.2 494.92"/>
                </g>
                <g>
                  <polygon class="cls-5" points="4.2 494.92 0 499.12 1088.42 499.12 1084.22 494.92 4.2 494.92"/>
                  <polygon class="cls-19" points="4.2 494.92 1.68 497.44 1086.74 497.44 1084.22 494.92 4.2 494.92"/>
                </g>
              </g>
            </g>
            <rect class="cls-13" x="298.9" y="-290.45" width="490.73" height="1080.02" transform="translate(793.83 -294.71) rotate(90)"/>
          </g>
          <rect class="cls-8" x="523.22" y="-508.11" width="41.98" height="1073.3" transform="translate(572.76 -515.66) rotate(90)"/>
          <g>
            <path class="cls-11" d="M41.29,36.82h-3.89v-10.47c0-1.13.05-2.38.15-3.75h-.1c-.2,1.07-.39,1.85-.55,2.32l-4.1,11.9h-3.22l-4.17-11.78c-.11-.32-.3-1.13-.55-2.44h-.11c.11,1.73.16,3.24.16,4.54v9.68h-3.55v-17.5h5.77l3.58,10.38c.29.83.49,1.66.62,2.5h.07c.22-.97.45-1.81.7-2.53l3.58-10.35h5.63v17.5Z"/>
            <path class="cls-11" d="M56.79,24.32l-5.08,13.5c-1.22,3.25-3.06,4.87-5.52,4.87-.94,0-1.71-.11-2.31-.32v-3.08c.51.3,1.07.45,1.67.45.99,0,1.68-.47,2.08-1.4l.66-1.55-5.08-12.48h4.27l2.33,7.6c.15.47.26,1.03.34,1.67h.05c.07-.47.21-1.02.4-1.65l2.36-7.63h3.82Z"/>
            <path class="cls-11" d="M78.17,36.19c-1.28.62-2.95.93-5,.93-2.69,0-4.8-.79-6.33-2.37-1.54-1.58-2.31-3.68-2.31-6.31,0-2.8.86-5.07,2.59-6.81,1.73-1.74,3.97-2.61,6.73-2.61,1.71,0,3.15.22,4.32.65v3.8c-1.17-.7-2.51-1.05-4-1.05-1.64,0-2.97.52-3.98,1.55-1.01,1.03-1.51,2.43-1.51,4.2s.48,3.04,1.43,4.05c.95,1.01,2.23,1.51,3.84,1.51s2.95-.37,4.22-1.12v3.6Z"/>
            <path class="cls-11" d="M86.79,37.12c-2.08,0-3.72-.58-4.91-1.75-1.19-1.17-1.79-2.75-1.79-4.75s.62-3.68,1.86-4.85c1.24-1.17,2.91-1.75,5.02-1.75s3.7.58,4.88,1.75c1.18,1.17,1.77,2.71,1.77,4.63,0,2.08-.61,3.72-1.83,4.92-1.22,1.2-2.88,1.81-5,1.81ZM86.89,26.96c-.91,0-1.62.31-2.12.94-.5.63-.76,1.51-.76,2.66,0,2.4.97,3.6,2.91,3.6s2.77-1.23,2.77-3.7c0-2.34-.93-3.5-2.8-3.5Z"/>
            <path class="cls-11" d="M115.97,36.82h-3.85v-7.13c0-1.81-.67-2.72-2-2.72-.63,0-1.15.27-1.55.82-.4.55-.6,1.23-.6,2.04v6.99h-3.86v-7.2c0-1.77-.66-2.65-1.96-2.65-.66,0-1.19.26-1.58.78-.4.52-.59,1.23-.59,2.12v6.95h-3.86v-12.5h3.86v1.95h.05c.4-.67.96-1.21,1.68-1.63.72-.42,1.51-.63,2.36-.63,1.77,0,2.97.78,3.62,2.33.95-1.55,2.35-2.33,4.2-2.33,2.72,0,4.08,1.68,4.08,5.03v7.78Z"/>
            <path class="cls-11" d="M122.93,35.36h-.05v7.2h-3.86v-18.25h3.86v1.88h.05c.95-1.46,2.29-2.19,4.02-2.19,1.62,0,2.87.56,3.75,1.67.88,1.11,1.32,2.62,1.32,4.53,0,2.08-.51,3.76-1.54,5.02-1.03,1.26-2.4,1.89-4.11,1.89-1.51,0-2.65-.59-3.44-1.76ZM122.82,30.24v1c0,.86.23,1.57.68,2.11.46.55,1.05.82,1.79.82.88,0,1.56-.34,2.04-1.02.48-.68.73-1.64.73-2.89,0-2.2-.85-3.3-2.56-3.3-.79,0-1.43.3-1.93.9-.5.6-.75,1.39-.75,2.37Z"/>
            <path class="cls-11" d="M146.4,36.82h-3.84v-1.9h-.06c-.95,1.47-2.23,2.21-3.82,2.21-2.9,0-4.35-1.75-4.35-5.26v-7.54h3.85v7.2c0,1.77.7,2.65,2.1,2.65.69,0,1.25-.24,1.66-.73.42-.48.62-1.14.62-1.97v-7.15h3.84v12.5Z"/>
            <path class="cls-11" d="M157.21,36.67c-.57.3-1.43.45-2.58.45-2.72,0-4.08-1.41-4.08-4.24v-5.73h-2.03v-2.84h2.03v-2.7l3.84-1.1v3.8h2.81v2.84h-2.81v5.05c0,1.3.52,1.95,1.55,1.95.41,0,.83-.12,1.26-.35v2.86Z"/>
            <path class="cls-11" d="M170.51,31.66h-8.15c.13,1.81,1.27,2.72,3.43,2.72,1.38,0,2.58-.33,3.63-.98v2.78c-1.16.62-2.66.93-4.5.93-2.02,0-3.58-.56-4.7-1.68-1.11-1.12-1.67-2.68-1.67-4.68s.6-3.72,1.81-4.93c1.2-1.21,2.69-1.82,4.44-1.82s3.23.54,4.23,1.62c1,1.08,1.5,2.55,1.5,4.41v1.62ZM166.94,29.3c0-1.79-.72-2.69-2.17-2.69-.62,0-1.15.26-1.61.77-.45.51-.73,1.15-.82,1.92h4.6Z"/>
            <path class="cls-11" d="M180.96,27.79c-.46-.25-1-.38-1.62-.38-.84,0-1.49.31-1.96.92-.47.61-.71,1.45-.71,2.51v5.97h-3.86v-12.5h3.86v2.32h.05c.61-1.69,1.71-2.54,3.3-2.54.41,0,.72.05.95.15v3.55Z"/>
          </g>
          <g>
            <g>
              <rect class="cls-13" x="1045.6" y="10.91" width="31.91" height="31.91" transform="translate(1088.42 -1034.68) rotate(90)"/>
              <g>
                <g>
                  <g>
                    <polygon class="cls-5" points="1075.69 12.73 1075.69 41.01 1077.5 42.82 1077.5 10.91 1075.69 12.73"/>
                    <polygon class="cls-19" points="1075.69 12.73 1075.69 41.01 1076.6 41.91 1076.6 11.82 1075.69 12.73"/>
                  </g>
                  <g>
                    <polygon class="cls-3" points="1075.69 12.73 1077.5 10.91 1045.6 10.91 1047.41 12.73 1075.69 12.73"/>
                    <polygon class="cls-15" points="1075.69 12.73 1076.6 11.82 1046.5 11.82 1047.41 12.73 1075.69 12.73"/>
                  </g>
                </g>
                <g>
                  <g>
                    <polygon class="cls-3" points="1047.41 41.01 1047.41 12.73 1045.6 10.91 1045.6 42.82 1047.41 41.01"/>
                    <polygon class="cls-15" points="1047.41 41.01 1047.41 12.73 1046.5 11.82 1046.5 41.91 1047.41 41.01"/>
                  </g>
                  <g>
                    <polygon class="cls-5" points="1047.41 41.01 1045.6 42.82 1077.5 42.82 1075.69 41.01 1047.41 41.01"/>
                    <polygon class="cls-19" points="1047.41 41.01 1046.5 41.91 1076.6 41.91 1075.69 41.01 1047.41 41.01"/>
                  </g>
                </g>
              </g>
              <rect class="cls-13" x="1047.41" y="12.73" width="28.28" height="28.28"/>
            </g>
            <g>
              <rect class="cls-9" x="1049.81" y="25.61" width="23.48" height="2.52" transform="translate(291.92 758.5) rotate(-45)"/>
              <rect class="cls-9" x="1060.29" y="15.13" width="2.52" height="23.48" transform="translate(291.92 758.49) rotate(-45)"/>
            </g>
          </g>
          <g>
            <g>
              <rect class="cls-13" x="1009.49" y="10.91" width="31.91" height="31.91" transform="translate(1052.31 -998.58) rotate(90)"/>
              <g>
                <g>
                  <g>
                    <polygon class="cls-5" points="1039.59 12.73 1039.59 41.01 1041.4 42.82 1041.4 10.91 1039.59 12.73"/>
                    <polygon class="cls-19" points="1039.59 12.73 1039.59 41.01 1040.49 41.91 1040.49 11.82 1039.59 12.73"/>
                  </g>
                  <g>
                    <polygon class="cls-3" points="1039.59 12.73 1041.4 10.91 1009.49 10.91 1011.31 12.73 1039.59 12.73"/>
                    <polygon class="cls-15" points="1039.59 12.73 1040.49 11.82 1010.4 11.82 1011.31 12.73 1039.59 12.73"/>
                  </g>
                </g>
                <g>
                  <g>
                    <polygon class="cls-3" points="1011.31 41.01 1011.31 12.73 1009.49 10.91 1009.49 42.82 1011.31 41.01"/>
                    <polygon class="cls-15" points="1011.31 41.01 1011.31 12.73 1010.4 11.82 1010.4 41.91 1011.31 41.01"/>
                  </g>
                  <g>
                    <polygon class="cls-5" points="1011.31 41.01 1009.49 42.82 1041.4 42.82 1039.59 41.01 1011.31 41.01"/>
                    <polygon class="cls-19" points="1011.31 41.01 1010.4 41.91 1040.49 41.91 1039.59 41.01 1011.31 41.01"/>
                  </g>
                </g>
              </g>
              <rect class="cls-13" x="1011.31" y="12.73" width="28.28" height="28.28"/>
            </g>
            <g>
              <path class="cls-9" d="M1035.01,36.43h-19.12v-19.12h19.12v19.12ZM1018.41,33.91h14.08v-14.08h-14.08v14.08Z"/>
              <rect class="cls-9" x="1017.15" y="18.57" width="16.6" height="3.22"/>
            </g>
          </g>
          <g>
            <g>
              <rect class="cls-13" x="973.39" y="10.91" width="31.91" height="31.91" transform="translate(1016.21 -962.48) rotate(90)"/>
              <g>
                <g>
                  <g>
                    <polygon class="cls-5" points="1003.48 12.73 1003.48 41.01 1005.3 42.82 1005.3 10.91 1003.48 12.73"/>
                    <polygon class="cls-19" points="1003.48 12.73 1003.48 41.01 1004.39 41.91 1004.39 11.82 1003.48 12.73"/>
                  </g>
                  <g>
                    <polygon class="cls-3" points="1003.48 12.73 1005.3 10.91 973.39 10.91 975.2 12.73 1003.48 12.73"/>
                    <polygon class="cls-15" points="1003.48 12.73 1004.39 11.82 974.3 11.82 975.2 12.73 1003.48 12.73"/>
                  </g>
                </g>
                <g>
                  <g>
                    <polygon class="cls-3" points="975.2 41.01 975.2 12.73 973.39 10.91 973.39 42.82 975.2 41.01"/>
                    <polygon class="cls-15" points="975.2 41.01 975.2 12.73 974.3 11.82 974.3 41.91 975.2 41.01"/>
                  </g>
                  <g>
                    <polygon class="cls-5" points="975.2 41.01 973.39 42.82 1005.3 42.82 1003.48 41.01 975.2 41.01"/>
                    <polygon class="cls-19" points="975.2 41.01 974.3 41.91 1004.39 41.91 1003.48 41.01 975.2 41.01"/>
                  </g>
                </g>
              </g>
              <rect class="cls-13" x="975.2" y="12.73" width="28.28" height="28.28"/>
            </g>
            <rect class="cls-9" x="983.29" y="33.49" width="12.11" height="3.36"/>
          </g>
          <g>
            <g>
              <rect class="cls-13" x="376.41" y="-212.88" width="335.59" height="1061.26" transform="translate(226.46 861.96) rotate(-90)"/>
              <g>
                <g>
                  <g>
                    <polygon class="cls-5" points="17.78 481.35 17.78 154.15 13.58 149.95 13.58 485.54 17.78 481.35"/>
                    <polygon class="cls-14" points="17.78 481.35 17.78 154.15 15.26 151.63 15.26 483.86 17.78 481.35"/>
                  </g>
                  <g>
                    <polygon class="cls-3" points="17.78 481.35 13.58 485.54 1074.84 485.54 1070.64 481.35 17.78 481.35"/>
                    <polygon class="cls-15" points="17.78 481.35 15.26 483.86 1073.16 483.86 1070.64 481.35 17.78 481.35"/>
                  </g>
                </g>
                <g>
                  <g>
                    <polygon class="cls-3" points="1070.64 154.15 1070.64 481.35 1074.84 485.54 1074.84 149.95 1070.64 154.15"/>
                    <polygon class="cls-15" points="1070.64 154.15 1070.64 481.35 1073.16 483.86 1073.16 151.63 1070.64 154.15"/>
                  </g>
                  <g>
                    <polygon class="cls-5" points="1070.64 154.15 1074.84 149.95 13.58 149.95 17.78 154.15 1070.64 154.15"/>
                    <polygon class="cls-14" points="1070.64 154.15 1073.16 151.63 15.26 151.63 17.78 154.15 1070.64 154.15"/>
                  </g>
                </g>
              </g>
              <rect class="cls-11" x="380.61" y="-208.68" width="327.2" height="1052.86" transform="translate(226.46 861.96) rotate(-90)"/>
            </g>
            <g>
              <g>
                <g>
                  <rect class="cls-13" x="1038.74" y="154.15" width="31.91" height="31.91" transform="translate(1224.79 -884.59) rotate(90)"/>
                  <g>
                    <g>
                      <g>
                        <polygon class="cls-5" points="1068.83 155.96 1068.83 184.24 1070.64 186.05 1070.64 154.15 1068.83 155.96"/>
                        <polygon class="cls-19" points="1068.83 155.96 1068.83 184.24 1069.73 185.15 1069.73 155.05 1068.83 155.96"/>
                      </g>
                      <g>
                        <polygon class="cls-3" points="1068.83 155.96 1070.64 154.15 1038.74 154.15 1040.55 155.96 1068.83 155.96"/>
                        <polygon class="cls-15" points="1068.83 155.96 1069.73 155.05 1039.64 155.05 1040.55 155.96 1068.83 155.96"/>
                      </g>
                    </g>
                    <g>
                      <g>
                        <polygon class="cls-3" points="1040.55 184.24 1040.55 155.96 1038.74 154.15 1038.74 186.05 1040.55 184.24"/>
                        <polygon class="cls-15" points="1040.55 184.24 1040.55 155.96 1039.64 155.05 1039.64 185.15 1040.55 184.24"/>
                      </g>
                      <g>
                        <polygon class="cls-5" points="1040.55 184.24 1038.74 186.05 1070.64 186.05 1068.83 184.24 1040.55 184.24"/>
                        <polygon class="cls-19" points="1040.55 184.24 1039.64 185.15 1069.73 185.15 1068.83 184.24 1040.55 184.24"/>
                      </g>
                    </g>
                  </g>
                  <rect class="cls-13" x="1040.55" y="155.96" width="28.28" height="28.28"/>
                </g>
                <g>
                  <polygon class="cls-2" points="1047.42 173.77 1054.69 166.43 1061.96 173.77 1047.42 173.77"/>
                  <polygon class="cls-6" points="1047.84 173.35 1061.54 173.35 1061.96 173.77 1047.42 173.77 1047.84 173.35"/>
                </g>
              </g>
              <g>
                <g>
                  <rect class="cls-13" x="1038.74" y="417.54" width="31.91" height="31.91" transform="translate(1488.18 -621.2) rotate(90)"/>
                  <g>
                    <g>
                      <g>
                        <polygon class="cls-5" points="1068.83 419.35 1068.83 447.63 1070.64 449.44 1070.64 417.54 1068.83 419.35"/>
                        <polygon class="cls-19" points="1068.83 419.35 1068.83 447.63 1069.73 448.54 1069.73 418.44 1068.83 419.35"/>
                      </g>
                      <g>
                        <polygon class="cls-3" points="1068.83 419.35 1070.64 417.54 1038.74 417.54 1040.55 419.35 1068.83 419.35"/>
                        <polygon class="cls-15" points="1068.83 419.35 1069.73 418.44 1039.64 418.44 1040.55 419.35 1068.83 419.35"/>
                      </g>
                    </g>
                    <g>
                      <g>
                        <polygon class="cls-3" points="1040.55 447.63 1040.55 419.35 1038.74 417.54 1038.74 449.44 1040.55 447.63"/>
                        <polygon class="cls-15" points="1040.55 447.63 1040.55 419.35 1039.64 418.44 1039.64 448.54 1040.55 447.63"/>
                      </g>
                      <g>
                        <polygon class="cls-5" points="1040.55 447.63 1038.74 449.44 1070.64 449.44 1068.83 447.63 1040.55 447.63"/>
                        <polygon class="cls-19" points="1040.55 447.63 1039.64 448.54 1069.73 448.54 1068.83 447.63 1040.55 447.63"/>
                      </g>
                    </g>
                  </g>
                  <rect class="cls-13" x="1040.55" y="419.35" width="28.28" height="28.28"/>
                </g>
                <g>
                  <polygon class="cls-2" points="1047.42 429.81 1054.69 437.16 1061.96 429.81 1047.42 429.81"/>
                  <polygon class="cls-6" points="1061.43 429.81 1054.43 436.9 1054.69 437.16 1061.96 429.81 1061.43 429.81"/>
                </g>
              </g>
              <rect class="cls-3" x="1038.74" y="186.05" width="31.91" height="231.48"/>
            </g>
            <g>
              <g>
                <g>
                  <rect class="cls-13" x="17.78" y="449.44" width="31.91" height="31.91" transform="translate(499.12 431.66) rotate(90)"/>
                  <g>
                    <g>
                      <g>
                        <polygon class="cls-5" points="47.87 451.25 47.87 479.53 49.68 481.35 49.68 449.44 47.87 451.25"/>
                        <polygon class="cls-19" points="47.87 451.25 47.87 479.53 48.78 480.44 48.78 450.35 47.87 451.25"/>
                      </g>
                      <g>
                        <polygon class="cls-3" points="47.87 451.25 49.68 449.44 17.78 449.44 19.59 451.25 47.87 451.25"/>
                        <polygon class="cls-15" points="47.87 451.25 48.78 450.35 18.68 450.35 19.59 451.25 47.87 451.25"/>
                      </g>
                    </g>
                    <g>
                      <g>
                        <polygon class="cls-3" points="19.59 479.53 19.59 451.25 17.78 449.44 17.78 481.35 19.59 479.53"/>
                        <polygon class="cls-15" points="19.59 479.53 19.59 451.25 18.68 450.35 18.68 480.44 19.59 479.53"/>
                      </g>
                      <g>
                        <polygon class="cls-5" points="19.59 479.53 17.78 481.35 49.68 481.35 47.87 479.53 19.59 479.53"/>
                        <polygon class="cls-19" points="19.59 479.53 18.68 480.44 48.78 480.44 47.87 479.53 19.59 479.53"/>
                      </g>
                    </g>
                  </g>
                  <rect class="cls-13" x="19.59" y="451.25" width="28.28" height="28.28"/>
                </g>
                <g>
                  <polygon class="cls-2" points="37.4 472.66 30.06 465.39 37.4 458.13 37.4 472.66"/>
                  <polygon class="cls-6" points="36.98 472.24 36.98 458.55 37.4 458.13 37.4 472.66 36.98 472.24"/>
                </g>
              </g>
              <g>
                <g>
                  <rect class="cls-13" x="1006.83" y="449.44" width="31.91" height="31.91" transform="translate(1488.18 -557.39) rotate(90)"/>
                  <g>
                    <g>
                      <g>
                        <polygon class="cls-5" points="1036.92 451.25 1036.92 479.53 1038.74 481.35 1038.74 449.44 1036.92 451.25"/>
                        <polygon class="cls-19" points="1036.92 451.25 1036.92 479.53 1037.83 480.44 1037.83 450.35 1036.92 451.25"/>
                      </g>
                      <g>
                        <polygon class="cls-3" points="1036.92 451.25 1038.74 449.44 1006.83 449.44 1008.64 451.25 1036.92 451.25"/>
                        <polygon class="cls-15" points="1036.92 451.25 1037.83 450.35 1007.74 450.35 1008.64 451.25 1036.92 451.25"/>
                      </g>
                    </g>
                    <g>
                      <g>
                        <polygon class="cls-3" points="1008.64 479.53 1008.64 451.25 1006.83 449.44 1006.83 481.35 1008.64 479.53"/>
                        <polygon class="cls-15" points="1008.64 479.53 1008.64 451.25 1007.74 450.35 1007.74 480.44 1008.64 479.53"/>
                      </g>
                      <g>
                        <polygon class="cls-5" points="1008.64 479.53 1006.83 481.35 1038.74 481.35 1036.92 479.53 1008.64 479.53"/>
                        <polygon class="cls-19" points="1008.64 479.53 1007.74 480.44 1037.83 480.44 1036.92 479.53 1008.64 479.53"/>
                      </g>
                    </g>
                  </g>
                  <rect class="cls-13" x="1008.64" y="451.25" width="28.28" height="28.28"/>
                </g>
                <g>
                  <polygon class="cls-2" points="1019.11 472.66 1026.46 465.39 1019.11 458.13 1019.11 472.66"/>
                  <polygon class="cls-6" points="1019.11 458.65 1026.19 465.65 1026.46 465.39 1019.11 458.13 1019.11 458.65"/>
                </g>
              </g>
              <rect class="cls-3" x="49.68" y="449.44" width="957.15" height="31.91"/>
            </g>
            <g>
              <rect class="cls-13" x="1038.74" y="449.44" width="31.91" height="31.91"/>
              <g class="cls-18">
                <g>
                  <rect class="cls-2" x="1039.62" y="468.3" width="38.15" height="1.86" transform="translate(-21.72 886.04) rotate(-45)"/>
                  <rect class="cls-6" x="1040.91" y="469.6" width="38.15" height="1.86" transform="translate(-22.24 887.38) rotate(-45)"/>
                </g>
                <g>
                  <rect class="cls-2" x="1043.63" y="472.32" width="38.15" height="1.86" transform="translate(-23.39 890.02) rotate(-45)"/>
                  <rect class="cls-6" x="1044.93" y="473.61" width="38.15" height="1.86" transform="translate(-23.91 891.36) rotate(-45)"/>
                </g>
                <g>
                  <rect class="cls-2" x="1047.65" y="476.33" width="38.15" height="1.86" transform="translate(-25.06 894.03) rotate(-45)"/>
                  <rect class="cls-6" x="1048.94" y="477.63" width="38.15" height="1.86" transform="translate(-25.58 895.37) rotate(-45)"/>
                </g>
              </g>
            </g>
          </g>
        </g>
        <g>
          <g>
            <rect class="cls-13" x="504.33" y="-430.89" width="79.76" height="1061.26" transform="translate(643.95 -444.46) rotate(90)"/>
            <g>
              <g>
                <g>
                  <polygon class="cls-5" points="1073.16 61.54 1073.16 137.95 1074.84 139.63 1074.84 59.86 1073.16 61.54"/>
                  <polygon class="cls-14" points="1073.16 61.54 1073.16 137.95 1074 138.79 1074 60.7 1073.16 61.54"/>
                </g>
                <g>
                  <polygon class="cls-3" points="1073.16 61.54 1074.84 59.86 13.58 59.86 15.26 61.54 1073.16 61.54"/>
                  <polygon class="cls-15" points="1073.16 61.54 1074 60.7 14.42 60.7 15.26 61.54 1073.16 61.54"/>
                </g>
              </g>
              <g>
                <g>
                  <polygon class="cls-3" points="15.26 137.95 15.26 61.54 13.58 59.86 13.58 139.63 15.26 137.95"/>
                  <polygon class="cls-15" points="15.26 137.95 15.26 61.54 14.42 60.7 14.42 138.79 15.26 137.95"/>
                </g>
                <g>
                  <polygon class="cls-5" points="15.26 137.95 13.58 139.63 1074.84 139.63 1073.16 137.95 15.26 137.95"/>
                  <polygon class="cls-14" points="15.26 137.95 14.42 138.79 1074 138.79 1073.16 137.95 15.26 137.95"/>
                </g>
              </g>
            </g>
            <rect class="cls-13" x="15.26" y="61.54" width="1057.9" height="76.4"/>
          </g>
          <g>
            <path class="cls-2" d="M26.58,133.23c0-.7.56-1.27,1.26-1.27h1032.73c.7,0,1.26.57,1.26,1.27s-.56,1.27-1.26,1.27H27.84c-.7,0-1.26-.57-1.26-1.27Z"/>
            <path class="cls-3" d="M1061.83,133.23c0-.23-.07-.45-.17-.63-.22.38-.62.63-1.08.63H27.84c-.46,0-.87-.26-1.08-.63-.11.19-.17.4-.17.63,0,.7.56,1.27,1.26,1.27h1032.73c.7,0,1.26-.57,1.26-1.27Z"/>
          </g>
          <g>
            <path class="cls-2" d="M26.58,66.26c0-.7.56-1.27,1.26-1.27h1032.73c.7,0,1.26.57,1.26,1.27s-.56,1.27-1.26,1.27H27.84c-.7,0-1.26-.57-1.26-1.27Z"/>
            <path class="cls-3" d="M1061.83,66.26c0-.23-.07-.45-.17-.63-.22.38-.62.63-1.08.63H27.84c-.46,0-.87-.26-1.08-.63-.11.19-.17.4-.17.63,0,.7.56,1.27,1.26,1.27h1032.73c.7,0,1.26-.57,1.26-1.27Z"/>
          </g>
          <g>
            <path class="cls-3" d="M236.06,124.4c-1.39,0-2.52-1.14-2.52-2.54v-44.24c0-1.4,1.13-2.54,2.52-2.54s2.52,1.14,2.52,2.54v44.24c0,1.4-1.13,2.54-2.52,2.54Z"/>
            <path class="cls-2" d="M236.81,75.21c.04.3.03,48.81,0,49.06,1.02-.32,1.77-1.27,1.77-2.41v-44.24c0-1.14-.75-2.09-1.77-2.41Z"/>
          </g>
          <g>
            <path class="cls-3" d="M755.41,124.4c-1.39,0-2.52-1.14-2.52-2.54v-44.24c0-1.4,1.13-2.54,2.52-2.54s2.52,1.14,2.52,2.54v44.24c0,1.4-1.13,2.54-2.52,2.54Z"/>
            <path class="cls-2" d="M756.16,75.21c.04.3.03,48.81,0,49.06,1.02-.32,1.77-1.27,1.77-2.41v-44.24c0-1.14-.75-2.09-1.77-2.41Z"/>
          </g>
          <g>
            <path class="cls-3" d="M29.1,124.4c-1.39,0-2.52-1.14-2.52-2.54v-44.24c0-1.4,1.13-2.54,2.52-2.54s2.52,1.14,2.52,2.54v44.24c0,1.4-1.13,2.54-2.52,2.54Z"/>
            <path class="cls-2" d="M29.85,75.21c.04.3.03,48.81,0,49.06,1.02-.32,1.77-1.27,1.77-2.41v-44.24c0-1.14-.75-2.09-1.77-2.41Z"/>
          </g>
          <g>
            <path class="cls-3" d="M105.56,124.4c-1.39,0-2.52-1.14-2.52-2.54v-44.24c0-1.4,1.13-2.54,2.52-2.54s2.52,1.14,2.52,2.54v44.24c0,1.4-1.13,2.54-2.52,2.54Z"/>
            <path class="cls-2" d="M106.31,75.21c.04.3.03,48.81,0,49.06,1.02-.32,1.77-1.27,1.77-2.41v-44.24c0-1.14-.75-2.09-1.77-2.41Z"/>
          </g>
          <g>
            <g>
              <rect class="cls-13" x="891.52" y="-45.91" width="49.32" height="291.31" transform="translate(816.43 1015.92) rotate(-90)"/>
              <g>
                <g>
                  <g>
                    <polygon class="cls-5" points="774.72 120.21 774.72 79.28 770.52 75.08 770.52 124.4 774.72 120.21"/>
                    <polygon class="cls-19" points="774.72 120.21 774.72 79.28 772.2 76.76 772.2 122.72 774.72 120.21"/>
                  </g>
                  <g>
                    <polygon class="cls-3" points="774.72 120.21 770.52 124.4 1061.83 124.4 1057.64 120.21 774.72 120.21"/>
                    <polygon class="cls-15" points="774.72 120.21 772.2 122.72 1060.15 122.72 1057.64 120.21 774.72 120.21"/>
                  </g>
                </g>
                <g>
                  <g>
                    <polygon class="cls-3" points="1057.64 79.28 1057.64 120.21 1061.83 124.4 1061.83 75.08 1057.64 79.28"/>
                    <polygon class="cls-15" points="1057.64 79.28 1057.64 120.21 1060.15 122.72 1060.15 76.76 1057.64 79.28"/>
                  </g>
                  <g>
                    <polygon class="cls-5" points="1057.64 79.28 1061.83 75.08 770.52 75.08 774.72 79.28 1057.64 79.28"/>
                    <polygon class="cls-19" points="1057.64 79.28 1060.15 76.76 772.2 76.76 774.72 79.28 1057.64 79.28"/>
                  </g>
                </g>
              </g>
              <rect class="cls-11" x="895.72" y="-41.71" width="40.92" height="282.91" transform="translate(816.43 1015.92) rotate(-90)"/>
            </g>
            <path class="cls-5" d="M810.57,111.5l-8.19-8.19c1.46-1.84,2.33-4.16,2.33-6.68,0-5.95-4.84-10.8-10.8-10.8s-10.8,4.84-10.8,10.8,4.84,10.8,10.8,10.8c2.52,0,4.84-.88,6.68-2.33l8.19,8.19c.25.25.57.37.89.37s.64-.12.89-.37c.49-.49.49-1.29,0-1.78ZM785.64,96.63c0-4.56,3.71-8.28,8.28-8.28s8.28,3.71,8.28,8.28-3.71,8.28-8.28,8.28-8.28-3.71-8.28-8.28Z"/>
            <g>
              <path class="cls-1" d="M829.32,109.72c-.43-.39-.55-.74-.34-1.03l.64-.92c.22-.32.58-.3,1.07.07.65.48,1.32.88,2.02,1.19.7.31,1.55.47,2.55.47.74,0,1.36-.11,1.87-.33.51-.22.92-.54,1.22-.95.31-.41.46-.92.46-1.51,0-.43-.06-.82-.19-1.19-.13-.37-.33-.67-.61-.92-.28-.25-.57-.44-.87-.58-.5-.22-1.25-.48-2.24-.78-1-.3-1.87-.62-2.61-.96-.74-.36-1.33-.79-1.77-1.29-.44-.51-.73-1.03-.87-1.56s-.21-1.14-.21-1.82c0-1.04.3-1.94.91-2.69.61-.75,1.35-1.25,2.23-1.5.88-.25,1.78-.37,2.69-.37,1.04,0,1.95.13,2.72.4.77.27,1.46.62,2.07,1.05.43.3.52.62.3.96l-.63.9c-.19.27-.56.21-1.11-.17-.42-.3-.93-.57-1.53-.83-.6-.26-1.2-.39-1.79-.39-.75,0-1.38.09-1.88.26-.5.18-.89.47-1.18.89-.29.42-.43.9-.43,1.45,0,.34.03.66.1.95.07.29.23.59.5.89.27.3.6.54.98.7.52.22,1.32.48,2.4.78,1.09.3,2.04.67,2.85,1.1.75.4,1.3.82,1.63,1.26.33.44.59.92.77,1.43.18.51.28,1.09.28,1.73,0,1.17-.3,2.14-.9,2.92-.6.78-1.31,1.32-2.13,1.62-.82.3-1.85.46-3.09.46-1.48,0-2.71-.17-3.69-.52-.98-.34-1.71-.74-2.19-1.18Z"/>
              <path class="cls-1" d="M843.38,104.59c0-2.03.51-3.65,1.53-4.86,1.02-1.21,2.47-1.81,4.37-1.81,1.57,0,2.88.55,3.92,1.65,1.04,1.1,1.56,2.86,1.56,5.28,0,.37-.17.55-.51.55h-8.62c.14,1.59.57,2.69,1.29,3.31.72.62,1.53.93,2.44.93.96,0,1.69-.16,2.2-.48.51-.32.89-.64,1.13-.95.26-.34.52-.41.76-.2l.72.63c.19.16.19.39,0,.68-.16.24-.6.62-1.33,1.14-.73.52-1.89.78-3.46.78-2.05,0-3.56-.6-4.53-1.81-.97-1.21-1.46-2.82-1.46-4.86ZM845.62,103.82h6.95c-.03-1.15-.33-2.15-.89-3.02s-1.38-1.3-2.46-1.3c-.95,0-1.76.32-2.42.95-.66.64-1.06,1.76-1.18,3.36Z"/>
              <path class="cls-1" d="M856.88,107.61c0-1.46.68-2.53,2.05-3.21,1.37-.68,3.41-1.08,6.12-1.19v-.84c0-.77-.17-1.44-.52-2-.35-.56-1.04-.84-2.07-.84-.66,0-1.18.06-1.57.19-.39.13-.75.3-1.08.5-.32.21-.63.48-.93.81-.22.25-.43.26-.63.04l-.64-.74c-.18-.2-.12-.45.19-.74.43-.41.86-.72,1.27-.92.41-.21.92-.38,1.53-.52s1.23-.22,1.86-.22c1.71,0,2.94.44,3.67,1.32.73.88,1.1,2.09,1.1,3.62v7.63c0,.37-.19.55-.56.55h-1.12c-.32,0-.49-.18-.49-.55v-.6c-.65.51-1.28.86-1.9,1.06-.62.2-1.31.3-2.07.3-1.34,0-2.38-.32-3.1-.97-.73-.64-1.09-1.54-1.09-2.69ZM859.12,107.66c0,.51.11.92.32,1.22.21.31.51.5.89.59.38.09.77.13,1.18.13.63,0,1.23-.06,1.8-.18.57-.12,1.15-.45,1.75-.97v-3.63c-1.66.12-2.84.27-3.54.45-.71.18-1.28.48-1.72.91-.44.43-.66.92-.66,1.48Z"/>
              <path class="cls-1" d="M871.25,111.05c-.36,0-.55-.18-.55-.55v-11.81c0-.37.18-.55.55-.55h1.03c.37,0,.55.18.55.55v1.48c.4-.74.87-1.3,1.4-1.67.54-.38,1.21-.57,2.01-.57.53,0,.9.05,1.12.14.19.07.26.2.21.37l-.28,1.01c-.04.15-.15.2-.32.17-.29-.06-.56-.09-.82-.09-.96,0-1.76.43-2.39,1.3-.63.86-.94,2.04-.94,3.54v6.14c0,.37-.18.55-.55.55h-1.05Z"/>
              <path class="cls-1" d="M878.88,104.59c0-1.93.48-3.52,1.43-4.78s2.42-1.89,4.38-1.89c1.33,0,2.34.24,3.04.71.7.47,1.21.95,1.52,1.45.17.27.14.49-.11.65l-.78.5c-.25.17-.49.06-.74-.33-.24-.38-.57-.7-1-.97-.43-.27-1.08-.41-1.94-.41-1.12,0-1.99.41-2.61,1.24-.61.83-.92,2.1-.92,3.83s.31,3,.92,3.82c.61.83,1.48,1.24,2.61,1.24.91,0,1.61-.17,2.09-.52.48-.35.84-.73,1.06-1.14.21-.39.45-.5.72-.33l.82.49c.25.15.28.37.11.66-.2.35-.67.85-1.4,1.48-.73.64-1.86.95-3.41.95-1.97,0-3.43-.63-4.38-1.89-.96-1.26-1.43-2.85-1.43-4.78Z"/>
              <path class="cls-1" d="M892.76,111.05c-.37,0-.55-.18-.55-.55v-17.05c0-.37.18-.55.55-.55h1.06c.37,0,.55.18.55.55v5.49c0,.25,0,.49-.02.74h.02c.53-.59,1.11-1.03,1.73-1.32.62-.29,1.39-.43,2.31-.43,1.5,0,2.57.42,3.23,1.26.65.84.98,1.99.98,3.45v7.86c0,.37-.19.55-.55.55h-1.06c-.37,0-.55-.18-.55-.55v-7.27c0-1.61-.27-2.63-.8-3.06-.53-.43-1.21-.65-2.03-.65-1.07,0-1.87.32-2.42.95s-.82,1.72-.82,3.27v6.75c0,.37-.19.55-.55.55h-1.06Z"/>
            </g>
          </g>
          <g>
            <rect class="cls-13" x="471.08" y="-144.82" width="49.32" height="489.13" transform="translate(395.99 595.48) rotate(-90)"/>
            <g>
              <g>
                <g>
                  <polygon class="cls-5" points="255.37 120.21 255.37 79.28 251.17 75.08 251.17 124.4 255.37 120.21"/>
                  <polygon class="cls-19" points="255.37 120.21 255.37 79.28 252.85 76.76 252.85 122.72 255.37 120.21"/>
                </g>
                <g>
                  <polygon class="cls-3" points="255.37 120.21 251.17 124.4 740.3 124.4 736.1 120.21 255.37 120.21"/>
                  <polygon class="cls-15" points="255.37 120.21 252.85 122.72 738.62 122.72 736.1 120.21 255.37 120.21"/>
                </g>
              </g>
              <g>
                <g>
                  <polygon class="cls-3" points="736.1 79.28 736.1 120.21 740.3 124.4 740.3 75.08 736.1 79.28"/>
                  <polygon class="cls-15" points="736.1 79.28 736.1 120.21 738.62 122.72 738.62 76.76 736.1 79.28"/>
                </g>
                <g>
                  <polygon class="cls-5" points="736.1 79.28 740.3 75.08 251.17 75.08 255.37 79.28 736.1 79.28"/>
                  <polygon class="cls-19" points="736.1 79.28 738.62 76.76 252.85 76.76 255.37 79.28 736.1 79.28"/>
                </g>
              </g>
            </g>
            <rect class="cls-11" x="475.27" y="-140.62" width="40.92" height="480.73" transform="translate(395.99 595.48) rotate(-90)"/>
          </g>
          <g>
            <g>
              <polygon class="cls-10" points="263.25 112.94 263.25 91.25 282.66 91.25 304.18 91.25 304.18 112.94 263.25 112.94"/>
              <g>
                <g>
                  <polygon class="cls-7" points="303.07 92.36 303.07 111.82 303.82 112.58 303.82 91.61 303.07 92.36"/>
                  <g>
                    <g>
                      <polygon class="cls-15" points="263.61 91.61 263.61 112.58 263.99 112.2 263.99 91.98 263.61 91.61"/>
                      <polygon class="cls-12" points="264.37 92.36 263.99 91.98 263.99 112.2 264.37 111.82 264.37 92.36"/>
                    </g>
                    <polygon class="cls-19" points="264.37 111.82 263.61 112.58 303.82 112.58 303.07 111.82 264.37 111.82"/>
                    <polygon class="cls-7" points="264.37 111.82 263.99 112.2 303.44 112.2 303.07 111.82 264.37 111.82"/>
                    <polygon class="cls-19" points="303.07 92.36 303.07 111.82 303.82 112.58 303.82 91.61 303.07 92.36"/>
                    <polygon class="cls-7" points="303.44 91.99 303.07 92.36 303.07 111.82 303.44 112.2 303.44 91.99"/>
                  </g>
                </g>
                <rect class="cls-17" x="264.37" y="92.36" width="38.7" height="19.46"/>
                <g>
                  <polygon class="cls-12" points="263.99 91.98 264.37 92.36 303.07 92.36 303.44 91.98 263.99 91.98"/>
                  <polygon class="cls-15" points="303.82 91.61 263.61 91.61 263.99 91.98 303.44 91.98 303.82 91.61"/>
                </g>
              </g>
              <polygon class="cls-5" points="304.18 91.25 303.82 91.61 303.82 112.58 304.18 112.94 304.18 91.25"/>
              <polygon class="cls-5" points="304.18 112.94 303.82 112.58 263.61 112.58 263.25 112.94 304.18 112.94"/>
            </g>
            <g>
              <polygon class="cls-17" points="278.19 86.55 267.2 86.55 263.25 91.25 282.14 91.25 278.19 86.55"/>
              <polygon class="cls-12" points="277.89 87.2 281.28 91.25 282.14 91.25 278.19 86.55 267.2 86.55 263.25 91.25 264.1 91.25 267.5 87.2 277.89 87.2"/>
              <g>
                <polygon class="cls-10" points="267.2 86.55 263.25 91.25 263.61 91.25 267.28 86.88 267.2 86.55"/>
                <g>
                  <path class="cls-10" d="M267.2,86.55l.08.33h10.82l.08-.33h-10.99Z"/>
                  <polygon class="cls-10" points="278.19 86.55 278.11 86.88 281.78 91.25 282.14 91.25 278.19 86.55"/>
                </g>
              </g>
            </g>
          </g>
          <g>
            <g>
              <path class="cls-2" d="M49.38,87.93c0-1.16.94-2.11,2.09-2.11h31.4c1.15,0,2.09.94,2.09,2.11s-.94,2.11-2.09,2.11h-31.4c-1.15,0-2.09-.94-2.09-2.11Z"/>
              <path class="cls-14" d="M84.96,87.93c0-.39-.11-.74-.29-1.05-.36.63-1.03,1.05-1.8,1.05h-31.4c-.77,0-1.44-.43-1.8-1.05-.18.31-.29.67-.29,1.05,0,1.16.94,2.11,2.09,2.11h31.4c1.15,0,2.09-.94,2.09-2.11Z"/>
            </g>
            <g>
              <path class="cls-2" d="M49.38,99.22c0-1.16.94-2.11,2.09-2.11h31.4c1.15,0,2.09.94,2.09,2.11s-.94,2.11-2.09,2.11h-31.4c-1.15,0-2.09-.94-2.09-2.11Z"/>
              <path class="cls-14" d="M84.96,99.22c0-.39-.11-.74-.29-1.05-.36.63-1.03,1.05-1.8,1.05h-31.4c-.77,0-1.44-.43-1.8-1.05-.18.31-.29.67-.29,1.05,0,1.16.94,2.11,2.09,2.11h31.4c1.15,0,2.09-.94,2.09-2.11Z"/>
            </g>
            <g>
              <path class="cls-2" d="M49.38,111.56c0-1.16.94-2.11,2.09-2.11h31.4c1.15,0,2.09.94,2.09,2.11s-.94,2.11-2.09,2.11h-31.4c-1.15,0-2.09-.94-2.09-2.11Z"/>
              <path class="cls-14" d="M84.96,111.56c0-.39-.11-.74-.29-1.05-.36.63-1.03,1.05-1.8,1.05h-31.4c-.77,0-1.44-.43-1.8-1.05-.18.31-.29.67-.29,1.05,0,1.16.94,2.11,2.09,2.11h31.4c1.15,0,2.09-.94,2.09-2.11Z"/>
            </g>
          </g>
          <g>
            <g>
              <polygon class="cls-9" points="138.59 85.85 125.84 99.74 138.59 113.64 138.59 104.62 163.79 104.62 163.79 94.87 138.59 94.87 138.59 85.85"/>
              <g>
                <polygon class="cls-3" points="138.59 103.78 137.75 103.78 137.75 104.62 137.75 111.48 126.41 99.12 125.84 99.74 138.59 113.64 138.59 104.62 163.79 104.62 162.95 103.78 138.59 103.78"/>
                <polygon class="cls-2" points="162.95 94.87 162.95 103.78 163.79 104.62 163.79 94.87 162.95 94.87"/>
              </g>
            </g>
            <g>
              <polygon class="cls-20" points="203.03 85.85 215.78 99.74 203.03 113.64 203.03 104.62 177.83 104.62 177.83 94.87 203.03 94.87 203.03 85.85"/>
              <polygon class="cls-16" points="203.87 111.48 203.87 104.62 203.87 103.78 203.03 103.78 177.83 103.78 177.83 104.62 203.03 104.62 203.03 113.64 215.78 99.74 215.21 99.12 203.87 111.48"/>
            </g>
          </g>
          <g>
            <path class="cls-1" d="M314.64,99.34c0-2.87.71-5.12,2.13-6.75,1.42-1.63,3.47-2.44,6.13-2.44,1.56,0,2.85.26,3.86.79,1.02.53,1.75,1.25,2.19,2.17.23.48.19.8-.11.98l-.97.57c-.33.19-.62.03-.87-.47-.27-.52-.71-1-1.33-1.45-.61-.45-1.5-.68-2.64-.68-2.05,0-3.54.64-4.47,1.91-.93,1.28-1.4,3.06-1.4,5.36s.47,4.08,1.4,5.36c.93,1.27,2.42,1.91,4.47,1.91,1.18,0,2.13-.27,2.83-.81.71-.54,1.22-1.11,1.54-1.7.25-.48.55-.62.89-.43l1.02.58c.3.17.32.5.07.98-.48.94-1.27,1.73-2.36,2.36-1.09.63-2.46.94-4.12.94-2.66,0-4.71-.81-6.13-2.44-1.42-1.63-2.13-3.88-2.13-6.75Z"/>
            <path class="cls-1" d="M333.75,97.85c-.37,0-.55-.18-.55-.55v-1.5c0-.37.18-.55.55-.55h1.38c.37,0,.55.18.55.55v1.5c0,.37-.18.55-.55.55h-1.38ZM333.75,108.16c-.37,0-.55-.18-.55-.55v-1.5c0-.37.18-.55.55-.55h1.38c.37,0,.55.18.55.55v1.5c0,.37-.18.55-.55.55h-1.38Z"/>
            <path class="cls-1" d="M338.43,91.05c-.14-.34-.08-.57.18-.68l.55-.22c.28-.11.49,0,.63.34l8.79,21.78c.14.34.07.57-.21.69l-.55.22c-.26.11-.46-.01-.6-.36l-8.79-21.78Z"/>
            <path class="cls-1" d="M350.55,101.43v-10.23c0-.45.2-.68.61-.68h1.13c.41,0,.61.23.61.68v9.86c0,2.3.33,3.79.98,4.5.65.7,1.72,1.05,3.19,1.05s2.54-.35,3.19-1.05c.65-.7.98-2.2.98-4.5v-9.86c0-.45.2-.68.61-.68h1.13c.41,0,.61.23.61.68v10.23c0,2.6-.6,4.43-1.79,5.5-1.19,1.07-2.77,1.6-4.74,1.6s-3.55-.53-4.74-1.6c-1.19-1.07-1.79-2.9-1.79-5.5Z"/>
            <path class="cls-1" d="M366.95,106.95c-.25-.24-.31-.46-.16-.66l.55-.77c.18-.25.45-.23.8.04.48.37,1.02.66,1.62.89.59.22,1.27.33,2.04.33.45,0,.85-.05,1.21-.17.35-.11.66-.32.93-.62.27-.3.4-.71.4-1.22,0-.3-.06-.57-.19-.84-.13-.26-.32-.47-.59-.63s-.53-.29-.78-.38c-.42-.16-.83-.29-1.25-.39-.41-.1-.96-.26-1.63-.48-.45-.14-.88-.34-1.28-.59-.4-.26-.75-.61-1.05-1.05-.3-.44-.45-1.05-.45-1.83s.24-1.48.73-2.05c.48-.57,1.09-.97,1.82-1.17.73-.21,1.44-.31,2.13-.31,1.02,0,1.83.12,2.45.35.62.23,1.15.51,1.61.83.26.19.3.41.11.65l-.55.74c-.17.24-.44.23-.8-.02-.3-.21-.73-.41-1.29-.6-.56-.19-1.05-.28-1.46-.28-.52,0-.96.06-1.33.17-.37.11-.67.31-.9.59-.23.28-.34.61-.34.98,0,.29.05.54.14.77.09.23.26.43.5.62.25.19.59.34,1.03.45.69.18,1.32.34,1.89.49.57.15,1.08.33,1.54.54.6.28,1.06.59,1.38.92.32.34.55.7.67,1.09.12.39.18.82.18,1.3,0,.88-.26,1.62-.78,2.23-.52.61-1.1,1.01-1.74,1.21s-1.41.3-2.31.3c-1.22,0-2.27-.17-3.14-.52-.87-.35-1.44-.65-1.69-.89Z"/>
            <path class="cls-1" d="M378.36,101.7c0-2.03.51-3.65,1.53-4.86,1.02-1.21,2.47-1.81,4.37-1.81,1.57,0,2.88.55,3.92,1.65,1.04,1.1,1.56,2.86,1.56,5.28,0,.37-.17.55-.51.55h-8.62c.14,1.59.57,2.69,1.29,3.31.72.62,1.53.93,2.44.93.96,0,1.69-.16,2.2-.48.51-.32.89-.64,1.13-.95.26-.34.52-.41.76-.2l.73.63c.19.16.19.39,0,.68-.16.24-.6.62-1.33,1.14s-1.89.78-3.46.78c-2.05,0-3.56-.6-4.53-1.81-.97-1.21-1.46-2.82-1.46-4.86ZM380.6,100.92h6.95c-.03-1.15-.33-2.15-.89-3.02-.56-.87-1.38-1.3-2.46-1.3-.95,0-1.76.32-2.42.95-.66.64-1.06,1.76-1.18,3.36Z"/>
            <path class="cls-1" d="M393.11,108.16c-.36,0-.55-.18-.55-.55v-11.81c0-.37.18-.55.55-.55h1.03c.37,0,.55.18.55.55v1.48c.4-.74.87-1.3,1.4-1.67.54-.38,1.21-.57,2.01-.57.53,0,.9.05,1.12.14.19.07.26.2.21.37l-.28,1.01c-.04.15-.15.21-.32.17-.29-.06-.56-.09-.82-.09-.96,0-1.76.43-2.39,1.3-.63.86-.94,2.04-.94,3.54v6.14c0,.37-.18.55-.55.55h-1.05Z"/>
            <path class="cls-1" d="M399.99,91.05c-.14-.34-.08-.57.18-.68l.55-.22c.28-.11.49,0,.63.34l8.79,21.78c.14.34.07.57-.21.69l-.55.22c-.26.11-.46-.01-.6-.36l-8.79-21.78Z"/>
            <path class="cls-1" d="M412.74,108.16c-.41,0-.62-.23-.62-.68v-16.28c0-.45.21-.68.62-.68h10.02c.45,0,.68.18.68.55v.91c0,.37-.23.55-.68.55h-8.28v5.83h7.22c.45,0,.68.18.68.55v.91c0,.37-.23.55-.68.55h-7.22v7.1c0,.45-.2.68-.61.68h-1.13Z"/>
            <path class="cls-1" d="M426.67,92.9c-.37,0-.55-.18-.55-.55v-1.06c0-.37.18-.55.55-.55h1.06c.37,0,.55.18.55.55v1.06c0,.37-.18.55-.55.55h-1.06ZM426.67,108.16c-.37,0-.55-.18-.55-.55v-11.81c0-.37.18-.55.55-.55h1.06c.37,0,.55.18.55.55v11.81c0,.37-.18.55-.55.55h-1.06Z"/>
            <path class="cls-1" d="M432.33,108.16c-.37,0-.55-.18-.55-.55v-15.35c0-.16.04-.32.12-.47l.86-1.56c.16-.29.28-.43.38-.43h.43c.25,0,.37.14.37.43v17.38c0,.37-.18.55-.55.55h-1.06Z"/>
            <path class="cls-1" d="M436.73,101.7c0-2.03.51-3.65,1.52-4.86s2.47-1.81,4.37-1.81c1.57,0,2.88.55,3.92,1.65,1.04,1.1,1.56,2.86,1.56,5.28,0,.37-.17.55-.51.55h-8.62c.14,1.59.57,2.69,1.29,3.31.72.62,1.53.93,2.44.93.96,0,1.69-.16,2.2-.48.51-.32.89-.64,1.13-.95.26-.34.52-.41.76-.2l.73.63c.19.16.19.39,0,.68-.16.24-.6.62-1.33,1.14s-1.89.78-3.46.78c-2.05,0-3.56-.6-4.53-1.81-.97-1.21-1.46-2.82-1.46-4.86ZM438.97,100.92h6.95c-.03-1.15-.33-2.15-.89-3.02-.56-.87-1.38-1.3-2.46-1.3-.95,0-1.76.32-2.42.95s-1.06,1.76-1.18,3.36Z"/>
          </g>
        </g>
      </g>
      <g>
        <g>
          <g>
            <polygon class="cls-10" points="49.68 280.79 49.68 197.85 123.9 197.85 206.19 197.85 206.19 280.79 49.68 280.79"/>
            <g>
              <g>
                <polygon class="cls-7" points="201.93 202.12 201.93 276.52 204.82 279.42 204.82 199.22 201.93 202.12"/>
                <g>
                  <g>
                    <polygon class="cls-15" points="51.05 199.22 51.05 279.42 52.5 277.97 52.5 200.67 51.05 199.22"/>
                    <polygon class="cls-12" points="53.95 202.12 52.5 200.67 52.5 277.97 53.95 276.52 53.95 202.12"/>
                  </g>
                  <polygon class="cls-19" points="53.95 276.52 51.05 279.42 204.82 279.42 201.93 276.52 53.95 276.52"/>
                  <polygon class="cls-7" points="53.95 276.52 52.5 277.97 203.37 277.97 201.93 276.52 53.95 276.52"/>
                  <polygon class="cls-19" points="201.93 202.12 201.93 276.52 204.82 279.42 204.82 199.22 201.93 202.12"/>
                  <polygon class="cls-7" points="203.37 200.67 201.93 202.12 201.93 276.52 203.37 277.97 203.37 200.67"/>
                </g>
              </g>
              <rect class="cls-17" x="53.95" y="202.12" width="147.98" height="74.41"/>
              <g>
                <polygon class="cls-12" points="52.5 200.67 53.95 202.12 201.93 202.12 203.37 200.67 52.5 200.67"/>
                <polygon class="cls-15" points="204.82 199.22 51.05 199.22 52.5 200.67 203.37 200.67 204.82 199.22"/>
              </g>
            </g>
            <polygon class="cls-5" points="206.19 197.85 204.82 199.22 204.82 279.42 206.19 280.79 206.19 197.85"/>
            <polygon class="cls-5" points="206.19 280.79 204.82 279.42 51.05 279.42 49.68 280.79 206.19 280.79"/>
          </g>
          <g>
            <polygon class="cls-17" points="106.8 179.89 64.77 179.89 49.68 197.85 121.89 197.85 106.8 179.89"/>
            <polygon class="cls-12" points="105.64 182.39 118.63 197.85 121.89 197.85 106.8 179.89 64.77 179.89 49.68 197.85 52.95 197.85 65.94 182.39 105.64 182.39"/>
            <g>
              <polygon class="cls-10" points="64.77 179.89 49.68 197.85 51.05 197.85 65.09 181.14 64.77 179.89"/>
              <g>
                <path class="cls-10" d="M64.77,179.89l.32,1.25h41.39l.32-1.25h-42.03Z"/>
                <polygon class="cls-10" points="106.8 179.89 106.48 181.14 120.52 197.85 121.89 197.85 106.8 179.89"/>
              </g>
            </g>
          </g>
        </g>
        <g>
          <path d="M108.78,310.64c0-3.39.84-6.05,2.52-7.98s4.1-2.89,7.25-2.89c1.84,0,3.37.31,4.57.94,1.2.63,2.07,1.48,2.59,2.57.27.56.23.95-.13,1.16l-1.15.67c-.39.22-.73.04-1.03-.55-.32-.61-.84-1.18-1.57-1.72-.73-.53-1.77-.8-3.13-.8-2.42,0-4.19.75-5.29,2.26-1.1,1.51-1.65,3.62-1.65,6.33s.55,4.83,1.65,6.33c1.1,1.51,2.86,2.26,5.29,2.26,1.4,0,2.51-.32,3.35-.96.84-.64,1.45-1.31,1.83-2.01.3-.56.65-.73,1.05-.51l1.21.68c.35.2.38.59.09,1.16-.57,1.12-1.5,2.04-2.79,2.79-1.29.74-2.91,1.11-4.87,1.11-3.15,0-5.57-.96-7.25-2.89s-2.52-4.58-2.52-7.98Z"/>
          <path d="M131.39,308.88c-.44,0-.65-.22-.65-.66v-1.77c0-.44.22-.65.65-.65h1.63c.44,0,.65.22.65.65v1.77c0,.44-.22.66-.65.66h-1.63ZM131.39,321.07c-.44,0-.65-.22-.65-.65v-1.77c0-.44.22-.66.65-.66h1.63c.44,0,.65.22.65.66v1.77c0,.44-.22.65-.65.65h-1.63Z"/>
          <path d="M136.91,300.84c-.17-.41-.09-.67.22-.8l.66-.26c.33-.14.58,0,.74.41l10.4,25.76c.16.41.08.68-.25.81l-.66.26c-.31.13-.55-.02-.71-.42l-10.4-25.76Z"/>
        </g>
      </g>
      <g>
        <g>
          <g>
            <polygon class="cls-10" points="583.47 280.79 583.47 197.85 657.69 197.85 739.98 197.85 739.98 280.79 583.47 280.79"/>
            <g>
              <g>
                <polygon class="cls-7" points="735.71 202.12 735.71 276.52 738.61 279.42 738.61 199.22 735.71 202.12"/>
                <g>
                  <g>
                    <polygon class="cls-15" points="584.84 199.22 584.84 279.42 586.29 277.97 586.29 200.67 584.84 199.22"/>
                    <polygon class="cls-12" points="587.73 202.12 586.29 200.67 586.29 277.97 587.73 276.52 587.73 202.12"/>
                  </g>
                  <polygon class="cls-19" points="587.73 276.52 584.84 279.42 738.61 279.42 735.71 276.52 587.73 276.52"/>
                  <polygon class="cls-7" points="587.73 276.52 586.29 277.97 737.16 277.97 735.71 276.52 587.73 276.52"/>
                  <polygon class="cls-19" points="735.71 202.12 735.71 276.52 738.61 279.42 738.61 199.22 735.71 202.12"/>
                  <polygon class="cls-7" points="737.16 200.67 735.71 202.12 735.71 276.52 737.16 277.97 737.16 200.67"/>
                </g>
              </g>
              <rect class="cls-17" x="587.73" y="202.12" width="147.98" height="74.41"/>
              <g>
                <polygon class="cls-12" points="586.29 200.67 587.73 202.12 735.71 202.12 737.16 200.67 586.29 200.67"/>
                <polygon class="cls-15" points="738.61 199.22 584.84 199.22 586.29 200.67 737.16 200.67 738.61 199.22"/>
              </g>
            </g>
            <polygon class="cls-5" points="739.98 197.85 738.61 199.22 738.61 279.42 739.98 280.79 739.98 197.85"/>
            <polygon class="cls-5" points="739.98 280.79 738.61 279.42 584.84 279.42 583.47 280.79 739.98 280.79"/>
          </g>
          <g>
            <polygon class="cls-17" points="640.59 179.89 598.56 179.89 583.47 197.85 655.68 197.85 640.59 179.89"/>
            <polygon class="cls-12" points="639.43 182.39 652.42 197.85 655.68 197.85 640.59 179.89 598.56 179.89 583.47 197.85 586.73 197.85 599.72 182.39 639.43 182.39"/>
            <g>
              <polygon class="cls-10" points="598.56 179.89 583.47 197.85 584.84 197.85 598.88 181.14 598.56 179.89"/>
              <g>
                <path class="cls-10" d="M598.56,179.89l.32,1.25h41.39l.32-1.25h-42.03Z"/>
                <polygon class="cls-10" points="640.59 179.89 640.27 181.14 654.31 197.85 655.68 197.85 640.59 179.89"/>
              </g>
            </g>
          </g>
        </g>
        <g>
          <path d="M641.77,321.07c-.48,0-.73-.27-.73-.8v-19.26c0-.53.24-.8.73-.8h11.86c.53,0,.8.22.8.66v1.08c0,.44-.27.65-.8.65h-9.79v6.89h8.54c.53,0,.8.22.8.65v1.08c0,.44-.27.65-.8.65h-8.54v8.39c0,.53-.24.8-.73.8h-1.34Z"/>
          <path d="M658.25,303.03c-.44,0-.66-.22-.66-.65v-1.25c0-.44.22-.65.66-.65h1.25c.44,0,.65.22.65.65v1.25c0,.44-.22.65-.65.65h-1.25ZM658.25,321.07c-.44,0-.66-.22-.66-.65v-13.96c0-.44.22-.65.66-.65h1.25c.44,0,.65.22.65.65v13.96c0,.44-.22.65-.65.65h-1.25Z"/>
          <path d="M664.94,321.07c-.44,0-.66-.22-.66-.65v-18.15c0-.19.05-.38.15-.55l1.02-1.85c.18-.34.33-.51.45-.51h.51c.29,0,.44.17.44.51v20.55c0,.44-.22.65-.66.65h-1.25Z"/>
          <path d="M670.15,313.43c0-2.4.6-4.32,1.8-5.75,1.2-1.43,2.92-2.14,5.16-2.14,1.86,0,3.41.65,4.63,1.96,1.23,1.3,1.84,3.39,1.84,6.25,0,.44-.2.65-.6.65h-10.19c.17,1.88.67,3.18,1.52,3.92.85.73,1.81,1.1,2.89,1.1,1.13,0,2-.19,2.61-.57.61-.38,1.05-.75,1.33-1.12.31-.41.61-.48.9-.23l.86.74c.22.19.22.46,0,.8-.18.28-.71.73-1.58,1.34-.87.62-2.23.92-4.09.92-2.42,0-4.21-.71-5.36-2.14-1.15-1.43-1.72-3.34-1.72-5.75ZM672.79,312.52h8.22c-.04-1.36-.39-2.55-1.05-3.57-.66-1.02-1.63-1.53-2.91-1.53-1.12,0-2.08.38-2.87,1.13-.79.75-1.25,2.08-1.4,3.98Z"/>
        </g>
      </g>
      <g>
        <g>
          <path d="M333.14,321.07c-.49,0-.73-.27-.73-.8v-19.26c0-.53.24-.8.73-.8h5.37c4.11,0,6.97.91,8.57,2.73,1.6,1.82,2.41,4.38,2.41,7.67s-.8,5.86-2.41,7.7c-1.61,1.84-4.46,2.76-8.57,2.76h-5.37ZM335.2,318.68h3.17c3.2,0,5.35-.68,6.47-2.04,1.11-1.36,1.67-3.37,1.67-6.04s-.56-4.67-1.67-6.02c-1.11-1.35-3.27-2.02-6.47-2.02h-3.17v16.12Z"/>
          <path d="M352.06,313.43c0-2.28.6-4.16,1.81-5.65,1.21-1.49,2.97-2.23,5.3-2.23s4.09.74,5.3,2.23c1.21,1.49,1.81,3.37,1.81,5.65s-.6,4.16-1.81,5.65c-1.21,1.49-2.97,2.23-5.3,2.23s-4.09-.74-5.3-2.23c-1.21-1.49-1.81-3.37-1.81-5.65ZM354.77,313.43c0,2.04.4,3.54,1.21,4.52.8.98,1.87,1.47,3.2,1.47s2.4-.49,3.2-1.47c.8-.98,1.21-2.49,1.21-4.52s-.4-3.54-1.21-4.52c-.81-.98-1.87-1.47-3.2-1.47s-2.4.49-3.2,1.47c-.8.98-1.21,2.49-1.21,4.52Z"/>
          <path d="M368.76,313.43c0-2.28.57-4.16,1.69-5.65,1.13-1.49,2.86-2.23,5.19-2.23,1.57,0,2.77.28,3.6.84.83.56,1.43,1.13,1.8,1.71.2.32.16.58-.13.77l-.92.6c-.29.2-.58.07-.87-.39-.28-.45-.68-.83-1.19-1.15-.51-.32-1.27-.48-2.29-.48-1.33,0-2.36.49-3.08,1.47-.73.98-1.09,2.49-1.09,4.52s.36,3.54,1.09,4.52c.73.98,1.76,1.47,3.08,1.47,1.08,0,1.9-.21,2.47-.62.57-.41.99-.86,1.25-1.35.25-.46.54-.59.86-.39l.97.58c.29.17.33.44.13.79-.24.42-.79,1-1.65,1.75-.86.75-2.2,1.13-4.04,1.13-2.33,0-4.06-.74-5.19-2.23-1.13-1.49-1.69-3.37-1.69-5.65Z"/>
          <path d="M384.48,315.75v-9.29c0-.44.22-.65.65-.65h1.25c.44,0,.65.22.65.65v8.6c0,1.9.31,3.11.95,3.61.63.51,1.41.76,2.34.76,1.23,0,2.17-.38,2.83-1.13.65-.75.98-2.04.98-3.86v-7.99c0-.44.22-.65.65-.65h1.24c.43,0,.65.22.65.65v13.96c0,.44-.22.65-.65.65h-1.22c-.44,0-.65-.22-.65-.65v-1.16c-.64.7-1.33,1.22-2.06,1.56-.74.34-1.63.51-2.7.51-1.7,0-2.94-.5-3.72-1.49-.79-.99-1.18-2.35-1.18-4.08Z"/>
          <path d="M401.45,321.07c-.43,0-.65-.22-.65-.65v-13.96c0-.44.22-.65.65-.65h1.22c.44,0,.65.22.65.65v1.16c.63-.7,1.3-1.22,2.04-1.56.73-.34,1.43-.51,2.11-.51,1.24,0,2.2.23,2.87.69.67.46,1.1.92,1.29,1.38h.06c.53-.58,1.19-1.07,2-1.47.8-.4,1.66-.6,2.57-.6,1.52,0,2.67.5,3.45,1.49.78.99,1.16,2.35,1.16,4.08v9.29c0,.44-.22.65-.65.65h-1.25c-.44,0-.65-.22-.65-.65v-8.45c0-1.9-.23-3.13-.7-3.69-.47-.56-1.19-.84-2.16-.84s-1.75.41-2.38,1.24c-.64.83-.96,2.08-.96,3.75v7.99c0,.44-.22.65-.65.65h-1.25c-.44,0-.65-.22-.65-.65v-8.45c0-1.9-.23-3.13-.7-3.69-.47-.56-1.19-.84-2.17-.84s-1.76.38-2.4,1.13c-.64.75-.96,2.04-.96,3.86v7.99c0,.44-.22.65-.65.65h-1.24Z"/>
          <path d="M424.38,313.43c0-2.4.6-4.32,1.8-5.75,1.2-1.43,2.92-2.14,5.16-2.14,1.86,0,3.41.65,4.63,1.96,1.23,1.3,1.84,3.39,1.84,6.25,0,.44-.2.65-.6.65h-10.19c.17,1.88.67,3.18,1.52,3.92.85.73,1.81,1.1,2.89,1.1,1.13,0,2-.19,2.61-.57.61-.38,1.05-.75,1.33-1.12.31-.41.61-.48.9-.23l.86.74c.22.19.22.46,0,.8-.18.28-.71.73-1.58,1.34-.87.62-2.23.92-4.09.92-2.42,0-4.21-.71-5.36-2.14-1.15-1.43-1.72-3.34-1.72-5.75ZM427.03,312.52h8.22c-.04-1.36-.39-2.55-1.05-3.57-.66-1.02-1.63-1.53-2.91-1.53-1.12,0-2.08.38-2.87,1.13-.79.75-1.25,2.08-1.4,3.98Z"/>
          <path d="M441.83,321.07c-.43,0-.65-.22-.65-.65v-13.96c0-.44.22-.65.65-.65h1.22c.44,0,.65.22.65.65v1.16c.63-.7,1.32-1.22,2.05-1.56.73-.34,1.64-.51,2.74-.51,1.78,0,3.05.5,3.83,1.49.78.99,1.16,2.35,1.16,4.08v9.29c0,.44-.22.65-.65.65h-1.25c-.44,0-.65-.22-.65-.65v-8.6c0-1.9-.32-3.11-.95-3.61-.63-.51-1.44-.76-2.41-.76-1.27,0-2.22.38-2.88,1.13-.65.75-.98,2.04-.98,3.86v7.99c0,.44-.22.65-.65.65h-1.24Z"/>
          <path d="M456.85,307.72c-.44,0-.65-.17-.65-.51v-.9c0-.34.22-.51.65-.51h1.72v-1.31c0-.19.05-.38.15-.55l1.02-1.85c.18-.34.33-.51.45-.51h.51c.29,0,.44.17.44.51v3.71h3.1c.44,0,.65.17.65.51v.9c0,.34-.22.51-.65.51h-3.1v9.27c0,1.02.15,1.68.46,1.99.31.3.67.46,1.1.46.33,0,.72-.1,1.19-.29.46-.19.78-.36.95-.49.17-.14.31-.09.41.13l.48,1.12c.08.19.02.35-.17.47-.38.22-.93.44-1.66.65-.73.21-1.45.31-2.18.31-1.01,0-1.78-.36-2.32-1.09-.54-.73-.81-1.75-.81-3.08v-9.43h-1.72Z"/>
          <path d="M468.01,319.64c-.3-.28-.36-.54-.19-.79l.65-.92c.21-.29.53-.28.95.04.57.44,1.21.79,1.91,1.05.7.26,1.51.39,2.41.39.53,0,1.01-.07,1.43-.2.42-.13.78-.38,1.1-.73.31-.36.47-.84.47-1.44,0-.35-.08-.68-.23-.99-.15-.31-.38-.56-.7-.75-.32-.19-.62-.34-.92-.44-.49-.19-.99-.34-1.48-.46-.49-.12-1.13-.31-1.93-.56-.53-.16-1.04-.4-1.51-.7-.48-.3-.89-.72-1.24-1.24-.35-.52-.53-1.24-.53-2.17s.29-1.75.86-2.43c.57-.68,1.29-1.14,2.15-1.39.86-.25,1.7-.37,2.52-.37,1.2,0,2.17.14,2.9.41s1.36.6,1.9.98c.31.22.35.48.13.77l-.65.87c-.2.28-.52.27-.95-.03-.36-.25-.87-.49-1.53-.71-.66-.22-1.24-.33-1.73-.33-.61,0-1.13.07-1.57.2-.44.14-.79.37-1.06.7-.27.33-.41.72-.41,1.16,0,.34.05.64.16.91.11.27.31.51.6.73.29.22.7.4,1.22.54.81.21,1.56.41,2.23.58.67.17,1.28.39,1.83.64.71.33,1.25.69,1.64,1.09.38.4.65.83.79,1.29.15.46.22.97.22,1.53,0,1.04-.31,1.92-.92,2.63-.62.72-1.3,1.2-2.06,1.43-.76.24-1.67.36-2.73.36-1.45,0-2.68-.21-3.72-.62-1.03-.41-1.7-.76-2-1.05Z"/>
        </g>
        <g>
          <g>
            <polygon class="cls-10" points="327.3 280.79 327.3 197.85 401.52 197.85 483.81 197.85 483.81 280.79 327.3 280.79"/>
            <g>
              <g>
                <polygon class="cls-7" points="479.55 202.12 479.55 276.52 482.44 279.42 482.44 199.22 479.55 202.12"/>
                <g>
                  <g>
                    <polygon class="cls-15" points="328.67 199.22 328.67 279.42 330.12 277.97 330.12 200.67 328.67 199.22"/>
                    <polygon class="cls-12" points="331.57 202.12 330.12 200.67 330.12 277.97 331.57 276.52 331.57 202.12"/>
                  </g>
                  <polygon class="cls-19" points="331.57 276.52 328.67 279.42 482.44 279.42 479.55 276.52 331.57 276.52"/>
                  <polygon class="cls-7" points="331.57 276.52 330.12 277.97 480.99 277.97 479.55 276.52 331.57 276.52"/>
                  <polygon class="cls-19" points="479.55 202.12 479.55 276.52 482.44 279.42 482.44 199.22 479.55 202.12"/>
                  <polygon class="cls-7" points="480.99 200.67 479.55 202.12 479.55 276.52 480.99 277.97 480.99 200.67"/>
                </g>
              </g>
              <rect class="cls-17" x="331.57" y="202.12" width="147.98" height="74.41"/>
              <g>
                <polygon class="cls-12" points="330.12 200.67 331.57 202.12 479.55 202.12 480.99 200.67 330.12 200.67"/>
                <polygon class="cls-15" points="482.44 199.22 328.67 199.22 330.12 200.67 480.99 200.67 482.44 199.22"/>
              </g>
            </g>
            <polygon class="cls-5" points="483.81 197.85 482.44 199.22 482.44 279.42 483.81 280.79 483.81 197.85"/>
            <polygon class="cls-5" points="483.81 280.79 482.44 279.42 328.67 279.42 327.3 280.79 483.81 280.79"/>
          </g>
          <g>
            <polygon class="cls-17" points="384.42 179.89 342.39 179.89 327.3 197.85 399.51 197.85 384.42 179.89"/>
            <polygon class="cls-12" points="383.26 182.39 396.25 197.85 399.51 197.85 384.42 179.89 342.39 179.89 327.3 197.85 330.57 197.85 343.56 182.39 383.26 182.39"/>
            <g>
              <polygon class="cls-10" points="342.39 179.89 327.3 197.85 328.67 197.85 342.71 181.14 342.39 179.89"/>
              <g>
                <path class="cls-10" d="M342.39,179.89l.32,1.25h41.39l.32-1.25h-42.03Z"/>
                <polygon class="cls-10" points="384.42 179.89 384.1 181.14 398.14 197.85 399.51 197.85 384.42 179.89"/>
              </g>
            </g>
          </g>
          <g>
            <g>
              <polygon class="cls-7" points="468.24 195.98 468.24 264.18 471.14 267.08 471.14 193.09 468.24 195.98"/>
              <g>
                <g>
                  <polygon class="cls-10" points="319.17 193.09 319.17 230.08 320.61 228.64 320.61 194.54 319.17 193.09"/>
                  <polygon class="cls-11" points="322.06 195.98 320.61 194.54 320.61 228.64 322.06 227.19 322.06 195.98"/>
                </g>
                <polygon class="cls-19" points="322.06 227.19 319.17 230.08 471.14 267.08 468.24 264.18 322.06 227.19"/>
                <polygon class="cls-15" points="322.06 227.19 320.61 228.64 469.69 265.63 468.25 264.18 322.06 227.19"/>
                <polygon class="cls-19" points="468.24 195.98 468.24 264.18 471.14 267.08 471.14 193.09 468.24 195.98"/>
                <polygon class="cls-15" points="469.69 194.54 468.25 195.98 468.25 264.18 469.69 265.63 469.69 194.54"/>
              </g>
            </g>
            <polygon class="cls-4" points="322.06 227.19 322.06 195.98 468.24 195.98 468.24 264.18 322.06 227.19"/>
            <g>
              <polygon class="cls-11" points="320.61 194.54 322.06 195.98 468.24 195.98 469.69 194.54 320.61 194.54"/>
              <polygon class="cls-10" points="471.14 193.09 319.17 193.09 320.61 194.54 469.69 194.54 471.14 193.09"/>
            </g>
          </g>
          <g>
            <polygon class="cls-10" points="327.3 280.79 305.85 212.26 380.07 212.26 462.36 212.26 483.81 280.79 327.3 280.79"/>
            <g>
              <g>
                <polygon class="cls-7" points="459.2 215.78 478.44 277.26 482.09 279.65 461.34 213.39 459.2 215.78"/>
                <g>
                  <g>
                    <polygon class="cls-15" points="307.57 213.39 328.32 279.65 329.39 278.46 309.4 214.58 307.57 213.39"/>
                    <polygon class="cls-12" points="311.22 215.78 309.4 214.58 329.39 278.46 330.46 277.26 311.22 215.78"/>
                  </g>
                  <polygon class="cls-19" points="330.46 277.26 328.32 279.65 482.09 279.65 478.44 277.26 330.46 277.26"/>
                  <polygon class="cls-7" points="330.46 277.26 329.39 278.46 480.26 278.46 478.44 277.26 330.46 277.26"/>
                  <polygon class="cls-19" points="459.2 215.78 478.44 277.26 482.09 279.65 461.34 213.39 459.2 215.78"/>
                  <polygon class="cls-7" points="460.27 214.58 459.2 215.78 478.44 277.26 480.26 278.46 460.27 214.58"/>
                </g>
              </g>
              <polygon class="cls-17" points="330.46 277.26 311.22 215.78 459.2 215.78 478.44 277.26 330.46 277.26"/>
              <g>
                <polygon class="cls-12" points="309.4 214.58 311.22 215.78 459.2 215.78 460.27 214.58 309.4 214.58"/>
                <polygon class="cls-15" points="461.34 213.39 307.57 213.39 309.4 214.58 460.27 214.58 461.34 213.39"/>
              </g>
            </g>
            <polygon class="cls-5" points="462.36 212.26 461.34 213.39 482.09 279.65 483.81 280.79 462.36 212.26"/>
            <polygon class="cls-5" points="483.81 280.79 482.09 279.65 328.32 279.65 327.3 280.79 483.81 280.79"/>
          </g>
        </g>
      </g>
    </g>
  </g>
</svg>