<?xml version="1.0" encoding="UTF-8"?>
<svg id="Layer_2" xmlns="http://www.w3.org/2000/svg" xmlns:xlink="http://www.w3.org/1999/xlink" viewBox="0 0 1088.42 499.12">
  <defs>
    <style>
      .cls-1 {
        fill: #99928d;
      }

      .cls-2 {
        fill: #939393;
      }

      .cls-3 {
        fill: #e6e6e6;
      }

      .cls-4 {
        fill: #2a2927;
      }

      .cls-5 {
        fill: #d9d9d9;
      }

      .cls-6 {
        fill: #b8a83e;
      }

      .cls-7 {
        fill: url(#linear-gradient);
      }

      .cls-8 {
        fill: #1d1d1b;
      }

      .cls-9 {
        fill: #c4c4c4;
      }

      .cls-10 {
        fill: #fff;
      }

      .cls-11 {
        fill: #ffffa6;
      }

      .cls-12 {
        fill: silver;
      }

      .cls-13 {
        fill: #4a4a4a;
      }

      .cls-14 {
        fill: #f2f2f2;
      }

      .cls-15 {
        fill: #737373;
      }

      .cls-16 {
        fill: #f4f353;
      }

      .cls-17 {
        clip-path: url(#clippath);
      }

      .cls-18 {
        fill: #4c4c4c;
      }

      .cls-19 {
        fill: #999;
      }
    </style>
    <linearGradient id="linear-gradient" x1="7.56" y1="28.55" x2="1080.86" y2="28.55" gradientTransform="translate(515.66 572.76) rotate(-90)" gradientUnits="userSpaceOnUse">
      <stop offset="0" stop-color="#010089"/>
      <stop offset="1" stop-color="#0100be"/>
    </linearGradient>
    <clipPath id="clippath">
      <rect class="cls-12" x="1038.74" y="449.44" width="31.91" height="31.91"/>
    </clipPath>
  </defs>
  <g id="_x31_">
    <g>
      <g>
        <g>
          <rect class="cls-12" x="294.65" y="-294.65" width="499.12" height="1088.42" transform="translate(793.77 -294.65) rotate(90)"/>
          <g>
            <g>
              <g>
                <polygon class="cls-4" points="1084.22 4.2 1084.22 494.92 1088.42 499.12 1088.42 0 1084.22 4.2"/>
                <polygon class="cls-18" points="1084.22 4.2 1084.22 494.92 1086.74 497.44 1086.74 1.68 1084.22 4.2"/>
              </g>
              <g>
                <polygon class="cls-3" points="1084.22 4.2 1088.42 0 0 0 4.2 4.2 1084.22 4.2"/>
                <polygon class="cls-14" points="1084.22 4.2 1086.74 1.68 1.68 1.68 4.2 4.2 1084.22 4.2"/>
              </g>
            </g>
            <g>
              <g>
                <polygon class="cls-3" points="4.2 494.92 4.2 4.2 0 0 0 499.12 4.2 494.92"/>
                <polygon class="cls-14" points="4.2 494.92 4.2 4.2 1.68 1.68 1.68 497.44 4.2 494.92"/>
              </g>
              <g>
                <polygon class="cls-4" points="4.2 494.92 0 499.12 1088.42 499.12 1084.22 494.92 4.2 494.92"/>
                <polygon class="cls-18" points="4.2 494.92 1.68 497.44 1086.74 497.44 1084.22 494.92 4.2 494.92"/>
              </g>
            </g>
          </g>
          <rect class="cls-12" x="298.9" y="-290.45" width="490.73" height="1080.02" transform="translate(793.83 -294.71) rotate(90)"/>
        </g>
        <rect class="cls-7" x="523.22" y="-508.11" width="41.98" height="1073.3" transform="translate(572.76 -515.66) rotate(90)"/>
        <g>
          <path class="cls-10" d="M41.29,36.82h-3.89v-10.47c0-1.13.05-2.38.15-3.75h-.1c-.2,1.07-.39,1.85-.55,2.32l-4.1,11.9h-3.22l-4.17-11.78c-.11-.32-.3-1.13-.55-2.44h-.11c.11,1.73.16,3.24.16,4.54v9.68h-3.55v-17.5h5.77l3.58,10.38c.29.83.49,1.66.62,2.5h.07c.22-.97.45-1.81.7-2.53l3.58-10.35h5.63v17.5Z"/>
          <path class="cls-10" d="M56.79,24.32l-5.08,13.5c-1.22,3.25-3.06,4.87-5.52,4.87-.94,0-1.71-.11-2.31-.32v-3.08c.51.3,1.07.45,1.67.45.99,0,1.68-.47,2.08-1.4l.66-1.55-5.08-12.48h4.27l2.33,7.6c.15.47.26,1.03.34,1.67h.05c.07-.47.21-1.02.4-1.65l2.36-7.63h3.82Z"/>
          <path class="cls-10" d="M78.17,36.19c-1.28.62-2.95.93-5,.93-2.69,0-4.8-.79-6.33-2.37-1.54-1.58-2.31-3.68-2.31-6.31,0-2.8.86-5.07,2.59-6.81,1.73-1.74,3.97-2.61,6.73-2.61,1.71,0,3.15.22,4.32.65v3.8c-1.17-.7-2.51-1.05-4-1.05-1.64,0-2.97.52-3.98,1.55-1.01,1.03-1.51,2.43-1.51,4.2s.48,3.04,1.43,4.05c.95,1.01,2.23,1.51,3.84,1.51s2.95-.37,4.22-1.12v3.6Z"/>
          <path class="cls-10" d="M86.79,37.12c-2.08,0-3.72-.58-4.91-1.75-1.19-1.17-1.79-2.75-1.79-4.75s.62-3.68,1.86-4.85c1.24-1.17,2.91-1.75,5.02-1.75s3.7.58,4.88,1.75c1.18,1.17,1.77,2.71,1.77,4.63,0,2.08-.61,3.72-1.83,4.92-1.22,1.2-2.88,1.81-5,1.81ZM86.89,26.96c-.91,0-1.62.31-2.12.94-.5.63-.76,1.51-.76,2.66,0,2.4.97,3.6,2.91,3.6s2.77-1.23,2.77-3.7c0-2.34-.93-3.5-2.8-3.5Z"/>
          <path class="cls-10" d="M115.97,36.82h-3.85v-7.13c0-1.81-.67-2.72-2-2.72-.63,0-1.15.27-1.55.82-.4.55-.6,1.23-.6,2.04v6.99h-3.86v-7.2c0-1.77-.66-2.65-1.96-2.65-.66,0-1.19.26-1.58.78-.4.52-.59,1.23-.59,2.12v6.95h-3.86v-12.5h3.86v1.95h.05c.4-.67.96-1.21,1.68-1.63.72-.42,1.51-.63,2.36-.63,1.77,0,2.97.78,3.62,2.33.95-1.55,2.35-2.33,4.2-2.33,2.72,0,4.08,1.68,4.08,5.03v7.78Z"/>
          <path class="cls-10" d="M122.93,35.36h-.05v7.2h-3.86v-18.25h3.86v1.88h.05c.95-1.46,2.29-2.19,4.02-2.19,1.62,0,2.87.56,3.75,1.67.88,1.11,1.32,2.62,1.32,4.53,0,2.08-.51,3.76-1.54,5.02-1.03,1.26-2.4,1.89-4.11,1.89-1.51,0-2.65-.59-3.44-1.76ZM122.82,30.24v1c0,.86.23,1.57.68,2.11.46.55,1.05.82,1.79.82.88,0,1.56-.34,2.04-1.02.48-.68.73-1.64.73-2.89,0-2.2-.85-3.3-2.56-3.3-.79,0-1.43.3-1.93.9-.5.6-.75,1.39-.75,2.37Z"/>
          <path class="cls-10" d="M146.4,36.82h-3.84v-1.9h-.06c-.95,1.47-2.23,2.21-3.82,2.21-2.9,0-4.35-1.75-4.35-5.26v-7.54h3.85v7.2c0,1.77.7,2.65,2.1,2.65.69,0,1.25-.24,1.66-.73.42-.48.62-1.14.62-1.97v-7.15h3.84v12.5Z"/>
          <path class="cls-10" d="M157.21,36.67c-.57.3-1.43.45-2.58.45-2.72,0-4.08-1.41-4.08-4.24v-5.73h-2.03v-2.84h2.03v-2.7l3.84-1.1v3.8h2.81v2.84h-2.81v5.05c0,1.3.52,1.95,1.55,1.95.41,0,.83-.12,1.26-.35v2.86Z"/>
          <path class="cls-10" d="M170.51,31.66h-8.15c.13,1.81,1.27,2.72,3.43,2.72,1.38,0,2.58-.33,3.63-.98v2.78c-1.16.62-2.66.93-4.5.93-2.02,0-3.58-.56-4.7-1.68-1.11-1.12-1.67-2.68-1.67-4.68s.6-3.72,1.81-4.93c1.2-1.21,2.69-1.82,4.44-1.82s3.23.54,4.23,1.62c1,1.08,1.5,2.55,1.5,4.41v1.62ZM166.94,29.3c0-1.79-.72-2.69-2.17-2.69-.62,0-1.15.26-1.61.77-.45.51-.73,1.15-.82,1.92h4.6Z"/>
          <path class="cls-10" d="M180.96,27.79c-.46-.25-1-.38-1.62-.38-.84,0-1.49.31-1.96.92-.47.61-.71,1.45-.71,2.51v5.97h-3.86v-12.5h3.86v2.32h.05c.61-1.69,1.71-2.54,3.3-2.54.41,0,.72.05.95.15v3.55Z"/>
        </g>
        <g>
          <g>
            <rect class="cls-12" x="1045.6" y="10.91" width="31.91" height="31.91" transform="translate(1088.42 -1034.68) rotate(90)"/>
            <g>
              <g>
                <g>
                  <polygon class="cls-4" points="1075.69 12.73 1075.69 41.01 1077.5 42.82 1077.5 10.91 1075.69 12.73"/>
                  <polygon class="cls-18" points="1075.69 12.73 1075.69 41.01 1076.6 41.91 1076.6 11.82 1075.69 12.73"/>
                </g>
                <g>
                  <polygon class="cls-3" points="1075.69 12.73 1077.5 10.91 1045.6 10.91 1047.41 12.73 1075.69 12.73"/>
                  <polygon class="cls-14" points="1075.69 12.73 1076.6 11.82 1046.5 11.82 1047.41 12.73 1075.69 12.73"/>
                </g>
              </g>
              <g>
                <g>
                  <polygon class="cls-3" points="1047.41 41.01 1047.41 12.73 1045.6 10.91 1045.6 42.82 1047.41 41.01"/>
                  <polygon class="cls-14" points="1047.41 41.01 1047.41 12.73 1046.5 11.82 1046.5 41.91 1047.41 41.01"/>
                </g>
                <g>
                  <polygon class="cls-4" points="1047.41 41.01 1045.6 42.82 1077.5 42.82 1075.69 41.01 1047.41 41.01"/>
                  <polygon class="cls-18" points="1047.41 41.01 1046.5 41.91 1076.6 41.91 1075.69 41.01 1047.41 41.01"/>
                </g>
              </g>
            </g>
            <rect class="cls-12" x="1047.41" y="12.73" width="28.28" height="28.28"/>
          </g>
          <g>
            <rect class="cls-8" x="1049.81" y="25.61" width="23.48" height="2.52" transform="translate(291.92 758.5) rotate(-45)"/>
            <rect class="cls-8" x="1060.29" y="15.13" width="2.52" height="23.48" transform="translate(291.92 758.49) rotate(-45)"/>
          </g>
        </g>
        <g>
          <g>
            <rect class="cls-12" x="1009.49" y="10.91" width="31.91" height="31.91" transform="translate(1052.31 -998.58) rotate(90)"/>
            <g>
              <g>
                <g>
                  <polygon class="cls-4" points="1039.59 12.73 1039.59 41.01 1041.4 42.82 1041.4 10.91 1039.59 12.73"/>
                  <polygon class="cls-18" points="1039.59 12.73 1039.59 41.01 1040.49 41.91 1040.49 11.82 1039.59 12.73"/>
                </g>
                <g>
                  <polygon class="cls-3" points="1039.59 12.73 1041.4 10.91 1009.49 10.91 1011.31 12.73 1039.59 12.73"/>
                  <polygon class="cls-14" points="1039.59 12.73 1040.49 11.82 1010.4 11.82 1011.31 12.73 1039.59 12.73"/>
                </g>
              </g>
              <g>
                <g>
                  <polygon class="cls-3" points="1011.31 41.01 1011.31 12.73 1009.49 10.91 1009.49 42.82 1011.31 41.01"/>
                  <polygon class="cls-14" points="1011.31 41.01 1011.31 12.73 1010.4 11.82 1010.4 41.91 1011.31 41.01"/>
                </g>
                <g>
                  <polygon class="cls-4" points="1011.31 41.01 1009.49 42.82 1041.4 42.82 1039.59 41.01 1011.31 41.01"/>
                  <polygon class="cls-18" points="1011.31 41.01 1010.4 41.91 1040.49 41.91 1039.59 41.01 1011.31 41.01"/>
                </g>
              </g>
            </g>
            <rect class="cls-12" x="1011.31" y="12.73" width="28.28" height="28.28"/>
          </g>
          <g>
            <path class="cls-8" d="M1035.01,36.43h-19.12v-19.12h19.12v19.12ZM1018.41,33.91h14.08v-14.08h-14.08v14.08Z"/>
            <rect class="cls-8" x="1017.15" y="18.57" width="16.6" height="3.22"/>
          </g>
        </g>
        <g>
          <g>
            <rect class="cls-12" x="973.39" y="10.91" width="31.91" height="31.91" transform="translate(1016.21 -962.48) rotate(90)"/>
            <g>
              <g>
                <g>
                  <polygon class="cls-4" points="1003.48 12.73 1003.48 41.01 1005.3 42.82 1005.3 10.91 1003.48 12.73"/>
                  <polygon class="cls-18" points="1003.48 12.73 1003.48 41.01 1004.39 41.91 1004.39 11.82 1003.48 12.73"/>
                </g>
                <g>
                  <polygon class="cls-3" points="1003.48 12.73 1005.3 10.91 973.39 10.91 975.2 12.73 1003.48 12.73"/>
                  <polygon class="cls-14" points="1003.48 12.73 1004.39 11.82 974.3 11.82 975.2 12.73 1003.48 12.73"/>
                </g>
              </g>
              <g>
                <g>
                  <polygon class="cls-3" points="975.2 41.01 975.2 12.73 973.39 10.91 973.39 42.82 975.2 41.01"/>
                  <polygon class="cls-14" points="975.2 41.01 975.2 12.73 974.3 11.82 974.3 41.91 975.2 41.01"/>
                </g>
                <g>
                  <polygon class="cls-4" points="975.2 41.01 973.39 42.82 1005.3 42.82 1003.48 41.01 975.2 41.01"/>
                  <polygon class="cls-18" points="975.2 41.01 974.3 41.91 1004.39 41.91 1003.48 41.01 975.2 41.01"/>
                </g>
              </g>
            </g>
            <rect class="cls-12" x="975.2" y="12.73" width="28.28" height="28.28"/>
          </g>
          <rect class="cls-8" x="983.29" y="33.49" width="12.11" height="3.36"/>
        </g>
        <g>
          <g>
            <rect class="cls-12" x="376.41" y="-212.88" width="335.59" height="1061.26" transform="translate(226.46 861.96) rotate(-90)"/>
            <g>
              <g>
                <g>
                  <polygon class="cls-4" points="17.78 481.35 17.78 154.15 13.58 149.95 13.58 485.54 17.78 481.35"/>
                  <polygon class="cls-13" points="17.78 481.35 17.78 154.15 15.26 151.63 15.26 483.86 17.78 481.35"/>
                </g>
                <g>
                  <polygon class="cls-3" points="17.78 481.35 13.58 485.54 1074.84 485.54 1070.64 481.35 17.78 481.35"/>
                  <polygon class="cls-14" points="17.78 481.35 15.26 483.86 1073.16 483.86 1070.64 481.35 17.78 481.35"/>
                </g>
              </g>
              <g>
                <g>
                  <polygon class="cls-3" points="1070.64 154.15 1070.64 481.35 1074.84 485.54 1074.84 149.95 1070.64 154.15"/>
                  <polygon class="cls-14" points="1070.64 154.15 1070.64 481.35 1073.16 483.86 1073.16 151.63 1070.64 154.15"/>
                </g>
                <g>
                  <polygon class="cls-4" points="1070.64 154.15 1074.84 149.95 13.58 149.95 17.78 154.15 1070.64 154.15"/>
                  <polygon class="cls-13" points="1070.64 154.15 1073.16 151.63 15.26 151.63 17.78 154.15 1070.64 154.15"/>
                </g>
              </g>
            </g>
            <rect class="cls-10" x="380.61" y="-208.68" width="327.2" height="1052.86" transform="translate(226.46 861.96) rotate(-90)"/>
          </g>
          <g>
            <g>
              <g>
                <rect class="cls-12" x="1038.74" y="154.15" width="31.91" height="31.91" transform="translate(1224.79 -884.59) rotate(90)"/>
                <g>
                  <g>
                    <g>
                      <polygon class="cls-4" points="1068.83 155.96 1068.83 184.24 1070.64 186.05 1070.64 154.15 1068.83 155.96"/>
                      <polygon class="cls-18" points="1068.83 155.96 1068.83 184.24 1069.73 185.15 1069.73 155.05 1068.83 155.96"/>
                    </g>
                    <g>
                      <polygon class="cls-3" points="1068.83 155.96 1070.64 154.15 1038.74 154.15 1040.55 155.96 1068.83 155.96"/>
                      <polygon class="cls-14" points="1068.83 155.96 1069.73 155.05 1039.64 155.05 1040.55 155.96 1068.83 155.96"/>
                    </g>
                  </g>
                  <g>
                    <g>
                      <polygon class="cls-3" points="1040.55 184.24 1040.55 155.96 1038.74 154.15 1038.74 186.05 1040.55 184.24"/>
                      <polygon class="cls-14" points="1040.55 184.24 1040.55 155.96 1039.64 155.05 1039.64 185.15 1040.55 184.24"/>
                    </g>
                    <g>
                      <polygon class="cls-4" points="1040.55 184.24 1038.74 186.05 1070.64 186.05 1068.83 184.24 1040.55 184.24"/>
                      <polygon class="cls-18" points="1040.55 184.24 1039.64 185.15 1069.73 185.15 1068.83 184.24 1040.55 184.24"/>
                    </g>
                  </g>
                </g>
                <rect class="cls-12" x="1040.55" y="155.96" width="28.28" height="28.28"/>
              </g>
              <g>
                <polygon class="cls-2" points="1047.42 173.77 1054.69 166.43 1061.96 173.77 1047.42 173.77"/>
                <polygon class="cls-5" points="1047.84 173.35 1061.54 173.35 1061.96 173.77 1047.42 173.77 1047.84 173.35"/>
              </g>
            </g>
            <g>
              <g>
                <rect class="cls-12" x="1038.74" y="417.54" width="31.91" height="31.91" transform="translate(1488.18 -621.2) rotate(90)"/>
                <g>
                  <g>
                    <g>
                      <polygon class="cls-4" points="1068.83 419.35 1068.83 447.63 1070.64 449.44 1070.64 417.54 1068.83 419.35"/>
                      <polygon class="cls-18" points="1068.83 419.35 1068.83 447.63 1069.73 448.54 1069.73 418.44 1068.83 419.35"/>
                    </g>
                    <g>
                      <polygon class="cls-3" points="1068.83 419.35 1070.64 417.54 1038.74 417.54 1040.55 419.35 1068.83 419.35"/>
                      <polygon class="cls-14" points="1068.83 419.35 1069.73 418.44 1039.64 418.44 1040.55 419.35 1068.83 419.35"/>
                    </g>
                  </g>
                  <g>
                    <g>
                      <polygon class="cls-3" points="1040.55 447.63 1040.55 419.35 1038.74 417.54 1038.74 449.44 1040.55 447.63"/>
                      <polygon class="cls-14" points="1040.55 447.63 1040.55 419.35 1039.64 418.44 1039.64 448.54 1040.55 447.63"/>
                    </g>
                    <g>
                      <polygon class="cls-4" points="1040.55 447.63 1038.74 449.44 1070.64 449.44 1068.83 447.63 1040.55 447.63"/>
                      <polygon class="cls-18" points="1040.55 447.63 1039.64 448.54 1069.73 448.54 1068.83 447.63 1040.55 447.63"/>
                    </g>
                  </g>
                </g>
                <rect class="cls-12" x="1040.55" y="419.35" width="28.28" height="28.28"/>
              </g>
              <g>
                <polygon class="cls-2" points="1047.42 429.81 1054.69 437.16 1061.96 429.81 1047.42 429.81"/>
                <polygon class="cls-5" points="1061.43 429.81 1054.43 436.9 1054.69 437.16 1061.96 429.81 1061.43 429.81"/>
              </g>
            </g>
            <rect class="cls-3" x="1038.74" y="186.05" width="31.91" height="231.48"/>
          </g>
          <g>
            <g>
              <g>
                <rect class="cls-12" x="17.78" y="449.44" width="31.91" height="31.91" transform="translate(499.12 431.66) rotate(90)"/>
                <g>
                  <g>
                    <g>
                      <polygon class="cls-4" points="47.87 451.25 47.87 479.53 49.68 481.35 49.68 449.44 47.87 451.25"/>
                      <polygon class="cls-18" points="47.87 451.25 47.87 479.53 48.78 480.44 48.78 450.35 47.87 451.25"/>
                    </g>
                    <g>
                      <polygon class="cls-3" points="47.87 451.25 49.68 449.44 17.78 449.44 19.59 451.25 47.87 451.25"/>
                      <polygon class="cls-14" points="47.87 451.25 48.78 450.35 18.68 450.35 19.59 451.25 47.87 451.25"/>
                    </g>
                  </g>
                  <g>
                    <g>
                      <polygon class="cls-3" points="19.59 479.53 19.59 451.25 17.78 449.44 17.78 481.35 19.59 479.53"/>
                      <polygon class="cls-14" points="19.59 479.53 19.59 451.25 18.68 450.35 18.68 480.44 19.59 479.53"/>
                    </g>
                    <g>
                      <polygon class="cls-4" points="19.59 479.53 17.78 481.35 49.68 481.35 47.87 479.53 19.59 479.53"/>
                      <polygon class="cls-18" points="19.59 479.53 18.68 480.44 48.78 480.44 47.87 479.53 19.59 479.53"/>
                    </g>
                  </g>
                </g>
                <rect class="cls-12" x="19.59" y="451.25" width="28.28" height="28.28"/>
              </g>
              <g>
                <polygon class="cls-2" points="37.4 472.66 30.06 465.39 37.4 458.13 37.4 472.66"/>
                <polygon class="cls-5" points="36.98 472.24 36.98 458.55 37.4 458.13 37.4 472.66 36.98 472.24"/>
              </g>
            </g>
            <g>
              <g>
                <rect class="cls-12" x="1006.83" y="449.44" width="31.91" height="31.91" transform="translate(1488.18 -557.39) rotate(90)"/>
                <g>
                  <g>
                    <g>
                      <polygon class="cls-4" points="1036.92 451.25 1036.92 479.53 1038.74 481.35 1038.74 449.44 1036.92 451.25"/>
                      <polygon class="cls-18" points="1036.92 451.25 1036.92 479.53 1037.83 480.44 1037.83 450.35 1036.92 451.25"/>
                    </g>
                    <g>
                      <polygon class="cls-3" points="1036.92 451.25 1038.74 449.44 1006.83 449.44 1008.64 451.25 1036.92 451.25"/>
                      <polygon class="cls-14" points="1036.92 451.25 1037.83 450.35 1007.74 450.35 1008.64 451.25 1036.92 451.25"/>
                    </g>
                  </g>
                  <g>
                    <g>
                      <polygon class="cls-3" points="1008.64 479.53 1008.64 451.25 1006.83 449.44 1006.83 481.35 1008.64 479.53"/>
                      <polygon class="cls-14" points="1008.64 479.53 1008.64 451.25 1007.74 450.35 1007.74 480.44 1008.64 479.53"/>
                    </g>
                    <g>
                      <polygon class="cls-4" points="1008.64 479.53 1006.83 481.35 1038.74 481.35 1036.92 479.53 1008.64 479.53"/>
                      <polygon class="cls-18" points="1008.64 479.53 1007.74 480.44 1037.83 480.44 1036.92 479.53 1008.64 479.53"/>
                    </g>
                  </g>
                </g>
                <rect class="cls-12" x="1008.64" y="451.25" width="28.28" height="28.28"/>
              </g>
              <g>
                <polygon class="cls-2" points="1019.11 472.66 1026.46 465.39 1019.11 458.13 1019.11 472.66"/>
                <polygon class="cls-5" points="1019.11 458.65 1026.19 465.65 1026.46 465.39 1019.11 458.13 1019.11 458.65"/>
              </g>
            </g>
            <rect class="cls-3" x="49.68" y="449.44" width="957.15" height="31.91"/>
          </g>
          <g>
            <rect class="cls-12" x="1038.74" y="449.44" width="31.91" height="31.91"/>
            <g class="cls-17">
              <g>
                <rect class="cls-2" x="1039.62" y="468.3" width="38.15" height="1.86" transform="translate(-21.72 886.04) rotate(-45)"/>
                <rect class="cls-5" x="1040.91" y="469.6" width="38.15" height="1.86" transform="translate(-22.24 887.38) rotate(-45)"/>
              </g>
              <g>
                <rect class="cls-2" x="1043.63" y="472.32" width="38.15" height="1.86" transform="translate(-23.39 890.02) rotate(-45)"/>
                <rect class="cls-5" x="1044.93" y="473.61" width="38.15" height="1.86" transform="translate(-23.91 891.36) rotate(-45)"/>
              </g>
              <g>
                <rect class="cls-2" x="1047.65" y="476.33" width="38.15" height="1.86" transform="translate(-25.06 894.03) rotate(-45)"/>
                <rect class="cls-5" x="1048.94" y="477.63" width="38.15" height="1.86" transform="translate(-25.58 895.37) rotate(-45)"/>
              </g>
            </g>
          </g>
        </g>
      </g>
      <g>
        <g>
          <rect class="cls-12" x="504.33" y="-430.89" width="79.76" height="1061.26" transform="translate(643.95 -444.46) rotate(90)"/>
          <g>
            <g>
              <g>
                <polygon class="cls-4" points="1073.16 61.54 1073.16 137.95 1074.84 139.63 1074.84 59.86 1073.16 61.54"/>
                <polygon class="cls-13" points="1073.16 61.54 1073.16 137.95 1074 138.79 1074 60.7 1073.16 61.54"/>
              </g>
              <g>
                <polygon class="cls-3" points="1073.16 61.54 1074.84 59.86 13.58 59.86 15.26 61.54 1073.16 61.54"/>
                <polygon class="cls-14" points="1073.16 61.54 1074 60.7 14.42 60.7 15.26 61.54 1073.16 61.54"/>
              </g>
            </g>
            <g>
              <g>
                <polygon class="cls-3" points="15.26 137.95 15.26 61.54 13.58 59.86 13.58 139.63 15.26 137.95"/>
                <polygon class="cls-14" points="15.26 137.95 15.26 61.54 14.42 60.7 14.42 138.79 15.26 137.95"/>
              </g>
              <g>
                <polygon class="cls-4" points="15.26 137.95 13.58 139.63 1074.84 139.63 1073.16 137.95 15.26 137.95"/>
                <polygon class="cls-13" points="15.26 137.95 14.42 138.79 1074 138.79 1073.16 137.95 15.26 137.95"/>
              </g>
            </g>
          </g>
          <rect class="cls-12" x="15.26" y="61.54" width="1057.9" height="76.4"/>
        </g>
        <g>
          <path class="cls-2" d="M26.58,133.23c0-.7.56-1.27,1.26-1.27h1032.73c.7,0,1.26.57,1.26,1.27s-.56,1.27-1.26,1.27H27.84c-.7,0-1.26-.57-1.26-1.27Z"/>
          <path class="cls-3" d="M1061.83,133.23c0-.23-.07-.45-.17-.63-.22.38-.62.63-1.08.63H27.84c-.46,0-.87-.26-1.08-.63-.11.19-.17.4-.17.63,0,.7.56,1.27,1.26,1.27h1032.73c.7,0,1.26-.57,1.26-1.27Z"/>
        </g>
        <g>
          <path class="cls-2" d="M26.58,66.26c0-.7.56-1.27,1.26-1.27h1032.73c.7,0,1.26.57,1.26,1.27s-.56,1.27-1.26,1.27H27.84c-.7,0-1.26-.57-1.26-1.27Z"/>
          <path class="cls-3" d="M1061.83,66.26c0-.23-.07-.45-.17-.63-.22.38-.62.63-1.08.63H27.84c-.46,0-.87-.26-1.08-.63-.11.19-.17.4-.17.63,0,.7.56,1.27,1.26,1.27h1032.73c.7,0,1.26-.57,1.26-1.27Z"/>
        </g>
        <g>
          <path class="cls-3" d="M236.06,124.4c-1.39,0-2.52-1.14-2.52-2.54v-44.24c0-1.4,1.13-2.54,2.52-2.54s2.52,1.14,2.52,2.54v44.24c0,1.4-1.13,2.54-2.52,2.54Z"/>
          <path class="cls-2" d="M236.81,75.21c.04.3.03,48.81,0,49.06,1.02-.32,1.77-1.27,1.77-2.41v-44.24c0-1.14-.75-2.09-1.77-2.41Z"/>
        </g>
        <g>
          <path class="cls-3" d="M755.41,124.4c-1.39,0-2.52-1.14-2.52-2.54v-44.24c0-1.4,1.13-2.54,2.52-2.54s2.52,1.14,2.52,2.54v44.24c0,1.4-1.13,2.54-2.52,2.54Z"/>
          <path class="cls-2" d="M756.16,75.21c.04.3.03,48.81,0,49.06,1.02-.32,1.77-1.27,1.77-2.41v-44.24c0-1.14-.75-2.09-1.77-2.41Z"/>
        </g>
        <g>
          <path class="cls-3" d="M29.1,124.4c-1.39,0-2.52-1.14-2.52-2.54v-44.24c0-1.4,1.13-2.54,2.52-2.54s2.52,1.14,2.52,2.54v44.24c0,1.4-1.13,2.54-2.52,2.54Z"/>
          <path class="cls-2" d="M29.85,75.21c.04.3.03,48.81,0,49.06,1.02-.32,1.77-1.27,1.77-2.41v-44.24c0-1.14-.75-2.09-1.77-2.41Z"/>
        </g>
        <g>
          <path class="cls-3" d="M105.56,124.4c-1.39,0-2.52-1.14-2.52-2.54v-44.24c0-1.4,1.13-2.54,2.52-2.54s2.52,1.14,2.52,2.54v44.24c0,1.4-1.13,2.54-2.52,2.54Z"/>
          <path class="cls-2" d="M106.31,75.21c.04.3.03,48.81,0,49.06,1.02-.32,1.77-1.27,1.77-2.41v-44.24c0-1.14-.75-2.09-1.77-2.41Z"/>
        </g>
        <g>
          <g>
            <rect class="cls-12" x="891.52" y="-45.91" width="49.32" height="291.31" transform="translate(816.43 1015.92) rotate(-90)"/>
            <g>
              <g>
                <g>
                  <polygon class="cls-4" points="774.72 120.21 774.72 79.28 770.52 75.08 770.52 124.4 774.72 120.21"/>
                  <polygon class="cls-18" points="774.72 120.21 774.72 79.28 772.2 76.76 772.2 122.72 774.72 120.21"/>
                </g>
                <g>
                  <polygon class="cls-3" points="774.72 120.21 770.52 124.4 1061.83 124.4 1057.64 120.21 774.72 120.21"/>
                  <polygon class="cls-14" points="774.72 120.21 772.2 122.72 1060.15 122.72 1057.64 120.21 774.72 120.21"/>
                </g>
              </g>
              <g>
                <g>
                  <polygon class="cls-3" points="1057.64 79.28 1057.64 120.21 1061.83 124.4 1061.83 75.08 1057.64 79.28"/>
                  <polygon class="cls-14" points="1057.64 79.28 1057.64 120.21 1060.15 122.72 1060.15 76.76 1057.64 79.28"/>
                </g>
                <g>
                  <polygon class="cls-4" points="1057.64 79.28 1061.83 75.08 770.52 75.08 774.72 79.28 1057.64 79.28"/>
                  <polygon class="cls-18" points="1057.64 79.28 1060.15 76.76 772.2 76.76 774.72 79.28 1057.64 79.28"/>
                </g>
              </g>
            </g>
            <rect class="cls-10" x="895.72" y="-41.71" width="40.92" height="282.91" transform="translate(816.43 1015.92) rotate(-90)"/>
          </g>
          <path class="cls-4" d="M810.57,111.5l-8.19-8.19c1.46-1.84,2.33-4.16,2.33-6.68,0-5.95-4.84-10.8-10.8-10.8s-10.8,4.84-10.8,10.8,4.84,10.8,10.8,10.8c2.52,0,4.84-.88,6.68-2.33l8.19,8.19c.25.25.57.37.89.37s.64-.12.89-.37c.49-.49.49-1.29,0-1.78ZM785.64,96.63c0-4.56,3.71-8.28,8.28-8.28s8.28,3.71,8.28,8.28-3.71,8.28-8.28,8.28-8.28-3.71-8.28-8.28Z"/>
          <g>
            <path class="cls-1" d="M829.32,109.72c-.43-.39-.55-.74-.34-1.03l.64-.92c.22-.32.58-.3,1.07.07.65.48,1.32.88,2.02,1.19.7.31,1.55.47,2.55.47.74,0,1.36-.11,1.87-.33.51-.22.92-.54,1.22-.95.31-.41.46-.92.46-1.51,0-.43-.06-.82-.19-1.19-.13-.37-.33-.67-.61-.92-.28-.25-.57-.44-.87-.58-.5-.22-1.25-.48-2.24-.78-1-.3-1.87-.62-2.61-.96-.74-.36-1.33-.79-1.77-1.29-.44-.51-.73-1.03-.87-1.56s-.21-1.14-.21-1.82c0-1.04.3-1.94.91-2.69.61-.75,1.35-1.25,2.23-1.5.88-.25,1.78-.37,2.69-.37,1.04,0,1.95.13,2.72.4.77.27,1.46.62,2.07,1.05.43.3.52.62.3.96l-.63.9c-.19.27-.56.21-1.11-.17-.42-.3-.93-.57-1.53-.83-.6-.26-1.2-.39-1.79-.39-.75,0-1.38.09-1.88.26-.5.18-.89.47-1.18.89-.29.42-.43.9-.43,1.45,0,.34.03.66.1.95.07.29.23.59.5.89.27.3.6.54.98.7.52.22,1.32.48,2.4.78,1.09.3,2.04.67,2.85,1.1.75.4,1.3.82,1.63,1.26.33.44.59.92.77,1.43.18.51.28,1.09.28,1.73,0,1.17-.3,2.14-.9,2.92-.6.78-1.31,1.32-2.13,1.62-.82.3-1.85.46-3.09.46-1.48,0-2.71-.17-3.69-.52-.98-.34-1.71-.74-2.19-1.18Z"/>
            <path class="cls-1" d="M843.38,104.59c0-2.03.51-3.65,1.53-4.86,1.02-1.21,2.47-1.81,4.37-1.81,1.57,0,2.88.55,3.92,1.65,1.04,1.1,1.56,2.86,1.56,5.28,0,.37-.17.55-.51.55h-8.62c.14,1.59.57,2.69,1.29,3.31.72.62,1.53.93,2.44.93.96,0,1.69-.16,2.2-.48.51-.32.89-.64,1.13-.95.26-.34.52-.41.76-.2l.72.63c.19.16.19.39,0,.68-.16.24-.6.62-1.33,1.14-.73.52-1.89.78-3.46.78-2.05,0-3.56-.6-4.53-1.81-.97-1.21-1.46-2.82-1.46-4.86ZM845.62,103.82h6.95c-.03-1.15-.33-2.15-.89-3.02s-1.38-1.3-2.46-1.3c-.95,0-1.76.32-2.42.95-.66.64-1.06,1.76-1.18,3.36Z"/>
            <path class="cls-1" d="M856.88,107.61c0-1.46.68-2.53,2.05-3.21,1.37-.68,3.41-1.08,6.12-1.19v-.84c0-.77-.17-1.44-.52-2-.35-.56-1.04-.84-2.07-.84-.66,0-1.18.06-1.57.19-.39.13-.75.3-1.08.5-.32.21-.63.48-.93.81-.22.25-.43.26-.63.04l-.64-.74c-.18-.2-.12-.45.19-.74.43-.41.86-.72,1.27-.92.41-.21.92-.38,1.53-.52s1.23-.22,1.86-.22c1.71,0,2.94.44,3.67,1.32.73.88,1.1,2.09,1.1,3.62v7.63c0,.37-.19.55-.56.55h-1.12c-.32,0-.49-.18-.49-.55v-.6c-.65.51-1.28.86-1.9,1.06-.62.2-1.31.3-2.07.3-1.34,0-2.38-.32-3.1-.97-.73-.64-1.09-1.54-1.09-2.69ZM859.12,107.66c0,.51.11.92.32,1.22.21.31.51.5.89.59.38.09.77.13,1.18.13.63,0,1.23-.06,1.8-.18.57-.12,1.15-.45,1.75-.97v-3.63c-1.66.12-2.84.27-3.54.45-.71.18-1.28.48-1.72.91-.44.43-.66.92-.66,1.48Z"/>
            <path class="cls-1" d="M871.25,111.05c-.36,0-.55-.18-.55-.55v-11.81c0-.37.18-.55.55-.55h1.03c.37,0,.55.18.55.55v1.48c.4-.74.87-1.3,1.4-1.67.54-.38,1.21-.57,2.01-.57.53,0,.9.05,1.12.14.19.07.26.2.21.37l-.28,1.01c-.04.15-.15.2-.32.17-.29-.06-.56-.09-.82-.09-.96,0-1.76.43-2.39,1.3-.63.86-.94,2.04-.94,3.54v6.14c0,.37-.18.55-.55.55h-1.05Z"/>
            <path class="cls-1" d="M878.88,104.59c0-1.93.48-3.52,1.43-4.78s2.42-1.89,4.38-1.89c1.33,0,2.34.24,3.04.71.7.47,1.21.95,1.52,1.45.17.27.14.49-.11.65l-.78.5c-.25.17-.49.06-.74-.33-.24-.38-.57-.7-1-.97-.43-.27-1.08-.41-1.94-.41-1.12,0-1.99.41-2.61,1.24-.61.83-.92,2.1-.92,3.83s.31,3,.92,3.82c.61.83,1.48,1.24,2.61,1.24.91,0,1.61-.17,2.09-.52.48-.35.84-.73,1.06-1.14.21-.39.45-.5.72-.33l.82.49c.25.15.28.37.11.66-.2.35-.67.85-1.4,1.48-.73.64-1.86.95-3.41.95-1.97,0-3.43-.63-4.38-1.89-.96-1.26-1.43-2.85-1.43-4.78Z"/>
            <path class="cls-1" d="M892.76,111.05c-.37,0-.55-.18-.55-.55v-17.05c0-.37.18-.55.55-.55h1.06c.37,0,.55.18.55.55v5.49c0,.25,0,.49-.02.74h.02c.53-.59,1.11-1.03,1.73-1.32.62-.29,1.39-.43,2.31-.43,1.5,0,2.57.42,3.23,1.26.65.84.98,1.99.98,3.45v7.86c0,.37-.19.55-.55.55h-1.06c-.37,0-.55-.18-.55-.55v-7.27c0-1.61-.27-2.63-.8-3.06-.53-.43-1.21-.65-2.03-.65-1.07,0-1.87.32-2.42.95s-.82,1.72-.82,3.27v6.75c0,.37-.19.55-.55.55h-1.06Z"/>
          </g>
        </g>
        <g>
          <rect class="cls-12" x="471.08" y="-144.82" width="49.32" height="489.13" transform="translate(395.99 595.48) rotate(-90)"/>
          <g>
            <g>
              <g>
                <polygon class="cls-4" points="255.37 120.21 255.37 79.28 251.17 75.08 251.17 124.4 255.37 120.21"/>
                <polygon class="cls-18" points="255.37 120.21 255.37 79.28 252.85 76.76 252.85 122.72 255.37 120.21"/>
              </g>
              <g>
                <polygon class="cls-3" points="255.37 120.21 251.17 124.4 740.3 124.4 736.1 120.21 255.37 120.21"/>
                <polygon class="cls-14" points="255.37 120.21 252.85 122.72 738.62 122.72 736.1 120.21 255.37 120.21"/>
              </g>
            </g>
            <g>
              <g>
                <polygon class="cls-3" points="736.1 79.28 736.1 120.21 740.3 124.4 740.3 75.08 736.1 79.28"/>
                <polygon class="cls-14" points="736.1 79.28 736.1 120.21 738.62 122.72 738.62 76.76 736.1 79.28"/>
              </g>
              <g>
                <polygon class="cls-4" points="736.1 79.28 740.3 75.08 251.17 75.08 255.37 79.28 736.1 79.28"/>
                <polygon class="cls-18" points="736.1 79.28 738.62 76.76 252.85 76.76 255.37 79.28 736.1 79.28"/>
              </g>
            </g>
          </g>
          <rect class="cls-10" x="475.27" y="-140.62" width="40.92" height="480.73" transform="translate(395.99 595.48) rotate(-90)"/>
        </g>
        <g>
          <g>
            <polygon class="cls-9" points="263.25 112.94 263.25 91.25 282.66 91.25 304.18 91.25 304.18 112.94 263.25 112.94"/>
            <g>
              <g>
                <polygon class="cls-6" points="303.07 92.36 303.07 111.82 303.82 112.58 303.82 91.61 303.07 92.36"/>
                <g>
                  <g>
                    <polygon class="cls-14" points="263.61 91.61 263.61 112.58 263.99 112.2 263.99 91.98 263.61 91.61"/>
                    <polygon class="cls-11" points="264.37 92.36 263.99 91.98 263.99 112.2 264.37 111.82 264.37 92.36"/>
                  </g>
                  <polygon class="cls-18" points="264.37 111.82 263.61 112.58 303.82 112.58 303.07 111.82 264.37 111.82"/>
                  <polygon class="cls-6" points="264.37 111.82 263.99 112.2 303.44 112.2 303.07 111.82 264.37 111.82"/>
                  <polygon class="cls-18" points="303.07 92.36 303.07 111.82 303.82 112.58 303.82 91.61 303.07 92.36"/>
                  <polygon class="cls-6" points="303.44 91.99 303.07 92.36 303.07 111.82 303.44 112.2 303.44 91.99"/>
                </g>
              </g>
              <rect class="cls-16" x="264.37" y="92.36" width="38.7" height="19.46"/>
              <g>
                <polygon class="cls-11" points="263.99 91.98 264.37 92.36 303.07 92.36 303.44 91.98 263.99 91.98"/>
                <polygon class="cls-14" points="303.82 91.61 263.61 91.61 263.99 91.98 303.44 91.98 303.82 91.61"/>
              </g>
            </g>
            <polygon class="cls-4" points="304.18 91.25 303.82 91.61 303.82 112.58 304.18 112.94 304.18 91.25"/>
            <polygon class="cls-4" points="304.18 112.94 303.82 112.58 263.61 112.58 263.25 112.94 304.18 112.94"/>
          </g>
          <g>
            <polygon class="cls-16" points="278.19 86.55 267.2 86.55 263.25 91.25 282.14 91.25 278.19 86.55"/>
            <polygon class="cls-11" points="277.89 87.2 281.28 91.25 282.14 91.25 278.19 86.55 267.2 86.55 263.25 91.25 264.1 91.25 267.5 87.2 277.89 87.2"/>
            <g>
              <polygon class="cls-9" points="267.2 86.55 263.25 91.25 263.61 91.25 267.28 86.88 267.2 86.55"/>
              <g>
                <path class="cls-9" d="M267.2,86.55l.08.33h10.82l.08-.33h-10.99Z"/>
                <polygon class="cls-9" points="278.19 86.55 278.11 86.88 281.78 91.25 282.14 91.25 278.19 86.55"/>
              </g>
            </g>
          </g>
        </g>
        <g>
          <g>
            <path class="cls-2" d="M49.38,87.93c0-1.16.94-2.11,2.09-2.11h31.4c1.15,0,2.09.94,2.09,2.11s-.94,2.11-2.09,2.11h-31.4c-1.15,0-2.09-.94-2.09-2.11Z"/>
            <path class="cls-13" d="M84.96,87.93c0-.39-.11-.74-.29-1.05-.36.63-1.03,1.05-1.8,1.05h-31.4c-.77,0-1.44-.43-1.8-1.05-.18.31-.29.67-.29,1.05,0,1.16.94,2.11,2.09,2.11h31.4c1.15,0,2.09-.94,2.09-2.11Z"/>
          </g>
          <g>
            <path class="cls-2" d="M49.38,99.22c0-1.16.94-2.11,2.09-2.11h31.4c1.15,0,2.09.94,2.09,2.11s-.94,2.11-2.09,2.11h-31.4c-1.15,0-2.09-.94-2.09-2.11Z"/>
            <path class="cls-13" d="M84.96,99.22c0-.39-.11-.74-.29-1.05-.36.63-1.03,1.05-1.8,1.05h-31.4c-.77,0-1.44-.43-1.8-1.05-.18.31-.29.67-.29,1.05,0,1.16.94,2.11,2.09,2.11h31.4c1.15,0,2.09-.94,2.09-2.11Z"/>
          </g>
          <g>
            <path class="cls-2" d="M49.38,111.56c0-1.16.94-2.11,2.09-2.11h31.4c1.15,0,2.09.94,2.09,2.11s-.94,2.11-2.09,2.11h-31.4c-1.15,0-2.09-.94-2.09-2.11Z"/>
            <path class="cls-13" d="M84.96,111.56c0-.39-.11-.74-.29-1.05-.36.63-1.03,1.05-1.8,1.05h-31.4c-.77,0-1.44-.43-1.8-1.05-.18.31-.29.67-.29,1.05,0,1.16.94,2.11,2.09,2.11h31.4c1.15,0,2.09-.94,2.09-2.11Z"/>
          </g>
        </g>
        <g>
          <g>
            <polygon class="cls-8" points="138.59 85.85 125.84 99.74 138.59 113.64 138.59 104.62 163.79 104.62 163.79 94.87 138.59 94.87 138.59 85.85"/>
            <g>
              <polygon class="cls-3" points="138.59 103.78 137.75 103.78 137.75 104.62 137.75 111.48 126.41 99.12 125.84 99.74 138.59 113.64 138.59 104.62 163.79 104.62 162.95 103.78 138.59 103.78"/>
              <polygon class="cls-2" points="162.95 94.87 162.95 103.78 163.79 104.62 163.79 94.87 162.95 94.87"/>
            </g>
          </g>
          <g>
            <polygon class="cls-19" points="203.03 85.85 215.78 99.74 203.03 113.64 203.03 104.62 177.83 104.62 177.83 94.87 203.03 94.87 203.03 85.85"/>
            <polygon class="cls-15" points="203.87 111.48 203.87 104.62 203.87 103.78 203.03 103.78 177.83 103.78 177.83 104.62 203.03 104.62 203.03 113.64 215.78 99.74 215.21 99.12 203.87 111.48"/>
          </g>
        </g>
        <g>
          <path class="cls-1" d="M314.64,99.34c0-2.87.71-5.12,2.13-6.75,1.42-1.63,3.47-2.44,6.13-2.44,1.56,0,2.85.26,3.86.79,1.02.53,1.75,1.25,2.19,2.17.23.48.19.8-.11.98l-.97.57c-.33.19-.62.03-.87-.47-.27-.52-.71-1-1.33-1.45-.61-.45-1.5-.68-2.64-.68-2.05,0-3.54.64-4.47,1.91-.93,1.28-1.4,3.06-1.4,5.36s.47,4.08,1.4,5.36c.93,1.27,2.42,1.91,4.47,1.91,1.18,0,2.13-.27,2.83-.81.71-.54,1.22-1.11,1.54-1.7.25-.48.55-.62.89-.43l1.02.58c.3.17.32.5.07.98-.48.94-1.27,1.73-2.36,2.36-1.09.63-2.46.94-4.12.94-2.66,0-4.71-.81-6.13-2.44-1.42-1.63-2.13-3.88-2.13-6.75Z"/>
          <path class="cls-1" d="M333.75,97.85c-.37,0-.55-.18-.55-.55v-1.5c0-.37.18-.55.55-.55h1.38c.37,0,.55.18.55.55v1.5c0,.37-.18.55-.55.55h-1.38ZM333.75,108.16c-.37,0-.55-.18-.55-.55v-1.5c0-.37.18-.55.55-.55h1.38c.37,0,.55.18.55.55v1.5c0,.37-.18.55-.55.55h-1.38Z"/>
          <path class="cls-1" d="M338.43,91.05c-.14-.34-.08-.57.18-.68l.55-.22c.28-.11.49,0,.63.34l8.79,21.78c.14.34.07.57-.21.69l-.55.22c-.26.11-.46-.01-.6-.36l-8.79-21.78Z"/>
          <path class="cls-1" d="M350.55,101.43v-10.23c0-.45.2-.68.61-.68h1.13c.41,0,.61.23.61.68v9.86c0,2.3.33,3.79.98,4.5.65.7,1.72,1.05,3.19,1.05s2.54-.35,3.19-1.05c.65-.7.98-2.2.98-4.5v-9.86c0-.45.2-.68.61-.68h1.13c.41,0,.61.23.61.68v10.23c0,2.6-.6,4.43-1.79,5.5-1.19,1.07-2.77,1.6-4.74,1.6s-3.55-.53-4.74-1.6c-1.19-1.07-1.79-2.9-1.79-5.5Z"/>
          <path class="cls-1" d="M366.95,106.95c-.25-.24-.31-.46-.16-.66l.55-.77c.18-.25.45-.23.8.04.48.37,1.02.66,1.62.89.59.22,1.27.33,2.04.33.45,0,.85-.05,1.21-.17.35-.11.66-.32.93-.62.27-.3.4-.71.4-1.22,0-.3-.06-.57-.19-.84-.13-.26-.32-.47-.59-.63s-.53-.29-.78-.38c-.42-.16-.83-.29-1.25-.39-.41-.1-.96-.26-1.63-.48-.45-.14-.88-.34-1.28-.59-.4-.26-.75-.61-1.05-1.05-.3-.44-.45-1.05-.45-1.83s.24-1.48.73-2.05c.48-.57,1.09-.97,1.82-1.17.73-.21,1.44-.31,2.13-.31,1.02,0,1.83.12,2.45.35.62.23,1.15.51,1.61.83.26.19.3.41.11.65l-.55.74c-.17.24-.44.23-.8-.02-.3-.21-.73-.41-1.29-.6-.56-.19-1.05-.28-1.46-.28-.52,0-.96.06-1.33.17-.37.11-.67.31-.9.59-.23.28-.34.61-.34.98,0,.29.05.54.14.77.09.23.26.43.5.62.25.19.59.34,1.03.45.69.18,1.32.34,1.89.49.57.15,1.08.33,1.54.54.6.28,1.06.59,1.38.92.32.34.55.7.67,1.09.12.39.18.82.18,1.3,0,.88-.26,1.62-.78,2.23-.52.61-1.1,1.01-1.74,1.21s-1.41.3-2.31.3c-1.22,0-2.27-.17-3.14-.52-.87-.35-1.44-.65-1.69-.89Z"/>
          <path class="cls-1" d="M378.36,101.7c0-2.03.51-3.65,1.53-4.86,1.02-1.21,2.47-1.81,4.37-1.81,1.57,0,2.88.55,3.92,1.65,1.04,1.1,1.56,2.86,1.56,5.28,0,.37-.17.55-.51.55h-8.62c.14,1.59.57,2.69,1.29,3.31.72.62,1.53.93,2.44.93.96,0,1.69-.16,2.2-.48.51-.32.89-.64,1.13-.95.26-.34.52-.41.76-.2l.73.63c.19.16.19.39,0,.68-.16.24-.6.62-1.33,1.14s-1.89.78-3.46.78c-2.05,0-3.56-.6-4.53-1.81-.97-1.21-1.46-2.82-1.46-4.86ZM380.6,100.92h6.95c-.03-1.15-.33-2.15-.89-3.02-.56-.87-1.38-1.3-2.46-1.3-.95,0-1.76.32-2.42.95-.66.64-1.06,1.76-1.18,3.36Z"/>
          <path class="cls-1" d="M393.11,108.16c-.36,0-.55-.18-.55-.55v-11.81c0-.37.18-.55.55-.55h1.03c.37,0,.55.18.55.55v1.48c.4-.74.87-1.3,1.4-1.67.54-.38,1.21-.57,2.01-.57.53,0,.9.05,1.12.14.19.07.26.2.21.37l-.28,1.01c-.04.15-.15.21-.32.17-.29-.06-.56-.09-.82-.09-.96,0-1.76.43-2.39,1.3-.63.86-.94,2.04-.94,3.54v6.14c0,.37-.18.55-.55.55h-1.05Z"/>
          <path class="cls-1" d="M399.99,91.05c-.14-.34-.08-.57.18-.68l.55-.22c.28-.11.49,0,.63.34l8.79,21.78c.14.34.07.57-.21.69l-.55.22c-.26.11-.46-.01-.6-.36l-8.79-21.78Z"/>
          <path class="cls-1" d="M412.74,108.16c-.41,0-.62-.23-.62-.68v-16.28c0-.45.21-.68.62-.68h10.02c.45,0,.68.18.68.55v.91c0,.37-.23.55-.68.55h-8.28v5.83h7.22c.45,0,.68.18.68.55v.91c0,.37-.23.55-.68.55h-7.22v7.1c0,.45-.2.68-.61.68h-1.13Z"/>
          <path class="cls-1" d="M426.67,92.9c-.37,0-.55-.18-.55-.55v-1.06c0-.37.18-.55.55-.55h1.06c.37,0,.55.18.55.55v1.06c0,.37-.18.55-.55.55h-1.06ZM426.67,108.16c-.37,0-.55-.18-.55-.55v-11.81c0-.37.18-.55.55-.55h1.06c.37,0,.55.18.55.55v11.81c0,.37-.18.55-.55.55h-1.06Z"/>
          <path class="cls-1" d="M432.33,108.16c-.37,0-.55-.18-.55-.55v-15.35c0-.16.04-.32.12-.47l.86-1.56c.16-.29.28-.43.38-.43h.43c.25,0,.37.14.37.43v17.38c0,.37-.18.55-.55.55h-1.06Z"/>
          <path class="cls-1" d="M436.73,101.7c0-2.03.51-3.65,1.52-4.86s2.47-1.81,4.37-1.81c1.57,0,2.88.55,3.92,1.65,1.04,1.1,1.56,2.86,1.56,5.28,0,.37-.17.55-.51.55h-8.62c.14,1.59.57,2.69,1.29,3.31.72.62,1.53.93,2.44.93.96,0,1.69-.16,2.2-.48.51-.32.89-.64,1.13-.95.26-.34.52-.41.76-.2l.73.63c.19.16.19.39,0,.68-.16.24-.6.62-1.33,1.14s-1.89.78-3.46.78c-2.05,0-3.56-.6-4.53-1.81-.97-1.21-1.46-2.82-1.46-4.86ZM438.97,100.92h6.95c-.03-1.15-.33-2.15-.89-3.02-.56-.87-1.38-1.3-2.46-1.3-.95,0-1.76.32-2.42.95s-1.06,1.76-1.18,3.36Z"/>
        </g>
      </g>
    </g>
  </g>
</svg>