<?xml version="1.0" encoding="UTF-8"?>
<svg id="Layer_2" xmlns="http://www.w3.org/2000/svg" viewBox="0 0 54.49 101.97">
  <defs>
    <style>
      .cls-1 {
        fill: #fff;
      }
    </style>
  </defs>
  <g id="_x31_">
    <g>
      <path d="M51.86,58.36L1.52,0,0,1.52v78.56c0,2.83,3.2,4.48,5.51,2.84l15.75-11.21,11.14,26.9c2.73,6.6,12.65,2.49,9.92-4.11l-11.09-26.77,18.04-2.32c3.4-.44,4.9-4.52,2.59-7.05Z"/>
      <g>
        <path class="cls-1" d="M38.7,99.68c-1.83,0-3.31-1.05-4.07-2.88l-11.51-27.78-16.53,11.76c-.47.33-1.01.51-1.57.51-1.32,0-2.74-1.04-2.74-2.73V1.96l50.53,55.39c.89.98,1.15,2.3.69,3.54-.45,1.24-1.51,2.08-2.82,2.25l-19.03,2.45,11.47,27.69c.81,1.94.29,3.37-.28,4.23-.88,1.32-2.52,2.18-4.16,2.18h0Z"/>
        <path d="M3.04,3.93l49.21,53.94c.69.76.9,1.79.54,2.76-.35.97-1.18,1.62-2.2,1.76l-18.04,2.32-1.97.25.76,1.84,11.09,26.77c.54,1.29.46,2.51-.21,3.51-.75,1.12-2.13,1.84-3.53,1.84-.88,0-2.5-.31-3.37-2.41l-11.14-26.9-.73-1.76-1.56,1.11-15.75,11.21c-.35.25-.72.37-1.13.37-.95,0-1.98-.75-1.98-1.97V3.93h0ZM1.52,0v78.56c0,2.06,1.69,3.49,3.5,3.49.68,0,1.38-.2,2.01-.65l15.75-11.21,11.14,26.9c.98,2.36,2.87,3.35,4.77,3.35,3.43,0,6.9-3.21,5.14-7.46l-11.09-26.77,18.04-2.32c3.4-.44,4.9-4.52,2.59-7.05L1.52,0h0Z"/>
      </g>
    </g>
  </g>
</svg>