<?xml version="1.0" encoding="UTF-8"?>
<svg id="Layer_2" xmlns="http://www.w3.org/2000/svg" viewBox="0 0 114 106">
  <defs>
    <style>
      .cls-1 {
        fill: #4c8700;
      }

      .cls-2 {
        fill: #c91c65;
      }

      .cls-3 {
        fill: #ff97c2;
      }

      .cls-4 {
        fill: #e9ffce;
      }

      .cls-4, .cls-5, .cls-6, .cls-7 {
        fill-rule: evenodd;
      }

      .cls-5, .cls-8 {
        fill: #c5f955;
      }

      .cls-9 {
        fill: #fff;
      }

      .cls-10 {
        fill: #ff3e8f;
      }

      .cls-6, .cls-11 {
        fill: #181818;
      }

      .cls-7 {
        fill: #67b800;
      }
    </style>
  </defs>
  <g id="Layer_1-2" data-name="Layer_1">
    <g>
      <path class="cls-5" d="M21.59,33.85c1.27-2.97,2.84-5.89,4.72-8.69l.03-.05h0c.2-.31.41-.62.62-.92C39.28,5.09,65.73-6.37,88.1,3.78c17.67,7.56,26.14,23.01,25.9,36.77-.12,6.86-2.44,13.55-7.23,18.39-.82.83-1.7,1.59-2.63,2.27,4.32,3.43,7.14,7.6,7.88,12.47,1.1,7.29-2.84,13.81-8.38,18.62-11.08,9.62-31.85,15.65-55.5,13.14-3.93-.36-18.13-3.15-21.36-8.33-1.71-.83-3.27-1.8-4.62-2.95-2.21-1.88-4.04-4.4-4.71-7.57-.98-4.61,1.55-12.45,6.81-14.69,1.89,9.29,8.63,9.85,13.64,10.37,2.05-1.72,3.04-2.7,5.1-5.28-4.01.32-9.09-.77-12.99-2.85-7.16-3.82-11.47-10.84-11.94-20.87-.46-6.57.95-13.39,3.51-19.41ZM31.65,27.3c-.2.3-.41.59-.61.9-.01.02-.03.04-.04.06-1.69,2.52-3.1,5.14-4.23,7.79,0,.04,0,.08.01.12-2.33,5.57-3.42,11.26-3.12,16.37,0,.15.02.3.03.45h0s0,0,0,0h0c0,.14.01.26.02.38.82,14.13,10.47,18.66,22.33,18.52,1.92-.02,3.9-.17,5.91-.41-.52,2.23-1.1,4.15-1.83,5.83-1.05,2.41-2.43,4.3-4.39,5.84,7.07.53,14.72-.51,21.57-2.6,9.46-.69,24.14-6.12,21.16-16.57h0c-.05-.17-.1-.34-.16-.52-.32-1.19-.7-2.34-1.1-3.43l-.03-.08.03.03c2.11.21,4.07.15,5.88-.13.15-.02.3-.05.44-.07.32-.06.64-.12.95-.2.32-.08.64-.16.95-.25,1.08-.31,2.11-.72,3.06-1.21.01,0,.02-.01.03-.02,0,0,.02,0,.03-.01h0c.15-.08.3-.16.45-.24,15.15-8.39,12.72-37.87-13.19-48.92C66.5.11,42.79,9.94,31.65,27.3ZM94.29,61.74c11.53,13.34.15,25.46-17.8,32.12,6.68-4.31,12.16-11.07,15.46-20.86-19.98,18.9-65.82,20.86-67.95,8.17-.04-.44-.06-.91-.06-1.38h0c-4.6,9.03,5.58,14.62,19.53,15.43.06,0,.12,0,.18.01.29.02.58.03.87.04,1.5.06,3.03.07,4.6.02.03,0,.05,0,.08,0,2.22-.07,4.49-.26,6.78-.56,8.22-1.09,16.63-3.69,23.48-8.02-3.85,3.34-7.61,5.78-11.44,7.57-6.03,2.81-12.23,4.01-19.21,4.6h-.02c-1.61.13-3.25.24-4.95.32,1.62.28,3.24.49,4.87.64,2.56.27,5.08.44,7.55.51,4.65.13,9.1-.09,13.3-.6,29.78-3.62,46.93-21.88,30.86-34.34-.55-.42-1.13-.84-1.76-1.25-1.28-.84-2.73-1.65-4.35-2.42h-.02s.01,0,.01,0h0Z"/>
      <path class="cls-10" d="M31.04,28.2c-13.28,20.13-9.75,46.75,18.88,42.04l28.38-9.34c26.58-8.84,27.85-35.95,11.08-47.9C76.68,3.94,47.23,3.68,31.04,28.2Z"/>
      <path class="cls-5" d="M45.88,44.04c12.61-3.41,25.95-17.91,28-36.49-4.37-.4-9.22-.11-14.53,1.06-15.98,3.53-27.35,15.16-32.58,27.43,1.06,9.51,15.79,8.89,19.1,7.99Z"/>
      <path class="cls-7" d="M45.88,44.04c12.61-3.41,24.41-17.37,26.46-35.95l-3.62.87c-5.84,21-22.3,35.73-37.08,31.63,2.18,4.05,12.53,3.92,14.24,3.46Z"/>
      <path class="cls-4" d="M68.85,11.97c-16.68-3.34-36.34,7.19-41.01,25.36,6.78-13.01,25.49-24.74,41.01-25.36Z"/>
      <path class="cls-2" d="M102.47,28.66l-25.56,35.13-26.04,5.5c-.28.2-.53.11-.53.11h0l.53-.11c.42-.31.91-1.28.71-4.24-.54-1.53-.9-5.15-4.58-7.61-1.76-1.18-3.43-2.75-3.14-4.85.29-2.07,2.16-3.3,4.2-3.79,17.6-4.23,25.74-22.25,27.54-39.28l15.42,6.67,11.46,12.48Z"/>
      <path class="cls-1" d="M86.42,51.03c-10.65-4.58-5.42-24.56,6.89-29.28,0,0,0,.01.01.02-7.51,6.1-8.82,19.3-2.88,25.61-.84.91-1.76,1.8-2.77,2.68-.4.32-.82.65-1.25.97Z"/>
      <path class="cls-7" d="M25.29,58.68c8.94-1.26,23.52,2.5,24,10.6-10.01.58-20.81-4.63-24-10.6Z"/>
      <path class="cls-8" d="M26.71,60.74c1.33.92,3.28,1.77,6.08,2.37,4.12.88,8.71.32,11.95-.52-5.13-3.37-13.53-4.74-19.46-3.91.37.7.85,1.39,1.42,2.06Z"/>
      <path class="cls-9" d="M55.34,63.64c1.48-16.23,24.4-18.66,28.13-8.41.3.92.69,1.92,1.09,2.98,1.1,2.89,2.36,6.2,2.65,9.42-4.44,8.14-20.04,14.83-34.95,15.59,4.53-9.52,3.08-19.57,3.08-19.57Z"/>
      <path class="cls-3" d="M82.31,74.02l-15.06,6.53c10.13-5.3,10.65-27.68-.2-25.45l9.01-3.84,8.44,7.33-2.19,15.43Z"/>
      <path class="cls-6" d="M85.82,8.91c-3.06-1.39-6.37-2.39-9.83-2.89h0s-.03,0-.03,0c-17.5-2.52-35.36,6.75-44.78,22.04,9.33-12.53,26.33-19.78,40.39-17.82-1.19,7.09-5.77,17.64-14.07,25.11-8.24,7.41-20.72,10.21-28.37,5.64,5.64,6.7,22.78,5.84,32.09-2.2,8.73-7.54,14.14-19.33,15.14-27.53.41.1.81.2,1.21.32,4.25,1.35,5.42,5,5.71,7.56.19,1.69-.86,3.16-2.1,4.32-2.63,2.46-5.26,6.43-6.78,10.69-1.72,4.82-4.01,9.79-8.18,12.77-1.87,1.33-3.35,2.47-4.49,3.47-3.98,2.62-7.04,6.94-8.22,13.1-.17.89-.27,1.41-.41,2.18-13.84,2.75-26.6.61-29.4-12.66.78,16.75,13.74,20.27,28.25,18.49-1.26,5.42-2.89,9.06-6.22,11.67,2.52.19,5.12.18,7.72,0,2.27-2.81,3.05-7.77,3.71-12.01h0c.15-.97.3-1.91.46-2.77.07-.39.15-.78.23-1.15.06-.28.13-.56.19-.82h0c4.34-17.06,22.56-14.05,23.44-2.24.02.27.04.54.06.8.4,4.74.6,7.15-14.31,15.6h0c9.61-.69,24.68-6.28,21.06-17.09-.33-1.22-.72-2.4-1.12-3.52l.03.03c26.93,2.65,29.95-37.69-1.39-51.05ZM93.31,21.75c-12.31,4.71-17.54,24.7-6.89,29.28l4.02-3.65c-5.94-6.31-4.63-19.51,2.88-25.61v-.02Z"/>
      <path class="cls-11" d="M48.7,99.84c45.24,4.83,76.24-23.55,45.58-38.12,11.54,13.35.17,25.47-17.79,32.14,6.68-4.31,12.16-11.07,15.46-20.86-20.68,19.57-69.08,20.97-68.01,6.78-8.39,16.49,32.43,21.52,55.52,6.93-11.3,9.82-21.85,11.83-35.62,12.49,1.62.28,3.24.5,4.87.64Z"/>
      <path class="cls-6" d="M39.66,37.24c-1.78-.05-2.97-.94-2.67-2,.9-3.16,1.57-8.03,1.22-11.92-.1-1.05,1.28-2.05,3.08-2.24s3.33.51,3.43,1.55c.39,4.22-.34,9.37-1.3,12.77-.3,1.06-1.99,1.89-3.76,1.84Z"/>
      <path class="cls-10" d="M37.34,36.44s1.06.64,2.59-.18c2.46-1.32,3.04-9.27,3.04-13.92,0-1.26-1.54-1.28-1.54-1.28,1.74-.14,3.21.54,3.3,1.56.39,4.22-.34,9.37-1.3,12.77-.3,1.06-1.99,1.89-3.76,1.84-1.03-.03-1.86-.34-2.32-.8Z"/>
      <path class="cls-6" d="M53.57,30.84c-1.78-.05-2.97-.94-2.67-2,.9-3.16,1.57-8.03,1.22-11.92-.1-1.05,1.28-2.05,3.08-2.24,1.8-.19,3.33.51,3.43,1.55.39,4.22-.34,9.37-1.3,12.77-.3,1.06-1.99,1.89-3.76,1.84Z"/>
      <path class="cls-10" d="M51.25,30.04s1.06.64,2.59-.18c2.46-1.32,3.04-9.27,3.04-13.92,0-1.26-1.54-1.28-1.54-1.28,1.74-.14,3.21.54,3.3,1.56.39,4.22-.34,9.37-1.3,12.77-.3,1.06-1.99,1.89-3.76,1.84-1.03-.03-1.86-.34-2.32-.8Z"/>
      <path class="cls-8" d="M16.9,0l2.67,7.25,7.21,2.68-7.21,2.68-2.67,7.25-2.67-7.25-7.21-2.68,7.21-2.68,2.67-7.25Z"/>
      <path class="cls-8" d="M5.63,18.77l1.52,4.16,4.11,1.54-4.11,1.54-1.52,4.16-1.52-4.16-4.11-1.54,4.11-1.54,1.52-4.16Z"/>
    </g>
  </g>
</svg>