<?xml version="1.0" encoding="UTF-8"?>
<svg id="Layer_2" xmlns="http://www.w3.org/2000/svg" xmlns:xlink="http://www.w3.org/1999/xlink" viewBox="0 0 500 310">
  <defs>
    <style>
      .cls-1 {
        fill: url(#radial-gradient);
      }

      .cls-2 {
        fill: #fff;
      }

      .cls-3 {
        fill: #fbfbfb;
      }

      .cls-4 {
        fill: #a5e5fb;
      }
    </style>
    <radialGradient id="radial-gradient" cx="248.5" cy="117.06" fx="248.5" fy="117.06" r="469.96" gradientTransform="translate(0 45.74)" gradientUnits="userSpaceOnUse">
      <stop offset="0" stop-color="#00a2ff"/>
      <stop offset=".47" stop-color="#009fff"/>
      <stop offset=".8" stop-color="#0096ff"/>
      <stop offset="1" stop-color="#008cff"/>
    </radialGradient>
  </defs>
  <g id="Layer_1-2" data-name="Layer_1">
    <g>
      <rect class="cls-1" width="500" height="310"/>
      <g>
        <g>
          <path class="cls-4" d="M46.41,222.75h-.47v-2.85l-2.13-3.79h.47l1.9,3.27,1.9-3.27h.47l-2.13,3.79v2.85Z"/>
          <path class="cls-4" d="M51.3,217.91c1.19,0,1.79.74,1.8,2.23v.47c-.02,1.49-.62,2.23-1.8,2.23s-1.79-.74-1.8-2.23v-.47c.02-1.49.62-2.23,1.8-2.23ZM51.3,222.37c.89,0,1.33-.6,1.33-1.8v-.38c0-1.2-.44-1.8-1.33-1.8s-1.33.6-1.33,1.8v.38c0,1.2.44,1.8,1.33,1.8Z"/>
          <path class="cls-4" d="M57.53,218h.47v4.74h-.47v-.71c-.32.47-.73.71-1.23.71-1.17,0-1.75-.71-1.75-2.13v-2.61h.47v2.61c0,1.11.43,1.66,1.28,1.66.5,0,.91-.32,1.23-.95v-3.32Z"/>
          <path class="cls-4" d="M63.71,222.75l-1.42-4.74h.52l1.14,3.79,1.14-3.79h.57l1.14,3.79,1.14-3.79h.52l-1.42,4.74h-.47l-1.19-3.95-1.19,3.95h-.47Z"/>
          <path class="cls-4" d="M70.6,216.11v.95h-.71v-.95h.71ZM70.01,222.75v-4.74h.47v4.74h-.47Z"/>
          <path class="cls-4" d="M72.98,222.75v-6.64h.47v6.64h-.47Z"/>
          <path class="cls-4" d="M75.84,222.75v-6.64h.47v6.64h-.47Z"/>
          <path class="cls-4" d="M82.03,222.75h-.47v-4.74h.47v.71c.32-.47.73-.71,1.23-.71,1.17,0,1.75.71,1.75,2.13v2.61h-.47v-2.61c0-1.11-.43-1.66-1.28-1.66-.5,0-.91.32-1.23.95v3.32Z"/>
          <path class="cls-4" d="M88.25,217.91c1.19,0,1.79.74,1.8,2.23v.47c-.02,1.49-.62,2.23-1.8,2.23s-1.79-.74-1.8-2.23v-.47c.02-1.49.62-2.23,1.8-2.23ZM88.25,222.37c.89,0,1.33-.6,1.33-1.8v-.38c0-1.2-.44-1.8-1.33-1.8s-1.33.6-1.33,1.8v.38c0,1.2.44,1.8,1.33,1.8Z"/>
          <path class="cls-4" d="M91.96,216.58h.47v1.42h1.19v.47h-1.19v3.08c0,.47.16.71.47.71.22,0,.46-.06.71-.19v.47c-.25.13-.49.19-.71.19-.63,0-.95-.39-.95-1.19v-3.08h-.47v-.47h.47v-1.42Z"/>
          <path class="cls-4" d="M98.86,218.48h-.47v-.47h.47v-.71c0-.79.32-1.19.95-1.19.22,0,.46.06.71.19v.47c-.25-.13-.49-.19-.71-.19-.32,0-.47.24-.47.71v.71h1.19v.47h-1.19v4.27h-.47v-4.27Z"/>
          <path class="cls-4" d="M103.14,216.11v.95h-.71v-.95h.71ZM102.54,222.75v-4.74h.47v4.74h-.47Z"/>
          <path class="cls-4" d="M105.52,222.75h-.47v-4.74h.47v.71c.32-.47.73-.71,1.23-.71,1.17,0,1.75.71,1.75,2.13v2.61h-.47v-2.61c0-1.11-.43-1.66-1.28-1.66-.5,0-.91.32-1.23.95v3.32Z"/>
          <path class="cls-4" d="M112.93,222.75v-.71c-.32.47-.73.71-1.23.71-1.17,0-1.75-.71-1.75-2.13v-.47c0-1.42.59-2.13,1.75-2.13.5,0,.91.24,1.23.71v-2.61h.47v6.64h-.47ZM112.93,219.43c-.32-.63-.73-.95-1.23-.95-.85,0-1.28.55-1.28,1.66v.47c0,1.11.43,1.66,1.28,1.66.5,0,.91-.32,1.23-.95v-1.9Z"/>
          <path class="cls-4" d="M118.26,218.67c.41-.51.93-.76,1.57-.76,1.11,0,1.66.66,1.66,1.99v1.9c0,.31.08.63.24.95h-.47c-.1-.21-.18-.42-.21-.63-.23.48-.68.72-1.35.72-1.01,0-1.52-.47-1.52-1.42,0-1.01.63-1.52,1.9-1.52h.95v-.09c0-.88-.4-1.33-1.19-1.33-.47,0-.87.16-1.19.47l-.38-.28ZM119.68,222.32c.79,0,1.23-.38,1.33-1.14v-.81h-.95c-.95,0-1.42.33-1.42,1s.35.95,1.04.95Z"/>
          <path class="cls-4" d="M123.39,222.75h-.47v-4.74h.47v.71c.32-.47.73-.71,1.23-.71,1.17,0,1.75.71,1.75,2.13v2.61h-.47v-2.61c0-1.11-.43-1.66-1.28-1.66-.5,0-.91.32-1.23.95v3.32Z"/>
          <path class="cls-4" d="M127.58,224.64c-.08,0-.16,0-.24-.01s-.16-.02-.24-.04l.1-.46c.12.02.25.03.38.03.57,0,.99-.32,1.28-.95l.14-.47-1.66-4.74h.52l1.38,3.98,1.38-3.98h.52l-1.83,5.22c-.3.95-.88,1.42-1.73,1.42Z"/>
          <path class="cls-4" d="M136.61,216.11v.95h-.71v-.95h.71ZM136.02,222.75v-4.74h.47v4.74h-.47Z"/>
          <path class="cls-4" d="M138.99,222.75h-.47v-4.74h.47v.71c.32-.47.73-.71,1.23-.71,1.17,0,1.75.71,1.75,2.13v2.61h-.47v-2.61c0-1.11-.43-1.66-1.28-1.66-.5,0-.91.32-1.23.95v3.32Z"/>
          <path class="cls-4" d="M143.89,218.48h-.47v-.47h.47v-.71c0-.79.32-1.19.95-1.19.22,0,.46.06.71.19v.47c-.25-.13-.49-.19-.71-.19-.32,0-.47.24-.47.71v.71h1.19v.47h-1.19v4.27h-.47v-4.27Z"/>
          <path class="cls-4" d="M148.78,217.91c1.19,0,1.79.74,1.8,2.23v.47c-.02,1.49-.62,2.23-1.8,2.23s-1.79-.74-1.8-2.23v-.47c.02-1.49.62-2.23,1.8-2.23ZM148.78,222.37c.89,0,1.33-.6,1.33-1.8v-.38c0-1.2-.44-1.8-1.33-1.8s-1.33.6-1.33,1.8v.38c0,1.2.44,1.8,1.33,1.8Z"/>
          <path class="cls-4" d="M153.72,218c.32,0,.61.08.89.24l-.18.43c-.23-.13-.47-.19-.71-.19-.5,0-.91.32-1.23.95v3.32h-.47v-4.74h.47v.76c.32-.51.73-.76,1.23-.76Z"/>
          <path class="cls-4" d="M158.9,219c.38-.66.85-1,1.42-1,1.11,0,1.66.71,1.66,2.13v2.61h-.47v-2.61c0-1.11-.4-1.66-1.19-1.66-.47,0-.87.33-1.19,1v3.27h-.47v-2.61c-.06-1.11-.41-1.66-1.04-1.66-.57,0-1.01.32-1.33.95v3.32h-.47v-4.74h.47v.71c.32-.47.76-.71,1.33-.71.63,0,1.06.33,1.28,1Z"/>
          <path class="cls-4" d="M163.52,218.67c.41-.51.93-.76,1.56-.76,1.11,0,1.66.66,1.66,1.99v1.9c0,.31.08.63.24.95h-.47c-.1-.21-.18-.42-.21-.63-.23.48-.68.72-1.35.72-1.01,0-1.52-.47-1.52-1.42,0-1.01.63-1.52,1.9-1.52h.95v-.09c0-.88-.4-1.33-1.19-1.33-.47,0-.87.16-1.19.47l-.38-.28ZM164.94,222.32c.79,0,1.23-.38,1.33-1.14v-.81h-.95c-.95,0-1.42.33-1.42,1s.35.95,1.04.95Z"/>
          <path class="cls-4" d="M168.65,216.58h.47v1.42h1.19v.47h-1.19v3.08c0,.47.16.71.47.71.22,0,.46-.06.71-.19v.47c-.25.13-.49.19-.71.19-.63,0-.95-.39-.95-1.19v-3.08h-.47v-.47h.47v-1.42Z"/>
          <path class="cls-4" d="M172.93,216.11v.95h-.71v-.95h.71ZM172.33,222.75v-4.74h.47v4.74h-.47Z"/>
          <path class="cls-4" d="M176.64,217.91c1.19,0,1.79.74,1.8,2.23v.47c-.02,1.49-.62,2.23-1.8,2.23s-1.79-.74-1.8-2.23v-.47c.02-1.49.62-2.23,1.8-2.23ZM176.64,222.37c.88,0,1.33-.6,1.33-1.8v-.38c0-1.2-.44-1.8-1.33-1.8s-1.33.6-1.33,1.8v.38c0,1.2.44,1.8,1.33,1.8Z"/>
          <path class="cls-4" d="M180.35,222.75h-.47v-4.74h.47v.71c.32-.47.73-.71,1.23-.71,1.17,0,1.75.71,1.75,2.13v2.61h-.47v-2.61c0-1.11-.43-1.66-1.28-1.66-.5,0-.91.32-1.23.95v3.32Z"/>
          <path class="cls-4" d="M188.57,218.48h-.47v-.47h.47v-.71c0-.79.32-1.19.95-1.19.22,0,.46.06.71.19v.47c-.25-.13-.49-.19-.71-.19-.32,0-.47.24-.47.71v.71h1.19v.47h-1.19v4.27h-.47v-4.27Z"/>
          <path class="cls-4" d="M193.47,217.91c1.19,0,1.79.74,1.8,2.23v.47c-.02,1.49-.62,2.23-1.8,2.23s-1.79-.74-1.8-2.23v-.47c.02-1.49.62-2.23,1.8-2.23ZM193.47,222.37c.88,0,1.33-.6,1.33-1.8v-.38c0-1.2-.44-1.8-1.33-1.8s-1.33.6-1.33,1.8v.38c0,1.2.44,1.8,1.33,1.8Z"/>
          <path class="cls-4" d="M198.41,218c.32,0,.61.08.89.24l-.18.43c-.23-.13-.47-.19-.71-.19-.5,0-.91.32-1.23.95v3.32h-.47v-4.74h.47v.76c.32-.51.73-.76,1.23-.76Z"/>
          <path class="cls-4" d="M204.31,216.58h.47v1.42h1.19v.47h-1.19v3.08c0,.47.16.71.47.71.22,0,.46-.06.71-.19v.47c-.25.13-.49.19-.71.19-.63,0-.95-.39-.95-1.19v-3.08h-.47v-.47h.47v-1.42Z"/>
          <path class="cls-4" d="M207.88,222.75h-.47v-6.64h.47v2.61c.32-.47.73-.71,1.23-.71,1.17,0,1.75.71,1.75,2.13v2.61h-.47v-2.61c0-1.11-.43-1.66-1.28-1.66-.5,0-.91.32-1.23.95v3.32Z"/>
          <path class="cls-4" d="M215.62,220.66h-2.84c.03,1.14.47,1.71,1.33,1.71.54,0,.93-.24,1.19-.71l.33.24c-.24.63-.74.95-1.51.95-1.19,0-1.79-.74-1.8-2.23v-.38c.01-1.55.58-2.32,1.71-2.32s1.61.77,1.61,2.32v.43ZM215.15,220.19c-.02-1.2-.4-1.8-1.14-1.8-.8,0-1.21.6-1.23,1.8h2.37Z"/>
          <path class="cls-4" d="M223.7,220.66h-2.84c.03,1.14.47,1.71,1.33,1.71.54,0,.93-.24,1.19-.71l.33.24c-.24.63-.74.95-1.51.95-1.19,0-1.79-.74-1.8-2.23v-.38c.01-1.55.58-2.32,1.71-2.32s1.61.77,1.61,2.32v.43ZM223.23,220.19c-.02-1.2-.4-1.8-1.14-1.8-.8,0-1.21.6-1.23,1.8h2.37Z"/>
          <path class="cls-4" d="M226.85,218c.32,0,.61.08.89.24l-.18.43c-.23-.13-.47-.19-.71-.19-.5,0-.91.32-1.23.95v3.32h-.47v-4.74h.47v.76c.32-.51.73-.76,1.23-.76Z"/>
          <path class="cls-4" d="M230.65,218c.32,0,.61.08.89.24l-.18.43c-.23-.13-.47-.19-.71-.19-.5,0-.91.32-1.23.95v3.32h-.47v-4.74h.47v.76c.32-.51.73-.76,1.23-.76Z"/>
          <path class="cls-4" d="M234.55,217.91c1.19,0,1.79.74,1.8,2.23v.47c-.02,1.49-.62,2.23-1.8,2.23s-1.79-.74-1.8-2.23v-.47c.02-1.49.62-2.23,1.8-2.23ZM234.55,222.37c.88,0,1.33-.6,1.33-1.8v-.38c0-1.2-.44-1.8-1.33-1.8s-1.33.6-1.33,1.8v.38c0,1.2.44,1.8,1.33,1.8Z"/>
          <path class="cls-4" d="M239.49,218c.32,0,.61.08.89.24l-.18.43c-.23-.13-.47-.19-.71-.19-.5,0-.91.32-1.23.95v3.32h-.47v-4.74h.47v.76c.32-.51.73-.76,1.23-.76Z"/>
          <path class="cls-4" d="M246.72,217.91c1.19,0,1.79.74,1.8,2.23v.47c-.02,1.49-.62,2.23-1.8,2.23s-1.79-.74-1.8-2.23v-.47c.02-1.49.62-2.23,1.8-2.23ZM246.72,222.37c.88,0,1.33-.6,1.33-1.8v-.38c0-1.2-.44-1.8-1.33-1.8s-1.33.6-1.33,1.8v.38c0,1.2.44,1.8,1.33,1.8Z"/>
          <path class="cls-4" d="M250.43,222.75h-.47v-4.74h.47v.71c.32-.47.73-.71,1.23-.71,1.17,0,1.75.71,1.75,2.13v2.61h-.47v-2.61c0-1.11-.43-1.66-1.28-1.66-.5,0-.91.32-1.23.95v3.32Z"/>
          <path class="cls-4" d="M255.33,222.75v-6.64h.47v6.64h-.47Z"/>
          <path class="cls-4" d="M258.9,216.11v.95h-.71v-.95h.71ZM258.3,222.75v-4.74h.47v4.74h-.47Z"/>
          <path class="cls-4" d="M261.28,222.75h-.47v-4.74h.47v.71c.32-.47.73-.71,1.23-.71,1.17,0,1.75.71,1.75,2.13v2.61h-.47v-2.61c0-1.11-.43-1.66-1.28-1.66-.5,0-.91.32-1.23.95v3.32Z"/>
          <path class="cls-4" d="M269.02,220.66h-2.84c.03,1.14.47,1.71,1.33,1.71.54,0,.93-.24,1.19-.71l.33.24c-.24.63-.74.95-1.51.95-1.19,0-1.79-.74-1.8-2.23v-.38c.01-1.55.58-2.32,1.71-2.32s1.61.77,1.61,2.32v.43ZM268.54,220.19c-.02-1.2-.4-1.8-1.14-1.8-.8,0-1.21.6-1.23,1.8h2.37Z"/>
          <path class="cls-4" d="M274.97,218v.95h-.71v-.95h.71ZM274.97,221.8v.95h-.71v-.95h.71Z"/>
          <path class="cls-4" d="M282.33,222.37c1.11,0,1.66-.46,1.66-1.37,0-.66-.62-1.12-1.87-1.37-1.25-.25-1.87-.84-1.87-1.75,0-1.23.7-1.85,2.09-1.85s2.02.62,2.08,1.87l-.46.12c0-1.01-.54-1.52-1.61-1.52s-1.61.46-1.61,1.38c0,.66.62,1.12,1.87,1.37,1.25.25,1.87.84,1.87,1.75,0,1.23-.71,1.85-2.13,1.85s-2.07-.63-2.12-1.9l.46-.09c0,1.01.55,1.52,1.66,1.52Z"/>
          <path class="cls-4" d="M288.03,222.75h-.47v-2.85l-2.13-3.79h.47l1.9,3.27,1.9-3.27h.47l-2.13,3.79v2.85Z"/>
          <path class="cls-4" d="M293.25,222.37c1.11,0,1.66-.46,1.66-1.37,0-.66-.62-1.12-1.87-1.37-1.25-.25-1.87-.84-1.87-1.75,0-1.23.7-1.85,2.09-1.85s2.02.62,2.08,1.87l-.46.12c0-1.01-.54-1.52-1.61-1.52s-1.61.46-1.61,1.38c0,.66.62,1.12,1.87,1.37,1.25.25,1.87.84,1.87,1.75,0,1.23-.71,1.85-2.13,1.85s-2.07-.63-2.12-1.9l.46-.09c0,1.01.55,1.52,1.66,1.52Z"/>
          <path class="cls-4" d="M301.09,216.11v.47h-1.9v6.16h-.47v-6.16h-1.9v-.47h4.27Z"/>
          <path class="cls-4" d="M306.31,216.11v.47h-3.32v2.61h3.08v.47h-3.08v2.61h3.32v.47h-3.79v-6.64h3.79Z"/>
          <path class="cls-4" d="M308.22,216.11l2.13,4.84,2.13-4.84h.47v6.64h-.47v-5.33l-1.9,4.39h-.47l-1.9-4.39v5.33h-.47v-6.64h.47Z"/>
          <path class="cls-4" d="M317.72,224.17v.47h-3.79v-.47h3.79Z"/>
          <path class="cls-4" d="M320.95,216.11c1.26,0,1.9.63,1.9,1.9,0,.67-.23,1.13-.69,1.4.52.25.79.73.79,1.45,0,1.26-.63,1.9-1.9,1.9h-2.37v-6.64h2.28ZM320.95,219.19c.95,0,1.42-.4,1.42-1.19,0-.95-.47-1.42-1.42-1.42h-1.8v2.61h1.8ZM321.05,222.27c.95,0,1.42-.47,1.42-1.42,0-.79-.47-1.19-1.42-1.19h-1.9v2.61h1.9Z"/>
          <path class="cls-4" d="M324.38,222.75v-6.64h.47v6.16h3.32v.47h-3.79Z"/>
          <path class="cls-4" d="M331.83,216.11l2.04,6.64h-.47l-.48-1.42h-2.84l-.47,1.42h-.47l2.04-6.64h.66ZM330.19,220.85h2.62l-1.31-4.36-1.31,4.36Z"/>
          <path class="cls-4" d="M335.31,216.11v3.08h3.32v-3.08h.47v6.64h-.47v-3.08h-3.32v3.08h-.47v-6.64h.47Z"/>
          <path class="cls-4" d="M342.81,216.11c1.26,0,1.9.63,1.9,1.9,0,.67-.23,1.13-.69,1.4.52.25.79.73.79,1.45,0,1.26-.63,1.9-1.9,1.9h-2.37v-6.64h2.28ZM342.81,219.19c.95,0,1.42-.4,1.42-1.19,0-.95-.47-1.42-1.42-1.42h-1.8v2.61h1.8ZM342.9,222.27c.95,0,1.42-.47,1.42-1.42,0-.79-.47-1.19-1.42-1.19h-1.9v2.61h1.9Z"/>
          <path class="cls-4" d="M346.23,222.75v-6.64h.47v6.16h3.32v.47h-3.79Z"/>
          <path class="cls-4" d="M353.69,216.11l2.04,6.64h-.47l-.48-1.42h-2.84l-.47,1.42h-.47l2.04-6.64h.66ZM352.05,220.85h2.62l-1.31-4.36-1.31,4.36Z"/>
          <path class="cls-4" d="M357.16,216.11v3.08h3.32v-3.08h.47v6.64h-.47v-3.08h-3.32v3.08h-.47v-6.64h.47Z"/>
          <path class="cls-4" d="M365.71,224.17v.47h-3.79v-.47h3.79Z"/>
          <path class="cls-4" d="M370.46,216.11v.52h-3.32v2.56h3.08v.47h-3.08v3.08h-.47v-6.64h3.79Z"/>
          <path class="cls-4" d="M374.13,216.11l2.04,6.64h-.47l-.48-1.42h-2.84l-.47,1.42h-.47l2.04-6.64h.66ZM372.48,220.85h2.62l-1.31-4.36-1.31,4.36Z"/>
          <path class="cls-4" d="M377.6,222.75v-6.64h.47v6.64h-.47Z"/>
          <path class="cls-4" d="M379.98,222.75v-6.64h.47v6.16h3.32v.47h-3.79Z"/>
          <path class="cls-4" d="M389,216.11v.47h-3.32v2.61h3.08v.47h-3.08v2.61h3.32v.47h-3.79v-6.64h3.79Z"/>
          <path class="cls-4" d="M394.7,218.76v1.38c0,1.74-.71,2.61-2.13,2.61h-2.13v-6.64h2.13c1.42,0,2.13.88,2.13,2.66ZM392.57,216.58h-1.66v5.69h1.66c1.11,0,1.66-.71,1.66-2.13v-1.38c0-1.45-.55-2.18-1.66-2.18Z"/>
        </g>
        <g>
          <path class="cls-3" d="M42.44,60.35c0-1.98,1.53-3.44,3.38-3.44s3.44,1.47,3.44,3.44-1.59,3.5-3.44,3.5-3.38-1.53-3.38-3.5ZM49.25,87.49c0,1.08-.25,1.91-.89,3.7l-2.68,8.79h-3.06l2.17-9.24c-1.34-.38-2.29-1.59-2.29-3.25,0-1.98,1.46-3.44,3.38-3.44s3.38,1.53,3.38,3.44Z"/>
          <path class="cls-3" d="M59.19,73.22c0-11.72,2.68-22.24,7.39-29.82h4.33c-5.03,8.73-7.26,18.48-7.26,29.82s2.23,21.09,7.26,29.82h-4.33c-4.71-7.71-7.39-18.1-7.39-29.82Z"/>
        </g>
      </g>
      <g>
        <path class="cls-2" d="M50.09,131l-3.23,6.18v3.62h-1.15v-3.6l-3.15-6.21h1.31l2.19,4.43c.03.05.11.26.24.6h.02c.05-.15.13-.36.26-.6l2.3-4.43h1.22Z"/>
        <path class="cls-2" d="M53.23,140.96c-1.03,0-1.86-.33-2.48-.98s-.93-1.52-.93-2.6c0-1.18.32-2.09.96-2.75s1.51-.99,2.6-.99,1.86.32,2.44.96.88,1.53.88,2.67-.32,2.01-.95,2.68-1.48,1.01-2.54,1.01ZM53.31,134.58c-.72,0-1.29.25-1.71.73s-.63,1.17-.63,2.03.21,1.48.64,1.96.99.72,1.7.72,1.28-.23,1.67-.7.58-1.14.58-2-.19-1.55-.58-2.02-.95-.71-1.67-.71Z"/>
        <path class="cls-2" d="M64.39,140.8h-1.12v-1.11h-.03c-.46.85-1.19,1.27-2.16,1.27-1.67,0-2.5-.99-2.5-2.98v-4.18h1.11v4.01c0,1.48.56,2.21,1.7,2.21.55,0,1-.2,1.35-.6s.53-.93.53-1.58v-4.03h1.12v7Z"/>
        <path class="cls-2" d="M70.53,134.93c-.2-.15-.48-.23-.85-.23-.48,0-.88.23-1.2.68s-.48,1.07-.48,1.85v3.57h-1.12v-7h1.12v1.44h.03c.16-.49.4-.88.73-1.15s.69-.41,1.1-.41c.29,0,.52.03.67.1v1.16Z"/>
        <path class="cls-2" d="M77.33,137.09v3.71h-1.15v-9.8h2.69c1.05,0,1.86.26,2.44.77s.86,1.23.86,2.16-.32,1.69-.96,2.28-1.5.89-2.59.89h-1.29ZM77.33,132.03v4.02h1.2c.79,0,1.4-.18,1.81-.54s.63-.87.63-1.53c0-1.29-.77-1.94-2.3-1.94h-1.35Z"/>
        <path class="cls-2" d="M90.91,140.39c-.72.38-1.63.57-2.71.57-1.39,0-2.51-.45-3.35-1.35s-1.26-2.08-1.26-3.53c0-1.57.47-2.83,1.42-3.8s2.14-1.45,3.59-1.45c.93,0,1.7.13,2.31.4v1.22c-.7-.39-1.48-.59-2.32-.59-1.13,0-2.04.38-2.74,1.13s-1.05,1.76-1.05,3.01.33,2.15.98,2.85,1.51,1.06,2.57,1.06c.98,0,1.84-.22,2.56-.66v1.11Z"/>
        <path class="cls-2" d="M100.69,134.93c-.2-.15-.48-.23-.85-.23-.48,0-.88.23-1.2.68s-.48,1.07-.48,1.85v3.57h-1.12v-7h1.12v1.44h.03c.16-.49.4-.88.73-1.15s.69-.41,1.1-.41c.29,0,.52.03.67.1v1.16Z"/>
        <path class="cls-2" d="M107.14,140.8h-1.12v-1.09h-.03c-.49.84-1.21,1.26-2.15,1.26-.7,0-1.24-.18-1.64-.55s-.59-.86-.59-1.47c0-1.31.77-2.07,2.31-2.28l2.1-.29c0-1.19-.48-1.78-1.44-1.78-.84,0-1.6.29-2.28.86v-1.15c.69-.44,1.48-.66,2.38-.66,1.65,0,2.47.87,2.47,2.61v4.55ZM106.02,137.26l-1.69.23c-.52.07-.91.2-1.18.39s-.4.51-.4.98c0,.34.12.62.37.84s.57.32.97.32c.56,0,1.02-.19,1.38-.58s.54-.88.54-1.48v-.7Z"/>
        <path class="cls-2" d="M115.29,140.8h-1.12v-3.99c0-1.49-.54-2.23-1.63-2.23-.56,0-1.02.21-1.39.63s-.55.95-.55,1.6v3.99h-1.12v-7h1.12v1.16h.03c.53-.88,1.29-1.33,2.3-1.33.77,0,1.35.25,1.76.74s.61,1.21.61,2.14v4.28Z"/>
        <path class="cls-2" d="M122.26,132.02c-.2,0-.37-.07-.51-.21s-.21-.31-.21-.52.07-.38.21-.52.31-.21.51-.21.38.07.52.21.22.31.22.52-.07.37-.22.51-.32.21-.52.21ZM122.81,140.8h-1.12v-7h1.12v7Z"/>
        <path class="cls-2" d="M131.11,140.8h-1.12v-3.99c0-1.49-.54-2.23-1.63-2.23-.56,0-1.02.21-1.39.63s-.55.95-.55,1.6v3.99h-1.12v-7h1.12v1.16h.03c.53-.88,1.29-1.33,2.3-1.33.77,0,1.35.25,1.76.74s.61,1.21.61,2.14v4.28Z"/>
        <path class="cls-2" d="M136.69,140.73c-.26.15-.61.22-1.05.22-1.23,0-1.84-.68-1.84-2.05v-4.14h-1.2v-.96h1.2v-1.71l1.12-.36v2.07h1.76v.96h-1.76v3.94c0,.47.08.8.24,1s.42.3.79.3c.28,0,.53-.08.73-.23v.96Z"/>
        <path class="cls-2" d="M141.23,140.96c-1.03,0-1.86-.33-2.48-.98s-.93-1.52-.93-2.6c0-1.18.32-2.09.96-2.75s1.51-.99,2.6-.99,1.86.32,2.44.96.88,1.53.88,2.67-.32,2.01-.95,2.68-1.48,1.01-2.54,1.01ZM141.31,134.58c-.72,0-1.29.25-1.71.73s-.63,1.17-.63,2.03.21,1.48.64,1.96.99.72,1.7.72,1.28-.23,1.67-.7.58-1.14.58-2-.19-1.55-.58-2.02-.95-.71-1.67-.71Z"/>
        <path class="cls-2" d="M155.8,140.8h-1.12v-1.09h-.03c-.49.84-1.21,1.26-2.15,1.26-.7,0-1.24-.18-1.64-.55s-.59-.86-.59-1.47c0-1.31.77-2.07,2.31-2.28l2.1-.29c0-1.19-.48-1.78-1.44-1.78-.84,0-1.6.29-2.28.86v-1.15c.69-.44,1.48-.66,2.38-.66,1.65,0,2.47.87,2.47,2.61v4.55ZM154.68,137.26l-1.69.23c-.52.07-.91.2-1.18.39s-.4.51-.4.98c0,.34.12.62.37.84s.57.32.97.32c.56,0,1.02-.19,1.38-.58s.54-.88.54-1.48v-.7Z"/>
        <path class="cls-2" d="M163.35,139.79h-.03v4.23h-1.12v-10.22h1.12v1.23h.03c.55-.93,1.36-1.39,2.42-1.39.9,0,1.61.31,2.11.94s.76,1.47.76,2.52c0,1.17-.28,2.11-.85,2.81s-1.35,1.06-2.34,1.06c-.91,0-1.61-.39-2.1-1.18ZM163.32,136.96v.98c0,.58.19,1.07.56,1.47s.85.6,1.43.6c.68,0,1.21-.26,1.6-.78s.58-1.24.58-2.17c0-.78-.18-1.39-.54-1.83s-.85-.66-1.46-.66c-.65,0-1.18.23-1.57.68s-.59,1.02-.59,1.71Z"/>
        <path class="cls-2" d="M174.3,134.93c-.2-.15-.48-.23-.85-.23-.48,0-.88.23-1.2.68s-.48,1.07-.48,1.85v3.57h-1.12v-7h1.12v1.44h.03c.16-.49.4-.88.73-1.15s.69-.41,1.1-.41c.29,0,.52.03.67.1v1.16Z"/>
        <path class="cls-2" d="M178.49,140.96c-1.03,0-1.86-.33-2.48-.98s-.93-1.52-.93-2.6c0-1.18.32-2.09.96-2.75s1.51-.99,2.6-.99,1.86.32,2.44.96.88,1.53.88,2.67-.32,2.01-.95,2.68-1.48,1.01-2.54,1.01ZM178.57,134.58c-.72,0-1.29.25-1.71.73s-.63,1.17-.63,2.03.21,1.48.64,1.96.99.72,1.7.72,1.28-.23,1.67-.7.58-1.14.58-2-.19-1.55-.58-2.02-.95-.71-1.67-.71Z"/>
        <path class="cls-2" d="M185.14,139.79h-.03v1.01h-1.12v-10.36h1.12v4.59h.03c.55-.93,1.36-1.39,2.42-1.39.9,0,1.6.31,2.11.94s.76,1.47.76,2.52c0,1.17-.28,2.11-.85,2.81s-1.35,1.06-2.34,1.06c-.93,0-1.62-.39-2.1-1.18ZM185.11,136.96v.98c0,.58.19,1.07.56,1.47s.85.6,1.43.6c.68,0,1.21-.26,1.6-.78s.58-1.24.58-2.17c0-.78-.18-1.39-.54-1.83s-.85-.66-1.46-.66c-.65,0-1.18.23-1.57.68s-.59,1.02-.59,1.71Z"/>
        <path class="cls-2" d="M193.56,140.8h-1.12v-10.36h1.12v10.36Z"/>
        <path class="cls-2" d="M201.68,137.58h-4.94c.02.78.23,1.38.63,1.8s.95.64,1.65.64c.79,0,1.51-.26,2.17-.78v1.05c-.62.45-1.43.67-2.44.67s-1.77-.32-2.33-.95-.85-1.53-.85-2.68c0-1.09.31-1.98.93-2.66s1.38-1.03,2.3-1.03,1.62.3,2.13.89.75,1.42.75,2.47v.59ZM200.53,136.63c0-.65-.16-1.15-.47-1.51s-.73-.54-1.28-.54-.98.19-1.35.57-.6.87-.68,1.48h3.78Z"/>
        <path class="cls-2" d="M213.54,140.8h-1.12v-4.02c0-.77-.12-1.34-.36-1.68s-.64-.52-1.21-.52c-.48,0-.89.22-1.22.66s-.5.96-.5,1.57v3.99h-1.12v-4.16c0-1.38-.53-2.06-1.59-2.06-.49,0-.9.21-1.22.62s-.48.95-.48,1.61v3.99h-1.12v-7h1.12v1.11h.03c.5-.85,1.22-1.27,2.17-1.27.48,0,.9.13,1.25.4s.6.62.73,1.05c.52-.97,1.29-1.45,2.32-1.45,1.54,0,2.31.95,2.31,2.85v4.31Z"/>
        <path class="cls-2" d="M224.95,140.8h-1.12v-1.09h-.03c-.49.84-1.21,1.26-2.15,1.26-.7,0-1.24-.18-1.64-.55-.39-.37-.59-.86-.59-1.47,0-1.31.77-2.07,2.31-2.28l2.1-.29c0-1.19-.48-1.78-1.44-1.78-.84,0-1.6.29-2.28.86v-1.15c.69-.44,1.48-.66,2.38-.66,1.65,0,2.47.87,2.47,2.61v4.55ZM223.83,137.26l-1.69.23c-.52.07-.91.2-1.18.39s-.4.51-.4.98c0,.34.12.62.37.84.24.22.57.32.97.32.56,0,1.02-.19,1.38-.58.36-.39.54-.88.54-1.48v-.7Z"/>
        <path class="cls-2" d="M233.26,140.24c0,2.57-1.23,3.86-3.69,3.86-.87,0-1.62-.16-2.27-.49v-1.12c.79.44,1.54.66,2.26.66,1.72,0,2.58-.92,2.58-2.75v-.77h-.03c-.53.89-1.33,1.34-2.41,1.34-.87,0-1.57-.31-2.1-.93-.53-.62-.8-1.46-.8-2.51,0-1.19.29-2.14.86-2.84.57-.7,1.36-1.05,2.35-1.05s1.64.38,2.1,1.13h.03v-.97h1.12v6.44ZM232.14,137.63v-1.03c0-.56-.19-1.03-.56-1.43-.38-.4-.84-.59-1.4-.59-.69,0-1.24.25-1.63.76s-.59,1.21-.59,2.12c0,.78.19,1.4.56,1.87.38.47.87.7,1.49.7s1.14-.22,1.53-.67c.39-.45.59-1.02.59-1.72Z"/>
        <path class="cls-2" d="M240.77,140.8h-1.12v-1.09h-.03c-.49.84-1.21,1.26-2.15,1.26-.7,0-1.24-.18-1.64-.55-.39-.37-.59-.86-.59-1.47,0-1.31.77-2.07,2.31-2.28l2.1-.29c0-1.19-.48-1.78-1.44-1.78-.84,0-1.6.29-2.28.86v-1.15c.69-.44,1.48-.66,2.38-.66,1.65,0,2.47.87,2.47,2.61v4.55ZM239.65,137.26l-1.69.23c-.52.07-.91.2-1.18.39s-.4.51-.4.98c0,.34.12.62.37.84.24.22.57.32.97.32.56,0,1.02-.19,1.38-.58.36-.39.54-.88.54-1.48v-.7Z"/>
        <path class="cls-2" d="M243.68,132.02c-.2,0-.37-.07-.51-.21s-.21-.31-.21-.52.07-.38.21-.52.31-.21.51-.21.38.07.52.21c.14.14.21.31.21.52s-.07.37-.21.51c-.14.14-.32.21-.52.21ZM244.23,140.8h-1.12v-7h1.12v7Z"/>
        <path class="cls-2" d="M252.53,140.8h-1.12v-3.99c0-1.49-.54-2.23-1.63-2.23-.56,0-1.02.21-1.39.63-.37.42-.55.95-.55,1.6v3.99h-1.12v-7h1.12v1.16h.03c.53-.88,1.29-1.33,2.3-1.33.77,0,1.35.25,1.76.74s.61,1.21.61,2.14v4.28Z"/>
        <path class="cls-2" d="M255.26,140.95c-.21,0-.39-.08-.54-.23-.15-.15-.22-.33-.22-.54s.07-.39.22-.54c.15-.15.33-.23.54-.23s.4.08.55.23.23.33.23.54-.08.39-.23.54-.33.23-.55.23Z"/>
        <path class="cls-2" d="M44.87,170.69v3.71h-1.15v-9.8h2.69c1.05,0,1.86.26,2.44.77.58.51.86,1.23.86,2.16s-.32,1.69-.96,2.28c-.64.59-1.5.89-2.59.89h-1.29ZM44.87,165.63v4.02h1.2c.79,0,1.4-.18,1.81-.54s.63-.87.63-1.54c0-1.29-.77-1.94-2.3-1.94h-1.35Z"/>
        <path class="cls-2" d="M55.29,168.53c-.2-.15-.48-.23-.85-.23-.48,0-.88.23-1.2.68s-.48,1.07-.48,1.85v3.57h-1.12v-7h1.12v1.44h.03c.16-.49.4-.88.73-1.15.33-.28.69-.41,1.1-.41.29,0,.52.03.67.1v1.16Z"/>
        <path class="cls-2" d="M62.17,171.18h-4.94c.02.78.23,1.38.63,1.8s.95.64,1.65.64c.79,0,1.51-.26,2.17-.78v1.05c-.62.45-1.43.67-2.44.67s-1.77-.32-2.33-.95-.85-1.53-.85-2.68c0-1.09.31-1.98.93-2.66.62-.69,1.38-1.03,2.3-1.03s1.62.3,2.13.89c.5.59.75,1.42.75,2.47v.59ZM61.02,170.23c0-.65-.16-1.15-.47-1.51-.31-.36-.73-.54-1.28-.54s-.98.19-1.35.57c-.37.38-.6.87-.68,1.48h3.78Z"/>
        <path class="cls-2" d="M63.66,174.14v-1.2c.61.45,1.28.68,2.02.68.98,0,1.48-.33,1.48-.98,0-.19-.04-.34-.13-.47s-.2-.25-.34-.35c-.14-.1-.31-.19-.51-.27-.19-.08-.4-.16-.63-.25-.31-.12-.58-.25-.82-.37-.23-.13-.43-.27-.59-.42s-.28-.34-.36-.54c-.08-.2-.12-.43-.12-.7,0-.33.08-.62.23-.87s.35-.46.6-.64.54-.3.86-.39c.32-.09.65-.13.99-.13.61,0,1.15.11,1.63.31v1.13c-.52-.34-1.11-.51-1.78-.51-.21,0-.4.02-.57.07s-.31.12-.43.2c-.12.09-.21.19-.28.31-.07.12-.1.25-.1.4,0,.18.03.33.1.46s.16.23.29.33.28.18.46.26c.18.08.39.16.62.25.31.12.59.24.83.37.25.12.46.27.63.42s.31.34.4.54.14.45.14.73c0,.35-.08.65-.23.9-.15.26-.36.47-.61.64-.26.17-.55.29-.88.38s-.68.12-1.05.12c-.72,0-1.34-.14-1.87-.42Z"/>
        <path class="cls-2" d="M69.83,174.14v-1.2c.61.45,1.28.68,2.02.68.98,0,1.48-.33,1.48-.98,0-.19-.04-.34-.13-.47s-.2-.25-.34-.35c-.14-.1-.31-.19-.51-.27-.19-.08-.4-.16-.63-.25-.31-.12-.58-.25-.82-.37-.23-.13-.43-.27-.59-.42s-.28-.34-.36-.54c-.08-.2-.12-.43-.12-.7,0-.33.08-.62.23-.87s.35-.46.6-.64.54-.3.86-.39c.32-.09.65-.13.99-.13.61,0,1.15.11,1.63.31v1.13c-.52-.34-1.11-.51-1.78-.51-.21,0-.4.02-.57.07s-.31.12-.43.2c-.12.09-.21.19-.28.31-.07.12-.1.25-.1.4,0,.18.03.33.1.46s.16.23.29.33.28.18.46.26c.18.08.39.16.62.25.31.12.59.24.83.37.25.12.46.27.63.42s.31.34.4.54.14.45.14.73c0,.35-.08.65-.23.9-.15.26-.36.47-.61.64-.26.17-.55.29-.88.38s-.68.12-1.05.12c-.72,0-1.34-.14-1.87-.42Z"/>
        <path class="cls-2" d="M85.82,174.4h-5.2v-9.8h4.98v1.04h-3.83v3.26h3.54v1.03h-3.54v3.43h4.05v1.04Z"/>
        <path class="cls-2" d="M93.59,174.4h-1.12v-3.99c0-1.49-.54-2.23-1.63-2.23-.56,0-1.02.21-1.39.63-.37.42-.55.95-.55,1.6v3.99h-1.12v-7h1.12v1.16h.03c.53-.88,1.29-1.33,2.3-1.33.77,0,1.35.25,1.76.74.41.49.61,1.21.61,2.14v4.28Z"/>
        <path class="cls-2" d="M99.17,174.33c-.26.15-.61.22-1.05.22-1.23,0-1.84-.68-1.84-2.05v-4.14h-1.2v-.96h1.2v-1.71l1.12-.36v2.07h1.76v.96h-1.76v3.94c0,.47.08.8.24,1,.16.2.42.3.79.3.28,0,.53-.08.73-.23v.96Z"/>
        <path class="cls-2" d="M106.41,171.18h-4.94c.02.78.23,1.38.63,1.8s.95.64,1.65.64c.79,0,1.51-.26,2.17-.78v1.05c-.62.45-1.43.67-2.44.67s-1.77-.32-2.33-.95-.85-1.53-.85-2.68c0-1.09.31-1.98.93-2.66.62-.69,1.38-1.03,2.3-1.03s1.62.3,2.13.89c.5.59.75,1.42.75,2.47v.59ZM105.26,170.23c0-.65-.16-1.15-.47-1.51-.31-.36-.73-.54-1.28-.54s-.98.19-1.35.57c-.37.38-.6.87-.68,1.48h3.78Z"/>
        <path class="cls-2" d="M111.98,168.53c-.2-.15-.48-.23-.85-.23-.48,0-.88.23-1.2.68s-.48,1.07-.48,1.85v3.57h-1.12v-7h1.12v1.44h.03c.16-.49.4-.88.73-1.15.33-.28.69-.41,1.1-.41.29,0,.52.03.67.1v1.16Z"/>
        <path class="cls-2" d="M120.73,174.33c-.26.15-.61.22-1.05.22-1.23,0-1.84-.68-1.84-2.05v-4.14h-1.2v-.96h1.2v-1.71l1.12-.36v2.07h1.76v.96h-1.76v3.94c0,.47.08.8.24,1,.16.2.42.3.79.3.28,0,.53-.08.73-.23v.96Z"/>
        <path class="cls-2" d="M125.27,174.56c-1.03,0-1.86-.33-2.48-.98-.62-.65-.93-1.52-.93-2.6,0-1.18.32-2.09.96-2.75.64-.66,1.51-.99,2.6-.99s1.86.32,2.44.96.88,1.53.88,2.67-.32,2.01-.95,2.68c-.63.67-1.48,1.01-2.54,1.01ZM125.35,168.18c-.72,0-1.29.25-1.71.74-.42.49-.63,1.17-.63,2.03s.21,1.48.64,1.96.99.72,1.7.72,1.28-.23,1.67-.7c.39-.47.58-1.14.58-2s-.19-1.55-.58-2.02c-.39-.47-.95-.71-1.67-.71Z"/>
        <path class="cls-2" d="M138.48,168.53c-.2-.15-.48-.23-.85-.23-.48,0-.88.23-1.2.68s-.48,1.07-.48,1.85v3.57h-1.12v-7h1.12v1.44h.03c.16-.49.4-.88.73-1.15.33-.28.69-.41,1.1-.41.29,0,.52.03.67.1v1.16Z"/>
        <path class="cls-2" d="M145.36,171.18h-4.94c.02.78.23,1.38.63,1.8s.95.64,1.65.64c.79,0,1.51-.26,2.17-.78v1.05c-.62.45-1.43.67-2.44.67s-1.77-.32-2.33-.95-.85-1.53-.85-2.68c0-1.09.31-1.98.93-2.66.62-.69,1.38-1.03,2.3-1.03s1.62.3,2.13.89c.5.59.75,1.42.75,2.47v.59ZM144.21,170.23c0-.65-.16-1.15-.47-1.51-.31-.36-.73-.54-1.28-.54s-.98.19-1.35.57c-.37.38-.6.87-.68,1.48h3.78Z"/>
        <path class="cls-2" d="M150.53,174.33c-.26.15-.61.22-1.05.22-1.23,0-1.84-.68-1.84-2.05v-4.14h-1.2v-.96h1.2v-1.71l1.12-.36v2.07h1.76v.96h-1.76v3.94c0,.47.08.8.24,1,.16.2.42.3.79.3.28,0,.53-.08.73-.23v.96Z"/>
        <path class="cls-2" d="M157.91,174.4h-1.12v-1.11h-.03c-.46.85-1.19,1.27-2.16,1.27-1.67,0-2.5-.99-2.5-2.98v-4.18h1.11v4.01c0,1.48.56,2.21,1.7,2.21.55,0,1-.2,1.35-.6s.53-.93.53-1.58v-4.03h1.12v7Z"/>
        <path class="cls-2" d="M164.04,168.53c-.2-.15-.48-.23-.85-.23-.48,0-.88.23-1.2.68s-.48,1.07-.48,1.85v3.57h-1.12v-7h1.12v1.44h.03c.16-.49.4-.88.73-1.15.33-.28.69-.41,1.1-.41.29,0,.52.03.67.1v1.16Z"/>
        <path class="cls-2" d="M171.27,174.4h-1.12v-3.99c0-1.49-.54-2.23-1.63-2.23-.56,0-1.02.21-1.39.63-.37.42-.55.95-.55,1.6v3.99h-1.12v-7h1.12v1.16h.03c.53-.88,1.29-1.33,2.3-1.33.77,0,1.35.25,1.76.74.41.49.61,1.21.61,2.14v4.28Z"/>
        <path class="cls-2" d="M178.81,173.39h-.03v1.01h-1.12v-10.36h1.12v4.59h.03c.55-.93,1.36-1.39,2.42-1.39.9,0,1.6.31,2.11.94.51.63.76,1.47.76,2.52,0,1.17-.28,2.11-.85,2.81s-1.35,1.06-2.34,1.06c-.93,0-1.62-.39-2.1-1.18ZM178.78,170.56v.98c0,.58.19,1.07.56,1.47s.85.6,1.43.6c.68,0,1.21-.26,1.6-.78s.58-1.24.58-2.17c0-.78-.18-1.39-.54-1.83-.36-.44-.85-.66-1.46-.66-.65,0-1.18.23-1.57.68-.4.45-.59,1.02-.59,1.71Z"/>
        <path class="cls-2" d="M190.94,174.4h-1.12v-1.09h-.03c-.49.84-1.21,1.26-2.15,1.26-.7,0-1.24-.18-1.64-.55s-.59-.86-.59-1.47c0-1.31.77-2.07,2.31-2.28l2.1-.29c0-1.19-.48-1.78-1.44-1.78-.84,0-1.6.29-2.28.86v-1.15c.69-.44,1.48-.66,2.38-.66,1.65,0,2.47.87,2.47,2.61v4.55ZM189.82,170.86l-1.69.23c-.52.07-.91.2-1.18.39s-.4.51-.4.98c0,.34.12.62.37.84.24.22.57.32.97.32.56,0,1.02-.19,1.38-.58s.54-.88.54-1.48v-.7Z"/>
        <path class="cls-2" d="M198.05,174.08c-.54.32-1.18.49-1.91.49-1,0-1.8-.32-2.42-.97s-.92-1.49-.92-2.53c0-1.15.33-2.08.99-2.78.66-.7,1.54-1.05,2.65-1.05.62,0,1.16.11,1.63.34v1.15c-.52-.36-1.08-.55-1.67-.55-.72,0-1.3.26-1.76.77s-.69,1.19-.69,2.02.22,1.47.65,1.94c.43.47,1.01.71,1.73.71.61,0,1.19-.2,1.72-.61v1.07Z"/>
        <path class="cls-2" d="M205.78,174.4h-1.57l-3.09-3.36h-.03v3.36h-1.12v-10.36h1.12v6.57h.03l2.94-3.21h1.47l-3.25,3.38,3.5,3.62Z"/>
        <path class="cls-2" d="M208.74,172.84l-1.09,3.36h-.8l.8-3.36h1.09Z"/>
        <path class="cls-2" d="M217.96,174.56c-1.03,0-1.86-.33-2.48-.98-.62-.65-.93-1.52-.93-2.6,0-1.18.32-2.09.96-2.75.64-.66,1.51-.99,2.6-.99s1.86.32,2.44.96c.59.64.88,1.53.88,2.67s-.32,2.01-.95,2.68c-.63.67-1.48,1.01-2.54,1.01ZM218.04,168.18c-.72,0-1.29.25-1.71.74-.42.49-.63,1.17-.63,2.03s.21,1.48.64,1.96.99.72,1.7.72,1.28-.23,1.67-.7c.39-.47.58-1.14.58-2s-.2-1.55-.58-2.02c-.39-.47-.95-.71-1.67-.71Z"/>
        <path class="cls-2" d="M227.11,168.53c-.2-.15-.48-.23-.85-.23-.48,0-.88.23-1.2.68-.32.45-.48,1.07-.48,1.85v3.57h-1.12v-7h1.12v1.44h.03c.16-.49.4-.88.73-1.15.33-.28.7-.41,1.1-.41.29,0,.51.03.67.1v1.16Z"/>
        <path class="cls-2" d="M44.72,190.19h-.03v4.23h-1.12v-10.22h1.12v1.23h.03c.55-.93,1.36-1.39,2.42-1.39.9,0,1.61.31,2.11.94.51.63.76,1.47.76,2.52,0,1.17-.28,2.11-.85,2.81-.57.71-1.35,1.06-2.34,1.06-.91,0-1.61-.39-2.1-1.18ZM44.69,187.36v.98c0,.58.19,1.07.56,1.47.38.4.85.61,1.43.61.68,0,1.21-.26,1.6-.78s.58-1.24.58-2.17c0-.78-.18-1.39-.54-1.83-.36-.44-.85-.66-1.46-.66-.65,0-1.18.23-1.57.68-.4.45-.59,1.02-.59,1.71Z"/>
        <path class="cls-2" d="M55.68,185.33c-.2-.15-.48-.23-.85-.23-.48,0-.88.23-1.2.68s-.48,1.07-.48,1.85v3.57h-1.12v-7h1.12v1.44h.03c.16-.49.4-.88.73-1.15.33-.28.69-.41,1.1-.41.29,0,.52.03.67.1v1.16Z"/>
        <path class="cls-2" d="M62.56,187.98h-4.94c.02.78.23,1.38.63,1.8s.95.64,1.65.64c.79,0,1.51-.26,2.17-.78v1.05c-.62.45-1.43.67-2.44.67s-1.77-.32-2.33-.95c-.56-.64-.85-1.53-.85-2.68,0-1.09.31-1.98.93-2.66.62-.69,1.38-1.03,2.3-1.03s1.62.3,2.13.89c.5.59.75,1.42.75,2.47v.59ZM61.41,187.03c0-.65-.16-1.15-.47-1.51-.31-.36-.73-.54-1.28-.54s-.98.19-1.35.57c-.37.38-.6.87-.68,1.48h3.78Z"/>
        <path class="cls-2" d="M64.05,190.95v-1.2c.61.45,1.28.68,2.02.68.98,0,1.48-.33,1.48-.98,0-.19-.04-.35-.13-.47-.08-.13-.2-.25-.34-.35s-.31-.19-.51-.27c-.19-.08-.4-.16-.63-.25-.31-.12-.58-.25-.82-.37-.23-.12-.43-.27-.59-.42-.16-.16-.28-.33-.36-.54s-.12-.44-.12-.7c0-.33.08-.62.23-.87s.35-.46.6-.64.54-.3.86-.39c.32-.09.65-.13.99-.13.61,0,1.15.1,1.63.31v1.13c-.52-.34-1.11-.51-1.78-.51-.21,0-.4.02-.57.07s-.31.12-.43.2c-.12.09-.21.19-.28.31-.07.12-.1.25-.1.4,0,.18.03.33.1.46s.16.23.29.33.28.18.46.26.39.16.62.25c.31.12.59.24.83.37.25.13.46.27.63.42.17.16.31.34.4.54s.14.45.14.73c0,.35-.08.65-.23.9s-.36.47-.61.64-.55.29-.88.38-.68.12-1.05.12c-.72,0-1.34-.14-1.87-.42Z"/>
        <path class="cls-2" d="M70.22,190.95v-1.2c.61.45,1.28.68,2.02.68.98,0,1.48-.33,1.48-.98,0-.19-.04-.35-.13-.47-.08-.13-.2-.25-.34-.35s-.31-.19-.51-.27c-.19-.08-.4-.16-.63-.25-.31-.12-.58-.25-.82-.37-.23-.12-.43-.27-.59-.42-.16-.16-.28-.33-.36-.54s-.12-.44-.12-.7c0-.33.08-.62.23-.87s.35-.46.6-.64.54-.3.86-.39c.32-.09.65-.13.99-.13.61,0,1.15.1,1.63.31v1.13c-.52-.34-1.11-.51-1.78-.51-.21,0-.4.02-.57.07s-.31.12-.43.2c-.12.09-.21.19-.28.31-.07.12-.1.25-.1.4,0,.18.03.33.1.46s.16.23.29.33.28.18.46.26.39.16.62.25c.31.12.59.24.83.37.25.13.46.27.63.42.17.16.31.34.4.54s.14.45.14.73c0,.35-.08.65-.23.9s-.36.47-.61.64-.55.29-.88.38-.68.12-1.05.12c-.72,0-1.34-.14-1.87-.42Z"/>
        <path class="cls-2" d="M86.21,191.2h-5.2v-9.8h4.98v1.04h-3.83v3.26h3.54v1.03h-3.54v3.43h4.05v1.04Z"/>
        <path class="cls-2" d="M87.86,190.8v-1.35c.15.14.34.26.56.37s.44.2.68.28c.24.07.48.13.72.17s.46.06.67.06c.71,0,1.23-.13,1.58-.39.35-.26.52-.64.52-1.13,0-.26-.06-.49-.17-.69s-.28-.38-.48-.54c-.21-.16-.45-.32-.73-.47-.28-.15-.58-.3-.91-.47-.34-.17-.66-.35-.96-.53s-.55-.37-.77-.59c-.22-.21-.39-.46-.52-.73-.13-.27-.19-.59-.19-.95,0-.45.1-.83.29-1.17.2-.33.45-.6.77-.82.32-.21.68-.37,1.09-.48.41-.11.82-.16,1.25-.16.97,0,1.67.12,2.11.35v1.29c-.58-.4-1.32-.6-2.23-.6-.25,0-.5.03-.75.08-.25.05-.47.14-.67.26-.2.12-.36.27-.48.46-.12.19-.18.41-.18.68,0,.25.05.47.14.65.09.18.23.35.41.5s.4.3.67.44c.26.14.56.3.91.46.35.17.68.36,1,.55s.59.4.83.64.42.49.56.77.21.61.21.97c0,.48-.09.89-.28,1.23-.19.34-.44.61-.77.82s-.69.36-1.11.45c-.42.09-.86.14-1.33.14-.15,0-.35-.01-.57-.04-.23-.03-.46-.06-.7-.11-.24-.05-.46-.11-.67-.18-.21-.07-.38-.15-.51-.24Z"/>
        <path class="cls-2" d="M102.65,190.79c-.72.38-1.63.57-2.71.57-1.39,0-2.51-.45-3.35-1.35s-1.26-2.08-1.26-3.53c0-1.57.47-2.83,1.42-3.8.94-.97,2.14-1.45,3.59-1.45.93,0,1.7.13,2.31.4v1.22c-.7-.39-1.48-.59-2.32-.59-1.13,0-2.04.38-2.74,1.13s-1.05,1.76-1.05,3.01.33,2.15.98,2.85c.65.71,1.51,1.06,2.57,1.06.98,0,1.84-.22,2.56-.66v1.11Z"/>
        <path class="cls-2" d="M112.03,191.13c-.26.15-.61.22-1.05.22-1.23,0-1.84-.68-1.84-2.05v-4.14h-1.2v-.96h1.2v-1.71l1.12-.36v2.07h1.76v.96h-1.76v3.94c0,.47.08.8.24,1s.42.3.79.3c.28,0,.53-.08.73-.23v.96Z"/>
        <path class="cls-2" d="M116.57,191.36c-1.03,0-1.86-.33-2.48-.98-.62-.65-.93-1.52-.93-2.6,0-1.18.32-2.09.96-2.75.64-.66,1.51-.99,2.6-.99s1.86.32,2.44.96.88,1.53.88,2.67-.32,2.01-.95,2.68c-.63.67-1.48,1.01-2.54,1.01ZM116.65,184.98c-.72,0-1.29.25-1.71.73-.42.49-.63,1.17-.63,2.03s.21,1.48.64,1.96.99.72,1.7.72,1.28-.23,1.67-.7.58-1.14.58-2-.19-1.55-.58-2.02c-.39-.47-.95-.71-1.67-.71Z"/>
        <path class="cls-2" d="M129.78,185.33c-.2-.15-.48-.23-.85-.23-.48,0-.88.23-1.2.68s-.48,1.07-.48,1.85v3.57h-1.12v-7h1.12v1.44h.03c.16-.49.4-.88.73-1.15.33-.28.69-.41,1.1-.41.29,0,.52.03.67.1v1.16Z"/>
        <path class="cls-2" d="M136.66,187.98h-4.94c.02.78.23,1.38.63,1.8s.95.64,1.65.64c.79,0,1.51-.26,2.17-.78v1.05c-.62.45-1.43.67-2.44.67s-1.77-.32-2.33-.95c-.56-.64-.85-1.53-.85-2.68,0-1.09.31-1.98.93-2.66.62-.69,1.38-1.03,2.3-1.03s1.62.3,2.13.89c.5.59.75,1.42.75,2.47v.59ZM135.51,187.03c0-.65-.16-1.15-.47-1.51-.31-.36-.73-.54-1.28-.54s-.98.19-1.35.57c-.37.38-.6.87-.68,1.48h3.78Z"/>
        <path class="cls-2" d="M138.16,190.95v-1.2c.61.45,1.28.68,2.02.68.98,0,1.48-.33,1.48-.98,0-.19-.04-.35-.13-.47-.08-.13-.2-.25-.34-.35s-.31-.19-.51-.27c-.19-.08-.4-.16-.63-.25-.31-.12-.58-.25-.82-.37-.23-.12-.43-.27-.59-.42-.16-.16-.28-.33-.36-.54s-.12-.44-.12-.7c0-.33.08-.62.23-.87s.35-.46.6-.64.54-.3.86-.39c.32-.09.65-.13.99-.13.61,0,1.15.1,1.63.31v1.13c-.52-.34-1.11-.51-1.78-.51-.21,0-.4.02-.57.07s-.31.12-.43.2c-.12.09-.21.19-.28.31-.07.12-.1.25-.1.4,0,.18.03.33.1.46s.16.23.29.33.28.18.46.26.39.16.62.25c.31.12.59.24.83.37.25.13.46.27.63.42.17.16.31.34.4.54s.14.45.14.73c0,.35-.08.65-.23.9s-.36.47-.61.64-.55.29-.88.38-.68.12-1.05.12c-.72,0-1.34-.14-1.87-.42Z"/>
        <path class="cls-2" d="M147.99,191.13c-.26.15-.61.22-1.05.22-1.23,0-1.84-.68-1.84-2.05v-4.14h-1.2v-.96h1.2v-1.71l1.12-.36v2.07h1.76v.96h-1.76v3.94c0,.47.08.8.24,1s.42.3.79.3c.28,0,.53-.08.73-.23v.96Z"/>
        <path class="cls-2" d="M154.72,191.2h-1.12v-1.09h-.03c-.49.84-1.21,1.26-2.15,1.26-.7,0-1.24-.18-1.64-.55s-.59-.86-.59-1.47c0-1.31.77-2.07,2.31-2.28l2.1-.29c0-1.19-.48-1.78-1.44-1.78-.84,0-1.6.29-2.28.86v-1.15c.69-.44,1.48-.66,2.38-.66,1.65,0,2.47.87,2.47,2.61v4.55ZM153.6,187.66l-1.69.23c-.52.07-.91.2-1.18.39-.26.18-.4.51-.4.98,0,.34.12.62.37.84.24.22.57.32.97.32.56,0,1.02-.2,1.38-.58.36-.39.54-.88.54-1.48v-.7Z"/>
        <path class="cls-2" d="M160.71,185.33c-.2-.15-.48-.23-.85-.23-.48,0-.88.23-1.2.68s-.48,1.07-.48,1.85v3.57h-1.12v-7h1.12v1.44h.03c.16-.49.4-.88.73-1.15.33-.28.69-.41,1.1-.41.29,0,.52.03.67.1v1.16Z"/>
        <path class="cls-2" d="M165.8,191.13c-.26.15-.61.22-1.05.22-1.23,0-1.84-.68-1.84-2.05v-4.14h-1.2v-.96h1.2v-1.71l1.12-.36v2.07h1.76v.96h-1.76v3.94c0,.47.08.8.24,1s.42.3.79.3c.28,0,.53-.08.73-.23v.96Z"/>
        <path class="cls-2" d="M177.15,184.2l-3.22,8.12c-.57,1.45-1.38,2.17-2.42,2.17-.29,0-.54-.03-.73-.09v-1c.24.08.46.12.66.12.56,0,.99-.34,1.27-1.01l.56-1.33-2.73-6.99h1.24l1.89,5.39c.02.07.07.25.14.53h.04c.02-.11.07-.28.14-.52l1.99-5.4h1.16Z"/>
        <path class="cls-2" d="M181.44,191.36c-1.03,0-1.86-.33-2.48-.98-.62-.65-.93-1.52-.93-2.6,0-1.18.32-2.09.96-2.75.64-.66,1.51-.99,2.6-.99s1.86.32,2.44.96.88,1.53.88,2.67-.32,2.01-.95,2.68c-.63.67-1.48,1.01-2.54,1.01ZM181.52,184.98c-.72,0-1.29.25-1.71.73-.42.49-.63,1.17-.63,2.03s.21,1.48.64,1.96.99.72,1.7.72,1.28-.23,1.67-.7.58-1.14.58-2-.19-1.55-.58-2.02c-.39-.47-.95-.71-1.67-.71Z"/>
        <path class="cls-2" d="M192.6,191.2h-1.12v-1.11h-.03c-.46.85-1.19,1.27-2.16,1.27-1.67,0-2.5-.99-2.5-2.98v-4.18h1.11v4.01c0,1.48.56,2.21,1.7,2.21.55,0,1-.2,1.35-.61.35-.4.53-.93.53-1.58v-4.03h1.12v7Z"/>
        <path class="cls-2" d="M198.74,185.33c-.2-.15-.48-.23-.85-.23-.48,0-.88.23-1.2.68s-.48,1.07-.48,1.85v3.57h-1.12v-7h1.12v1.44h.03c.16-.49.4-.88.73-1.15.33-.28.69-.41,1.1-.41.29,0,.52.03.67.1v1.16Z"/>
        <path class="cls-2" d="M209.01,190.88c-.54.32-1.18.49-1.91.49-1,0-1.8-.32-2.42-.97-.61-.65-.92-1.49-.92-2.53,0-1.15.33-2.08.99-2.78.66-.7,1.54-1.05,2.65-1.05.62,0,1.16.11,1.63.34v1.15c-.52-.37-1.08-.55-1.67-.55-.72,0-1.3.26-1.76.77s-.69,1.19-.69,2.02.22,1.47.65,1.94,1.01.71,1.73.71c.61,0,1.19-.2,1.72-.61v1.07Z"/>
        <path class="cls-2" d="M213.85,191.36c-1.03,0-1.86-.33-2.48-.98-.62-.65-.93-1.52-.93-2.6,0-1.18.32-2.09.96-2.75.64-.66,1.51-.99,2.6-.99s1.86.32,2.44.96.88,1.53.88,2.67-.32,2.01-.95,2.68c-.63.67-1.48,1.01-2.54,1.01ZM213.93,184.98c-.72,0-1.29.25-1.71.73-.42.49-.63,1.17-.63,2.03s.21,1.48.64,1.96.99.72,1.7.72,1.28-.23,1.67-.7.58-1.14.58-2-.19-1.55-.58-2.02c-.39-.47-.95-.71-1.67-.71Z"/>
        <path class="cls-2" d="M229.29,191.2h-1.12v-4.02c0-.78-.12-1.34-.36-1.68-.24-.35-.64-.52-1.21-.52-.48,0-.88.22-1.22.66-.34.44-.5.96-.5,1.57v3.99h-1.12v-4.16c0-1.38-.53-2.06-1.59-2.06-.49,0-.9.21-1.22.62-.32.41-.48.95-.48,1.61v3.99h-1.12v-7h1.12v1.11h.03c.5-.85,1.22-1.27,2.17-1.27.48,0,.89.13,1.25.4s.6.62.73,1.05c.52-.97,1.29-1.45,2.32-1.45,1.54,0,2.31.95,2.31,2.85v4.31Z"/>
        <path class="cls-2" d="M232.78,190.19h-.03v4.23h-1.12v-10.22h1.12v1.23h.03c.55-.93,1.36-1.39,2.42-1.39.9,0,1.61.31,2.11.94.51.63.76,1.47.76,2.52,0,1.17-.29,2.11-.85,2.81-.57.71-1.35,1.06-2.34,1.06-.91,0-1.61-.39-2.1-1.18ZM232.76,187.36v.98c0,.58.19,1.07.56,1.47.38.4.85.61,1.43.61.68,0,1.21-.26,1.6-.78.39-.52.58-1.24.58-2.17,0-.78-.18-1.39-.54-1.83-.36-.44-.85-.66-1.46-.66-.65,0-1.18.23-1.57.68-.4.45-.59,1.02-.59,1.71Z"/>
        <path class="cls-2" d="M245.75,191.2h-1.12v-1.11h-.03c-.46.85-1.18,1.27-2.16,1.27-1.67,0-2.5-.99-2.5-2.98v-4.18h1.11v4.01c0,1.48.57,2.21,1.7,2.21.55,0,1-.2,1.35-.61.35-.4.53-.93.53-1.58v-4.03h1.12v7Z"/>
        <path class="cls-2" d="M251.48,191.13c-.26.15-.61.22-1.05.22-1.23,0-1.84-.68-1.84-2.05v-4.14h-1.2v-.96h1.2v-1.71l1.12-.36v2.07h1.76v.96h-1.76v3.94c0,.47.08.8.24,1s.42.3.79.3c.28,0,.53-.08.73-.23v.96Z"/>
        <path class="cls-2" d="M258.72,187.98h-4.94c.02.78.23,1.38.63,1.8s.95.64,1.65.64c.79,0,1.51-.26,2.17-.78v1.05c-.62.45-1.43.67-2.44.67s-1.77-.32-2.33-.95c-.57-.64-.85-1.53-.85-2.68,0-1.09.31-1.98.93-2.66.62-.69,1.38-1.03,2.3-1.03s1.62.3,2.13.89c.5.59.75,1.42.75,2.47v.59ZM257.57,187.03c0-.65-.16-1.15-.47-1.51-.31-.36-.74-.54-1.28-.54s-.98.19-1.35.57c-.37.38-.6.87-.68,1.48h3.78Z"/>
        <path class="cls-2" d="M264.29,185.33c-.2-.15-.48-.23-.85-.23-.48,0-.88.23-1.2.68-.32.45-.48,1.07-.48,1.85v3.57h-1.12v-7h1.12v1.44h.03c.16-.49.4-.88.73-1.15.33-.28.7-.41,1.1-.41.29,0,.51.03.67.1v1.16Z"/>
      </g>
    </g>
  </g>
</svg>