<?xml version="1.0" encoding="UTF-8"?>
<svg id="Layer_2" xmlns="http://www.w3.org/2000/svg" xmlns:xlink="http://www.w3.org/1999/xlink" viewBox="0 0 1277.66 820">
  <defs>
    <style>
      .cls-1 {
        fill: #664e27;
      }

      .cls-2 {
        fill: url(#radial-gradient);
      }

      .cls-3 {
        fill: #ffdd67;
      }

      .cls-4 {
        fill: #fff;
      }

      .cls-5 {
        fill: #4c3526;
      }

      .cls-6 {
        fill: #ff717f;
      }

      .cls-7 {
        fill: #fbfbfb;
      }

      .cls-8 {
        fill: #a5e5fb;
      }
    </style>
    <radialGradient id="radial-gradient" cx="615.42" cy="474.66" fx="615.42" fy="474.66" r="1153.76" gradientTransform="translate(-5.56 944.16) scale(1.04 -1.08)" gradientUnits="userSpaceOnUse">
      <stop offset="0" stop-color="#00a2ff"/>
      <stop offset=".47" stop-color="#009fff"/>
      <stop offset=".8" stop-color="#0096ff"/>
      <stop offset="1" stop-color="#008cff"/>
    </radialGradient>
  </defs>
  <g id="Layer_2-2" data-name="Layer_2">
    <g id="Layer_1-2">
      <g>
        <rect class="cls-2" width="1277.66" height="820"/>
        <g>
          <g>
            <g>
              <path class="cls-8" d="M106.47,541.17h-1.21v-7.53l-5.45-10.03h1.21l4.85,8.65,4.85-8.65h1.21l-5.45,10.03v7.53h-.01Z"/>
              <path class="cls-8" d="M118.98,528.38c3.03,0,4.56,1.96,4.61,5.89v1.25c-.04,3.93-1.58,5.89-4.61,5.89s-4.56-1.96-4.6-5.89v-1.25c.04-3.93,1.58-5.89,4.6-5.89ZM118.98,540.17c2.26,0,3.39-1.59,3.39-4.77v-1c0-3.18-1.13-4.77-3.39-4.77s-3.39,1.59-3.39,4.77v1c0,3.18,1.13,4.77,3.39,4.77Z"/>
              <path class="cls-8" d="M134.88,528.63h1.21v12.54h-1.21v-1.88c-.82,1.25-1.87,1.88-3.15,1.88-2.99,0-4.48-1.88-4.48-5.64v-6.9h1.21v6.9c0,2.93,1.09,4.39,3.27,4.39,1.29,0,2.33-.84,3.15-2.51v-8.78h0Z"/>
              <path class="cls-8" d="M150.69,541.17l-3.63-12.54h1.33l2.91,10.03,2.91-10.03h1.45l2.91,10.03,2.91-10.03h1.33l-3.63,12.54h-1.21l-3.03-10.45-3.03,10.45h-1.22Z"/>
              <path class="cls-8" d="M168.29,523.62v2.51h-1.82v-2.51h1.82ZM166.78,541.17v-12.54h1.21v12.54h-1.21Z"/>
              <path class="cls-8" d="M174.38,541.17v-17.56h1.21v17.56h-1.21Z"/>
              <path class="cls-8" d="M181.68,541.17v-17.56h1.21v17.56h-1.21Z"/>
              <path class="cls-8" d="M197.49,541.17h-1.21v-12.54h1.21v1.88c.81-1.26,1.86-1.88,3.15-1.88,2.99,0,4.48,1.88,4.48,5.64v6.9h-1.21v-6.9c0-2.93-1.09-4.39-3.27-4.39-1.28,0-2.33.84-3.15,2.51v8.78h0Z"/>
              <path class="cls-8" d="M213.39,528.38c3.03,0,4.56,1.96,4.61,5.89v1.25c-.04,3.93-1.58,5.89-4.61,5.89s-4.56-1.96-4.6-5.89v-1.25c.04-3.93,1.58-5.89,4.6-5.89ZM213.39,540.17c2.26,0,3.39-1.59,3.39-4.77v-1c0-3.18-1.13-4.77-3.39-4.77s-3.39,1.59-3.39,4.77v1c0,3.18,1.13,4.77,3.39,4.77Z"/>
              <path class="cls-8" d="M222.87,524.87h1.21v3.76h3.03v1.25h-3.03v8.15c0,1.25.4,1.88,1.21,1.88.57,0,1.18-.17,1.82-.5v1.26c-.64.33-1.24.5-1.82.5-1.61,0-2.42-1.04-2.42-3.14v-8.15h-1.21v-1.25h1.21v-3.76h0Z"/>
              <path class="cls-8" d="M240.5,529.89h-1.21v-1.25h1.21v-1.88c0-2.09.81-3.13,2.42-3.13.57,0,1.18.17,1.82.5v1.25c-.64-.33-1.24-.5-1.82-.5-.81,0-1.21.63-1.21,1.88v1.88h3.03v1.25h-3.03v11.29h-1.21v-11.29h0Z"/>
              <path class="cls-8" d="M251.43,523.62v2.51h-1.82v-2.51h1.82ZM249.92,541.17v-12.54h1.21v12.54h-1.21Z"/>
              <path class="cls-8" d="M257.52,541.17h-1.21v-12.54h1.21v1.88c.81-1.26,1.86-1.88,3.15-1.88,2.99,0,4.48,1.88,4.48,5.64v6.9h-1.21v-6.9c0-2.93-1.09-4.39-3.27-4.39-1.28,0-2.33.84-3.15,2.51v8.78h0Z"/>
              <path class="cls-8" d="M276.45,541.17v-1.88c-.82,1.25-1.87,1.88-3.15,1.88-2.99,0-4.48-1.88-4.48-5.64v-1.25c0-3.76,1.49-5.64,4.48-5.64,1.29,0,2.33.63,3.15,1.88v-6.9h1.21v17.56h-1.21ZM276.45,532.39c-.82-1.67-1.87-2.51-3.15-2.51-2.18,0-3.27,1.46-3.27,4.39v1.25c0,2.93,1.09,4.39,3.27,4.39,1.29,0,2.33-.84,3.15-2.51v-5.02h0Z"/>
              <path class="cls-8" d="M290.08,530.39c1.05-1.34,2.38-2.01,4-2.01,2.83,0,4.24,1.76,4.24,5.27v5.02c0,.82.2,1.66.61,2.51h-1.21c-.27-.55-.45-1.1-.55-1.66-.58,1.27-1.73,1.91-3.45,1.91-2.59,0-3.88-1.25-3.88-3.76,0-2.68,1.62-4.01,4.85-4.01h2.42v-.25c0-2.34-1.01-3.51-3.03-3.51-1.21,0-2.22.42-3.03,1.25l-.97-.75h0ZM293.71,540.05c2.02,0,3.15-1,3.39-3.01v-2.13h-2.42c-2.42,0-3.64.88-3.64,2.63s.89,2.51,2.67,2.51Z"/>
              <path class="cls-8" d="M303.19,541.17h-1.21v-12.54h1.21v1.88c.81-1.26,1.86-1.88,3.15-1.88,2.99,0,4.48,1.88,4.48,5.64v6.9h-1.21v-6.9c0-2.93-1.09-4.39-3.27-4.39-1.28,0-2.33.84-3.15,2.51v8.78h0Z"/>
              <path class="cls-8" d="M313.88,546.19c-.2,0-.4-.01-.61-.03s-.4-.05-.61-.09l.25-1.2c.32.05.64.07.96.07,1.44,0,2.54-.84,3.28-2.51l.35-1.25-4.24-12.54h1.33l3.51,10.54,3.51-10.54h1.33l-4.67,13.8c-.77,2.51-2.24,3.76-4.42,3.76h.03Z"/>
              <path class="cls-8" d="M336.96,523.62v2.51h-1.82v-2.51h1.82ZM335.45,541.17v-12.54h1.21v12.54h-1.21Z"/>
              <path class="cls-8" d="M343.05,541.17h-1.21v-12.54h1.21v1.88c.81-1.26,1.86-1.88,3.15-1.88,2.99,0,4.48,1.88,4.48,5.64v6.9h-1.21v-6.9c0-2.93-1.09-4.39-3.27-4.39-1.28,0-2.33.84-3.15,2.51v8.78h0Z"/>
              <path class="cls-8" d="M355.56,529.89h-1.21v-1.25h1.21v-1.88c0-2.09.81-3.13,2.42-3.13.57,0,1.18.17,1.82.5v1.25c-.64-.33-1.24-.5-1.82-.5-.81,0-1.21.63-1.21,1.88v1.88h3.03v1.25h-3.03v11.29h-1.21v-11.29h0Z"/>
              <path class="cls-8" d="M368.07,528.38c3.03,0,4.56,1.96,4.61,5.89v1.25c-.04,3.93-1.58,5.89-4.61,5.89s-4.56-1.96-4.6-5.89v-1.25c.04-3.93,1.58-5.89,4.6-5.89ZM368.07,540.17c2.26,0,3.39-1.59,3.39-4.77v-1c0-3.18-1.13-4.77-3.39-4.77s-3.39,1.59-3.39,4.77v1c0,3.18,1.13,4.77,3.39,4.77Z"/>
              <path class="cls-8" d="M380.7,528.63c.82,0,1.57.21,2.27.64l-.46,1.13c-.59-.34-1.19-.51-1.81-.51-1.28,0-2.33.84-3.15,2.51v8.78h-1.21v-12.54h1.21v2.01c.81-1.34,1.86-2.01,3.15-2.01h0Z"/>
              <path class="cls-8" d="M393.94,531.27c.97-1.76,2.18-2.63,3.64-2.63,2.83,0,4.24,1.88,4.24,5.64v6.9h-1.21v-6.9c0-2.93-1.01-4.39-3.03-4.39-1.21,0-2.22.88-3.03,2.63v8.65h-1.21v-6.9c-.16-2.93-1.05-4.39-2.67-4.39-1.45,0-2.58.84-3.39,2.51v8.78h-1.21v-12.54h1.21v1.88c.81-1.26,1.94-1.88,3.39-1.88,1.61,0,2.7.88,3.27,2.63h0Z"/>
              <path class="cls-8" d="M405.72,530.39c1.05-1.34,2.38-2.01,4-2.01,2.83,0,4.24,1.76,4.24,5.27v5.02c0,.82.2,1.66.61,2.51h-1.21c-.27-.55-.45-1.1-.55-1.66-.58,1.27-1.73,1.91-3.45,1.91-2.59,0-3.88-1.25-3.88-3.76,0-2.68,1.61-4.01,4.85-4.01h2.42v-.25c0-2.34-1.01-3.51-3.03-3.51-1.21,0-2.22.42-3.03,1.25l-.97-.75h0ZM409.35,540.05c2.02,0,3.15-1,3.39-3.01v-2.13h-2.42c-2.42,0-3.64.88-3.64,2.63s.89,2.51,2.67,2.51Z"/>
              <path class="cls-8" d="M418.83,524.87h1.21v3.76h3.03v1.25h-3.03v8.15c0,1.25.4,1.88,1.21,1.88.57,0,1.18-.17,1.82-.5v1.26c-.64.33-1.25.5-1.82.5-1.61,0-2.42-1.04-2.42-3.14v-8.15h-1.21v-1.25h1.21v-3.76h0Z"/>
              <path class="cls-8" d="M429.77,523.62v2.51h-1.82v-2.51h1.82ZM428.25,541.17v-12.54h1.21v12.54h-1.21Z"/>
              <path class="cls-8" d="M439.25,528.38c3.03,0,4.56,1.96,4.6,5.89v1.25c-.04,3.93-1.57,5.89-4.6,5.89s-4.56-1.96-4.6-5.89v-1.25c.04-3.93,1.57-5.89,4.6-5.89ZM439.25,540.17c2.26,0,3.39-1.59,3.39-4.77v-1c0-3.18-1.13-4.77-3.39-4.77s-3.39,1.59-3.39,4.77v1c0,3.18,1.13,4.77,3.39,4.77Z"/>
              <path class="cls-8" d="M448.73,541.17h-1.21v-12.54h1.21v1.88c.81-1.26,1.86-1.88,3.15-1.88,2.99,0,4.48,1.88,4.48,5.64v6.9h-1.21v-6.9c0-2.93-1.09-4.39-3.27-4.39-1.29,0-2.34.84-3.15,2.51v8.78h0Z"/>
              <path class="cls-8" d="M469.75,529.89h-1.21v-1.25h1.21v-1.88c0-2.09.81-3.13,2.42-3.13.57,0,1.18.17,1.82.5v1.25c-.64-.33-1.25-.5-1.82-.5-.81,0-1.21.63-1.21,1.88v1.88h3.03v1.25h-3.03v11.29h-1.21v-11.29h0Z"/>
              <path class="cls-8" d="M482.26,528.38c3.03,0,4.56,1.96,4.6,5.89v1.25c-.04,3.93-1.57,5.89-4.6,5.89s-4.56-1.96-4.6-5.89v-1.25c.04-3.93,1.57-5.89,4.6-5.89ZM482.26,540.17c2.26,0,3.39-1.59,3.39-4.77v-1c0-3.18-1.13-4.77-3.39-4.77s-3.39,1.59-3.39,4.77v1c0,3.18,1.13,4.77,3.39,4.77Z"/>
              <path class="cls-8" d="M494.89,528.63c.81,0,1.57.21,2.27.64l-.46,1.13c-.59-.34-1.19-.51-1.8-.51-1.29,0-2.34.84-3.15,2.51v8.78h-1.21v-12.54h1.21v2.01c.81-1.34,1.86-2.01,3.15-2.01h-.01Z"/>
              <path class="cls-8" d="M509.97,524.87h1.21v3.76h3.03v1.25h-3.03v8.15c0,1.25.4,1.88,1.21,1.88.57,0,1.18-.17,1.82-.5v1.26c-.64.33-1.25.5-1.82.5-1.61,0-2.42-1.04-2.42-3.14v-8.15h-1.21v-1.25h1.21v-3.76Z"/>
              <path class="cls-8" d="M519.08,541.17h-1.21v-17.56h1.21v6.9c.81-1.26,1.86-1.88,3.15-1.88,2.99,0,4.48,1.88,4.48,5.64v6.9h-1.21v-6.9c0-2.93-1.09-4.39-3.27-4.39-1.29,0-2.34.84-3.15,2.51v8.78h0Z"/>
              <path class="cls-8" d="M538.86,535.66h-7.27c.07,3.01,1.2,4.52,3.39,4.52,1.37,0,2.38-.63,3.03-1.88l.84.63c-.61,1.67-1.9,2.51-3.87,2.51-3.03,0-4.56-1.96-4.6-5.89v-1c.03-4.1,1.48-6.15,4.36-6.15s4.12,2.05,4.12,6.15v1.13-.02ZM537.65,534.4c-.04-3.18-1.01-4.77-2.91-4.77-2.04,0-3.09,1.59-3.15,4.77h6.06Z"/>
              <path class="cls-8" d="M559.52,535.66h-7.27c.07,3.01,1.2,4.52,3.39,4.52,1.37,0,2.38-.63,3.03-1.88l.84.63c-.61,1.67-1.9,2.51-3.87,2.51-3.03,0-4.56-1.96-4.6-5.89v-1c.03-4.1,1.48-6.15,4.36-6.15s4.12,2.05,4.12,6.15v1.13-.02ZM558.31,534.4c-.04-3.18-1.01-4.77-2.91-4.77-2.04,0-3.09,1.59-3.15,4.77h6.06Z"/>
              <path class="cls-8" d="M567.55,528.63c.81,0,1.57.21,2.27.64l-.46,1.13c-.59-.34-1.19-.51-1.8-.51-1.29,0-2.34.84-3.15,2.51v8.78h-1.21v-12.54h1.21v2.01c.81-1.34,1.86-2.01,3.15-2.01h-.01Z"/>
              <path class="cls-8" d="M577.27,528.63c.81,0,1.57.21,2.27.64l-.46,1.13c-.59-.34-1.19-.51-1.8-.51-1.29,0-2.34.84-3.15,2.51v8.78h-1.21v-12.54h1.21v2.01c.81-1.34,1.86-2.01,3.15-2.01h-.01Z"/>
              <path class="cls-8" d="M587.24,528.38c3.03,0,4.56,1.96,4.6,5.89v1.25c-.04,3.93-1.57,5.89-4.6,5.89s-4.56-1.96-4.6-5.89v-1.25c.04-3.93,1.57-5.89,4.6-5.89ZM587.24,540.17c2.26,0,3.39-1.59,3.39-4.77v-1c0-3.18-1.13-4.77-3.39-4.77s-3.39,1.59-3.39,4.77v1c0,3.18,1.13,4.77,3.39,4.77Z"/>
              <path class="cls-8" d="M599.87,528.63c.81,0,1.57.21,2.27.64l-.46,1.13c-.59-.34-1.19-.51-1.8-.51-1.29,0-2.34.84-3.15,2.51v8.78h-1.21v-12.54h1.21v2.01c.81-1.34,1.86-2.01,3.15-2.01h-.01Z"/>
              <path class="cls-8" d="M618.34,528.38c3.03,0,4.56,1.96,4.6,5.89v1.25c-.04,3.93-1.57,5.89-4.6,5.89s-4.56-1.96-4.6-5.89v-1.25c.04-3.93,1.57-5.89,4.6-5.89ZM618.34,540.17c2.26,0,3.39-1.59,3.39-4.77v-1c0-3.18-1.13-4.77-3.39-4.77s-3.39,1.59-3.39,4.77v1c0,3.18,1.13,4.77,3.39,4.77Z"/>
              <path class="cls-8" d="M627.82,541.17h-1.21v-12.54h1.21v1.88c.81-1.26,1.86-1.88,3.15-1.88,2.99,0,4.48,1.88,4.48,5.64v6.9h-1.21v-6.9c0-2.93-1.09-4.39-3.27-4.39-1.29,0-2.34.84-3.15,2.51v8.78h0Z"/>
              <path class="cls-8" d="M640.33,541.17v-17.56h1.21v17.56h-1.21Z"/>
              <path class="cls-8" d="M649.45,523.62v2.51h-1.82v-2.51h1.82ZM647.93,541.17v-12.54h1.21v12.54h-1.21Z"/>
              <path class="cls-8" d="M655.53,541.17h-1.21v-12.54h1.21v1.88c.81-1.26,1.86-1.88,3.15-1.88,2.99,0,4.48,1.88,4.48,5.64v6.9h-1.21v-6.9c0-2.93-1.09-4.39-3.27-4.39-1.29,0-2.34.84-3.15,2.51v8.78h0Z"/>
              <path class="cls-8" d="M675.31,535.66h-7.27c.07,3.01,1.2,4.52,3.39,4.52,1.37,0,2.38-.63,3.03-1.88l.84.63c-.61,1.67-1.9,2.51-3.87,2.51-3.03,0-4.56-1.96-4.6-5.89v-1c.03-4.1,1.48-6.15,4.36-6.15s4.12,2.05,4.12,6.15v1.13-.02ZM674.1,534.4c-.04-3.18-1.01-4.77-2.91-4.77-2.04,0-3.09,1.59-3.15,4.77h6.06Z"/>
              <path class="cls-8" d="M690.52,528.63v2.51h-1.82v-2.51h1.82ZM690.52,538.67v2.51h-1.82v-2.51h1.82Z"/>
              <path class="cls-8" d="M709.33,540.17c2.83,0,4.24-1.21,4.24-3.64,0-1.76-1.59-2.97-4.79-3.64-3.19-.67-4.79-2.22-4.79-4.64,0-3.26,1.78-4.89,5.33-4.89s5.16,1.65,5.31,4.95l-1.19.31c0-2.68-1.38-4.01-4.12-4.01s-4.12,1.21-4.12,3.64c0,1.76,1.59,2.97,4.79,3.64,3.19.67,4.79,2.22,4.79,4.64,0,3.26-1.82,4.89-5.45,4.89s-5.3-1.67-5.43-5.02l1.19-.25c0,2.68,1.41,4.01,4.24,4.01h0Z"/>
              <path class="cls-8" d="M723.9,541.17h-1.21v-7.53l-5.45-10.03h1.21l4.85,8.65,4.85-8.65h1.21l-5.45,10.03v7.53h0Z"/>
              <path class="cls-8" d="M737.23,540.17c2.83,0,4.24-1.21,4.24-3.64,0-1.76-1.59-2.97-4.79-3.64-3.19-.67-4.79-2.22-4.79-4.64,0-3.26,1.78-4.89,5.33-4.89s5.16,1.65,5.31,4.95l-1.19.31c0-2.68-1.38-4.01-4.12-4.01s-4.12,1.21-4.12,3.64c0,1.76,1.59,2.97,4.79,3.64,3.19.67,4.79,2.22,4.79,4.64,0,3.26-1.82,4.89-5.45,4.89s-5.3-1.67-5.43-5.02l1.19-.25c0,2.68,1.41,4.01,4.24,4.01h0Z"/>
              <path class="cls-8" d="M757.26,523.62v1.25h-4.85v16.3h-1.21v-16.3h-4.85v-1.25h10.91Z"/>
              <path class="cls-8" d="M770.61,523.62v1.25h-8.48v6.9h7.88v1.25h-7.88v6.9h8.48v1.25h-9.69v-17.56h9.69Z"/>
              <path class="cls-8" d="M775.49,523.62l5.45,12.79,5.45-12.79h1.21v17.56h-1.21v-14.11l-4.85,11.6h-1.21l-4.85-11.6v14.11h-1.21v-17.56h1.22Z"/>
              <path class="cls-8" d="M799.75,544.94v1.25h-9.69v-1.25h9.69Z"/>
              <path class="cls-8" d="M808.02,523.62c3.23,0,4.85,1.67,4.85,5.02,0,1.76-.59,3-1.77,3.7,1.34.66,2.01,1.94,2.01,3.83,0,3.34-1.62,5.02-4.85,5.02h-6.06v-17.56h5.82ZM808.02,531.77c2.42,0,3.64-1.05,3.64-3.14,0-2.51-1.21-3.76-3.64-3.76h-4.6v6.9h4.6ZM808.26,539.92c2.42,0,3.64-1.25,3.64-3.76,0-2.09-1.21-3.14-3.64-3.14h-4.85v6.9h4.85Z"/>
              <path class="cls-8" d="M816.77,541.17v-17.56h1.21v16.31h8.48v1.25h-9.69Z"/>
              <path class="cls-8" d="M835.83,523.62l5.21,17.56h-1.21l-1.22-3.76h-7.26l-1.21,3.76h-1.21l5.21-17.56h1.7-.01ZM831.63,536.16h6.69l-3.34-11.54-3.34,11.54h0Z"/>
              <path class="cls-8" d="M844.7,523.62v8.15h8.48v-8.15h1.21v17.56h-1.21v-8.15h-8.48v8.15h-1.21v-17.56h1.21Z"/>
              <path class="cls-8" d="M863.87,523.62c3.23,0,4.85,1.67,4.85,5.02,0,1.76-.59,3-1.77,3.7,1.34.66,2.01,1.94,2.01,3.83,0,3.34-1.62,5.02-4.85,5.02h-6.06v-17.56h5.82ZM863.87,531.77c2.42,0,3.64-1.05,3.64-3.14,0-2.51-1.21-3.76-3.64-3.76h-4.6v6.9h4.6ZM864.11,539.92c2.42,0,3.64-1.25,3.64-3.76,0-2.09-1.21-3.14-3.64-3.14h-4.85v6.9h4.85Z"/>
              <path class="cls-8" d="M872.63,541.17v-17.56h1.21v16.31h8.48v1.25h-9.69Z"/>
              <path class="cls-8" d="M891.68,523.62l5.21,17.56h-1.21l-1.22-3.76h-7.26l-1.21,3.76h-1.21l5.21-17.56h1.7-.01ZM887.49,536.16h6.69l-3.34-11.54-3.34,11.54h0Z"/>
              <path class="cls-8" d="M900.55,523.62v8.15h8.48v-8.15h1.21v17.56h-1.21v-8.15h-8.48v8.15h-1.21v-17.56h1.21Z"/>
              <path class="cls-8" d="M922.39,544.94v1.25h-9.69v-1.25h9.69Z"/>
              <path class="cls-8" d="M934.54,523.62v1.38h-8.48v6.77h7.88v1.25h-7.88v8.15h-1.21v-17.56h9.69Z"/>
              <path class="cls-8" d="M943.9,523.62l5.21,17.56h-1.21l-1.22-3.76h-7.26l-1.21,3.76h-1.21l5.21-17.56h1.7-.01ZM939.7,536.16h6.69l-3.34-11.54-3.34,11.54h0Z"/>
              <path class="cls-8" d="M952.77,541.17v-17.56h1.21v17.56h-1.21Z"/>
              <path class="cls-8" d="M958.86,541.17v-17.56h1.21v16.31h8.48v1.25h-9.69Z"/>
              <path class="cls-8" d="M981.91,523.62v1.25h-8.48v6.9h7.88v1.25h-7.88v6.9h8.48v1.25h-9.69v-17.56h9.69Z"/>
              <path class="cls-8" d="M996.48,530.64v3.64c0,4.6-1.82,6.9-5.45,6.9h-5.45v-17.56h5.45c3.63,0,5.45,2.34,5.45,7.02h0ZM991.02,524.87h-4.24v15.05h4.24c2.82,0,4.24-1.88,4.24-5.64v-3.64c0-3.85-1.41-5.77-4.24-5.77h0Z"/>
            </g>
            <g>
              <path class="cls-7" d="M108.44,159.63c0-5.23,3.91-9.1,8.63-9.1s8.79,3.88,8.79,9.1-4.07,9.27-8.79,9.27-8.63-4.05-8.63-9.27ZM125.86,231.43c0,2.87-.65,5.06-2.28,9.78l-6.84,23.26h-7.82l5.53-24.44c-3.42-1.01-5.86-4.21-5.86-8.6,0-5.22,3.74-9.1,8.63-9.1s8.63,4.05,8.63,9.1h.01Z"/>
              <path class="cls-7" d="M151.26,193.68c0-31.01,6.84-58.82,18.89-78.88h11.07c-12.86,23.09-18.56,48.88-18.56,78.88s5.7,55.79,18.56,78.88h-11.07c-12.05-20.4-18.89-47.87-18.89-78.88Z"/>
            </g>
          </g>
          <g>
            <path class="cls-4" d="M120.59,341.45l-9.44,18.68v10.95h-3.35v-10.87l-9.2-18.76h3.81l6.41,13.39c.08.17.31.77.7,1.82h.06c.13-.47.39-1.07.76-1.82l6.71-13.39h3.55,0Z"/>
            <path class="cls-4" d="M129.58,371.58c-3.02,0-5.43-.99-7.24-2.97-1.8-1.98-2.71-4.6-2.71-7.86,0-3.55.94-6.33,2.81-8.33,1.88-2,4.41-3,7.61-3s5.43.97,7.14,2.91,2.57,4.64,2.57,8.08-.92,6.08-2.76,8.11-4.32,3.05-7.42,3.05h0ZM129.82,352.28c-2.1,0-3.77.74-4.99,2.22-1.23,1.48-1.84,3.52-1.84,6.13s.62,4.48,1.86,5.93,2.89,2.17,4.97,2.17,3.74-.71,4.88-2.13,1.71-3.44,1.71-6.05-.57-4.68-1.71-6.12c-1.14-1.43-2.76-2.15-4.88-2.15h0Z"/>
            <path class="cls-4" d="M162.01,371.08h-3.27v-3.35h-.08c-1.36,2.56-3.46,3.84-6.31,3.84-4.87,0-7.31-3-7.31-9.01v-12.65h3.25v12.11c0,4.46,1.65,6.7,4.95,6.7,1.6,0,2.91-.61,3.94-1.83s1.55-2.81,1.55-4.78v-12.19h3.27v21.16h0Z"/>
            <path class="cls-4" d="M179.77,353.35c-.57-.45-1.4-.68-2.48-.68-1.4,0-2.57.68-3.5,2.05s-1.41,3.22-1.41,5.58v10.79h-3.27v-21.16h3.27v4.36h.08c.47-1.49,1.18-2.65,2.14-3.48.96-.83,2.03-1.25,3.21-1.25.85,0,1.5.1,1.96.29v3.51h0Z"/>
            <path class="cls-4" d="M199.3,359.88v11.2h-3.35v-29.63h7.87c3.06,0,5.43.77,7.12,2.31,1.68,1.54,2.53,3.72,2.53,6.53s-.94,5.11-2.8,6.9c-1.87,1.79-4.4,2.69-7.58,2.69h-3.79ZM199.3,344.59v12.15h3.51c2.32,0,4.08-.55,5.3-1.64s1.83-2.64,1.83-4.64c0-3.91-2.24-5.87-6.71-5.87h-3.93Z"/>
            <path class="cls-4" d="M238.82,369.84c-2.12,1.16-4.75,1.74-7.91,1.74-4.07,0-7.33-1.36-9.78-4.07-2.45-2.71-3.67-6.27-3.67-10.68,0-4.74,1.38-8.57,4.13-11.49,2.75-2.92,6.25-4.38,10.48-4.38,2.72,0,4.96.41,6.75,1.22v3.7c-2.05-1.18-4.31-1.78-6.79-1.78-3.29,0-5.95,1.14-8,3.41-2.04,2.27-3.06,5.31-3.06,9.11s.95,6.49,2.86,8.63,4.41,3.21,7.52,3.21c2.87,0,5.36-.66,7.47-1.98v3.37h0Z"/>
            <path class="cls-4" d="M267.05,353.35c-.57-.45-1.4-.68-2.48-.68-1.4,0-2.57.68-3.5,2.05s-1.41,3.22-1.41,5.58v10.79h-3.27v-21.16h3.27v4.36h.08c.47-1.49,1.18-2.65,2.14-3.48.96-.83,2.03-1.25,3.21-1.25.85,0,1.5.1,1.96.29v3.51h0Z"/>
            <path class="cls-4" d="M285.73,371.08h-3.27v-3.31h-.08c-1.42,2.54-3.52,3.8-6.29,3.8-2.04,0-3.63-.56-4.78-1.67-1.15-1.12-1.73-2.6-1.73-4.44,0-3.95,2.25-6.25,6.75-6.9l6.13-.89c0-3.6-1.4-5.39-4.21-5.39-2.46,0-4.69.87-6.67,2.6v-3.47c2.01-1.32,4.32-1.98,6.95-1.98,4.8,0,7.21,2.63,7.21,7.89v13.76h-.01ZM282.45,360.38l-4.93.7c-1.52.22-2.66.61-3.43,1.17-.77.56-1.16,1.55-1.16,2.97,0,1.03.36,1.88,1.07,2.53.71.65,1.66.98,2.84.98,1.62,0,2.96-.59,4.02-1.77s1.59-2.67,1.59-4.47v-2.11h0Z"/>
            <path class="cls-4" d="M309.36,371.08h-3.27v-12.07c0-4.49-1.59-6.74-4.75-6.74-1.64,0-2.99.64-4.06,1.91s-1.61,2.88-1.61,4.83v12.07h-3.27v-21.16h3.27v3.51h.08c1.54-2.67,3.78-4.01,6.71-4.01,2.24,0,3.94.75,5.13,2.24,1.18,1.5,1.78,3.66,1.78,6.48v12.94h-.01Z"/>
            <path class="cls-4" d="M329.38,344.55c-.59,0-1.09-.21-1.5-.62s-.62-.94-.62-1.57.21-1.16.62-1.58c.41-.42.91-.63,1.5-.63s1.11.21,1.53.63.63.95.63,1.58-.21,1.12-.63,1.55-.93.64-1.53.64ZM330.98,371.08h-3.27v-21.16h3.27v21.16Z"/>
            <path class="cls-4" d="M355.07,371.08h-3.27v-12.07c0-4.49-1.58-6.74-4.75-6.74-1.64,0-2.99.64-4.06,1.91s-1.61,2.88-1.61,4.83v12.07h-3.27v-21.16h3.27v3.51h.08c1.54-2.67,3.78-4.01,6.71-4.01,2.24,0,3.95.75,5.13,2.24,1.19,1.5,1.78,3.66,1.78,6.48v12.94h-.01Z"/>
            <path class="cls-4" d="M371.21,370.87c-.77.44-1.79.66-3.05.66-3.58,0-5.37-2.07-5.37-6.2v-12.52h-3.51v-2.89h3.51v-5.17l3.27-1.1v6.26h5.15v2.89h-5.15v11.92c0,1.42.23,2.43.7,3.04.47.61,1.24.91,2.32.91.83,0,1.54-.23,2.14-.7v2.89h-.01Z"/>
            <path class="cls-4" d="M384.3,371.58c-3.02,0-5.43-.99-7.24-2.97-1.8-1.98-2.71-4.6-2.71-7.86,0-3.55.94-6.33,2.81-8.33,1.88-2,4.41-3,7.61-3s5.43.97,7.14,2.91,2.57,4.64,2.57,8.08-.92,6.08-2.76,8.11-4.31,3.05-7.42,3.05h0ZM384.54,352.28c-2.1,0-3.77.74-4.99,2.22-1.23,1.48-1.84,3.52-1.84,6.13s.62,4.48,1.86,5.93,2.89,2.17,4.97,2.17,3.74-.71,4.88-2.13,1.71-3.44,1.71-6.05-.57-4.68-1.71-6.12c-1.14-1.43-2.76-2.15-4.88-2.15h0Z"/>
            <path class="cls-4" d="M426.52,371.08h-3.27v-3.31h-.08c-1.42,2.54-3.52,3.8-6.29,3.8-2.04,0-3.63-.56-4.78-1.67s-1.73-2.6-1.73-4.44c0-3.95,2.25-6.25,6.75-6.9l6.13-.89c0-3.6-1.4-5.39-4.21-5.39-2.46,0-4.68.87-6.67,2.6v-3.47c2.01-1.32,4.32-1.98,6.95-1.98,4.8,0,7.21,2.63,7.21,7.89v13.76h-.01ZM423.25,360.38l-4.93.7c-1.52.22-2.66.61-3.43,1.17s-1.16,1.55-1.16,2.97c0,1.03.36,1.88,1.07,2.53.71.65,1.66.98,2.84.98,1.62,0,2.96-.59,4.02-1.77s1.59-2.67,1.59-4.47v-2.11h0Z"/>
            <path class="cls-4" d="M448.22,368.02h-.08v12.79h-3.27v-30.89h3.27v3.72h.08c1.61-2.81,3.97-4.22,7.07-4.22,2.64,0,4.69.95,6.17,2.84,1.48,1.89,2.22,4.43,2.22,7.62,0,3.54-.83,6.38-2.5,8.5s-3.94,3.19-6.83,3.19c-2.65,0-4.69-1.18-6.13-3.55h0ZM448.14,359.49v2.96c0,1.75.55,3.23,1.65,4.45s2.49,1.83,4.18,1.83c1.98,0,3.54-.79,4.66-2.36s1.69-3.75,1.69-6.55c0-2.36-.53-4.2-1.58-5.54s-2.48-2-4.27-2c-1.9,0-3.43.69-4.59,2.06s-1.74,3.09-1.74,5.16h0Z"/>
            <path class="cls-4" d="M480.06,353.35c-.57-.45-1.4-.68-2.48-.68-1.4,0-2.57.68-3.5,2.05s-1.41,3.22-1.41,5.58v10.79h-3.27v-21.16h3.27v4.36h.08c.47-1.49,1.18-2.65,2.14-3.48.96-.83,2.03-1.25,3.21-1.25.85,0,1.5.1,1.96.29v3.51h0Z"/>
            <path class="cls-4" d="M492.11,371.58c-3.02,0-5.43-.99-7.24-2.97-1.8-1.98-2.71-4.6-2.71-7.86,0-3.55.94-6.33,2.81-8.33,1.88-2,4.41-3,7.61-3s5.43.97,7.14,2.91,2.57,4.64,2.57,8.08-.92,6.08-2.76,8.11-4.31,3.05-7.42,3.05h0ZM492.35,352.28c-2.1,0-3.77.74-4.99,2.22-1.23,1.48-1.84,3.52-1.84,6.13s.62,4.48,1.86,5.93,2.89,2.17,4.97,2.17,3.74-.71,4.88-2.13,1.71-3.44,1.71-6.05-.57-4.68-1.71-6.12c-1.14-1.43-2.76-2.15-4.88-2.15h0Z"/>
            <path class="cls-4" d="M511.36,368.02h-.08v3.06h-3.27v-31.33h3.27v13.89h.08c1.61-2.81,3.97-4.22,7.07-4.22,2.62,0,4.67.95,6.16,2.84,1.48,1.89,2.23,4.43,2.23,7.62,0,3.54-.83,6.38-2.5,8.5s-3.94,3.19-6.83,3.19c-2.7,0-4.74-1.18-6.13-3.55h0ZM511.28,359.49v2.96c0,1.75.55,3.23,1.65,4.45,1.1,1.22,2.49,1.83,4.18,1.83,1.98,0,3.54-.79,4.66-2.36s1.69-3.75,1.69-6.55c0-2.36-.53-4.2-1.58-5.54s-2.48-2-4.27-2c-1.9,0-3.43.69-4.59,2.06-1.16,1.37-1.74,3.09-1.74,5.16h0Z"/>
            <path class="cls-4" d="M535.81,371.08h-3.27v-31.33h3.27v31.33Z"/>
            <path class="cls-4" d="M559.36,361.35h-14.43c.05,2.36.67,4.17,1.84,5.46s2.78,1.92,4.83,1.92c2.3,0,4.42-.79,6.35-2.36v3.18c-1.8,1.35-4.17,2.03-7.13,2.03s-5.16-.96-6.81-2.88-2.48-4.63-2.48-8.11c0-3.29.9-5.97,2.71-8.05,1.8-2.07,4.04-3.11,6.72-3.11s4.74.9,6.21,2.69c1.46,1.79,2.2,4.28,2.2,7.46v1.78h-.01ZM556,358.47c-.01-1.96-.47-3.48-1.37-4.57s-2.15-1.63-3.74-1.63-2.85.57-3.93,1.72c-1.08,1.14-1.74,2.64-2,4.48h11.04Z"/>
            <path class="cls-4" d="M593.83,371.08h-3.27v-12.15c0-2.34-.35-4.04-1.05-5.08-.7-1.05-1.87-1.57-3.52-1.57-1.4,0-2.59.66-3.56,1.98s-1.47,2.91-1.47,4.75v12.07h-3.27v-12.56c0-4.16-1.55-6.24-4.65-6.24-1.44,0-2.62.62-3.55,1.87s-1.4,2.87-1.4,4.87v12.07h-3.27v-21.16h3.27v3.35h.08c1.45-2.56,3.57-3.84,6.35-3.84,1.4,0,2.62.4,3.65,1.21s1.75,1.86,2.14,3.17c1.52-2.92,3.78-4.38,6.79-4.38,4.5,0,6.75,2.87,6.75,8.62v13.04l-.02-.02Z"/>
            <path class="cls-4" d="M626.83,371.08h-3.27v-3.31h-.08c-1.42,2.54-3.52,3.8-6.29,3.8-2.04,0-3.63-.56-4.78-1.67s-1.73-2.6-1.73-4.44c0-3.95,2.25-6.25,6.75-6.9l6.13-.89c0-3.6-1.4-5.39-4.21-5.39-2.46,0-4.68.87-6.67,2.6v-3.47c2.01-1.32,4.32-1.98,6.95-1.98,4.8,0,7.21,2.63,7.21,7.89v13.76h-.01ZM623.56,360.38l-4.93.7c-1.52.22-2.66.61-3.43,1.17s-1.16,1.55-1.16,2.97c0,1.03.36,1.88,1.07,2.53s1.66.98,2.84.98c1.62,0,2.96-.59,4.02-1.77s1.59-2.67,1.59-4.47v-2.11h0Z"/>
            <path class="cls-4" d="M650.94,369.39c0,7.77-3.59,11.66-10.78,11.66-2.53,0-4.74-.5-6.63-1.49v-3.39c2.3,1.32,4.5,1.98,6.59,1.98,5.03,0,7.55-2.77,7.55-8.31v-2.31h-.08c-1.56,2.7-3.9,4.05-7.03,4.05-2.54,0-4.59-.94-6.14-2.82s-2.33-4.4-2.33-7.57c0-3.6.84-6.45,2.51-8.58,1.67-2.12,3.96-3.18,6.86-3.18s4.8,1.14,6.13,3.43h.08v-2.93h3.27v19.47h0ZM647.66,361.51v-3.12c0-1.68-.55-3.12-1.65-4.32s-2.47-1.8-4.1-1.8c-2.02,0-3.61.76-4.75,2.28-1.15,1.52-1.72,3.66-1.72,6.4,0,2.36.55,4.24,1.65,5.65,1.1,1.41,2.55,2.12,4.36,2.12s3.33-.67,4.48-2.03c1.15-1.35,1.73-3.08,1.73-5.19h0Z"/>
            <path class="cls-4" d="M672.69,371.08h-3.27v-3.31h-.08c-1.42,2.54-3.52,3.8-6.29,3.8-2.04,0-3.63-.56-4.78-1.67s-1.73-2.6-1.73-4.44c0-3.95,2.25-6.25,6.75-6.9l6.13-.89c0-3.6-1.4-5.39-4.21-5.39-2.46,0-4.68.87-6.67,2.6v-3.47c2.01-1.32,4.32-1.98,6.95-1.98,4.8,0,7.21,2.63,7.21,7.89v13.76h-.01ZM669.41,360.38l-4.93.7c-1.52.22-2.66.61-3.43,1.17s-1.16,1.55-1.16,2.97c0,1.03.36,1.88,1.07,2.53s1.66.98,2.84.98c1.62,0,2.96-.59,4.02-1.77s1.59-2.67,1.59-4.47v-2.11h0Z"/>
            <path class="cls-4" d="M681.03,344.55c-.59,0-1.09-.21-1.5-.62s-.62-.94-.62-1.57.21-1.16.62-1.58c.41-.42.91-.63,1.5-.63s1.11.21,1.53.63c.42.42.63.95.63,1.58s-.21,1.12-.63,1.55-.93.64-1.53.64ZM682.62,371.08h-3.27v-21.16h3.27v21.16Z"/>
            <path class="cls-4" d="M706.71,371.08h-3.27v-12.07c0-4.49-1.58-6.74-4.75-6.74-1.64,0-2.99.64-4.06,1.91s-1.61,2.88-1.61,4.83v12.07h-3.27v-21.16h3.27v3.51h.08c1.54-2.67,3.78-4.01,6.71-4.01,2.24,0,3.95.75,5.13,2.24,1.19,1.5,1.78,3.66,1.78,6.48v12.94h-.01Z"/>
            <path class="cls-4" d="M105.33,410.67v11.2h-3.35v-29.63h7.87c3.06,0,5.43.77,7.12,2.31,1.68,1.54,2.53,3.72,2.53,6.53s-.94,5.11-2.8,6.9c-1.87,1.79-4.4,2.69-7.58,2.69h-3.79ZM105.33,395.38v12.15h3.51c2.32,0,4.08-.55,5.3-1.64s1.83-2.64,1.83-4.64c0-3.91-2.24-5.87-6.71-5.87h-3.93Z"/>
            <path class="cls-4" d="M135.59,404.14c-.57-.45-1.4-.68-2.48-.68-1.4,0-2.57.68-3.5,2.05s-1.41,3.22-1.41,5.58v10.79h-3.27v-21.16h3.27v4.36h.08c.47-1.49,1.18-2.65,2.14-3.48.96-.83,2.03-1.25,3.21-1.25.85,0,1.5.1,1.96.29v3.51h0Z"/>
            <path class="cls-4" d="M155.52,412.13h-14.43c.05,2.35.67,4.17,1.84,5.45s2.78,1.92,4.83,1.92c2.3,0,4.42-.79,6.35-2.36v3.18c-1.8,1.35-4.17,2.03-7.13,2.03s-5.16-.96-6.81-2.88-2.48-4.62-2.48-8.11c0-3.29.9-5.97,2.71-8.05,1.8-2.07,4.04-3.11,6.72-3.11s4.74.9,6.21,2.69c1.46,1.79,2.2,4.28,2.2,7.46v1.78h-.01ZM152.17,409.26c0-1.96-.47-3.48-1.37-4.57s-2.15-1.63-3.74-1.63-2.85.57-3.93,1.72c-1.08,1.14-1.74,2.64-2,4.48h11.04Z"/>
            <path class="cls-4" d="M159.73,421.1v-3.64c1.78,1.36,3.75,2.05,5.89,2.05,2.87,0,4.31-.99,4.31-2.98,0-.56-.12-1.04-.37-1.44-.25-.39-.58-.74-1-1.04-.42-.3-.91-.57-1.48-.82-.57-.24-1.18-.49-1.83-.75-.91-.37-1.7-.75-2.39-1.13s-1.26-.81-1.72-1.28-.81-1.02-1.04-1.62c-.23-.61-.35-1.31-.35-2.13,0-.99.22-1.87.66-2.63s1.02-1.41,1.76-1.92c.73-.52,1.57-.91,2.51-1.17.94-.26,1.91-.39,2.9-.39,1.77,0,3.35.32,4.75.95v3.43c-1.5-1.02-3.23-1.53-5.19-1.53-.61,0-1.17.07-1.66.22-.49.14-.92.35-1.27.61-.35.26-.63.58-.82.94-.19.37-.29.77-.29,1.21,0,.55.1,1.01.29,1.38.19.37.48.7.85.99.37.29.82.55,1.36.79.53.24,1.14.49,1.82.76.9.36,1.72.73,2.44,1.11.72.38,1.33.81,1.84,1.28s.89,1.02,1.17,1.64c.27.62.41,1.36.41,2.21,0,1.05-.22,1.96-.67,2.73-.45.77-1.04,1.41-1.79,1.92s-1.6.89-2.58,1.14c-.97.25-1.99.37-3.05.37-2.1,0-3.93-.42-5.47-1.26h.01Z"/>
            <path class="cls-4" d="M177.57,421.1v-3.64c1.78,1.36,3.75,2.05,5.89,2.05,2.87,0,4.31-.99,4.31-2.98,0-.56-.12-1.04-.37-1.44-.25-.39-.58-.74-1-1.04-.42-.3-.91-.57-1.48-.82-.57-.24-1.18-.49-1.83-.75-.91-.37-1.7-.75-2.39-1.13s-1.26-.81-1.72-1.28-.81-1.02-1.04-1.62c-.23-.61-.35-1.31-.35-2.13,0-.99.22-1.87.66-2.63s1.02-1.41,1.76-1.92c.73-.52,1.57-.91,2.51-1.17.94-.26,1.91-.39,2.9-.39,1.77,0,3.35.32,4.75.95v3.43c-1.5-1.02-3.23-1.53-5.19-1.53-.61,0-1.17.07-1.66.22-.49.14-.92.35-1.27.61-.35.26-.63.58-.82.94-.19.37-.29.77-.29,1.21,0,.55.1,1.01.29,1.38.19.37.48.7.85.99.37.29.82.55,1.36.79.53.24,1.14.49,1.82.76.9.36,1.72.73,2.44,1.11.72.38,1.33.81,1.84,1.28s.89,1.02,1.17,1.64c.27.62.41,1.36.41,2.21,0,1.05-.22,1.96-.67,2.73-.45.77-1.04,1.41-1.79,1.92s-1.6.89-2.58,1.14c-.97.25-1.99.37-3.05.37-2.1,0-3.93-.42-5.47-1.26h.01Z"/>
            <path class="cls-4" d="M223.95,421.87h-15.17v-29.63h14.53v3.14h-11.18v9.86h10.34v3.12h-10.34v10.37h11.82v3.14h0Z"/>
            <path class="cls-4" d="M246.48,421.87h-3.27v-12.07c0-4.49-1.58-6.74-4.75-6.74-1.64,0-2.99.64-4.06,1.91-1.07,1.27-1.61,2.88-1.61,4.83v12.07h-3.27v-21.16h3.27v3.51h.08c1.54-2.67,3.78-4.01,6.71-4.01,2.24,0,3.95.75,5.13,2.24,1.18,1.5,1.78,3.66,1.78,6.48v12.94h-.01Z"/>
            <path class="cls-4" d="M262.62,421.66c-.77.44-1.79.66-3.05.66-3.58,0-5.37-2.07-5.37-6.2v-12.52h-3.51v-2.89h3.51v-5.17l3.27-1.1v6.26h5.15v2.89h-5.15v11.92c0,1.42.23,2.43.7,3.04.47.61,1.24.91,2.32.91.82,0,1.54-.23,2.14-.7v2.89h-.01Z"/>
            <path class="cls-4" d="M283.59,412.13h-14.43c.05,2.35.67,4.17,1.84,5.45,1.17,1.28,2.78,1.92,4.83,1.92,2.3,0,4.42-.79,6.35-2.36v3.18c-1.8,1.35-4.17,2.03-7.13,2.03s-5.16-.96-6.81-2.88-2.48-4.62-2.48-8.11c0-3.29.9-5.97,2.71-8.05,1.8-2.07,4.04-3.11,6.72-3.11s4.74.9,6.21,2.69c1.46,1.79,2.2,4.28,2.2,7.46v1.78h0ZM280.24,409.26c-.01-1.96-.47-3.48-1.37-4.57s-2.15-1.63-3.74-1.63-2.85.57-3.93,1.72c-1.08,1.14-1.74,2.64-2,4.48h11.04,0Z"/>
            <path class="cls-4" d="M299.69,404.14c-.57-.45-1.4-.68-2.48-.68-1.4,0-2.57.68-3.5,2.05s-1.41,3.22-1.41,5.58v10.79h-3.27v-21.16h3.27v4.36h.08c.47-1.49,1.18-2.65,2.14-3.48.96-.83,2.03-1.25,3.21-1.25.85,0,1.5.1,1.96.29v3.51h0Z"/>
            <path class="cls-4" d="M324.91,421.66c-.77.44-1.79.66-3.05.66-3.58,0-5.37-2.07-5.37-6.2v-12.52h-3.51v-2.89h3.51v-5.17l3.27-1.1v6.26h5.15v2.89h-5.15v11.92c0,1.42.23,2.43.7,3.04.47.61,1.24.91,2.32.91.83,0,1.54-.23,2.14-.7v2.89h-.01Z"/>
            <path class="cls-4" d="M338,422.36c-3.02,0-5.43-.99-7.24-2.97-1.8-1.98-2.71-4.6-2.71-7.86,0-3.55.94-6.33,2.81-8.33,1.88-2,4.41-3,7.61-3s5.43.97,7.14,2.91,2.57,4.64,2.57,8.08-.92,6.08-2.76,8.11-4.31,3.05-7.42,3.05h0ZM338.24,403.06c-2.1,0-3.77.74-4.99,2.22-1.23,1.48-1.84,3.52-1.84,6.13s.62,4.48,1.86,5.93,2.89,2.17,4.97,2.17,3.74-.71,4.88-2.13,1.71-3.44,1.71-6.05-.57-4.68-1.71-6.12c-1.14-1.43-2.76-2.15-4.88-2.15h0Z"/>
            <path class="cls-4" d="M376.25,404.14c-.57-.45-1.4-.68-2.48-.68-1.4,0-2.57.68-3.5,2.05s-1.41,3.22-1.41,5.58v10.79h-3.27v-21.16h3.27v4.36h.08c.47-1.49,1.18-2.65,2.14-3.48.96-.83,2.03-1.25,3.21-1.25.85,0,1.5.1,1.96.29v3.51h0Z"/>
            <path class="cls-4" d="M396.18,412.13h-14.43c.05,2.35.67,4.17,1.84,5.45s2.78,1.92,4.83,1.92c2.3,0,4.42-.79,6.35-2.36v3.18c-1.8,1.35-4.17,2.03-7.13,2.03s-5.16-.96-6.81-2.88-2.48-4.62-2.48-8.11c0-3.29.9-5.97,2.71-8.05,1.8-2.07,4.04-3.11,6.72-3.11s4.74.9,6.21,2.69c1.46,1.79,2.2,4.28,2.2,7.46v1.78h0ZM392.83,409.26c-.01-1.96-.47-3.48-1.37-4.57s-2.15-1.63-3.74-1.63-2.85.57-3.93,1.72c-1.08,1.14-1.74,2.64-2,4.48h11.04,0Z"/>
            <path class="cls-4" d="M411.11,421.66c-.77.44-1.79.66-3.05.66-3.58,0-5.37-2.07-5.37-6.2v-12.52h-3.51v-2.89h3.51v-5.17l3.27-1.1v6.26h5.15v2.89h-5.15v11.92c0,1.42.23,2.43.7,3.04.47.61,1.24.91,2.32.91.83,0,1.54-.23,2.14-.7v2.89h-.01Z"/>
            <path class="cls-4" d="M432.5,421.87h-3.27v-3.35h-.08c-1.36,2.56-3.46,3.84-6.31,3.84-4.87,0-7.31-3-7.31-9.01v-12.65h3.25v12.11c0,4.46,1.65,6.7,4.95,6.7,1.6,0,2.91-.61,3.94-1.83s1.55-2.81,1.55-4.78v-12.19h3.27v21.16h0Z"/>
            <path class="cls-4" d="M450.26,404.14c-.57-.45-1.4-.68-2.48-.68-1.4,0-2.57.68-3.5,2.05s-1.41,3.22-1.41,5.58v10.79h-3.27v-21.16h3.27v4.36h.08c.47-1.49,1.18-2.65,2.14-3.48.96-.83,2.03-1.25,3.21-1.25.85,0,1.5.1,1.96.29v3.51h0Z"/>
            <path class="cls-4" d="M471.2,421.87h-3.27v-12.07c0-4.49-1.58-6.74-4.75-6.74-1.64,0-2.99.64-4.06,1.91s-1.61,2.88-1.61,4.83v12.07h-3.27v-21.16h3.27v3.51h.08c1.54-2.67,3.78-4.01,6.71-4.01,2.24,0,3.95.75,5.13,2.24,1.19,1.5,1.78,3.66,1.78,6.48v12.94h-.01Z"/>
            <path class="cls-4" d="M492.9,418.81h-.08v3.06h-3.27v-31.33h3.27v13.89h.08c1.61-2.81,3.97-4.22,7.07-4.22,2.62,0,4.67.95,6.16,2.84,1.48,1.89,2.23,4.43,2.23,7.62,0,3.54-.83,6.37-2.5,8.5s-3.94,3.19-6.83,3.19c-2.7,0-4.74-1.18-6.13-3.55h0ZM492.82,410.28v2.95c0,1.75.55,3.23,1.65,4.45s2.49,1.83,4.18,1.83c1.98,0,3.54-.79,4.66-2.36s1.69-3.75,1.69-6.55c0-2.36-.53-4.2-1.58-5.54s-2.48-2-4.27-2c-1.9,0-3.43.69-4.59,2.06s-1.74,3.09-1.74,5.16h0Z"/>
            <path class="cls-4" d="M528.16,421.87h-3.27v-3.31h-.08c-1.42,2.54-3.52,3.8-6.29,3.8-2.04,0-3.63-.56-4.78-1.67s-1.73-2.6-1.73-4.44c0-3.95,2.25-6.25,6.75-6.9l6.13-.89c0-3.6-1.4-5.39-4.21-5.39-2.46,0-4.68.87-6.67,2.6v-3.47c2.01-1.32,4.32-1.98,6.95-1.98,4.8,0,7.21,2.63,7.21,7.89v13.76h-.01ZM524.89,411.16l-4.93.7c-1.52.22-2.66.61-3.43,1.17-.77.56-1.16,1.55-1.16,2.97,0,1.03.36,1.88,1.07,2.53.71.66,1.66.98,2.84.98,1.62,0,2.96-.59,4.02-1.77s1.59-2.67,1.59-4.47v-2.11h0Z"/>
            <path class="cls-4" d="M548.76,420.9c-1.57.98-3.43,1.47-5.59,1.47-2.91,0-5.27-.98-7.06-2.94s-2.69-4.51-2.69-7.63c0-3.48.97-6.28,2.89-8.4,1.93-2.11,4.5-3.17,7.73-3.17,1.8,0,3.38.34,4.75,1.03v3.47c-1.52-1.1-3.14-1.65-4.87-1.65-2.09,0-3.8.77-5.14,2.32s-2.01,3.59-2.01,6.11.63,4.44,1.89,5.87,2.94,2.15,5.06,2.15c1.78,0,3.46-.61,5.03-1.84v3.22h.01Z"/>
            <path class="cls-4" d="M571.17,421.87h-4.59l-9.02-10.17h-.08v10.17h-3.27v-31.33h3.27v19.86h.08l8.58-9.69h4.29l-9.48,10.21,10.22,10.95h0Z"/>
            <path class="cls-4" d="M579.64,417.16l-3.19,10.17h-2.34l2.34-10.17h3.19Z"/>
            <path class="cls-4" d="M606.24,422.36c-3.02,0-5.43-.99-7.24-2.97-1.8-1.98-2.71-4.6-2.71-7.86,0-3.55.94-6.33,2.81-8.33,1.88-2,4.41-3,7.61-3s5.43.97,7.14,2.91,2.57,4.64,2.57,8.08-.92,6.08-2.76,8.11-4.31,3.05-7.42,3.05h0ZM606.48,403.06c-2.1,0-3.77.74-4.99,2.22-1.23,1.48-1.84,3.52-1.84,6.13s.62,4.48,1.86,5.93,2.89,2.17,4.97,2.17,3.74-.71,4.88-2.13,1.71-3.44,1.71-6.05-.57-4.68-1.71-6.12c-1.14-1.43-2.76-2.15-4.88-2.15h0Z"/>
            <path class="cls-4" d="M632.8,404.14c-.57-.45-1.4-.68-2.48-.68-1.4,0-2.57.68-3.5,2.05s-1.41,3.22-1.41,5.58v10.79h-3.27v-21.16h3.27v4.36h.08c.47-1.49,1.18-2.65,2.14-3.48.96-.83,2.03-1.25,3.21-1.25.85,0,1.5.1,1.96.29v3.51h0Z"/>
            <path class="cls-4" d="M104.89,469.6h-.08v12.79h-3.27v-30.89h3.27v3.72h.08c1.61-2.81,3.97-4.22,7.07-4.22,2.64,0,4.69.95,6.17,2.84,1.48,1.9,2.22,4.43,2.22,7.62,0,3.54-.83,6.38-2.5,8.5-1.66,2.13-3.94,3.19-6.83,3.19-2.65,0-4.69-1.19-6.13-3.55ZM104.81,461.06v2.96c0,1.75.55,3.23,1.65,4.45s2.49,1.83,4.18,1.83c1.98,0,3.54-.79,4.66-2.36,1.12-1.57,1.69-3.75,1.69-6.55,0-2.36-.53-4.2-1.58-5.54s-2.48-2-4.27-2c-1.9,0-3.43.69-4.59,2.06s-1.74,3.09-1.74,5.16h0Z"/>
            <path class="cls-4" d="M136.73,454.92c-.57-.45-1.4-.68-2.48-.68-1.4,0-2.57.68-3.5,2.05s-1.41,3.22-1.41,5.58v10.79h-3.27v-21.16h3.27v4.36h.08c.47-1.49,1.18-2.65,2.14-3.48.96-.83,2.03-1.25,3.21-1.25.85,0,1.5.1,1.96.29v3.51h0Z"/>
            <path class="cls-4" d="M156.66,462.92h-14.43c.05,2.36.67,4.17,1.84,5.46,1.17,1.28,2.78,1.92,4.83,1.92,2.3,0,4.42-.79,6.35-2.36v3.18c-1.8,1.35-4.17,2.03-7.13,2.03s-5.16-.96-6.81-2.88-2.48-4.62-2.48-8.11c0-3.29.9-5.97,2.71-8.05,1.8-2.07,4.04-3.11,6.72-3.11s4.74.9,6.21,2.69c1.46,1.79,2.2,4.28,2.2,7.46v1.78h-.01ZM153.31,460.05c0-1.96-.47-3.48-1.37-4.57s-2.15-1.63-3.74-1.63-2.85.57-3.93,1.72c-1.08,1.14-1.74,2.64-2,4.48h11.04Z"/>
            <path class="cls-4" d="M160.87,471.89v-3.64c1.78,1.36,3.75,2.05,5.89,2.05,2.87,0,4.31-.99,4.31-2.98,0-.56-.12-1.04-.37-1.44-.25-.39-.58-.74-1-1.04-.42-.3-.91-.57-1.48-.82-.57-.24-1.18-.49-1.83-.75-.91-.37-1.7-.75-2.39-1.13s-1.26-.81-1.72-1.28-.81-1.02-1.04-1.62-.35-1.31-.35-2.13c0-.99.22-1.87.66-2.63s1.02-1.41,1.76-1.92c.73-.52,1.57-.9,2.51-1.17.94-.26,1.91-.39,2.9-.39,1.77,0,3.35.32,4.75.95v3.43c-1.5-1.02-3.23-1.53-5.19-1.53-.61,0-1.17.07-1.66.22-.49.14-.92.35-1.27.61-.35.26-.63.58-.82.94-.19.37-.29.77-.29,1.21,0,.55.1,1.01.29,1.38.19.37.48.7.85.99.37.29.82.55,1.36.79.53.24,1.14.49,1.82.76.9.36,1.72.73,2.44,1.11.72.38,1.33.81,1.84,1.28.51.48.89,1.02,1.17,1.64.27.62.41,1.36.41,2.21,0,1.05-.22,1.96-.67,2.73-.45.77-1.04,1.41-1.79,1.92s-1.6.89-2.58,1.14c-.97.25-1.99.37-3.05.37-2.1,0-3.93-.42-5.47-1.26h.01Z"/>
            <path class="cls-4" d="M178.71,471.89v-3.64c1.78,1.36,3.75,2.05,5.89,2.05,2.87,0,4.31-.99,4.31-2.98,0-.56-.12-1.04-.37-1.44-.25-.39-.58-.74-1-1.04-.42-.3-.91-.57-1.48-.82-.57-.24-1.18-.49-1.83-.75-.91-.37-1.7-.75-2.39-1.13s-1.26-.81-1.72-1.28-.81-1.02-1.04-1.62-.35-1.31-.35-2.13c0-.99.22-1.87.66-2.63s1.02-1.41,1.76-1.92c.73-.52,1.57-.9,2.51-1.17.94-.26,1.91-.39,2.9-.39,1.77,0,3.35.32,4.75.95v3.43c-1.5-1.02-3.23-1.53-5.19-1.53-.61,0-1.17.07-1.66.22-.49.14-.92.35-1.27.61-.35.26-.63.58-.82.94-.19.37-.29.77-.29,1.21,0,.55.1,1.01.29,1.38.19.37.48.7.85.99.37.29.82.55,1.36.79.53.24,1.14.49,1.82.76.9.36,1.72.73,2.44,1.11.72.38,1.33.81,1.84,1.28.51.48.89,1.02,1.17,1.64.27.62.41,1.36.41,2.21,0,1.05-.22,1.96-.67,2.73-.45.77-1.04,1.41-1.79,1.92s-1.6.89-2.58,1.14c-.97.25-1.99.37-3.05.37-2.1,0-3.93-.42-5.47-1.26h.01Z"/>
            <path class="cls-4" d="M225.08,472.65h-15.17v-29.63h14.53v3.14h-11.18v9.86h10.34v3.12h-10.34v10.37h11.82v3.14h0Z"/>
            <path class="cls-4" d="M229.75,471.46v-4.09c.45.41.99.79,1.63,1.12.63.33,1.3.61,2,.84s1.4.4,2.11.53c.7.12,1.36.19,1.96.19,2.06,0,3.6-.4,4.62-1.19s1.53-1.93,1.53-3.42c0-.8-.17-1.49-.51-2.09-.34-.59-.81-1.13-1.41-1.62s-1.31-.96-2.13-1.41-1.7-.92-2.65-1.42c-1-.52-1.93-1.05-2.79-1.59-.87-.54-1.62-1.13-2.26-1.78s-1.14-1.38-1.51-2.2-.55-1.78-.55-2.88c0-1.35.29-2.52.86-3.52s1.32-1.82,2.26-2.47c.93-.65,1.99-1.13,3.18-1.45,1.19-.32,2.41-.48,3.64-.48,2.82,0,4.88.35,6.17,1.05v3.91c-1.69-1.21-3.86-1.82-6.51-1.82-.73,0-1.46.08-2.2.24-.73.16-1.38.42-1.96.77-.57.36-1.04.82-1.4,1.38-.36.57-.54,1.26-.54,2.07,0,.76.14,1.41.41,1.96s.68,1.05,1.21,1.51c.53.45,1.18.9,1.95,1.32.76.43,1.65.9,2.65,1.41,1.02.52,2,1.07,2.91,1.65s1.72,1.22,2.42,1.92c.69.7,1.24,1.48,1.65,2.34.41.86.61,1.83.61,2.93,0,1.46-.28,2.7-.83,3.71-.55,1.01-1.3,1.84-2.24,2.47s-2.02,1.09-3.24,1.37c-1.23.28-2.52.42-3.87.42-.45,0-1.01-.04-1.68-.11-.67-.07-1.35-.19-2.04-.33-.69-.14-1.35-.32-1.97-.54s-1.12-.45-1.49-.71h0Z"/>
            <path class="cls-4" d="M272.78,471.41c-2.12,1.16-4.75,1.74-7.91,1.74-4.07,0-7.33-1.36-9.78-4.07-2.45-2.71-3.67-6.27-3.67-10.68,0-4.74,1.38-8.57,4.13-11.49,2.75-2.92,6.25-4.38,10.48-4.38,2.72,0,4.96.41,6.75,1.22v3.7c-2.05-1.18-4.31-1.78-6.79-1.78-3.29,0-5.95,1.14-8,3.41-2.04,2.27-3.06,5.31-3.06,9.11s.95,6.49,2.86,8.63c1.91,2.14,4.41,3.21,7.52,3.21,2.87,0,5.36-.66,7.47-1.98v3.37h0Z"/>
            <path class="cls-4" d="M299.83,472.45c-.77.44-1.79.66-3.06.66-3.58,0-5.37-2.07-5.37-6.2v-12.52h-3.51v-2.89h3.51v-5.17l3.27-1.1v6.26h5.15v2.89h-5.15v11.92c0,1.42.23,2.43.7,3.04.47.61,1.24.91,2.32.91.82,0,1.54-.24,2.14-.7v2.89h0Z"/>
            <path class="cls-4" d="M312.92,473.15c-3.02,0-5.43-.99-7.24-2.97s-2.71-4.6-2.71-7.86c0-3.55.94-6.33,2.81-8.33,1.88-2,4.41-3,7.61-3s5.43.97,7.14,2.91,2.57,4.64,2.57,8.08-.92,6.08-2.76,8.11-4.31,3.05-7.42,3.05h0ZM313.16,453.85c-2.1,0-3.77.74-4.99,2.22-1.23,1.48-1.84,3.52-1.84,6.13s.62,4.48,1.86,5.93,2.89,2.17,4.97,2.17,3.74-.71,4.88-2.13,1.71-3.44,1.71-6.05-.57-4.68-1.71-6.12c-1.14-1.43-2.76-2.15-4.88-2.15h0Z"/>
            <path class="cls-4" d="M351.17,454.92c-.57-.45-1.4-.68-2.48-.68-1.4,0-2.57.68-3.5,2.05s-1.41,3.22-1.41,5.58v10.79h-3.27v-21.16h3.27v4.36h.08c.47-1.49,1.18-2.65,2.14-3.48.96-.83,2.03-1.25,3.21-1.25.85,0,1.5.1,1.96.29v3.51h0Z"/>
            <path class="cls-4" d="M371.11,462.92h-14.43c.05,2.36.67,4.17,1.84,5.46s2.78,1.92,4.83,1.92c2.3,0,4.42-.79,6.35-2.36v3.18c-1.8,1.35-4.17,2.03-7.13,2.03s-5.16-.96-6.81-2.88-2.48-4.62-2.48-8.11c0-3.29.9-5.97,2.71-8.05,1.8-2.07,4.04-3.11,6.72-3.11s4.74.9,6.21,2.69c1.46,1.79,2.2,4.28,2.2,7.46v1.78h0ZM367.75,460.05c-.01-1.96-.47-3.48-1.37-4.57s-2.15-1.63-3.74-1.63-2.85.57-3.93,1.72c-1.08,1.14-1.74,2.64-2,4.48h11.04,0Z"/>
            <path class="cls-4" d="M375.31,471.89v-3.64c1.78,1.36,3.75,2.05,5.89,2.05,2.87,0,4.31-.99,4.31-2.98,0-.56-.12-1.04-.37-1.44s-.58-.74-1-1.04c-.42-.3-.91-.57-1.48-.82-.57-.24-1.18-.49-1.83-.75-.91-.37-1.7-.75-2.39-1.13s-1.26-.81-1.72-1.28-.81-1.02-1.04-1.62-.35-1.31-.35-2.13c0-.99.22-1.87.66-2.63s1.03-1.41,1.76-1.92,1.57-.9,2.51-1.17c.94-.26,1.91-.39,2.9-.39,1.77,0,3.35.32,4.75.95v3.43c-1.5-1.02-3.23-1.53-5.19-1.53-.61,0-1.17.07-1.66.22s-.92.35-1.27.61c-.35.26-.63.58-.82.94-.19.37-.29.77-.29,1.21,0,.55.1,1.01.29,1.38s.48.7.85.99.83.55,1.36.79c.53.24,1.14.49,1.82.76.91.36,1.72.73,2.44,1.11.72.38,1.33.81,1.84,1.28s.9,1.02,1.17,1.64.41,1.36.41,2.21c0,1.05-.22,1.96-.67,2.73s-1.04,1.41-1.79,1.92-1.6.89-2.58,1.14-1.99.37-3.05.37c-2.1,0-3.93-.42-5.47-1.26h0Z"/>
            <path class="cls-4" d="M403.87,472.45c-.77.44-1.79.66-3.05.66-3.58,0-5.37-2.07-5.37-6.2v-12.52h-3.51v-2.89h3.51v-5.17l3.27-1.1v6.26h5.15v2.89h-5.15v11.92c0,1.42.23,2.43.7,3.04s1.24.91,2.32.91c.83,0,1.54-.24,2.14-.7v2.89h-.01Z"/>
            <path class="cls-4" d="M423.37,472.65h-3.27v-3.31h-.08c-1.42,2.53-3.52,3.8-6.29,3.8-2.04,0-3.63-.56-4.78-1.67s-1.73-2.6-1.73-4.44c0-3.95,2.25-6.25,6.75-6.9l6.13-.89c0-3.6-1.4-5.39-4.21-5.39-2.46,0-4.68.87-6.67,2.6v-3.47c2.01-1.32,4.32-1.98,6.95-1.98,4.8,0,7.21,2.63,7.21,7.89v13.76h-.01ZM420.09,461.95l-4.93.7c-1.52.22-2.66.61-3.43,1.17s-1.16,1.55-1.16,2.97c0,1.03.36,1.88,1.07,2.53s1.66.98,2.84.98c1.62,0,2.96-.59,4.02-1.77s1.59-2.67,1.59-4.47v-2.11h0Z"/>
            <path class="cls-4" d="M440.69,454.92c-.57-.45-1.4-.68-2.48-.68-1.4,0-2.57.68-3.5,2.05s-1.41,3.22-1.41,5.58v10.79h-3.27v-21.16h3.27v4.36h.08c.47-1.49,1.18-2.65,2.14-3.48.96-.83,2.03-1.25,3.21-1.25.85,0,1.5.1,1.96.29v3.51h0Z"/>
            <path class="cls-4" d="M455.39,472.45c-.77.44-1.79.66-3.05.66-3.58,0-5.37-2.07-5.37-6.2v-12.52h-3.51v-2.89h3.51v-5.17l3.27-1.1v6.26h5.15v2.89h-5.15v11.92c0,1.42.23,2.43.7,3.04s1.24.91,2.32.91c.83,0,1.54-.24,2.14-.7v2.89h-.01Z"/>
            <path class="cls-4" d="M488.21,451.49l-9.4,24.55c-1.68,4.38-4.03,6.57-7.07,6.57-.85,0-1.56-.09-2.14-.27v-3.04c.71.25,1.35.37,1.94.37,1.65,0,2.89-1.02,3.71-3.06l1.64-4.01-7.99-21.12h3.63l5.53,16.28c.07.21.21.74.42,1.61h.12c.07-.33.2-.86.4-1.57l5.81-16.33h3.39v.02Z"/>
            <path class="cls-4" d="M500.56,473.15c-3.02,0-5.43-.99-7.24-2.97s-2.71-4.6-2.71-7.86c0-3.55.94-6.33,2.81-8.33,1.88-2,4.41-3,7.61-3s5.43.97,7.14,2.91,2.57,4.64,2.57,8.08-.92,6.08-2.76,8.11-4.31,3.05-7.42,3.05h0ZM500.8,453.85c-2.1,0-3.77.74-4.99,2.22-1.23,1.48-1.84,3.52-1.84,6.13s.62,4.48,1.86,5.93,2.89,2.17,4.97,2.17,3.74-.71,4.88-2.13,1.71-3.44,1.71-6.05-.57-4.68-1.71-6.12c-1.14-1.43-2.76-2.15-4.88-2.15h0Z"/>
            <path class="cls-4" d="M532.99,472.65h-3.27v-3.35h-.08c-1.36,2.56-3.46,3.84-6.31,3.84-4.87,0-7.31-3-7.31-9.01v-12.65h3.25v12.11c0,4.46,1.65,6.7,4.95,6.7,1.6,0,2.91-.61,3.94-1.83s1.55-2.81,1.55-4.78v-12.19h3.27v21.16h.01Z"/>
            <path class="cls-4" d="M550.75,454.92c-.57-.45-1.4-.68-2.48-.68-1.4,0-2.57.68-3.5,2.05s-1.41,3.22-1.41,5.58v10.79h-3.27v-21.16h3.27v4.36h.08c.47-1.49,1.18-2.65,2.14-3.48.96-.83,2.03-1.25,3.21-1.25.85,0,1.5.1,1.96.29v3.51h0Z"/>
            <path class="cls-4" d="M580.42,471.68c-1.57.98-3.43,1.47-5.59,1.47-2.91,0-5.27-.98-7.06-2.94s-2.69-4.51-2.69-7.64c0-3.48.97-6.28,2.89-8.4,1.93-2.11,4.5-3.17,7.73-3.17,1.8,0,3.38.35,4.75,1.03v3.47c-1.52-1.1-3.14-1.65-4.87-1.65-2.09,0-3.8.77-5.14,2.32s-2.01,3.59-2.01,6.11.63,4.44,1.89,5.87,2.94,2.15,5.06,2.15c1.78,0,3.46-.61,5.03-1.84v3.22h.01Z"/>
            <path class="cls-4" d="M594.41,473.15c-3.02,0-5.43-.99-7.24-2.97s-2.71-4.6-2.71-7.86c0-3.55.94-6.33,2.81-8.33,1.88-2,4.41-3,7.61-3s5.43.97,7.14,2.91,2.57,4.64,2.57,8.08-.92,6.08-2.76,8.11-4.31,3.05-7.42,3.05h0ZM594.65,453.85c-2.1,0-3.77.74-4.99,2.22-1.23,1.48-1.84,3.52-1.84,6.13s.62,4.48,1.86,5.93,2.89,2.17,4.97,2.17,3.74-.71,4.88-2.13,1.71-3.44,1.71-6.05-.57-4.68-1.71-6.12c-1.14-1.43-2.76-2.15-4.88-2.15h0Z"/>
            <path class="cls-4" d="M639.34,472.65h-3.27v-12.15c0-2.34-.35-4.03-1.05-5.08s-1.87-1.57-3.52-1.57c-1.4,0-2.59.66-3.56,1.98s-1.47,2.91-1.47,4.75v12.07h-3.27v-12.56c0-4.16-1.55-6.24-4.65-6.24-1.44,0-2.62.63-3.55,1.87-.93,1.25-1.4,2.87-1.4,4.87v12.07h-3.27v-21.16h3.27v3.35h.08c1.45-2.56,3.57-3.84,6.35-3.84,1.4,0,2.62.4,3.65,1.21s1.75,1.87,2.14,3.17c1.52-2.92,3.78-4.38,6.79-4.38,4.5,0,6.75,2.87,6.75,8.62v13.04l-.02-.02Z"/>
            <path class="cls-4" d="M649.37,469.6h-.08v12.79h-3.27v-30.89h3.27v3.72h.08c1.61-2.81,3.97-4.22,7.07-4.22,2.64,0,4.69.95,6.17,2.84,1.48,1.9,2.22,4.43,2.22,7.62,0,3.54-.83,6.38-2.5,8.5s-3.94,3.19-6.83,3.19c-2.65,0-4.69-1.19-6.13-3.55h0ZM649.29,461.06v2.96c0,1.75.55,3.23,1.65,4.45s2.49,1.83,4.18,1.83c1.98,0,3.54-.79,4.66-2.36s1.69-3.75,1.69-6.55c0-2.36-.53-4.2-1.58-5.54s-2.48-2-4.27-2c-1.9,0-3.43.69-4.59,2.06-1.16,1.37-1.74,3.09-1.74,5.16h0Z"/>
            <path class="cls-4" d="M687.07,472.65h-3.27v-3.35h-.08c-1.36,2.56-3.46,3.84-6.31,3.84-4.87,0-7.31-3-7.31-9.01v-12.65h3.25v12.11c0,4.46,1.65,6.7,4.95,6.7,1.6,0,2.91-.61,3.94-1.83s1.55-2.81,1.55-4.78v-12.19h3.27v21.16h.01Z"/>
            <path class="cls-4" d="M703.65,472.45c-.77.44-1.79.66-3.05.66-3.58,0-5.37-2.07-5.37-6.2v-12.52h-3.51v-2.89h3.51v-5.17l3.27-1.1v6.26h5.15v2.89h-5.15v11.92c0,1.42.23,2.43.7,3.04s1.24.91,2.32.91c.83,0,1.54-.24,2.14-.7v2.89h-.01Z"/>
            <path class="cls-4" d="M724.63,462.92h-14.43c.05,2.36.67,4.17,1.84,5.46s2.78,1.92,4.83,1.92c2.3,0,4.42-.79,6.35-2.36v3.18c-1.8,1.35-4.17,2.03-7.13,2.03s-5.16-.96-6.81-2.88-2.48-4.62-2.48-8.11c0-3.29.9-5.97,2.71-8.05,1.8-2.07,4.04-3.11,6.72-3.11s4.74.9,6.21,2.69c1.46,1.79,2.2,4.28,2.2,7.46v1.78h-.01ZM721.27,460.05c-.01-1.96-.47-3.48-1.37-4.57s-2.15-1.63-3.74-1.63-2.85.57-3.93,1.72c-1.08,1.14-1.74,2.64-2,4.48h11.04Z"/>
            <path class="cls-4" d="M740.73,454.92c-.57-.45-1.4-.68-2.48-.68-1.4,0-2.57.68-3.5,2.05s-1.41,3.22-1.41,5.58v10.79h-3.27v-21.16h3.27v4.36h.08c.47-1.49,1.18-2.65,2.14-3.48.96-.83,2.03-1.25,3.21-1.25.85,0,1.5.1,1.96.29v3.51h0Z"/>
            <path class="cls-4" d="M742.52,473.11c-.61,0-1.14-.23-1.57-.68s-.65-1-.65-1.63.22-1.18.65-1.64.96-.69,1.57-.69,1.16.23,1.6.69.66,1.01.66,1.64-.22,1.18-.66,1.63-.97.68-1.6.68Z"/>
          </g>
          <g>
            <path class="cls-8" d="M115.97,606.51c-4.5,0-8.11-1.53-10.82-4.61-2.71-3.06-4.06-7.06-4.06-11.98,0-5.29,1.39-9.5,4.14-12.64s6.51-4.72,11.27-4.72c4.38,0,7.92,1.53,10.59,4.58s4.01,7.04,4.01,11.98c0,5.35-1.37,9.59-4.11,12.7s-6.42,4.68-11.01,4.68l-.02.02ZM116.24,576.06c-3.34,0-6.05,1.24-8.12,3.74-2.08,2.48-3.13,5.76-3.13,9.8s1.02,7.3,3.05,9.77c2.03,2.47,4.68,3.71,7.93,3.71,3.48,0,6.22-1.18,8.24-3.53,2-2.35,3.01-5.64,3.01-9.87s-.97-7.69-2.92-10.06-4.63-3.55-8.06-3.55v-.02Z"/>
            <path class="cls-8" d="M149.21,586.31c-.63-.5-1.55-.76-2.74-.76-1.55,0-2.84.76-3.89,2.27s-1.56,3.58-1.56,6.19v11.96h-3.63v-23.46h3.63v4.84h.08c.52-1.64,1.31-2.93,2.37-3.85s2.24-1.39,3.56-1.39c.95,0,1.66.11,2.18.32v3.9-.03Z"/>
            <path class="cls-8" d="M182.87,605.96h-3.63v-3.66h-.08c-1.58,2.81-3.9,4.21-6.96,4.21-2.26,0-4.03-.61-5.3-1.85-1.27-1.23-1.92-2.87-1.92-4.92,0-4.38,2.5-6.93,7.48-7.66l6.79-.98c0-3.98-1.56-5.98-4.68-5.98-2.72,0-5.19.97-7.38,2.89v-3.85c2.22-1.47,4.79-2.19,7.71-2.19,5.32,0,7.98,2.92,7.98,8.75v15.25h0ZM179.24,594.1l-5.46.77c-1.68.24-2.95.68-3.8,1.29s-1.29,1.71-1.29,3.29c0,1.14.39,2.08,1.18,2.81.79.73,1.84,1.08,3.16,1.08,1.81,0,3.29-.66,4.45-1.95,1.18-1.31,1.76-2.97,1.76-4.97v-2.34l.02.02Z"/>
            <path class="cls-8" d="M188.88,605.11v-4.03c1.98,1.52,4.16,2.27,6.53,2.27,3.19,0,4.77-1.1,4.77-3.3,0-.63-.13-1.16-.4-1.6s-.64-.82-1.11-1.16c-.47-.34-1.02-.64-1.64-.9-.63-.27-1.31-.55-2.03-.84-1-.42-1.89-.82-2.64-1.24s-1.39-.89-1.9-1.42-.89-1.13-1.14-1.81-.39-1.45-.39-2.35c0-1.1.24-2.08.73-2.92.48-.85,1.13-1.56,1.95-2.13.81-.56,1.74-1,2.77-1.29s2.11-.44,3.22-.44c1.97,0,3.72.35,5.27,1.05v3.8c-1.66-1.13-3.58-1.69-5.76-1.69-.68,0-1.29.08-1.84.24-.55.16-1.02.39-1.4.68-.39.29-.69.64-.9,1.05s-.32.85-.32,1.34c0,.61.11,1.11.32,1.53.21.4.53.77.94,1.1.42.32.92.61,1.5.87.6.26,1.26.55,2.02.85,1,.4,1.9.81,2.69,1.23s1.47.9,2.03,1.42c.56.53,1,1.14,1.29,1.82.31.69.45,1.52.45,2.45,0,1.16-.24,2.18-.74,3.03-.5.85-1.14,1.56-1.98,2.13-.82.56-1.77.98-2.85,1.26s-2.21.42-3.39.42c-2.34,0-4.35-.47-6.06-1.4l.03-.02Z"/>
            <path class="cls-8" d="M228.83,605.96h-5.09l-9.99-11.27h-.08v11.27h-3.63v-34.72h3.63v22.01h.08l9.51-10.74h4.76l-10.51,11.32,11.33,12.14h0Z"/>
            <path class="cls-8" d="M268.14,604.59c-2.34,1.29-5.27,1.92-8.77,1.92-4.51,0-8.12-1.5-10.85-4.51-2.71-3.01-4.08-6.95-4.08-11.83,0-5.26,1.53-9.5,4.58-12.74s6.93-4.85,11.62-4.85c3.01,0,5.5.45,7.48,1.35v4.09c-2.27-1.31-4.77-1.97-7.53-1.97-3.64,0-6.59,1.26-8.87,3.77-2.26,2.53-3.4,5.88-3.4,10.11s1.06,7.19,3.18,9.56,4.9,3.56,8.33,3.56c3.19,0,5.95-.73,8.27-2.19v3.72h.03Z"/>
            <path class="cls-8" d="M293.46,605.96h-3.63v-13.51c0-4.88-1.76-7.34-5.27-7.34-1.77,0-3.26.71-4.47,2.11s-1.82,3.22-1.82,5.43v13.28h-3.63v-34.72h3.63v15.17h.08c1.74-2.97,4.22-4.45,7.43-4.45,5.11,0,7.66,3.18,7.66,9.56v14.44l.02.02Z"/>
            <path class="cls-8" d="M317.05,605.96h-3.63v-3.66h-.08c-1.58,2.81-3.9,4.21-6.96,4.21-2.26,0-4.03-.61-5.3-1.85-1.27-1.23-1.92-2.87-1.92-4.92,0-4.38,2.5-6.93,7.48-7.66l6.79-.98c0-3.98-1.56-5.98-4.68-5.98-2.72,0-5.19.97-7.38,2.89v-3.85c2.22-1.47,4.79-2.19,7.71-2.19,5.32,0,7.98,2.92,7.98,8.75v15.25h0ZM313.42,594.1l-5.46.77c-1.68.24-2.95.68-3.8,1.29s-1.29,1.71-1.29,3.29c0,1.14.39,2.08,1.18,2.81.79.73,1.84,1.08,3.16,1.08,1.81,0,3.29-.66,4.45-1.95,1.18-1.31,1.76-2.97,1.76-4.97v-2.34l.02.02Z"/>
            <path class="cls-8" d="M334.94,605.73c-.85.48-1.98.73-3.39.73-3.97,0-5.95-2.29-5.95-6.87v-13.88h-3.9v-3.21h3.9v-5.72l3.63-1.21v6.93h5.71v3.21h-5.71v13.22c0,1.56.26,2.69.77,3.37s1.37,1.02,2.56,1.02c.92,0,1.71-.26,2.37-.77v3.21-.02Z"/>
            <path class="cls-8" d="M377.5,603.72c-3.19,1.85-6.72,2.79-10.62,2.79-4.53,0-8.19-1.52-10.99-4.53-2.79-3.03-4.19-7.03-4.19-11.99s1.55-9.25,4.66-12.51c3.11-3.26,7.04-4.88,11.8-4.88,3.45,0,6.35.58,8.69,1.74v4.26c-2.56-1.68-5.61-2.51-9.11-2.51s-6.46,1.27-8.74,3.8-3.4,5.82-3.4,9.85,1.05,7.42,3.16,9.79,4.97,3.56,8.59,3.56c2.48,0,4.63-.52,6.43-1.53v-9.21h-6.95v-3.48h10.67v14.88-.02Z"/>
            <path class="cls-8" d="M389.12,593.55v12.41h-3.72v-32.84h8.72c3.39,0,6.03.85,7.88,2.56,1.87,1.71,2.81,4.13,2.81,7.24s-1.03,5.66-3.11,7.66c-2.08,1.98-4.87,2.98-8.4,2.98h-4.18v-.02ZM389.12,576.6v13.46h3.9c2.56,0,4.53-.61,5.87-1.82,1.35-1.21,2.03-2.93,2.03-5.14,0-4.34-2.48-6.5-7.43-6.5h-4.37Z"/>
            <path class="cls-8" d="M430.09,576.6h-9.16v29.36h-3.72v-29.36h-9.14v-3.48h22.02v3.48Z"/>
            <path class="cls-8" d="M459.28,574.54c-.71-.42-1.52-.61-2.42-.61-2.53,0-3.8,1.66-3.8,4.97v3.61h5.3v3.21h-5.3v20.25h-3.61v-20.25h-3.87v-3.21h3.87v-3.8c0-2.45.69-4.4,2.06-5.84s3.08-2.14,5.13-2.14c1.11,0,1.98.15,2.63.42v3.39l.02.02Z"/>
            <path class="cls-8" d="M472.27,606.51c-3.35,0-6.03-1.1-8.03-3.29-2-2.19-3-5.09-3-8.72,0-3.93,1.05-7.01,3.13-9.22s4.88-3.32,8.43-3.32,6.01,1.08,7.92,3.22,2.84,5.14,2.84,8.95-1.02,6.74-3.06,9-4.79,3.37-8.22,3.37v.02ZM472.55,585.12c-2.34,0-4.18.82-5.53,2.47s-2.03,3.9-2.03,6.79.69,4.97,2.06,6.58c1.37,1.6,3.21,2.4,5.51,2.4s4.14-.79,5.42-2.35c1.26-1.56,1.89-3.8,1.89-6.71s-.63-5.19-1.89-6.79c-1.26-1.58-3.06-2.39-5.42-2.39h-.02Z"/>
            <path class="cls-8" d="M501.73,586.31c-.63-.5-1.55-.76-2.74-.76-1.55,0-2.84.76-3.89,2.27s-1.56,3.58-1.56,6.19v11.96h-3.63v-23.46h3.63v4.84h.08c.52-1.64,1.31-2.93,2.37-3.85s2.24-1.39,3.56-1.39c.95,0,1.66.11,2.18.32v3.9-.03Z"/>
            <path class="cls-8" d="M537.97,605.96h-3.63v-13.51c0-4.88-1.76-7.34-5.27-7.34-1.77,0-3.26.71-4.47,2.11s-1.82,3.22-1.82,5.43v13.28h-3.63v-34.72h3.63v15.17h.08c1.74-2.97,4.22-4.45,7.43-4.45,5.11,0,7.66,3.18,7.66,9.56v14.44l.02.02Z"/>
            <path class="cls-8" d="M563.55,595.18h-15.99c.06,2.61.74,4.63,2.03,6.05,1.29,1.42,3.08,2.13,5.35,2.13,2.55,0,4.9-.87,7.03-2.61v3.53c-2,1.5-4.63,2.24-7.9,2.24s-5.72-1.06-7.54-3.19-2.74-5.13-2.74-9c0-3.64,1-6.63,3-8.91,2-2.31,4.48-3.45,7.45-3.45s5.26.98,6.88,2.98,2.43,4.74,2.43,8.27v1.97h0ZM559.84,591.98c0-2.18-.52-3.85-1.52-5.06s-2.39-1.81-4.14-1.81-3.16.63-4.35,1.9c-1.19,1.27-1.93,2.92-2.21,4.97h12.24-.02Z"/>
            <path class="cls-8" d="M573.21,605.96h-3.63v-34.72h3.63v34.72Z"/>
            <path class="cls-8" d="M584.81,602.57h-.08v14.17h-3.63v-34.24h3.63v4.13h.08c1.79-3.11,4.4-4.68,7.83-4.68,2.92,0,5.21,1.05,6.84,3.14s2.45,4.92,2.45,8.45c0,3.92-.92,7.06-2.77,9.43-1.84,2.35-4.37,3.55-7.56,3.55-2.93,0-5.21-1.31-6.79-3.93v-.02ZM584.73,593.11v3.27c0,1.93.61,3.58,1.82,4.93s2.76,2.03,4.63,2.03c2.19,0,3.92-.87,5.16-2.61,1.24-1.74,1.87-4.16,1.87-7.27,0-2.61-.58-4.66-1.74-6.14s-2.74-2.22-4.74-2.22c-2.11,0-3.8.76-5.09,2.27s-1.92,3.42-1.92,5.71l.02.03Z"/>
            <g>
              <ellipse class="cls-3" cx="640.22" cy="589.55" rx="21.25" ry="21.99"/>
              <path class="cls-1" d="M654.15,580.3c.4.24.21.76-.11.81-1.9.29-3.93.63-5.85,1.72,2.85.48,5.13,2,6.37,3.55.27.35-.06.82-.39.69-3.39-1.27-6.85-1.95-11.22-1.5-.34.03-.64-.16-.56-.5,1.16-5.29,7.72-7.27,11.77-4.79v.02Z"/>
              <path class="cls-1" d="M626.29,580.3c-.4.24-.21.76.11.81,1.9.29,3.93.63,5.85,1.72-2.85.48-5.13,2-6.37,3.55-.27.35.06.82.39.69,3.39-1.27,6.85-1.95,11.22-1.5.34.03.64-.16.56-.5-1.16-5.29-7.72-7.27-11.77-4.79v.02Z"/>
              <path class="cls-1" d="M652.76,591.32c-.29-.39-.79-.32-1.35-.32h-22.34c-.55,0-1.06-.06-1.35.32-2.77,3.66.48,14.33,12.53,14.33s15.3-10.69,12.53-14.33Z"/>
              <path class="cls-5" d="M641.53,596.69c-.4,0-1.05.39-.81,1.43.11.53.84,1.18.84,2.03,0,1.74-2.68,1.74-2.68,0,0-.85.73-1.5.84-2.03.23-1.05-.4-1.45-.81-1.43-1.11.03-2.93,1.27-2.93,3.37,0,2.37,1.9,4.27,4.24,4.27s4.24-1.92,4.24-4.27c0-2.1-1.82-3.34-2.93-3.37h0Z"/>
              <path class="cls-6" d="M634.77,603.22c1.58.69,3.4,1.11,5.47,1.11s3.89-.42,5.47-1.11c-1.52-.76-3.34-1.23-5.47-1.23s-3.93.47-5.47,1.23Z"/>
              <path class="cls-4" d="M650.81,592.48h-21.17c-1.45,0-1.45,2.93-.03,2.93h21.25c1.42,0,1.42-2.93-.03-2.93h-.02Z"/>
            </g>
          </g>
        </g>
      </g>
    </g>
  </g>
</svg>