<?xml version="1.0" encoding="UTF-8"?>
<svg xmlns="http://www.w3.org/2000/svg" xmlns:xlink="http://www.w3.org/1999/xlink" viewBox="0 0 159.26 214.92">
  <defs>
    <style>
      .cls-1 {
        fill: #e6e6e6;
      }

      .cls-2 {
        fill: url(#linear-gradient);
      }

      .cls-3 {
        isolation: isolate;
      }

      .cls-4 {
        mix-blend-mode: multiply;
      }

      .cls-4, .cls-5 {
        fill: #22b501;
      }

      .cls-6 {
        fill: #fff;
      }

      .cls-7 {
        fill: #0100be;
      }

      .cls-8 {
        fill: #666;
      }

      .cls-9 {
        fill: #040404;
      }

      .cls-10 {
        fill: #f2f2f2;
      }

      .cls-11 {
        fill: #585858;
      }

      .cls-12 {
        fill: #4c4c4c;
      }

      .cls-13 {
        fill: #999;
      }
    </style>
    <linearGradient id="linear-gradient" x1="40.62" y1="19.38" x2="121.38" y2="100.14" gradientUnits="userSpaceOnUse">
      <stop offset="0" stop-color="#30bebf"/>
      <stop offset=".5" stop-color="#53a8a9"/>
      <stop offset=".6" stop-color="#4aa3a4"/>
      <stop offset=".75" stop-color="#319899"/>
      <stop offset=".95" stop-color="#0a8586"/>
      <stop offset="1" stop-color="#008182"/>
    </linearGradient>
  </defs>
  <g class="cls-3">
    <g id="Layer_2">
      <g id="_x31_">
        <g>
          <g>
            <polygon class="cls-9" points="0 161.69 0 150.84 23.08 127.76 23.08 109.21 48.61 83.69 159.26 83.58 159.26 114.91 112.48 161.69 0 161.69"/>
            <g>
              <g>
                <g>
                  <polygon class="cls-12" points="46.22 85.51 23.09 108.65 134.19 108.65 157.33 85.51 46.22 85.51"/>
                  <rect class="cls-1" x="23.09" y="108.65" width="111.11" height="28.03"/>
                  <rect class="cls-13" x="23.09" y="124.18" width="111.11" height="3.01"/>
                  <polygon class="cls-8" points="134.19 136.67 134.19 108.65 157.33 85.51 157.33 113.54 134.19 136.67"/>
                </g>
                <g>
                  <rect class="cls-5" x="30.72" y="115.1" width="10.23" height="5.44"/>
                  <polygon class="cls-4" points="38.53 115.1 38.53 118.72 30.72 118.72 30.72 120.54 40.95 120.54 40.95 115.1 38.53 115.1"/>
                </g>
                <g>
                  <rect class="cls-11" x="101.1" y="115.1" width="30.18" height="5.44"/>
                  <rect class="cls-9" x="101.1" y="117.82" width="30.18" height="2.72"/>
                </g>
              </g>
              <g>
                <g>
                  <polygon class="cls-1" points="23.09 127.19 0 150.28 111.11 150.28 134.19 127.19 23.09 127.19"/>
                  <rect class="cls-13" y="150.28" width="111.11" height="9.48"/>
                  <polygon class="cls-8" points="111.11 159.76 111.11 150.28 134.19 127.19 134.19 136.67 111.11 159.76"/>
                </g>
                <g>
                  <path class="cls-8" d="M13.01,147.96c-.25,0-.5-.09-.69-.28-.38-.38-.38-.99,0-1.37l2.06-2.06c.38-.38.99-.38,1.37,0,.38.38.38.99,0,1.37l-2.06,2.06c-.19.19-.44.28-.69.28ZM17.8,143.16c-.25,0-.5-.09-.69-.28-.38-.38-.38-.99,0-1.37l2.06-2.06c.38-.38.99-.38,1.37,0s.38.99,0,1.37l-2.06,2.06c-.19.19-.44.28-.69.28ZM22.6,138.36c-.25,0-.5-.09-.69-.28-.38-.38-.38-.99,0-1.37l2.06-2.06c.38-.38.99-.38,1.37,0s.38.99,0,1.37l-2.06,2.06c-.19.19-.44.28-.69.28ZM27.4,133.57c-.25,0-.5-.09-.69-.28-.38-.38-.38-.99,0-1.37l1.87-1.87c.38-.38.99-.38,1.37,0,.38.38.38.99,0,1.37l-1.87,1.87c-.19.19-.44.28-.69.28Z"/>
                  <path class="cls-8" d="M22.19,147.96c-.25,0-.5-.09-.69-.28-.38-.38-.38-.99,0-1.37l2.06-2.06c.38-.38.99-.38,1.37,0,.38.38.38.99,0,1.37l-2.06,2.06c-.19.19-.44.28-.69.28ZM26.99,143.16c-.25,0-.5-.09-.69-.28-.38-.38-.38-.99,0-1.37l2.06-2.06c.38-.38.99-.38,1.37,0,.38.38.38.99,0,1.37l-2.06,2.06c-.19.19-.44.28-.69.28ZM31.78,138.36c-.25,0-.5-.09-.69-.28-.38-.38-.38-.99,0-1.37l2.06-2.06c.38-.38.99-.38,1.37,0,.38.38.38.99,0,1.37l-2.06,2.06c-.19.19-.44.28-.69.28ZM36.58,133.57c-.25,0-.5-.09-.69-.28-.38-.38-.38-.99,0-1.37l1.87-1.87c.38-.38.99-.38,1.37,0s.38.99,0,1.37l-1.87,1.87c-.19.19-.44.28-.69.28Z"/>
                  <path class="cls-8" d="M31.37,147.96c-.25,0-.5-.09-.69-.28-.38-.38-.38-.99,0-1.37l2.06-2.06c.38-.38.99-.38,1.37,0,.38.38.38.99,0,1.37l-2.06,2.06c-.19.19-.44.28-.69.28ZM36.17,143.16c-.25,0-.5-.09-.69-.28-.38-.38-.38-.99,0-1.37l2.06-2.06c.38-.38.99-.38,1.37,0s.38.99,0,1.37l-2.06,2.06c-.19.19-.44.28-.69.28ZM40.97,138.36c-.25,0-.5-.09-.69-.28-.38-.38-.38-.99,0-1.37l2.06-2.06c.38-.38.99-.38,1.37,0,.38.38.38.99,0,1.37l-2.06,2.06c-.19.19-.44.28-.69.28ZM45.76,133.57c-.25,0-.5-.09-.69-.28-.38-.38-.38-.99,0-1.37l1.87-1.87c.38-.38.99-.38,1.37,0,.38.38.38.99,0,1.37l-1.87,1.87c-.19.19-.44.28-.69.28Z"/>
                  <path class="cls-8" d="M40.55,147.96c-.25,0-.5-.09-.69-.28-.38-.38-.38-.99,0-1.37l2.06-2.06c.38-.38.99-.38,1.37,0,.38.38.38.99,0,1.37l-2.06,2.06c-.19.19-.44.28-.69.28ZM45.35,143.16c-.25,0-.5-.09-.69-.28-.38-.38-.38-.99,0-1.37l2.06-2.06c.38-.38.99-.38,1.37,0,.38.38.38.99,0,1.37l-2.06,2.06c-.19.19-.44.28-.69.28ZM50.15,138.36c-.25,0-.5-.09-.69-.28-.38-.38-.38-.99,0-1.37l2.06-2.06c.38-.38.99-.38,1.37,0,.38.38.38.99,0,1.37l-2.06,2.06c-.19.19-.44.28-.69.28ZM54.95,133.57c-.25,0-.5-.09-.69-.28-.38-.38-.38-.99,0-1.37l1.87-1.87c.38-.38.99-.38,1.37,0s.38.99,0,1.37l-1.87,1.87c-.19.19-.44.28-.69.28Z"/>
                  <path class="cls-8" d="M49.73,147.96c-.25,0-.5-.09-.69-.28-.38-.38-.38-.99,0-1.37l2.06-2.06c.38-.38.99-.38,1.37,0,.38.38.38.99,0,1.37l-2.06,2.06c-.19.19-.44.28-.69.28ZM54.53,143.16c-.25,0-.5-.09-.69-.28-.38-.38-.38-.99,0-1.37l2.06-2.06c.38-.38.99-.38,1.37,0,.38.38.38.99,0,1.37l-2.06,2.06c-.19.19-.44.28-.69.28ZM59.33,138.36c-.25,0-.5-.09-.69-.28-.38-.38-.38-.99,0-1.37l2.06-2.06c.38-.38.99-.38,1.37,0,.38.38.38.99,0,1.37l-2.06,2.06c-.19.19-.44.28-.69.28ZM64.13,133.57c-.25,0-.5-.09-.69-.28-.38-.38-.38-.99,0-1.37l1.87-1.87c.38-.38.99-.38,1.37,0,.38.38.38.99,0,1.37l-1.87,1.87c-.19.19-.44.28-.69.28Z"/>
                  <path class="cls-8" d="M58.91,147.96c-.25,0-.5-.09-.69-.28-.38-.38-.38-.99,0-1.37l2.06-2.06c.38-.38.99-.38,1.37,0,.38.38.38.99,0,1.37l-2.06,2.06c-.19.19-.44.28-.69.28ZM63.71,143.16c-.25,0-.5-.09-.69-.28-.38-.38-.38-.99,0-1.37l2.06-2.06c.38-.38.99-.38,1.37,0s.38.99,0,1.37l-2.06,2.06c-.19.19-.44.28-.69.28ZM68.51,138.36c-.25,0-.5-.09-.69-.28-.38-.38-.38-.99,0-1.37l2.06-2.06c.38-.38.99-.38,1.37,0,.38.38.38.99,0,1.37l-2.06,2.06c-.19.19-.44.28-.69.28ZM73.31,133.57c-.25,0-.5-.09-.69-.28-.38-.38-.38-.99,0-1.37l1.87-1.87c.38-.38.99-.38,1.37,0,.38.38.38.99,0,1.37l-1.87,1.87c-.19.19-.44.28-.69.28Z"/>
                  <path class="cls-8" d="M68.1,147.96c-.25,0-.5-.09-.69-.28-.38-.38-.38-.99,0-1.37l2.06-2.06c.38-.38.99-.38,1.37,0,.38.38.38.99,0,1.37l-2.06,2.06c-.19.19-.44.28-.69.28ZM72.89,143.16c-.25,0-.5-.09-.69-.28-.38-.38-.38-.99,0-1.37l2.06-2.06c.38-.38.99-.38,1.37,0,.38.38.38.99,0,1.37l-2.06,2.06c-.19.19-.44.28-.69.28ZM77.69,138.36c-.25,0-.5-.09-.69-.28-.38-.38-.38-.99,0-1.37l2.06-2.06c.38-.38.99-.38,1.37,0,.38.38.38.99,0,1.37l-2.06,2.06c-.19.19-.44.28-.69.28ZM82.49,133.57c-.25,0-.5-.09-.69-.28-.38-.38-.38-.99,0-1.37l1.87-1.87c.38-.38.99-.38,1.37,0,.38.38.38.99,0,1.37l-1.87,1.87c-.19.19-.44.28-.69.28Z"/>
                  <path class="cls-8" d="M77.28,147.96c-.25,0-.5-.09-.69-.28-.38-.38-.38-.99,0-1.37l2.06-2.06c.38-.38.99-.38,1.37,0,.38.38.38.99,0,1.37l-2.06,2.06c-.19.19-.44.28-.69.28ZM82.08,143.16c-.25,0-.5-.09-.69-.28-.38-.38-.38-.99,0-1.37l2.06-2.06c.38-.38.99-.38,1.37,0s.38.99,0,1.37l-2.06,2.06c-.19.19-.44.28-.69.28ZM86.87,138.36c-.25,0-.5-.09-.69-.28-.38-.38-.38-.99,0-1.37l2.06-2.06c.38-.38.99-.38,1.37,0,.38.38.38.99,0,1.37l-2.06,2.06c-.19.19-.44.28-.69.28ZM91.67,133.57c-.25,0-.5-.09-.69-.28-.38-.38-.38-.99,0-1.37l1.87-1.87c.38-.38.99-.38,1.37,0s.38.99,0,1.37l-1.87,1.87c-.19.19-.44.28-.69.28Z"/>
                  <path class="cls-8" d="M86.46,147.96c-.25,0-.5-.09-.69-.28-.38-.38-.38-.99,0-1.37l2.06-2.06c.38-.38.99-.38,1.37,0,.38.38.38.99,0,1.37l-2.06,2.06c-.19.19-.44.28-.69.28ZM91.26,143.16c-.25,0-.5-.09-.69-.28-.38-.38-.38-.99,0-1.37l2.06-2.06c.38-.38.99-.38,1.37,0,.38.38.38.99,0,1.37l-2.06,2.06c-.19.19-.44.28-.69.28ZM96.06,138.36c-.25,0-.5-.09-.69-.28-.38-.38-.38-.99,0-1.37l2.06-2.06c.38-.38.99-.38,1.37,0,.38.38.38.99,0,1.37l-2.06,2.06c-.19.19-.44.28-.69.28ZM100.85,133.57c-.25,0-.5-.09-.69-.28-.38-.38-.38-.99,0-1.37l1.87-1.87c.38-.38.99-.38,1.37,0,.38.38.38.99,0,1.37l-1.87,1.87c-.19.19-.44.28-.69.28Z"/>
                  <path class="cls-8" d="M95.64,147.96c-.25,0-.5-.09-.69-.28-.38-.38-.38-.99,0-1.37l2.06-2.06c.38-.38.99-.38,1.37,0,.38.38.38.99,0,1.37l-2.06,2.06c-.19.19-.44.28-.69.28ZM100.44,143.16c-.25,0-.5-.09-.69-.28-.38-.38-.38-.99,0-1.37l2.06-2.06c.38-.38.99-.38,1.37,0s.38.99,0,1.37l-2.06,2.06c-.19.19-.44.28-.69.28ZM105.24,138.36c-.25,0-.5-.09-.69-.28-.38-.38-.38-.99,0-1.37l2.06-2.06c.38-.38.99-.38,1.37,0,.38.38.38.99,0,1.37l-2.06,2.06c-.19.19-.44.28-.69.28ZM110.04,133.57c-.25,0-.5-.09-.69-.28-.38-.38-.38-.99,0-1.37l1.87-1.87c.38-.38.99-.38,1.37,0s.38.99,0,1.37l-1.87,1.87c-.19.19-.44.28-.69.28Z"/>
                  <path class="cls-8" d="M104.82,147.96c-.25,0-.5-.09-.69-.28-.38-.38-.38-.99,0-1.37l2.06-2.06c.38-.38.99-.38,1.37,0,.38.38.38.99,0,1.37l-2.06,2.06c-.19.19-.44.28-.69.28ZM109.62,143.16c-.25,0-.5-.09-.69-.28-.38-.38-.38-.99,0-1.37l2.06-2.06c.38-.38.99-.38,1.37,0,.38.38.38.99,0,1.37l-2.06,2.06c-.19.19-.44.28-.69.28ZM114.42,138.36c-.25,0-.5-.09-.69-.28-.38-.38-.38-.99,0-1.37l2.06-2.06c.38-.38.99-.38,1.37,0,.38.38.38.99,0,1.37l-2.06,2.06c-.19.19-.44.28-.69.28ZM119.22,133.57c-.25,0-.5-.09-.69-.28-.38-.38-.38-.99,0-1.37l1.87-1.87c.38-.38.99-.38,1.37,0,.38.38.38.99,0,1.37l-1.87,1.87c-.19.19-.44.28-.69.28Z"/>
                </g>
              </g>
            </g>
            <polygon class="cls-9" points="30.72 105.86 30.72 16.16 41.99 4.89 50.45 0 152.26 0 152.26 86.26 132.66 105.86 30.72 105.86"/>
            <g>
              <g>
                <polygon class="cls-10" points="30.72 15.59 30.72 103.92 37.56 97.08 124.44 22.44 131.29 15.59 30.72 15.59"/>
                <polygon class="cls-1" points="131.29 15.59 131.29 103.92 30.72 103.92 35.47 99.17 37.56 97.08 124.44 22.44 126.54 20.34 131.29 15.59"/>
                <g>
                  <g>
                    <g>
                      <polygon class="cls-12" points="37.56 97.08 37.56 22.44 35.47 20.34 35.47 99.17 37.56 97.08"/>
                      <polygon class="cls-12" points="37.56 22.44 35.47 20.34 126.54 20.34 124.44 22.44 37.56 22.44"/>
                    </g>
                    <polygon class="cls-10" points="37.56 97.08 35.47 99.17 126.54 99.17 124.44 97.08 37.56 97.08"/>
                  </g>
                  <polygon class="cls-10" points="124.44 22.44 124.44 97.08 126.54 99.17 126.54 20.34 124.44 22.44"/>
                </g>
                <rect class="cls-2" x="37.56" y="22.44" width="86.89" height="74.64"/>
              </g>
              <g>
                <rect class="cls-1" x="69.83" y="42.43" width="39.95" height="23.89"/>
                <polygon class="cls-7" points="69.83 42.43 69.83 54.84 72.2 54.84 72.2 44.81 107.39 44.81 107.39 63.95 91.72 63.95 91.72 66.32 109.77 66.32 109.77 42.43 69.83 42.43"/>
                <rect class="cls-7" x="71.01" y="43.62" width="37.57" height="3.04"/>
              </g>
              <g>
                <g>
                  <path class="cls-7" d="M92.18,77.08h-39.95v-23.89h39.95v23.89ZM54.61,74.7h35.19v-19.13h-35.19v19.13Z"/>
                  <rect class="cls-7" x="53.42" y="54.38" width="37.57" height="3.04"/>
                </g>
                <path class="cls-6" d="M54.61,74.7h35.19v-19.13h-35.19v19.13Z"/>
              </g>
              <g>
                <polygon class="cls-1" points="142.18 4.7 41.62 4.7 30.72 15.59 131.29 15.59 142.18 4.7"/>
                <polygon class="cls-13" points="150.32 0 49.74 0 41.62 4.7 142.18 4.7 150.32 0"/>
                <polygon class="cls-8" points="142.18 93.02 150.32 84.89 150.32 0 142.18 4.7 142.18 93.02"/>
                <polygon class="cls-13" points="131.29 103.92 142.18 93.02 142.18 4.7 131.29 15.59 131.29 103.92"/>
              </g>
            </g>
            <polygon class="cls-10" points="111.11 151.45 0 151.45 0 150.28 110.91 150.28 133.71 126.99 133.71 109.13 23.08 109.13 23.08 108.16 134.68 108.16 134.68 127.39 111.11 151.45"/>
          </g>
          <g>
            <path d="M5.05,196.16c0-3.92.97-6.99,2.91-9.21,1.94-2.22,4.73-3.33,8.37-3.33,2.13,0,3.89.36,5.27,1.08,1.39.72,2.39,1.71,2.99,2.96.31.65.26,1.1-.15,1.34l-1.33.77c-.45.26-.85.04-1.19-.64-.37-.71-.97-1.37-1.81-1.98-.84-.62-2.04-.92-3.61-.92-2.8,0-4.83.87-6.1,2.61-1.27,1.74-1.91,4.18-1.91,7.31s.64,5.57,1.91,7.31c1.27,1.74,3.31,2.61,6.1,2.61,1.61,0,2.9-.37,3.87-1.11.97-.74,1.67-1.51,2.11-2.32.35-.65.75-.84,1.21-.59l1.39.79c.4.24.44.68.1,1.34-.66,1.29-1.74,2.36-3.22,3.22-1.49.86-3.36,1.28-5.63,1.28-3.64,0-6.43-1.11-8.37-3.33-1.94-2.22-2.91-5.29-2.91-9.21Z"/>
            <path d="M28.48,199.39c0-2.63.7-4.81,2.09-6.53,1.39-1.72,3.43-2.58,6.12-2.58s4.73.86,6.12,2.58c1.39,1.72,2.09,3.89,2.09,6.53s-.7,4.81-2.09,6.52c-1.39,1.72-3.43,2.58-6.12,2.58s-4.73-.86-6.12-2.58c-1.39-1.72-2.09-3.89-2.09-6.52ZM31.61,199.39c0,2.35.46,4.09,1.39,5.22.93,1.13,2.16,1.7,3.69,1.7s2.77-.57,3.7-1.7c.93-1.13,1.39-2.87,1.39-5.22s-.46-4.09-1.39-5.22c-.93-1.13-2.16-1.7-3.7-1.7s-2.77.57-3.69,1.7c-.93,1.13-1.39,2.87-1.39,5.22Z"/>
            <path d="M49.47,208.21c-.5,0-.75-.25-.75-.76v-16.12c0-.5.25-.76.76-.76h1.41c.5,0,.76.25.76.76v1.34c.72-.81,1.51-1.4,2.35-1.8.84-.39,1.66-.59,2.44-.59,1.43,0,2.54.26,3.31.79.77.53,1.27,1.06,1.49,1.59h.07c.61-.67,1.38-1.24,2.31-1.7.93-.46,1.92-.69,2.97-.69,1.76,0,3.08.57,3.98,1.72.9,1.15,1.34,2.72,1.34,4.71v10.73c0,.5-.25.76-.76.76h-1.44c-.5,0-.76-.25-.76-.76v-9.76c0-2.19-.27-3.61-.81-4.26-.54-.64-1.37-.97-2.49-.97s-2.02.48-2.75,1.44c-.74.96-1.1,2.4-1.1,4.32v9.22c0,.5-.25.76-.76.76h-1.44c-.5,0-.76-.25-.76-.76v-9.76c0-2.19-.27-3.61-.81-4.26-.54-.64-1.37-.97-2.5-.97s-2.03.43-2.77,1.3c-.74.87-1.11,2.35-1.11,4.46v9.22c0,.5-.25.76-.75.76h-1.43Z"/>
            <path d="M77.61,214.92c-.47,0-.71-.25-.71-.76v-22.84c0-.5.25-.76.76-.76h1.41c.4,0,.6.25.6.76v1.34c.62-.74,1.33-1.32,2.11-1.75.78-.43,1.83-.64,3.14-.64,2.27,0,4,.92,5.18,2.75,1.18,1.83,1.77,3.95,1.77,6.36s-.59,4.53-1.77,6.36c-1.18,1.83-2.91,2.75-5.18,2.75-1.31,0-2.35-.21-3.14-.64-.78-.43-1.49-1.01-2.11-1.75h-.03c.02.34.03.68.03,1.02v7.04c0,.5-.24.76-.71.76h-1.35ZM79.67,201.32c0,1.68.41,2.93,1.23,3.75.82.82,1.84,1.23,3.08,1.23,1.74,0,2.97-.64,3.69-1.91.73-1.28,1.09-2.94,1.09-5s-.36-3.73-1.09-5.01c-.73-1.28-1.96-1.91-3.69-1.91-1.23,0-2.26.41-3.08,1.23-.82.82-1.23,2.07-1.23,3.75v3.86Z"/>
            <path d="M95.66,202.06v-10.73c0-.5.25-.76.76-.76h1.44c.5,0,.76.25.76.76v9.93c0,2.19.36,3.59,1.09,4.17.73.59,1.63.88,2.7.88,1.42,0,2.51-.43,3.27-1.3.76-.87,1.13-2.35,1.13-4.46v-9.22c0-.5.25-.76.75-.76h1.43c.5,0,.75.25.75.76v16.12c0,.5-.25.76-.76.76h-1.41c-.5,0-.76-.25-.76-.76v-1.34c-.74.81-1.53,1.41-2.38,1.8-.85.39-1.89.59-3.11.59-1.96,0-3.39-.57-4.3-1.72-.91-1.15-1.36-2.72-1.36-4.71Z"/>
            <path d="M113.65,192.79c-.5,0-.76-.2-.76-.59v-1.04c0-.39.25-.59.76-.59h1.98v-1.51c0-.22.06-.44.17-.64l1.18-2.13c.21-.39.39-.59.52-.59h.59c.34,0,.5.2.5.59v4.28h3.58c.5,0,.76.2.76.59v1.04c0,.39-.25.59-.76.59h-3.58v10.7c0,1.18.18,1.94.53,2.29.35.35.77.53,1.27.53.38,0,.84-.11,1.37-.34.53-.22.9-.41,1.1-.57.2-.16.36-.11.47.15l.55,1.29c.09.22.02.4-.2.54-.44.26-1.07.51-1.91.75-.84.24-1.68.36-2.52.36-1.16,0-2.06-.42-2.68-1.26-.62-.84-.93-2.03-.93-3.56v-10.88h-1.98Z"/>
            <path d="M126.26,199.39c0-2.78.69-4.99,2.08-6.63,1.39-1.65,3.38-2.47,5.96-2.47,2.15,0,3.93.75,5.35,2.26,1.42,1.51,2.12,3.91,2.12,7.21,0,.5-.23.76-.69.76h-11.77c.19,2.17.78,3.67,1.76,4.52.98.85,2.09,1.27,3.33,1.27,1.31,0,2.31-.22,3.01-.66.7-.44,1.21-.87,1.54-1.29.36-.47.71-.56,1.04-.27l.99.86c.26.22.26.53,0,.92-.21.32-.82.84-1.82,1.55-1,.71-2.58,1.07-4.73,1.07-2.8,0-4.86-.82-6.19-2.47-1.33-1.65-1.99-3.86-1.99-6.63ZM129.32,198.33h9.49c-.05-1.57-.45-2.94-1.21-4.12-.76-1.18-1.88-1.77-3.36-1.77-1.3,0-2.4.43-3.31,1.3-.91.87-1.44,2.4-1.61,4.59Z"/>
            <path d="M146.41,208.21c-.5,0-.75-.25-.75-.76v-16.12c0-.5.25-.76.76-.76h1.41c.5,0,.76.25.76.76v2.02c.54-1.01,1.18-1.77,1.92-2.28.74-.52,1.65-.77,2.75-.77.72,0,1.23.06,1.53.18.26.1.35.27.29.5l-.39,1.38c-.06.2-.2.28-.44.24-.39-.08-.77-.12-1.11-.12-1.32,0-2.4.59-3.26,1.77-.86,1.18-1.28,2.79-1.28,4.83v8.38c0,.5-.25.76-.75.76h-1.43Z"/>
          </g>
        </g>
      </g>
    </g>
  </g>
</svg>