<?xml version="1.0" encoding="UTF-8"?>
<svg id="Layer_2" xmlns="http://www.w3.org/2000/svg" xmlns:xlink="http://www.w3.org/1999/xlink" viewBox="0 0 205.48 163.3">
  <defs>
    <style>
      .cls-1 {
        fill: #2a2927;
      }

      .cls-2 {
        fill: #b8a83e;
      }

      .cls-3 {
        fill: url(#linear-gradient);
      }

      .cls-4 {
        fill: #c4c4c4;
      }

      .cls-5 {
        fill: #fff;
      }

      .cls-6 {
        fill: #ffffa6;
      }

      .cls-7 {
        fill: #f2f2f2;
      }

      .cls-8 {
        fill: #f4f353;
      }

      .cls-9 {
        fill: #4c4c4c;
      }
    </style>
    <linearGradient id="linear-gradient" x1="18.72" y1="57.96" x2="187.51" y2="57.96" gradientUnits="userSpaceOnUse">
      <stop offset="0" stop-color="#f2f2f2"/>
      <stop offset="1" stop-color="#fff"/>
    </linearGradient>
  </defs>
  <g id="_x31_">
    <g>
      <g>
        <path d="M31.51,163.01c-.56,0-.84-.31-.84-.92v-22.24c0-.62.28-.92.84-.92h6.2c4.75,0,8.05,1.05,9.9,3.15,1.85,2.1,2.78,5.05,2.78,8.86s-.93,6.77-2.78,8.89c-1.85,2.12-5.15,3.18-9.9,3.18h-6.2ZM33.89,160.26h3.66c3.69,0,6.18-.78,7.47-2.35,1.28-1.57,1.92-3.89,1.92-6.97s-.64-5.4-1.92-6.95c-1.28-1.56-3.77-2.33-7.47-2.33h-3.66v18.61Z"/>
        <path d="M53.36,154.2c0-2.63.7-4.81,2.09-6.53,1.39-1.72,3.43-2.58,6.12-2.58s4.73.86,6.12,2.58c1.39,1.72,2.09,3.89,2.09,6.53s-.7,4.81-2.09,6.52c-1.39,1.72-3.43,2.58-6.12,2.58s-4.73-.86-6.12-2.58c-1.39-1.72-2.09-3.89-2.09-6.52ZM56.48,154.2c0,2.35.46,4.09,1.39,5.22.93,1.13,2.16,1.7,3.69,1.7s2.77-.57,3.7-1.7c.93-1.13,1.39-2.87,1.39-5.22s-.46-4.09-1.39-5.22c-.93-1.13-2.16-1.7-3.7-1.7s-2.77.57-3.69,1.7c-.93,1.13-1.39,2.87-1.39,5.22Z"/>
        <path d="M72.64,154.2c0-2.63.65-4.81,1.96-6.53,1.3-1.72,3.3-2.58,5.99-2.58,1.81,0,3.2.32,4.16.97.96.64,1.65,1.3,2.07,1.97.23.37.18.67-.15.89l-1.06.69c-.34.24-.67.08-1.01-.45-.32-.51-.78-.96-1.37-1.33-.59-.37-1.47-.55-2.65-.55-1.53,0-2.72.57-3.56,1.7-.84,1.13-1.26,2.87-1.26,5.22s.42,4.09,1.26,5.22c.84,1.13,2.03,1.7,3.56,1.7,1.24,0,2.19-.24,2.86-.71.66-.48,1.14-.99,1.44-1.55.29-.53.62-.68.99-.45l1.13.67c.34.2.39.5.15.91-.28.48-.91,1.16-1.91,2.02-.99.87-2.54,1.3-4.66,1.3-2.69,0-4.68-.86-5.99-2.58-1.3-1.72-1.96-3.89-1.96-6.52Z"/>
        <path d="M90.79,156.87v-10.73c0-.5.25-.76.76-.76h1.44c.5,0,.76.25.76.76v9.93c0,2.19.36,3.59,1.09,4.17.73.59,1.63.88,2.7.88,1.42,0,2.51-.43,3.27-1.3s1.13-2.35,1.13-4.46v-9.22c0-.5.25-.76.75-.76h1.43c.5,0,.75.25.75.76v16.12c0,.5-.25.76-.76.76h-1.41c-.5,0-.76-.25-.76-.76v-1.34c-.74.81-1.53,1.41-2.38,1.8-.85.39-1.89.59-3.11.59-1.96,0-3.39-.57-4.3-1.72-.91-1.15-1.36-2.72-1.36-4.71Z"/>
        <path d="M110.38,163.01c-.5,0-.75-.25-.75-.76v-16.12c0-.5.25-.76.76-.76h1.41c.5,0,.76.25.76.76v1.34c.72-.81,1.51-1.4,2.35-1.8.84-.39,1.66-.59,2.44-.59,1.43,0,2.54.26,3.31.79.77.53,1.27,1.06,1.49,1.59h.07c.61-.67,1.38-1.24,2.31-1.7.93-.46,1.92-.69,2.97-.69,1.76,0,3.08.57,3.98,1.72.9,1.15,1.34,2.72,1.34,4.71v10.73c0,.5-.25.76-.76.76h-1.44c-.5,0-.76-.25-.76-.76v-9.76c0-2.19-.27-3.61-.81-4.26-.54-.64-1.37-.97-2.49-.97s-2.02.48-2.75,1.44c-.74.96-1.1,2.4-1.1,4.32v9.22c0,.5-.25.76-.76.76h-1.44c-.5,0-.76-.25-.76-.76v-9.76c0-2.19-.27-3.61-.81-4.26-.54-.64-1.37-.97-2.5-.97s-2.03.43-2.77,1.3c-.74.87-1.11,2.35-1.11,4.46v9.22c0,.5-.25.76-.75.76h-1.43Z"/>
        <path d="M136.86,154.2c0-2.78.69-4.99,2.08-6.63,1.39-1.65,3.38-2.47,5.96-2.47,2.15,0,3.93.75,5.35,2.26,1.42,1.51,2.12,3.91,2.12,7.21,0,.5-.23.76-.69.76h-11.77c.19,2.17.78,3.67,1.76,4.52.98.85,2.09,1.27,3.33,1.27,1.31,0,2.31-.22,3.01-.66.7-.44,1.21-.87,1.54-1.29.36-.47.71-.56,1.04-.27l.99.86c.26.22.26.53,0,.92-.21.32-.82.84-1.82,1.55-1,.71-2.58,1.07-4.73,1.07-2.8,0-4.86-.82-6.19-2.47-1.33-1.65-1.99-3.86-1.99-6.63ZM139.92,153.14h9.49c-.04-1.57-.45-2.94-1.21-4.12-.76-1.18-1.88-1.77-3.36-1.77-1.3,0-2.4.43-3.31,1.3-.91.87-1.44,2.4-1.61,4.59Z"/>
        <path d="M157.01,163.01c-.5,0-.75-.25-.75-.76v-16.12c0-.5.25-.76.76-.76h1.41c.5,0,.76.25.76.76v1.34c.73-.81,1.52-1.4,2.37-1.8.84-.39,1.9-.59,3.16-.59,2.05,0,3.52.57,4.42,1.72.9,1.15,1.34,2.72,1.34,4.71v10.73c0,.5-.25.76-.76.76h-1.44c-.5,0-.76-.25-.76-.76v-9.93c0-2.19-.37-3.59-1.1-4.17-.73-.59-1.66-.88-2.78-.88-1.46,0-2.57.43-3.32,1.3-.75.87-1.13,2.35-1.13,4.46v9.22c0,.5-.25.76-.75.76h-1.43Z"/>
        <path d="M174.35,147.6c-.5,0-.76-.2-.76-.59v-1.04c0-.39.25-.59.76-.59h1.98v-1.51c0-.22.06-.44.17-.64l1.18-2.13c.21-.39.39-.59.52-.59h.59c.34,0,.5.2.5.59v4.28h3.58c.5,0,.76.2.76.59v1.04c0,.39-.25.59-.76.59h-3.58v10.7c0,1.18.18,1.94.53,2.29s.77.53,1.27.53c.38,0,.84-.11,1.37-.34.53-.22.9-.41,1.1-.57.2-.16.36-.11.47.15l.55,1.29c.09.22.02.4-.2.54-.44.26-1.08.51-1.91.75-.84.24-1.68.36-2.52.36-1.16,0-2.06-.42-2.68-1.26-.62-.84-.93-2.03-.93-3.56v-10.88h-1.98Z"/>
        <path d="M187.23,161.37c-.35-.32-.42-.63-.22-.91l.76-1.06c.25-.34.61-.32,1.09.05.66.5,1.4.91,2.21,1.21.81.3,1.74.45,2.78.45.62,0,1.16-.08,1.65-.23.48-.15.9-.43,1.27-.85.36-.41.55-.97.55-1.66,0-.4-.09-.78-.26-1.14-.17-.36-.44-.65-.81-.87-.36-.22-.72-.39-1.07-.51-.57-.21-1.14-.39-1.7-.53-.57-.14-1.31-.36-2.23-.65-.62-.19-1.2-.46-1.75-.81-.55-.35-1.03-.83-1.44-1.43-.41-.6-.61-1.44-.61-2.5s.33-2.02.99-2.8c.66-.78,1.49-1.32,2.49-1.6,1-.29,1.97-.43,2.91-.43,1.39,0,2.5.16,3.35.48.85.32,1.58.7,2.19,1.13.36.26.41.55.15.89l-.76,1.01c-.24.33-.6.31-1.09-.03-.41-.29-1-.57-1.76-.82-.76-.26-1.43-.39-2-.39-.71,0-1.31.08-1.81.24-.5.16-.91.43-1.23.81-.31.38-.47.83-.47,1.34,0,.39.06.74.19,1.05.12.31.35.59.69.85.34.26.81.46,1.41.62.94.25,1.8.47,2.58.67.78.2,1.48.45,2.11.74.82.38,1.45.8,1.89,1.26.44.46.75.95.92,1.49.17.53.25,1.12.25,1.77,0,1.2-.36,2.21-1.07,3.04-.71.83-1.5,1.38-2.38,1.65-.87.27-1.93.41-3.16.41-1.67,0-3.1-.24-4.29-.71-1.19-.48-1.96-.88-2.31-1.22Z"/>
      </g>
      <g>
        <g>
          <polygon class="cls-4" points="24.77 116.5 24.77 20.74 110.47 20.74 205.48 20.74 205.48 116.5 24.77 116.5"/>
          <g>
            <g>
              <polygon class="cls-2" points="200.56 25.67 200.56 111.58 203.9 114.92 203.9 22.33 200.56 25.67"/>
              <g>
                <g>
                  <polygon class="cls-7" points="26.35 22.33 26.35 114.92 28.02 113.25 28.02 24 26.35 22.33"/>
                  <polygon class="cls-6" points="29.69 25.67 28.02 24 28.02 113.25 29.69 111.58 29.69 25.67"/>
                </g>
                <polygon class="cls-9" points="29.69 111.58 26.35 114.92 203.9 114.92 200.56 111.58 29.69 111.58"/>
                <polygon class="cls-2" points="29.69 111.58 28.02 113.25 202.23 113.25 200.56 111.58 29.69 111.58"/>
                <polygon class="cls-9" points="200.56 25.67 200.56 111.58 203.9 114.92 203.9 22.33 200.56 25.67"/>
                <polygon class="cls-2" points="202.23 24 200.56 25.67 200.56 111.58 202.23 113.25 202.23 24"/>
              </g>
            </g>
            <rect class="cls-8" x="29.69" y="25.67" width="170.86" height="85.91"/>
            <g>
              <polygon class="cls-6" points="28.02 24 29.69 25.67 200.56 25.67 202.23 24 28.02 24"/>
              <polygon class="cls-7" points="203.9 22.33 26.35 22.33 28.02 24 202.23 24 203.9 22.33"/>
            </g>
          </g>
          <polygon class="cls-1" points="205.48 20.74 203.9 22.33 203.9 114.92 205.48 116.5 205.48 20.74"/>
          <polygon class="cls-1" points="205.48 116.5 203.9 114.92 26.35 114.92 24.77 116.5 205.48 116.5"/>
        </g>
        <g>
          <polygon class="cls-8" points="90.73 0 42.19 0 24.77 20.74 108.15 20.74 90.73 0"/>
          <polygon class="cls-6" points="89.38 2.89 104.38 20.74 108.15 20.74 90.73 0 42.19 0 24.77 20.74 28.54 20.74 43.54 2.89 89.38 2.89"/>
          <g>
            <polygon class="cls-4" points="42.19 0 24.77 20.74 26.35 20.74 42.56 1.44 42.19 0"/>
            <g>
              <path class="cls-4" d="M42.19,0l.37,1.44h47.79l.37-1.44h-48.53Z"/>
              <polygon class="cls-4" points="90.73 0 90.36 1.44 106.57 20.74 108.15 20.74 90.73 0"/>
            </g>
          </g>
        </g>
        <g>
          <g>
            <polygon class="cls-2" points="187.51 18.59 187.51 97.33 190.85 100.67 190.85 15.25 187.51 18.59"/>
            <g>
              <g>
                <polygon class="cls-4" points="15.38 15.25 15.38 57.96 17.05 56.29 17.05 16.92 15.38 15.25"/>
                <polygon class="cls-5" points="18.72 18.59 17.05 16.92 17.05 56.29 18.72 54.62 18.72 18.59"/>
              </g>
              <polygon class="cls-9" points="18.72 54.62 15.38 57.96 190.85 100.67 187.51 97.33 18.72 54.62"/>
              <polygon class="cls-7" points="18.72 54.62 17.05 56.29 189.18 99 187.51 97.33 18.72 54.62"/>
              <polygon class="cls-9" points="187.51 18.59 187.51 97.33 190.85 100.67 190.85 15.25 187.51 18.59"/>
              <polygon class="cls-7" points="189.18 16.92 187.51 18.59 187.51 97.33 189.18 99 189.18 16.92"/>
            </g>
          </g>
          <polygon class="cls-3" points="18.72 54.62 18.72 18.59 187.51 18.59 187.51 97.33 18.72 54.62"/>
          <g>
            <polygon class="cls-5" points="17.05 16.92 18.72 18.59 187.51 18.59 189.18 16.92 17.05 16.92"/>
            <polygon class="cls-4" points="190.85 15.25 15.38 15.25 17.05 16.92 189.18 16.92 190.85 15.25"/>
          </g>
        </g>
        <g>
          <polygon class="cls-4" points="24.77 116.5 0 37.38 85.7 37.38 180.71 37.38 205.48 116.5 24.77 116.5"/>
          <g>
            <g>
              <polygon class="cls-2" points="177.06 41.44 199.28 112.43 203.49 115.19 179.54 38.68 177.06 41.44"/>
              <g>
                <g>
                  <polygon class="cls-7" points="1.99 38.68 25.94 115.19 27.18 113.81 4.09 40.06 1.99 38.68"/>
                  <polygon class="cls-6" points="6.2 41.44 4.09 40.06 27.18 113.81 28.42 112.43 6.2 41.44"/>
                </g>
                <polygon class="cls-9" points="28.42 112.43 25.94 115.19 203.49 115.19 199.28 112.43 28.42 112.43"/>
                <polygon class="cls-2" points="28.42 112.43 27.18 113.81 201.39 113.81 199.28 112.43 28.42 112.43"/>
                <polygon class="cls-9" points="177.06 41.44 199.28 112.43 203.49 115.19 179.54 38.68 177.06 41.44"/>
                <polygon class="cls-2" points="178.3 40.06 177.06 41.44 199.28 112.43 201.39 113.81 178.3 40.06"/>
              </g>
            </g>
            <polygon class="cls-8" points="28.42 112.43 6.2 41.44 177.06 41.44 199.28 112.43 28.42 112.43"/>
            <g>
              <polygon class="cls-6" points="4.09 40.06 6.2 41.44 177.06 41.44 178.3 40.06 4.09 40.06"/>
              <polygon class="cls-7" points="179.54 38.68 1.99 38.68 4.09 40.06 178.3 40.06 179.54 38.68"/>
            </g>
          </g>
          <polygon class="cls-1" points="180.71 37.38 179.54 38.68 203.49 115.19 205.48 116.5 180.71 37.38"/>
          <polygon class="cls-1" points="205.48 116.5 203.49 115.19 25.94 115.19 24.77 116.5 205.48 116.5"/>
        </g>
      </g>
    </g>
  </g>
</svg>