<?xml version="1.0" encoding="UTF-8"?>
<svg id="Layer_2" xmlns="http://www.w3.org/2000/svg" viewBox="0 0 114.97 115.91">
  <defs>
    <style>
      .cls-1 {
        fill: #2a2927;
      }

      .cls-2 {
        fill: #fff;
      }
    </style>
  </defs>
  <g id="_x31_">
    <g>
      <path class="cls-1" d="M57.48.97C26.32.97.97,26.53.97,57.95s25.35,56.98,56.52,56.98,56.52-25.56,56.52-56.98S88.65.97,57.48.97ZM106.37,76.91c-5.07,2.86-11.1,5.18-17.75,6.96,1.49-7.5,2.34-15.55,2.46-23.85h18.73c-.23,5.93-1.42,11.61-3.44,16.89ZM5.16,60.01h18.73c.12,8.3.97,16.35,2.46,23.85-6.65-1.77-12.68-4.1-17.75-6.96-2.02-5.28-3.21-10.96-3.44-16.89ZM8.6,39c5.07-2.86,11.1-5.18,17.75-6.95-1.49,7.5-2.34,15.55-2.46,23.85H5.16c.23-5.94,1.42-11.61,3.44-16.9ZM59.53,28.2c8.66.13,17.05,1.07,24.73,2.76,1.68,7.75,2.6,16.2,2.73,24.94h-27.47v-27.69ZM59.53,24.08V5.19c5.89.23,11.52,1.43,16.76,3.47,2.83,5.11,5.14,11.19,6.9,17.9-7.44-1.5-15.42-2.36-23.65-2.48ZM55.44,24.08c-8.23.12-16.21.98-23.65,2.48,1.76-6.71,4.07-12.79,6.9-17.9,5.24-2.04,10.87-3.24,16.76-3.47v18.89ZM55.44,28.2v27.69h-27.47c.13-8.73,1.06-17.19,2.73-24.94,7.68-1.69,16.07-2.62,24.73-2.76ZM27.98,60.01h27.47v27.7c-8.66-.13-17.05-1.07-24.73-2.76-1.68-7.75-2.6-16.2-2.73-24.94ZM55.44,91.83v18.89c-5.89-.23-11.52-1.43-16.76-3.47-2.83-5.11-5.14-11.19-6.9-17.9,7.44,1.5,15.42,2.36,23.65,2.48ZM59.53,91.83c8.23-.12,16.21-.98,23.65-2.48-1.76,6.71-4.06,12.79-6.9,17.9-5.24,2.04-10.87,3.24-16.76,3.47v-18.89ZM59.53,87.71v-27.7h27.47c-.13,8.73-1.06,17.19-2.73,24.94-7.68,1.69-16.07,2.63-24.73,2.76ZM91.08,55.89c-.12-8.3-.97-16.35-2.46-23.85,6.66,1.77,12.69,4.1,17.75,6.96,2.02,5.28,3.21,10.96,3.44,16.89h-18.73ZM103.69,33c-4.8-2.21-10.23-4.03-16.04-5.46-1.41-5.87-3.22-11.33-5.41-16.18,9.09,4.93,16.57,12.47,21.46,21.63ZM32.74,11.37c-2.2,4.84-4,10.31-5.41,16.18-5.82,1.43-11.24,3.24-16.05,5.46,4.89-9.16,12.37-16.71,21.46-21.63ZM11.28,82.9c4.8,2.22,10.23,4.03,16.05,5.46,1.41,5.87,3.21,11.33,5.41,16.18-9.09-4.93-16.57-12.47-21.46-21.64ZM82.23,104.54c2.2-4.84,4-10.31,5.41-16.18,5.82-1.43,11.24-3.24,16.04-5.46-4.89,9.16-12.37,16.71-21.46,21.63Z"/>
      <path class="cls-2" d="M57.48.97c31.16,0,56.52,25.56,56.52,56.98s-25.35,56.98-56.52,56.98S.97,89.37.97,57.95,26.32.97,57.48.97h0ZM83.18,26.56c-1.76-6.71-4.07-12.79-6.9-17.9-5.24-2.04-10.87-3.24-16.76-3.47v18.89c8.23.12,16.21.98,23.65,2.48h0ZM31.79,26.56c7.44-1.5,15.42-2.36,23.65-2.48V5.19c-5.89.23-11.52,1.43-16.76,3.47-2.83,5.11-5.14,11.19-6.9,17.9h0ZM11.28,33c4.8-2.21,10.23-4.03,16.05-5.46,1.41-5.87,3.22-11.33,5.41-16.18-9.09,4.93-16.57,12.47-21.46,21.63h0ZM103.69,33c-4.89-9.16-12.37-16.71-21.46-21.63,2.2,4.84,4,10.31,5.41,16.18,5.82,1.43,11.24,3.24,16.04,5.46h0ZM59.53,55.89h27.47c-.13-8.73-1.06-17.19-2.73-24.94-7.68-1.69-16.07-2.62-24.73-2.76v27.69h0ZM27.98,55.89h27.47v-27.69c-8.66.13-17.05,1.07-24.73,2.76-1.68,7.75-2.6,16.2-2.73,24.94h0ZM5.16,55.89h18.73c.12-8.3.97-16.35,2.46-23.85-6.65,1.77-12.68,4.1-17.75,6.95-2.02,5.28-3.21,10.96-3.44,16.9h0ZM91.08,55.89h18.73c-.23-5.93-1.42-11.61-3.44-16.89-5.07-2.86-11.1-5.18-17.75-6.96,1.49,7.5,2.34,15.55,2.46,23.85h0ZM88.62,83.86c6.66-1.77,12.69-4.1,17.75-6.96,2.02-5.28,3.21-10.96,3.44-16.89h-18.73c-.12,8.3-.97,16.35-2.46,23.85h0ZM59.53,87.71c8.66-.13,17.05-1.07,24.73-2.76,1.68-7.75,2.6-16.2,2.73-24.94h-27.47v27.7h0ZM55.44,87.71v-27.7h-27.47c.13,8.73,1.06,17.19,2.73,24.94,7.68,1.69,16.07,2.63,24.73,2.76h0ZM26.35,83.86c-1.49-7.5-2.34-15.55-2.46-23.85H5.16c.23,5.93,1.42,11.61,3.44,16.89,5.07,2.86,11.1,5.18,17.75,6.96h0ZM32.74,104.54c-2.2-4.84-4-10.31-5.41-16.18-5.82-1.43-11.24-3.24-16.05-5.46,4.89,9.16,12.37,16.71,21.46,21.64h0ZM82.23,104.54c9.09-4.93,16.57-12.47,21.46-21.63-4.8,2.21-10.23,4.03-16.04,5.46-1.41,5.86-3.21,11.33-5.41,16.18h0ZM55.44,110.71v-18.89c-8.23-.12-16.21-.98-23.65-2.48,1.76,6.71,4.07,12.79,6.9,17.9,5.24,2.04,10.87,3.24,16.76,3.47h0ZM59.53,110.71c5.89-.23,11.52-1.43,16.76-3.47,2.83-5.11,5.14-11.19,6.9-17.9-7.44,1.5-15.42,2.36-23.65,2.48v18.89h0ZM57.48,0C25.79,0,0,26,0,57.95s25.79,57.95,57.48,57.95,57.48-26,57.48-57.95S89.18,0,57.48,0h0ZM60.5,23.13V6.21c5.21.3,10.28,1.39,15.11,3.23,2.46,4.51,4.56,9.85,6.23,15.87-6.85-1.29-14.02-2.02-21.34-2.18h0ZM39.37,9.44c4.82-1.84,9.9-2.92,15.11-3.23v16.92c-7.32.16-14.49.89-21.34,2.18,1.68-6.03,3.77-11.36,6.23-15.87h0ZM13.57,30.95c4.28-7.06,10.13-12.96,17.13-17.28-1.61,3.96-3.01,8.34-4.17,13.08-4.7,1.18-9.04,2.59-12.96,4.2h0ZM88.44,26.75c-1.17-4.74-2.57-9.12-4.17-13.08,7,4.32,12.85,10.22,17.13,17.28-3.92-1.62-8.26-3.03-12.96-4.2h0ZM60.5,54.92v-25.74c8.05.18,15.76,1.05,22.95,2.58,1.52,7.25,2.39,15.04,2.56,23.15h-25.51ZM31.53,31.77c7.19-1.54,14.9-2.4,22.95-2.58v25.74h-25.51c.18-8.12,1.04-15.9,2.56-23.15h0ZM9.38,39.67c4.47-2.48,9.76-4.59,15.73-6.28-1.28,6.91-2.01,14.14-2.17,21.53H6.17c.3-5.26,1.38-10.38,3.2-15.25h0ZM92.03,54.92c-.16-7.39-.88-14.62-2.17-21.53,5.97,1.69,11.25,3.8,15.73,6.28,1.83,4.87,2.9,9.99,3.2,15.25h-16.76ZM92.03,60.98h16.76c-.3,5.26-1.38,10.38-3.2,15.25-4.47,2.48-9.76,4.59-15.73,6.28,1.28-6.91,2.01-14.14,2.16-21.53h0ZM60.5,60.98h25.51c-.18,8.12-1.04,15.9-2.56,23.15-7.19,1.54-14.9,2.41-22.95,2.58v-25.74h0ZM28.96,60.98h25.51v25.74c-8.05-.18-15.76-1.05-22.95-2.58-1.53-7.25-2.39-15.04-2.56-23.15h0ZM6.17,60.98h16.77c.16,7.39.88,14.62,2.16,21.53-5.97-1.69-11.25-3.8-15.73-6.28-1.83-4.87-2.9-9.99-3.2-15.25h0ZM30.7,102.24c-7-4.32-12.85-10.22-17.13-17.28,3.92,1.62,8.26,3.03,12.96,4.2,1.17,4.74,2.57,9.12,4.17,13.08h0ZM88.44,89.16c4.7-1.18,9.04-2.59,12.96-4.2-4.28,7.06-10.13,12.96-17.13,17.28,1.61-3.95,3-8.34,4.17-13.08h0ZM39.36,106.47c-2.46-4.51-4.56-9.85-6.23-15.87,6.85,1.29,14.02,2.02,21.34,2.18v16.92c-5.21-.3-10.28-1.39-15.11-3.23h0ZM60.5,92.78c7.32-.16,14.49-.89,21.34-2.18-1.68,6.03-3.77,11.36-6.23,15.87-4.83,1.84-9.9,2.92-15.11,3.23v-16.92h0Z"/>
    </g>
  </g>
</svg>