<?xml version="1.0" encoding="UTF-8"?>
<svg id="Layer_2" xmlns="http://www.w3.org/2000/svg" viewBox="0 0 2256.1 2515.05">
  <defs>
    <style>
      .cls-1 {
        fill: #231f20;
      }
    </style>
  </defs>
  <g id="Layer_1-2" data-name="Layer_1">
    <g>
      <path class="cls-1" d="M2220.27,1103.99c-23.09-89.35-57.27-175.79-101.57-256.92-43.5-79.67-96.7-154.11-158.12-221.25-61.23-66.94-130.45-126.43-205.75-176.83l-65.49-43.84-163.99,245,65.49,43.84c231.96,155.26,370.44,414.33,370.44,693.02,0,459.45-373.79,833.23-833.23,833.23s-833.23-373.79-833.23-833.23c0-281.2,140.43-541.56,375.64-696.47l65.82-43.35-162.16-246.22-65.82,43.35c-76.27,50.23-146.42,109.73-208.52,176.86-62.26,67.31-116.21,142.06-160.35,222.17-44.95,81.58-79.62,168.56-103.06,258.54C12.24,1194.54,0,1290.46,0,1387c0,76.44,7.71,152.87,22.92,227.18,14.83,72.49,36.97,143.8,65.79,211.95,28.28,66.87,63.28,131.36,104.03,191.67,40.33,59.7,86.65,115.84,137.66,166.85,51.01,51.01,107.14,97.32,166.85,137.66,60.31,40.75,124.8,75.75,191.67,104.03,68.14,28.82,139.45,50.96,211.95,65.79,74.31,15.21,150.75,22.91,227.19,22.91s152.88-7.71,227.19-22.91c72.5-14.84,143.81-36.97,211.95-65.79,66.87-28.28,131.36-63.29,191.68-104.03,59.7-40.34,115.84-86.65,166.84-137.66,51.01-51.01,97.32-107.14,137.66-166.85,40.75-60.31,75.75-124.8,104.03-191.67,28.82-68.14,50.96-139.45,65.79-211.95,15.21-74.3,22.92-150.74,22.92-227.19,0-95.8-12.06-191.03-35.83-283.02Z"/>
      <rect class="cls-1" x="980.64" width="294.82" height="1032.52"/>
    </g>
  </g>
</svg>